<svg width="334" height="335" viewBox="0 0 334 335" fill="none" xmlns="http://www.w3.org/2000/svg">
<g clip-path="url(#clip0_44_2062)">
<g opacity="0.2">
<path d="M277.393 275.59C328.344 224.639 328.344 142.03 277.393 91.0791C226.442 40.1279 143.834 40.1279 92.8824 91.0791C41.9312 142.03 41.9312 224.639 92.8824 275.59C143.834 326.541 226.442 326.541 277.393 275.59Z" fill="#3E92CC"/>
</g>
<path d="M272.973 106.827C290.955 106.827 305.532 92.2505 305.532 74.2689C305.532 56.2874 290.955 41.7104 272.973 41.7104C254.992 41.7104 240.415 56.2874 240.415 74.2689C240.415 92.2505 254.992 106.827 272.973 106.827Z" fill="#2E4052"/>
<path d="M270.462 93.2651C265.647 93.1933 261.531 91.719 260.461 89.6837C259.522 87.9028 260.461 84.9477 261.766 84.2105C262.333 83.9039 262.881 84.0866 264.441 84.5824C267.357 85.4956 275.922 88.0659 277.631 85.5544C277.949 85.0232 278.137 84.424 278.179 83.8061C278.277 77.4457 270.847 77.4457 264.917 74.9668C259.554 72.7228 258.23 59.1344 266.593 55.9119C271.962 53.8374 277.683 56.2576 282.041 60.0216C282.286 60.2387 282.462 60.5238 282.546 60.8408C282.629 61.1578 282.617 61.4925 282.51 61.8025C281.636 64.4706 280.058 65.1882 277.063 63.479C274.324 61.9199 269.738 61.8417 268.407 64.4706C267.689 65.8797 268.407 67.6149 268.524 67.9476C270.827 73.2316 278.89 70.8962 283.026 75.3256C285.961 78.4699 286.079 83.8583 284.494 87.0678C282.184 91.7647 275.485 93.3433 270.462 93.2651Z" fill="white"/>
<path d="M274.447 51.2847L272.229 51.2503C271.577 51.2401 271.04 51.7605 271.03 52.4125L270.353 96.0295C270.342 96.6815 270.863 97.2183 271.515 97.2284L273.733 97.2629C274.385 97.273 274.921 96.7527 274.932 96.1006L275.609 52.4837C275.619 51.8316 275.099 51.2949 274.447 51.2847Z" fill="white"/>
<path d="M272.98 101.824C267.511 101.825 262.167 100.198 257.625 97.1516C253.084 94.1052 249.552 89.7764 247.479 84.7164C245.406 79.6564 244.885 74.0938 245.983 68.7368C247.08 63.3798 249.747 58.4706 253.644 54.634C257.541 50.7974 262.491 48.207 267.864 47.1924C273.237 46.1777 278.791 46.7848 283.818 48.9364C288.846 51.088 293.119 54.6867 296.095 59.2745C299.07 63.8623 300.614 69.2318 300.528 74.6994C300.409 81.9293 297.454 88.8231 292.302 93.8962C287.149 98.9694 280.211 101.816 272.98 101.824ZM272.98 48.0251C267.805 48.0257 262.746 49.5556 258.439 52.4225C254.131 55.2895 250.767 59.3656 248.769 64.1387C246.771 68.9118 246.228 74.1689 247.208 79.2496C248.189 84.3304 250.649 89.008 254.28 92.6947C257.911 96.3815 262.55 98.913 267.615 99.9711C272.68 101.029 277.945 100.567 282.748 98.6417C287.551 96.7168 291.678 93.4152 294.611 89.1519C297.543 84.8886 299.15 79.8537 299.23 74.6799C299.28 71.1991 298.638 67.7431 297.341 64.5126C296.045 61.2821 294.119 58.3415 291.676 55.8615C289.233 53.3816 286.322 51.4118 283.111 50.0665C279.9 48.7212 276.454 48.0273 272.973 48.0251H272.98Z" fill="white"/>
<path d="M169.035 49.8126C169.035 49.8126 176.42 70.0353 167.3 81.3208C158.18 92.6063 173.908 103.096 173.908 103.096L205.984 95.3919L203.309 66.7735C203.309 66.7735 184.913 43.8437 169.035 49.8126Z" fill="#2E4052"/>
<path d="M195.214 81.3206C195.214 81.3206 180.353 80.9162 170.262 90.3752C160.17 99.8341 142.589 116.71 142.589 116.71L102.053 108.315L98.2821 116.723C98.2821 116.723 137.586 134.102 149.224 132.216C160.861 130.331 185.103 105.17 185.103 105.17C185.103 105.17 201.274 94.2696 195.214 81.3206Z" fill="white"/>
<path d="M98.0147 117.311C97.9354 117.276 97.8639 117.226 97.8042 117.163C97.7444 117.101 97.6977 117.027 97.6668 116.946C97.6358 116.866 97.6212 116.78 97.6238 116.693C97.6264 116.607 97.6462 116.522 97.682 116.443L101.459 108.041C101.52 107.906 101.624 107.796 101.756 107.728C101.888 107.661 102.038 107.64 102.183 107.669L142.413 116.006C144.592 113.918 160.542 98.6275 169.844 89.9122C179.982 80.401 194.633 80.6619 195.233 80.6815C195.354 80.6843 195.472 80.7205 195.573 80.7861C195.674 80.8518 195.756 80.9443 195.808 81.0533C201.835 93.9502 186.609 104.91 185.514 105.673C184.007 107.238 160.901 130.984 149.328 132.862C138.949 134.526 107.558 121.531 98.0147 117.311ZM99.1432 116.378C104.134 118.544 138.571 133.28 149.119 131.558C160.509 129.712 184.574 104.72 184.724 104.616C184.874 104.512 200.061 94.1002 194.79 81.9731C192.363 81.9731 179.564 82.5668 170.738 90.8515C160.79 100.18 143.248 117.017 143.072 117.187C142.995 117.26 142.901 117.313 142.799 117.341C142.696 117.369 142.589 117.372 142.485 117.35L102.418 109.052L99.1432 116.378Z" fill="#2E4052"/>
<path d="M191.848 81.4839C196.108 81.1773 202.722 81.3991 208.809 85.1892C216.428 89.9383 215.776 94.4264 235.698 117.265C267.135 105.647 265.974 106.143 265.974 106.077C267.597 105.065 269.411 104.399 271.303 104.12L271.858 103.918L271.916 104.016C274.408 103.611 276.985 103.494 279.327 102.894C283.652 101.791 289.112 95.8028 291.904 95.8159C294.696 95.8289 294.657 96.527 291.043 102.816C287.429 109.104 275.609 115.171 275.609 115.171C267.737 121.222 259.068 126.159 249.848 129.842C244.303 132.06 240.226 133.691 236.148 133.932C215.071 135.185 197.66 98.7058 195.586 94.309C194.862 94.4786 192.265 95.0461 190.569 93.6566C188.234 91.7648 188.11 86.4678 191.848 81.4839Z" fill="white"/>
<path d="M235.092 134.617C217.909 134.617 202.559 110.533 195.233 95.0526C193.113 95.4505 191.378 95.1504 190.184 94.1849C187.575 92.0844 187.288 86.4808 191.326 81.0924C191.382 81.0173 191.453 80.9551 191.536 80.91C191.618 80.865 191.709 80.8382 191.802 80.8315C198.489 80.3487 204.327 81.6273 209.154 84.6412C216.865 89.4424 216.258 93.9371 235.901 116.502L265.687 105.49C267.348 104.46 269.201 103.776 271.134 103.481C271.688 103.272 271.845 103.174 272.138 103.311C272.96 103.181 273.795 103.083 274.604 102.985C279.895 102.333 280.567 102.202 285.818 98.4187C288.219 96.6769 290.299 95.1569 291.904 95.1569C292.818 95.1569 293.907 95.2091 294.357 95.9985C294.944 97.0161 294.227 98.6078 291.617 103.135C288.016 109.391 276.848 115.256 275.961 115.719C268.062 121.796 259.362 126.755 250.109 130.455C244.988 132.491 239.991 134.617 235.092 134.617ZM195.605 93.6565C195.729 93.6575 195.85 93.6935 195.954 93.7605C196.058 93.8275 196.14 93.9227 196.192 94.0349C199.813 101.727 204.194 109.037 209.272 115.856C218.476 127.931 227.537 133.789 236.129 133.28C240.082 133.045 244.081 131.447 249.606 129.242C258.768 125.57 267.382 120.655 275.204 114.636C275.248 114.604 275.297 114.577 275.348 114.558C276.072 114.179 287.09 108.354 290.476 102.476C291.545 100.624 293.529 97.1727 293.215 96.6051C293.215 96.6051 293.085 96.429 291.911 96.4225C290.737 96.416 288.649 97.9424 286.581 99.4233C281.147 103.337 280.312 103.592 274.761 104.251C271.773 104.603 272.008 104.662 271.766 104.603C271.656 104.65 271.543 104.689 271.427 104.72C269.565 104.983 267.784 105.651 266.208 106.677L235.933 117.865C235.809 117.911 235.674 117.918 235.546 117.885C235.418 117.853 235.303 117.782 235.216 117.682C215.306 94.8503 215.932 90.3818 208.469 85.7175C203.949 82.9059 198.476 81.686 192.193 82.084C188.932 86.6504 188.932 91.4451 191 93.1738C192.624 94.485 195.39 93.6565 195.605 93.6565Z" fill="#2E4052"/>
<path d="M106.025 111.811C106.025 111.811 114.369 147.821 98.2756 171.546C82.1823 195.272 101.035 212.54 103.233 231.921C105.432 251.302 100.011 263.005 100.011 263.005L18.3961 251.302C18.3961 251.302 30.3209 231.034 23.5626 205.997C16.8044 180.96 31.5082 161.846 34.6916 145.368C37.8751 128.89 33.9219 104.055 33.9219 104.055L106.025 111.811Z" fill="white"/>
<path d="M100.011 263.657C99.9325 263.657 101.381 263.86 18.3048 251.948C18.1984 251.933 18.0975 251.892 18.0109 251.828C17.9242 251.765 17.8546 251.681 17.8081 251.584C17.7617 251.487 17.7398 251.381 17.7445 251.273C17.7492 251.166 17.7803 251.062 17.8351 250.969C17.9525 250.767 29.5381 230.629 22.9299 206.166C16.1064 180.868 30.8819 161.65 34.0523 145.244C37.1836 129.072 33.2695 104.401 33.2695 104.159C33.2538 104.06 33.2612 103.959 33.2912 103.863C33.3212 103.767 33.373 103.679 33.4424 103.606C33.5119 103.534 33.5972 103.478 33.6917 103.444C33.7861 103.41 33.8872 103.398 33.9871 103.409L106.11 111.159C106.245 111.173 106.373 111.229 106.474 111.319C106.576 111.409 106.647 111.529 106.678 111.661C106.763 112.027 114.904 148.225 98.8496 171.912C83.0107 195.253 101.707 212.409 103.912 231.843C106.117 251.276 100.859 262.796 100.65 263.279C100.595 263.4 100.504 263.501 100.39 263.568C100.275 263.636 100.143 263.667 100.011 263.657ZM19.4137 250.787L99.5998 262.268C100.526 259.965 104.499 248.856 102.581 231.973C100.402 212.742 81.4125 195.213 97.7341 171.155C112.516 149.367 106.365 116.613 105.484 112.385L34.6655 104.792C35.3179 109.293 38.1621 130.808 35.3179 145.492C32.1214 162.055 17.4893 181.038 24.1824 205.827C30.1709 227.981 21.5273 246.664 19.4137 250.787Z" fill="#2E4052"/>
<path d="M166.295 304.84V289.588L193.094 288.825L192.194 313.803H155.747C155.747 313.803 158.324 306.412 166.295 304.84Z" fill="white"/>
<path d="M192.193 314.455H155.747C155.643 314.455 155.541 314.43 155.449 314.382C155.356 314.334 155.277 314.264 155.217 314.179C155.157 314.095 155.118 313.997 155.104 313.894C155.089 313.791 155.1 313.686 155.134 313.588C155.238 313.281 157.815 306.144 165.65 304.311V289.588C165.65 289.415 165.718 289.249 165.841 289.127C165.963 289.004 166.129 288.936 166.302 288.936L193.094 288.172C193.267 288.172 193.433 288.241 193.555 288.363C193.677 288.486 193.746 288.652 193.746 288.825L192.846 313.803C192.846 313.976 192.777 314.142 192.655 314.264C192.532 314.387 192.366 314.455 192.193 314.455ZM156.745 313.151H191.567L192.441 289.497L167 290.221V304.84C167.003 304.992 166.953 305.141 166.857 305.26C166.762 305.38 166.628 305.462 166.478 305.492C160.509 306.627 157.691 311.194 156.745 313.151Z" fill="#2E4052"/>
<path d="M247.995 212.644L233.213 216.402L226.363 192.539L250.774 187.177L259.131 219.898C259.131 219.898 251.342 219.409 247.995 212.644Z" fill="white"/>
<path d="M259.052 220.55C258.733 220.55 251.224 219.983 247.656 213.375L233.376 217.008C233.212 217.051 233.037 217.027 232.89 216.943C232.743 216.859 232.634 216.721 232.587 216.558L225.711 192.715C225.687 192.629 225.68 192.539 225.692 192.451C225.704 192.363 225.733 192.278 225.779 192.201C225.825 192.125 225.886 192.059 225.958 192.007C226.031 191.955 226.113 191.918 226.2 191.899L250.611 186.544C250.776 186.508 250.948 186.538 251.092 186.627C251.235 186.715 251.339 186.856 251.381 187.02L259.737 219.735C259.764 219.836 259.765 219.942 259.743 220.043C259.72 220.145 259.673 220.24 259.606 220.32C259.539 220.4 259.453 220.462 259.357 220.503C259.261 220.543 259.156 220.559 259.052 220.55ZM247.995 211.992C248.115 211.992 248.234 212.026 248.336 212.089C248.438 212.152 248.521 212.243 248.576 212.35C251.061 217.367 256.149 218.756 258.224 219.122L250.265 187.953L227.153 193.022L233.676 215.612C248.667 211.796 247.891 211.992 247.995 211.992Z" fill="#2E4052"/>
<path d="M105.888 109.098C105.888 109.098 100.089 105.947 97.408 105.947C94.7268 105.947 89.3124 108.758 88.6796 110.852C88.0468 112.946 91.8239 111.59 94.5507 110.852C97.2775 110.115 105.993 111.811 105.993 111.811L105.888 109.098Z" fill="white"/>
<path d="M89.6712 112.62C88.2817 112.62 87.7142 111.779 88.0664 110.663C88.8231 108.139 94.7268 105.294 97.4145 105.294C100.22 105.294 105.96 108.393 106.202 108.556C106.277 108.599 106.342 108.656 106.395 108.724C106.448 108.793 106.487 108.871 106.51 108.954C106.532 109.037 106.538 109.124 106.528 109.21C106.517 109.296 106.489 109.378 106.446 109.453C106.403 109.528 106.346 109.594 106.278 109.647C106.21 109.7 106.132 109.738 106.048 109.761C105.965 109.784 105.878 109.79 105.792 109.779C105.707 109.768 105.624 109.741 105.549 109.698C103.977 108.843 99.4433 106.625 97.3884 106.625C94.8573 106.625 89.7886 109.404 89.2863 111.068C89.2565 111.149 89.2432 111.236 89.2472 111.322C89.7364 111.642 93.1156 110.591 94.3876 110.246C97.2514 109.476 105.765 111.126 106.13 111.198C106.299 111.231 106.449 111.33 106.545 111.473C106.642 111.616 106.678 111.792 106.645 111.961C106.612 112.131 106.513 112.28 106.37 112.377C106.227 112.473 106.051 112.509 105.882 112.477C103.507 112.014 96.8731 110.937 94.7334 111.505C93.1025 111.922 90.9824 112.62 89.6712 112.62Z" fill="#2E4052"/>
<path d="M170.314 108.458C172.153 97.8381 173.53 92.9194 177.17 88.777C178.57 87.197 180.189 85.8261 181.978 84.7064C182.928 84.1112 183.711 83.2852 184.255 82.3053C184.799 81.3254 185.086 80.2236 185.089 79.1027V62.6506H198.606V78.7635C198.618 79.6796 198.861 80.5779 199.311 81.3758C199.761 82.1737 200.405 82.8457 201.183 83.3299C210.57 89.4293 204.177 101.015 211.881 152.191L165.565 152.139C166.241 137.495 167.827 122.906 170.314 108.458Z" fill="white"/>
<path d="M211.881 152.85L165.565 152.798C165.392 152.798 165.226 152.729 165.104 152.607C164.981 152.485 164.912 152.319 164.912 152.146C165.567 137.469 167.151 122.849 169.655 108.373C171.482 97.812 172.858 92.7172 176.661 88.3725C178.101 86.7458 179.766 85.3334 181.606 84.178C182.466 83.6441 183.176 82.8996 183.668 82.0149C184.16 81.1302 184.418 80.1346 184.418 79.1223V62.6506C184.418 62.4776 184.486 62.3117 184.609 62.1894C184.731 62.067 184.897 61.9983 185.07 61.9983H198.586C198.759 61.9983 198.925 62.067 199.048 62.1894C199.17 62.3117 199.239 62.4776 199.239 62.6506V78.7635C199.252 79.5721 199.467 80.3645 199.865 81.0687C200.262 81.7728 200.83 82.3663 201.515 82.795C211.301 89.1488 204.777 100.878 212.507 152.1C212.521 152.191 212.516 152.285 212.491 152.374C212.466 152.463 212.423 152.545 212.363 152.616C212.304 152.687 212.231 152.745 212.147 152.785C212.064 152.825 211.974 152.848 211.881 152.85ZM166.269 151.493L211.118 151.546C203.668 101.4 209.755 89.6838 200.824 83.8844C199.956 83.3385 199.238 82.5839 198.737 81.6893C198.236 80.7948 197.966 79.7889 197.954 78.7635V63.303H185.742V79.0832C185.743 80.3157 185.43 81.5282 184.832 82.6058C184.234 83.6835 183.37 84.5906 182.324 85.2413C180.588 86.329 179.017 87.6603 177.659 89.1945C174.065 93.2847 172.741 98.2556 170.96 108.556C171.168 108.569 167.594 124.454 166.269 151.493Z" fill="#2E4052"/>
<path d="M165.865 146.301C160.763 160.483 156.947 175.096 154.462 189.962C150.887 211.3 149.243 222.103 155.232 228.248C162.734 235.92 177.496 232.077 202.05 227.067C215.195 224.383 228.045 220.415 240.415 215.221L231.582 190.771L190.667 198.991L176.355 147.331L165.865 146.301Z" fill="#2E4052"/>
<path d="M165.865 146.301L165.584 297.364H193.309C193.309 297.364 195.312 212.631 203.877 190.51C212.442 168.389 214.275 154.553 210.361 141.154L165.865 146.301Z" fill="#2E4052"/>
<path d="M165.591 42.4281C166.498 28.481 182.03 20.2484 193.87 28.4353C197.321 29.1034 200.572 30.556 203.372 32.6808C206.173 34.8055 208.447 37.5456 210.019 40.6894C211.592 43.8331 212.42 47.2963 212.441 50.8113C212.462 54.3263 211.675 57.799 210.14 60.9612C208.569 64.1659 206.273 66.9602 203.433 69.122C198.423 73.6884 190.634 78.0134 180.177 76.0238C165.728 73.2709 164.769 54.9922 165.591 42.4281Z" fill="white"/>
<path d="M180.047 76.663C168.67 74.4973 163.588 62.9638 164.932 42.3563C165.891 27.6851 182.004 19.596 194.124 27.796C198.573 28.6791 202.673 30.8276 205.931 33.9834C209.189 37.1392 211.466 41.1683 212.491 45.5869C213.515 50.0055 213.242 54.6258 211.705 58.8931C210.168 63.1604 207.431 66.8934 203.825 69.6438C197.243 75.5997 189.075 78.3852 180.047 76.663ZM166.237 42.428C164.932 62.2658 169.675 73.3491 180.295 75.3714C190.7 77.3284 198.378 72.8012 202.99 68.6262C205.758 66.5235 208.002 63.8084 209.546 60.6937C211.043 57.6201 211.814 54.2432 211.797 50.8243C211.78 47.4054 210.977 44.0362 209.449 40.9774C207.922 37.9187 205.711 35.2524 202.988 33.185C200.265 31.1176 197.103 29.7044 193.746 29.055C193.198 28.9441 189.923 25.9433 183.961 25.8324C174.672 25.6367 166.876 32.9495 166.256 42.4411L166.237 42.428Z" fill="#2E4052"/>
<path d="M200.009 81.3208C200.009 81.3208 188.684 86.0177 183.38 82.4428C177.797 83.7135 172.631 86.3927 168.376 90.2253C161.142 96.6705 148.408 110.115 148.408 110.115L161.038 127.076L167.307 122.595L163.66 150.789L215.391 147.488L210.055 120.096L217.759 126.9L231.256 110.924C231.256 110.924 214.947 87.4398 211.17 84.7456C207.393 82.0514 200.009 81.3208 200.009 81.3208Z" fill="#3E92CC"/>
<path d="M100.657 118.002C100.657 118.002 105.034 147.018 93.9049 161.709C82.7759 176.4 83.9697 193.498 87.9425 203.831C91.9152 214.164 100.657 233.636 95.888 254.714L30.3209 244.778C30.3209 244.778 36.3747 219.05 30.3209 197.64C24.2672 176.23 41.0455 159.334 43.0547 141.056C45.0639 122.777 40.6736 110.852 40.6736 110.852L100.657 118.002Z" fill="white"/>
<path d="M95.8945 255.366C95.8097 255.366 99.0062 255.842 30.2231 245.424C30.1362 245.411 30.0529 245.38 29.9782 245.334C29.9035 245.288 29.8389 245.227 29.7883 245.155C29.7378 245.083 29.7022 245.002 29.6839 244.916C29.6656 244.83 29.6648 244.741 29.6816 244.655C29.7469 244.4 35.631 218.841 29.6816 197.842C23.5561 176.113 40.4453 159.152 42.4023 140.984C44.3594 123.09 40.0931 111.192 40.0539 111.074C40.0183 110.973 40.0083 110.864 40.0247 110.758C40.0411 110.652 40.0834 110.552 40.1479 110.466C40.2125 110.38 40.2972 110.311 40.3946 110.266C40.492 110.221 40.599 110.201 40.7063 110.207L100.722 117.382C100.864 117.4 100.997 117.463 101.1 117.563C101.202 117.664 101.269 117.795 101.289 117.937C101.472 119.131 105.575 147.384 94.4137 162.14C83.7348 176.243 84.3807 192.8 88.5426 203.635C88.8492 204.425 89.195 205.273 89.5342 206.166C93.807 217.041 100.97 235.235 96.5208 254.883C96.4837 255.021 96.4023 255.143 96.2891 255.23C96.176 255.318 96.0374 255.365 95.8945 255.366ZM31.1038 244.237L95.3857 253.977C99.4694 234.948 92.5023 217.243 88.3273 206.617C87.9686 205.716 87.6359 204.875 87.3358 204.079C83.0499 192.937 82.3845 175.858 93.383 161.324C101.27 150.887 101.785 131.584 100.083 118.596L41.5804 111.622C42.5589 114.884 45.3444 125.876 43.6809 141.128C41.6782 159.569 24.9717 176.354 30.9472 197.464C36.4269 216.839 32.004 239.971 31.1038 244.237Z" fill="#2E4052"/>
<path d="M58.3 202.741C54.5003 202.741 50.7859 201.615 47.6266 199.504C44.4673 197.393 42.0049 194.392 40.5508 190.882C39.0968 187.371 38.7163 183.509 39.4576 179.782C40.1989 176.055 42.0286 172.632 44.7154 169.945C47.4022 167.259 50.8253 165.429 54.552 164.688C58.2787 163.946 62.1415 164.327 65.6519 165.781C69.1624 167.235 72.1628 169.697 74.2738 172.857C76.3848 176.016 77.5115 179.73 77.5115 183.53C77.5063 188.624 75.4806 193.507 71.8788 197.109C68.2771 200.71 63.3936 202.736 58.3 202.741ZM58.3 165.623C54.7583 165.623 51.2962 166.673 48.3515 168.641C45.4067 170.609 43.1115 173.405 41.7562 176.677C40.4009 179.949 40.0463 183.55 40.7372 187.023C41.4282 190.497 43.1336 193.688 45.6379 196.192C48.1422 198.696 51.3329 200.402 54.8065 201.093C58.2801 201.784 61.8806 201.429 65.1526 200.074C68.4247 198.718 71.2213 196.423 73.189 193.478C75.1566 190.534 76.2068 187.072 76.2068 183.53C76.2016 178.782 74.3134 174.231 70.9563 170.874C67.5992 167.516 63.0476 165.628 58.3 165.623Z" fill="#2E4052"/>
<path d="M165.584 229.709C165.411 229.709 165.245 229.641 165.123 229.518C165.001 229.396 164.932 229.23 164.932 229.057V152.146C164.932 151.973 165.001 151.807 165.123 151.684C165.245 151.562 165.411 151.493 165.584 151.493C165.757 151.493 165.923 151.562 166.046 151.684C166.168 151.807 166.237 151.973 166.237 152.146V229.057C166.237 229.23 166.168 229.396 166.046 229.518C165.923 229.641 165.757 229.709 165.584 229.709Z" fill="white"/>
<path d="M197.419 227.792C197.258 227.792 197.102 227.734 196.981 227.626C196.861 227.519 196.784 227.371 196.766 227.211C196.01 220.753 200.987 198.195 201.202 197.236C201.24 197.067 201.343 196.92 201.488 196.827C201.634 196.734 201.81 196.703 201.979 196.74C202.147 196.777 202.294 196.88 202.387 197.026C202.48 197.171 202.511 197.348 202.474 197.516C202.422 197.751 197.334 220.818 198.065 227.061C198.076 227.152 198.067 227.245 198.04 227.333C198.012 227.421 197.967 227.502 197.906 227.571C197.845 227.64 197.77 227.696 197.686 227.734C197.602 227.771 197.511 227.791 197.419 227.792Z" fill="white"/>
<path d="M184.913 30.6337C184.913 30.6337 191.045 29.0616 193.563 35.6633C196.081 42.265 198.202 47.2228 200.557 47.1445C202.912 47.0662 203.857 44.3134 206.428 45.8398C208.998 47.3663 207.922 55.1944 205.482 56.3752C203.042 57.5559 201.32 56.5317 199.982 58.6519C198.645 60.772 194.849 77.4133 197.497 82.2341C200.146 87.0549 208.587 84.1911 209.65 84.3216C210.714 84.4521 221.008 96.7161 221.008 96.7161C221.008 96.7161 228.438 92.5803 221.993 76.5652C215.547 60.5502 222.195 42.9434 212.423 33.354C202.651 23.7645 192.441 15.5385 183.341 23.3992C183.341 23.3992 175.794 19.9418 168.403 26.2304C161.011 32.519 165.376 47.3728 165.376 47.3728C165.376 47.3728 166.348 26.3869 184.913 30.6337Z" fill="#2E4052"/>
<path d="M66.2064 190.993C65.13 191.521 63.3817 190.927 62.9447 190.112C62.762 189.747 62.9055 189.394 63.2056 188.514C63.7992 186.792 65.4692 181.716 63.9949 180.653C63.682 180.455 63.3265 180.334 62.9577 180.301C59.1676 180.144 59.0436 184.58 57.4715 188.083C56.0233 191.345 47.8951 191.769 46.1207 186.779C44.9661 183.517 46.4991 180.164 48.8149 177.613C48.9492 177.471 49.1219 177.372 49.3119 177.327C49.5019 177.281 49.701 177.293 49.8847 177.359C51.4634 177.926 51.8744 178.879 50.8045 180.62C49.826 182.238 49.7086 184.972 51.2612 185.807C51.5906 185.945 51.9444 186.016 52.3017 186.016C52.659 186.016 53.0127 185.945 53.3422 185.807C56.5321 184.502 55.26 179.661 57.9673 177.261C59.9243 175.558 63.1143 175.571 64.993 176.563C69.8008 179.1 69.1811 189.525 66.2064 190.993Z" fill="#2E4052"/>
<path d="M43.4823 182.531L43.4667 182.902C43.4394 183.554 43.9454 184.104 44.597 184.131L69.6837 185.183C70.3352 185.21 70.8855 184.704 70.9128 184.053L70.9284 183.681C70.9557 183.03 70.4496 182.479 69.7981 182.452L44.7114 181.401C44.0599 181.373 43.5096 181.879 43.4823 182.531Z" fill="#2E4052"/>
<path d="M210.009 120.103C209.853 120.105 209.701 120.05 209.581 119.95C209.461 119.849 209.382 119.709 209.357 119.555L206.793 103.996C206.779 103.911 206.783 103.823 206.803 103.739C206.823 103.654 206.859 103.575 206.91 103.504C206.961 103.434 207.025 103.375 207.099 103.329C207.173 103.284 207.255 103.253 207.341 103.239C207.427 103.226 207.514 103.229 207.599 103.249C207.683 103.269 207.763 103.306 207.833 103.357C207.903 103.408 207.963 103.472 208.008 103.546C208.053 103.62 208.084 103.702 208.098 103.787L210.655 119.346C210.67 119.439 210.665 119.535 210.639 119.626C210.614 119.717 210.569 119.802 210.507 119.874C210.446 119.946 210.369 120.003 210.283 120.043C210.197 120.083 210.104 120.103 210.009 120.103Z" fill="white"/>
<path d="M167.326 123.214C167.153 123.214 166.987 123.146 166.865 123.023C166.743 122.901 166.674 122.735 166.674 122.562L166.785 115.314C165.379 113.044 164.806 110.356 165.163 107.71C165.519 105.063 166.785 102.623 168.742 100.806L169.603 94.0415C169.624 93.8684 169.714 93.7111 169.852 93.6041C169.92 93.5511 169.998 93.512 170.081 93.4891C170.164 93.4662 170.251 93.4599 170.337 93.4707C170.422 93.4814 170.505 93.5088 170.58 93.5515C170.655 93.5942 170.721 93.6512 170.774 93.7194C170.827 93.7875 170.866 93.8654 170.889 93.9487C170.912 94.0319 170.918 94.1189 170.908 94.2045C169.942 101.798 170.059 101.38 169.805 101.609C167.989 103.233 166.813 105.452 166.488 107.867C166.162 110.281 166.709 112.733 168.031 114.779C168.181 115.014 168.142 114.466 168.031 122.608C168.025 122.694 168.002 122.778 167.963 122.856C167.925 122.933 167.871 123.002 167.805 123.058C167.74 123.115 167.664 123.158 167.581 123.185C167.499 123.211 167.412 123.221 167.326 123.214Z" fill="white"/>
<path d="M195.742 47.5425C195.604 47.543 195.469 47.4996 195.357 47.4185C194.217 46.5479 192.863 46.0015 191.438 45.8373C190.013 45.6731 188.57 45.8971 187.262 46.4857C187.111 46.5533 186.94 46.5613 186.784 46.5079C186.627 46.4544 186.497 46.3436 186.419 46.1979C186.341 46.0521 186.322 45.8822 186.364 45.7225C186.407 45.5628 186.508 45.4252 186.649 45.3375C188.168 44.616 189.857 44.328 191.529 44.5052C193.202 44.6825 194.793 45.3182 196.127 46.3421C196.248 46.4198 196.34 46.5353 196.388 46.6705C196.437 46.8058 196.439 46.9533 196.396 47.0901C196.352 47.2269 196.264 47.3454 196.146 47.4272C196.028 47.509 195.886 47.5495 195.742 47.5425Z" fill="#2E4052"/>
<path d="M192.396 51.4434C191.052 51.4434 190.641 50.2105 189.447 50.9411C189.376 50.9892 189.296 51.0228 189.212 51.04C189.128 51.0571 189.041 51.0576 188.957 51.0412C188.873 51.0248 188.793 50.992 188.721 50.9446C188.65 50.8972 188.588 50.8362 188.54 50.765C188.444 50.6236 188.407 50.4499 188.438 50.2815C188.468 50.1131 188.564 49.9634 188.703 49.8648C189.03 49.6478 189.401 49.5055 189.788 49.448C190.176 49.3905 190.572 49.4192 190.948 49.5321C191.172 49.6214 191.39 49.7261 191.6 49.8452C192.37 50.2366 192.448 50.1975 192.663 49.9365C192.777 49.8202 192.929 49.7503 193.091 49.7406C193.254 49.7308 193.413 49.782 193.54 49.8839C193.666 49.9859 193.75 50.1314 193.775 50.2919C193.8 50.4525 193.764 50.6165 193.674 50.752C193.53 50.9593 193.34 51.13 193.117 51.2501C192.895 51.3702 192.648 51.4364 192.396 51.4434Z" fill="#2E4052"/>
<path d="M190.041 54.1506C191.269 54.1506 192.265 53.1547 192.265 51.9261C192.265 50.6976 191.269 49.7017 190.041 49.7017C188.812 49.7017 187.816 50.6976 187.816 51.9261C187.816 53.1547 188.812 54.1506 190.041 54.1506Z" fill="#2E4052"/>
<path d="M167.939 49.9757C167.816 49.9761 167.695 49.9415 167.59 49.8759C167.486 49.8102 167.402 49.7163 167.349 49.6049C167.295 49.4936 167.275 49.3694 167.289 49.2468C167.304 49.1242 167.353 49.0082 167.431 48.9124C168.379 47.73 169.657 46.855 171.102 46.3976C172.548 45.9402 174.096 45.9209 175.552 46.3421C175.718 46.3906 175.858 46.503 175.942 46.6547C176.025 46.8064 176.044 46.9849 175.996 47.151C175.947 47.3171 175.835 47.4572 175.683 47.5404C175.532 47.6236 175.353 47.6431 175.187 47.5946C173.98 47.2434 172.697 47.2566 171.498 47.6327C170.299 48.0088 169.238 48.7309 168.448 49.7082C168.389 49.7887 168.313 49.8547 168.225 49.901C168.137 49.9474 168.039 49.9729 167.939 49.9757Z" fill="#2E4052"/>
<path d="M168.892 52.7219C168.823 52.6665 168.766 52.5976 168.724 52.5194C168.682 52.4413 168.657 52.3554 168.65 52.2672C168.643 52.179 168.653 52.0901 168.681 52.0062C168.71 51.9222 168.754 51.8448 168.813 51.7788C168.872 51.7127 168.944 51.6593 169.024 51.6219C169.105 51.5845 169.192 51.5638 169.28 51.5611C169.369 51.5584 169.457 51.5738 169.539 51.6063C169.622 51.6387 169.697 51.6876 169.759 51.75C170.007 51.9718 170.099 52.0044 170.79 51.4825C170.986 51.3307 171.19 51.1913 171.403 51.065C171.755 50.8933 172.14 50.8009 172.531 50.7941C172.922 50.7873 173.31 50.8665 173.667 51.0259C173.745 51.0623 173.816 51.1138 173.874 51.1776C173.932 51.2414 173.977 51.3162 174.006 51.3975C174.035 51.4788 174.048 51.5651 174.044 51.6514C174.039 51.7376 174.017 51.8221 173.98 51.9C173.905 52.0537 173.773 52.172 173.612 52.2293C173.451 52.2867 173.274 52.2785 173.119 52.2066C172.949 52.1339 172.766 52.0965 172.581 52.0965C172.396 52.0965 172.213 52.1339 172.043 52.2066C171.364 52.585 170.262 53.9223 168.892 52.7219Z" fill="#2E4052"/>
<path d="M172.688 55.501C173.917 55.501 174.913 54.505 174.913 53.2765C174.913 52.0479 173.917 51.052 172.688 51.052C171.46 51.052 170.464 52.0479 170.464 53.2765C170.464 54.505 171.46 55.501 172.688 55.501Z" fill="#2E4052"/>
<path d="M179.284 57.8754C178.742 57.223 179.029 54.9659 180.119 51.228C180.143 51.1457 180.183 51.069 180.236 51.0022C180.29 50.9354 180.356 50.8799 180.431 50.8387C180.506 50.7975 180.589 50.7715 180.674 50.7622C180.759 50.7529 180.845 50.7604 180.928 50.7844C181.01 50.8084 181.087 50.8483 181.153 50.902C181.22 50.9556 181.276 51.0219 181.317 51.097C181.358 51.1721 181.384 51.2546 181.393 51.3397C181.403 51.4249 181.395 51.5111 181.371 51.5933C180.719 53.7917 180.171 56.4728 180.327 57.073C180.608 57.2752 181.841 57.2687 182.937 57.073C183.11 57.041 183.288 57.079 183.433 57.1787C183.578 57.2784 183.678 57.4316 183.71 57.6046C183.742 57.7777 183.704 57.9563 183.604 58.1013C183.504 58.2462 183.351 58.3457 183.178 58.3777C182.05 58.5603 180.008 58.7756 179.284 57.8754Z" fill="#2E4052"/>
<path d="M194.493 59.2207C196.172 58.9739 197.402 57.8839 197.241 56.7861C197.08 55.6882 195.588 54.9982 193.909 55.2449C192.23 55.4916 191 56.5816 191.161 57.6795C191.323 58.7774 192.814 59.4674 194.493 59.2207Z" fill="#3E92CC"/>
<path d="M172.524 61.1878C174.204 60.9332 175.431 59.8363 175.265 58.7378C175.098 57.6392 173.601 56.955 171.921 57.2095C170.242 57.4641 169.015 58.561 169.181 59.6595C169.347 60.7581 170.844 61.4423 172.524 61.1878Z" fill="#3E92CC"/>
<path d="M203.675 54.8226C203.541 54.8226 203.411 54.7818 203.302 54.7055C203.192 54.6293 203.109 54.5214 203.063 54.3963C203.017 54.2712 203.01 54.1349 203.043 54.0059C203.077 53.8768 203.149 53.7612 203.251 53.6745C203.509 53.5009 203.721 53.2671 203.869 52.9932C204.017 52.7193 204.096 52.4135 204.099 52.1023C204.014 51.1108 202.794 50.1453 202.337 49.9039C202.221 49.835 202.129 49.7317 202.075 49.6083C202.02 49.4849 202.004 49.3475 202.031 49.215C202.057 49.0826 202.124 48.9616 202.222 48.8689C202.321 48.7761 202.445 48.7161 202.579 48.6971L205.886 48.1948C205.972 48.1819 206.059 48.1861 206.143 48.207C206.227 48.2279 206.307 48.2652 206.376 48.3167C206.446 48.3682 206.505 48.4329 206.549 48.5071C206.594 48.5813 206.624 48.6636 206.636 48.7493C206.649 48.835 206.645 48.9223 206.624 49.0064C206.603 49.0904 206.566 49.1696 206.515 49.2392C206.463 49.3089 206.398 49.3677 206.324 49.4124C206.25 49.457 206.168 49.4866 206.082 49.4995L204.236 49.78C205.782 51.3521 205.867 53.1657 204.099 54.6791C203.979 54.7755 203.829 54.8263 203.675 54.8226Z" fill="#2E4052"/>
<path d="M182.278 68.2998C181.146 68.2908 180.038 67.9755 179.071 67.3875C178.104 66.7994 177.314 65.9605 176.785 64.9598C176.737 64.8699 176.711 64.7701 176.709 64.6683C176.707 64.5665 176.729 64.4656 176.772 64.3737C176.816 64.2818 176.881 64.2013 176.961 64.1389C177.041 64.0764 177.135 64.0336 177.235 64.0139L187.718 62.0569C187.819 62.0377 187.923 62.0426 188.021 62.071C188.12 62.0995 188.21 62.1507 188.285 62.2206C188.36 62.2905 188.418 62.377 188.453 62.4733C188.488 62.5695 188.5 62.6727 188.488 62.7745C188.308 64.2956 187.576 65.6979 186.432 66.7161C185.288 67.7343 183.81 68.2977 182.278 68.2998ZM178.409 65.1164C178.966 65.8228 179.706 66.363 180.549 66.6782C181.391 66.9934 182.304 67.0715 183.188 66.904C184.072 66.7365 184.893 66.3299 185.562 65.7283C186.23 65.1267 186.721 64.3533 186.981 63.4921L178.409 65.1164Z" fill="#2E4052"/>
<path d="M208.861 40.9668C200.654 40.471 195.971 32.6429 195.775 32.3102C195.728 32.2359 195.696 32.1529 195.682 32.0661C195.667 31.9793 195.671 31.8905 195.692 31.805C195.713 31.7196 195.751 31.6392 195.804 31.5688C195.856 31.4984 195.923 31.4395 195.999 31.3954C196.075 31.3514 196.159 31.3232 196.247 31.3126C196.334 31.302 196.423 31.3092 196.507 31.3337C196.592 31.3582 196.67 31.3996 196.738 31.4553C196.807 31.511 196.863 31.5799 196.903 31.6578C196.949 31.7296 201.47 39.2381 208.939 39.6686C209.112 39.679 209.274 39.7577 209.389 39.8874C209.504 40.017 209.563 40.1871 209.552 40.3601C209.542 40.5331 209.463 40.6949 209.334 40.8099C209.204 40.9249 209.034 40.9837 208.861 40.9733V40.9668Z" fill="white"/>
<path d="M167.326 34.9652C167.217 34.9655 167.109 34.9381 167.012 34.8856C166.916 34.8331 166.835 34.7572 166.775 34.6649C166.716 34.5725 166.681 34.4668 166.674 34.3574C166.666 34.248 166.687 34.1384 166.733 34.0389C167.693 31.9566 169.161 30.1487 171.002 28.781C172.842 27.4133 174.997 26.5295 177.268 26.2108C177.354 26.2022 177.44 26.2106 177.523 26.2355C177.605 26.2603 177.682 26.3012 177.748 26.3557C177.815 26.4102 177.87 26.4773 177.911 26.5532C177.952 26.6291 177.977 26.7122 177.985 26.7979C177.994 26.8836 177.986 26.9701 177.961 27.0525C177.936 27.1349 177.895 27.2116 177.841 27.2783C177.786 27.3449 177.719 27.4001 177.643 27.4408C177.567 27.4815 177.484 27.5069 177.398 27.5155C177.333 27.5155 170.803 28.2526 167.926 34.5803C167.874 34.6958 167.79 34.7937 167.684 34.862C167.577 34.9304 167.453 34.9662 167.326 34.9652Z" fill="white"/>
<path d="M211.81 38.6379C207.282 38.6379 203.101 34.9717 202.905 34.8021C202.775 34.687 202.697 34.5251 202.686 34.352C202.676 34.1789 202.735 34.0088 202.85 33.879C202.965 33.7493 203.127 33.6705 203.3 33.6601C203.473 33.6497 203.643 33.7085 203.773 33.8236C203.825 33.8692 208.606 38.0442 213.003 37.2288C213.176 37.1977 213.355 37.2365 213.499 37.3368C213.643 37.4372 213.742 37.5907 213.773 37.7637C213.804 37.9367 213.765 38.115 213.665 38.2594C213.565 38.4037 213.411 38.5023 213.238 38.5335C212.766 38.6134 212.288 38.6484 211.81 38.6379Z" fill="white"/>
<path d="M169.329 84.5368C169.181 84.5374 169.037 84.4877 168.921 84.396C168.805 84.3042 168.724 84.1757 168.691 84.0316C168.657 83.8875 168.674 83.7364 168.738 83.603C168.801 83.4696 168.909 83.3618 169.042 83.2973C170.164 82.7944 171.077 81.9185 171.626 80.8185C172.176 79.7185 172.327 78.4623 172.056 77.2632C172.013 77.0953 172.039 76.9175 172.128 76.7689C172.217 76.6203 172.361 76.5129 172.529 76.4706C172.696 76.4282 172.874 76.4542 173.023 76.5429C173.172 76.6316 173.279 76.7757 173.321 76.9435C173.321 76.9957 174.567 82.0709 169.609 84.4716C169.522 84.5139 169.426 84.5362 169.329 84.5368Z" fill="white"/>
<path d="M204.451 81.9339C198.834 79.9768 201.052 70.3613 201.15 69.9503C201.19 69.7828 201.295 69.638 201.442 69.5475C201.589 69.4571 201.765 69.4283 201.933 69.4676C202.017 69.4868 202.095 69.5223 202.165 69.5721C202.235 69.6218 202.294 69.6849 202.34 69.7576C202.385 69.8303 202.416 69.9112 202.43 69.9958C202.444 70.0803 202.442 70.1669 202.422 70.2504C202.422 70.3417 200.374 79.1288 204.882 80.6879C205.047 80.745 205.183 80.8654 205.259 81.0226C205.336 81.1798 205.346 81.3609 205.289 81.5262C205.232 81.6914 205.112 81.8272 204.955 81.9036C204.797 81.9801 204.616 81.991 204.451 81.9339Z" fill="white"/>
<path d="M220.238 92.7628C220.126 92.7631 220.015 92.7344 219.918 92.6796C219.82 92.6248 219.738 92.5458 219.679 92.45C219.621 92.3543 219.588 92.2452 219.584 92.1331C219.581 92.0211 219.606 91.9099 219.657 91.8104C219.657 91.7452 222.788 85.6327 220.349 81.6599C217.648 77.2566 216.435 70.4983 216.369 70.2178C216.354 70.1322 216.356 70.0444 216.375 69.9595C216.394 69.8746 216.43 69.7943 216.48 69.7231C216.53 69.6519 216.593 69.5913 216.667 69.5447C216.74 69.498 216.822 69.4663 216.908 69.4513C216.993 69.4363 217.081 69.4384 217.166 69.4573C217.251 69.4762 217.331 69.5117 217.402 69.5617C217.473 69.6116 217.534 69.6751 217.581 69.7486C217.627 69.822 217.659 69.9038 217.674 69.9895C217.674 70.0547 218.907 76.7869 221.477 80.975C224.308 85.5805 220.975 92.13 220.825 92.4106C220.769 92.5179 220.685 92.6077 220.581 92.6699C220.478 92.7321 220.359 92.7643 220.238 92.7628Z" fill="white"/>
<path d="M236.801 126.326C236.692 126.325 236.585 126.297 236.489 126.244C236.394 126.191 236.313 126.115 236.255 126.023C236.196 125.931 236.162 125.825 236.155 125.716C236.148 125.608 236.168 125.499 236.214 125.4C237.61 122.399 235.15 117.617 235.124 117.571C235.044 117.417 235.028 117.238 235.08 117.072C235.132 116.906 235.248 116.768 235.402 116.688C235.556 116.607 235.735 116.591 235.901 116.643C236.067 116.695 236.205 116.811 236.285 116.965C236.396 117.18 239.064 122.366 237.394 125.954C237.341 126.066 237.257 126.161 237.152 126.226C237.047 126.292 236.925 126.327 236.801 126.326Z" fill="#2E4052"/>
<path d="M149.211 125.328C149.062 125.332 148.916 125.285 148.797 125.195C148.678 125.105 148.594 124.977 148.558 124.832C148.558 124.767 146.908 118.27 142.465 117.35C142.381 117.333 142.302 117.299 142.231 117.251C142.16 117.203 142.099 117.142 142.052 117.07C142.004 116.999 141.972 116.919 141.955 116.835C141.939 116.75 141.939 116.664 141.957 116.58C141.974 116.495 142.007 116.415 142.056 116.343C142.104 116.272 142.166 116.211 142.238 116.163C142.311 116.116 142.392 116.084 142.476 116.068C142.561 116.052 142.648 116.053 142.733 116.071C147.952 117.161 149.752 124.219 149.824 124.552C149.842 124.644 149.84 124.739 149.817 124.83C149.795 124.921 149.754 125.007 149.695 125.08C149.637 125.154 149.564 125.214 149.48 125.257C149.396 125.3 149.304 125.324 149.211 125.328Z" fill="#2E4052"/>
<path d="M249.254 194.992C246.416 194.992 242.535 194.176 240.676 190.138C240.603 189.981 240.596 189.801 240.656 189.638C240.716 189.476 240.838 189.343 240.995 189.271C241.153 189.198 241.333 189.191 241.495 189.251C241.658 189.311 241.79 189.433 241.863 189.59C244.518 195.364 252.235 193.367 252.3 193.348C252.468 193.303 252.647 193.326 252.798 193.413C252.948 193.5 253.058 193.643 253.103 193.811C253.148 193.979 253.124 194.158 253.037 194.308C252.951 194.459 252.808 194.568 252.64 194.613C251.529 194.867 250.393 194.994 249.254 194.992Z" fill="#2E4052"/>
<path d="M250.376 216.604C250.273 216.604 250.172 216.579 250.08 216.532C249.988 216.486 249.909 216.418 249.848 216.334C249.788 216.251 249.748 216.155 249.732 216.053C249.716 215.951 249.724 215.847 249.756 215.749C250.813 212.52 251.407 209.226 251.061 208.573C250.213 208.932 249.013 211.6 247.545 211.268C246.743 211.085 246.41 210.146 246.24 209.461C245.666 207.243 244.864 206.649 244.525 206.636C244.283 206.636 244.035 206.936 243.872 207.399C243.337 209.141 243.872 212.318 243.872 212.351C243.902 212.524 243.861 212.701 243.76 212.844C243.658 212.987 243.504 213.084 243.331 213.114C243.158 213.143 242.98 213.103 242.837 213.001C242.694 212.9 242.597 212.745 242.568 212.572C242.568 212.429 241.967 209.063 242.568 207.021C243.305 204.601 246.188 204.353 247.427 209.128C247.483 209.431 247.601 209.72 247.773 209.976C248.634 209.604 249.978 206.623 251.557 207.367C253.135 208.11 252.092 212.585 250.904 216.154C250.868 216.271 250.799 216.375 250.705 216.455C250.612 216.534 250.498 216.586 250.376 216.604Z" fill="#2E4052"/>
<path d="M182.252 314.455C182.149 314.455 182.047 314.431 181.956 314.384C181.864 314.337 181.785 314.269 181.724 314.186C181.664 314.102 181.624 314.006 181.608 313.904C181.592 313.803 181.6 313.699 181.632 313.601C184.646 304.279 192.167 303.457 192.487 303.424C192.66 303.408 192.833 303.461 192.966 303.571C193.1 303.682 193.185 303.841 193.201 304.014C193.218 304.187 193.165 304.36 193.054 304.494C192.943 304.628 192.784 304.712 192.611 304.729C192.331 304.729 185.611 305.525 182.872 314.005C182.829 314.136 182.746 314.25 182.635 314.331C182.523 314.412 182.389 314.455 182.252 314.455Z" fill="#2E4052"/>
<path d="M165.695 307.58C165.64 307.515 165.597 307.439 165.571 307.358C165.544 307.276 165.534 307.19 165.541 307.105C165.547 307.02 165.571 306.936 165.61 306.86C165.648 306.784 165.702 306.716 165.767 306.66C165.832 306.604 165.908 306.562 165.989 306.535C166.071 306.509 166.156 306.499 166.242 306.505C166.327 306.512 166.41 306.535 166.487 306.574C166.563 306.613 166.631 306.667 166.687 306.732C166.733 306.784 167.992 308.167 170.464 307.599C171.018 307.475 171.266 307.306 171.312 307.188C171.514 306.686 170.092 305.055 169.518 303.848C169.396 303.654 169.328 303.431 169.32 303.202C169.312 302.973 169.365 302.746 169.472 302.544C169.825 301.93 170.601 301.891 171.429 301.813C172.571 301.722 172.884 301.617 172.884 301.304C172.884 300.371 169.942 300.606 168.97 300.782C168.886 300.797 168.799 300.796 168.715 300.777C168.632 300.759 168.552 300.724 168.482 300.675C168.412 300.626 168.352 300.563 168.306 300.491C168.26 300.419 168.228 300.338 168.213 300.254C168.198 300.17 168.2 300.083 168.218 299.999C168.237 299.916 168.272 299.836 168.321 299.766C168.37 299.696 168.432 299.636 168.504 299.59C168.577 299.544 168.657 299.512 168.742 299.497C170.901 299.106 174.176 299.119 174.176 301.304C174.176 303.346 171.566 302.994 170.666 303.216C171.234 304.52 173.093 306.223 172.525 307.658C171.827 309.361 167.457 309.661 165.695 307.58Z" fill="#2E4052"/>
</g>
<defs>
<clipPath id="clip0_44_2062">
<rect width="334" height="334" fill="white" transform="translate(0 0.0256348)"/>
</clipPath>
</defs>
</svg>
