<svg width="200" height="54" viewBox="0 0 200 54" fill="none" xmlns="http://www.w3.org/2000/svg">
<path d="M0 53.1409L10.8971 0.812552H52.162L49.1973 14.951H27.3229L26.3614 19.6638H45.191L42.1462 34.2897H23.3167L19.3905 53.1409H0Z" fill="white"/>
<path d="M44.0536 53.1409L54.9507 0.812552H96.2156L93.251 14.951H71.3766L70.4151 19.6638H89.2447L86.1999 34.2897H67.3703L66.3286 39.0025H88.203L85.3185 53.1409H44.0536Z" fill="white"/>
<path d="M88.5767 53.1409L99.4739 0.812552H128.479C133.501 0.812552 137.4 2.22098 140.178 5.03783C143.009 7.85468 144.425 11.457 144.425 15.8448C144.425 17.3074 144.264 18.8241 143.944 20.3951C143.249 23.9161 141.807 27.0038 139.617 29.6582C137.48 32.2583 134.783 34.4522 131.524 36.2398C132.379 36.9441 132.913 37.8379 133.127 38.9213L136.252 53.1409H116.06L113.416 41.5214C113.202 40.3839 112.561 39.8151 111.493 39.8151H110.691L107.967 53.1409H88.5767ZM113.977 24.4578H118.704C121.856 24.4578 123.699 23.1036 124.233 20.3951C124.286 20.1242 124.313 19.8805 124.313 19.6638C124.366 19.4471 124.393 19.2304 124.393 19.0137C124.393 17.1178 123.164 16.1698 120.707 16.1698H115.659L113.977 24.4578Z" fill="white"/>
<path d="M165.706 53.9535C161.112 53.9535 157.079 53.3305 153.607 52.0846C150.188 50.8387 147.518 48.8615 145.594 46.153C143.725 43.3903 142.79 39.7609 142.79 35.2648C142.79 32.8271 143.111 30.0644 143.752 26.9767C145.14 20.368 147.277 15.1135 150.162 11.2132C153.1 7.2588 156.812 4.41487 161.299 2.68142C165.786 0.893808 171.048 0 177.084 0C181.785 0 185.844 0.622957 189.263 1.86887C192.682 3.06062 195.326 5.01074 197.196 7.71925C199.065 10.4278 200 14.003 200 18.4449C200 20.9368 199.68 23.7807 199.038 26.9767C197.65 33.5313 195.513 38.7858 192.628 42.7403C189.744 46.6947 186.058 49.5657 181.571 51.3533C177.137 53.0868 171.849 53.9535 165.706 53.9535ZM169.232 37.2962C172.063 37.2962 174.226 36.5378 175.722 35.021C177.271 33.4501 178.446 30.7687 179.247 26.9767C179.461 25.9475 179.621 25.0266 179.728 24.2141C179.888 23.3473 179.969 22.5619 179.969 21.8577C179.969 19.9617 179.488 18.6345 178.526 17.8762C177.565 17.0636 175.909 16.6573 173.558 16.6573C170.727 16.6573 168.537 17.4428 166.988 19.0137C165.492 20.5305 164.344 23.1848 163.543 26.9767C163.329 28.006 163.169 28.954 163.062 29.8207C162.955 30.6332 162.902 31.3916 162.902 32.0958C162.902 33.9376 163.382 35.2648 164.344 36.0773C165.305 36.8899 166.935 37.2962 169.232 37.2962Z" fill="white"/>
</svg>
