<svg width="334" height="334" viewBox="0 0 334 334" fill="none" xmlns="http://www.w3.org/2000/svg">
<g clip-path="url(#clip0_25_5373)">
<g opacity="0.2">
<path d="M248.941 259.255C299.893 208.304 299.893 125.695 248.941 74.7442C197.99 23.793 115.382 23.793 64.4306 74.7442C13.4794 125.695 13.4794 208.304 64.4306 259.255C115.382 310.206 197.99 310.206 248.941 259.255Z" fill="#2EC4B6"/>
</g>
<path d="M137.09 100.931L74.6999 82.7759L90.9694 73.1082C90.9694 73.1082 61.8813 69.6899 52.1158 100.931C42.3502 132.171 54.9991 143.046 39.1798 169.048C23.3605 195.051 26.3873 228.229 62.9055 229.475C99.4237 230.721 153.066 225.881 153.464 194.842C153.862 163.804 138.91 152.733 137.09 100.931Z" fill="#2E4052"/>
<path d="M247.578 163.145C247.42 163.145 247.269 163.082 247.158 162.971C247.046 162.859 246.984 162.708 246.984 162.551V139.771C246.984 139.693 246.999 139.616 247.029 139.544C247.059 139.472 247.103 139.407 247.158 139.351C247.213 139.296 247.278 139.253 247.35 139.223C247.422 139.193 247.5 139.178 247.578 139.178H288.675C293.735 139.184 298.585 141.198 302.162 144.776C305.739 148.355 307.751 153.206 307.756 158.265V162.551C307.756 162.708 307.694 162.859 307.582 162.971C307.471 163.082 307.32 163.145 307.163 163.145H247.578Z" fill="#2E4052"/>
<path d="M94.3354 165.369C120.971 165.056 131.95 172.545 137.051 179.427C140.606 184.241 140.848 189.636 147.136 201.378C150.469 207.616 154.305 213.572 158.604 219.187L195.788 180.634L210.916 197.543C206.748 208.148 201.479 218.287 195.194 227.792C185.54 242.378 173.093 261.198 160.992 263.084C141.369 266.117 114.565 226.024 94.3354 165.369Z" fill="#2EC4B6"/>
<path d="M140.41 223.917C138.114 199.219 139.478 188.938 131.102 179.427C126.346 174.032 119.49 170.112 111.844 167.802C110.609 167.423 109.529 166.656 108.763 165.615C107.997 164.574 107.586 163.315 107.591 162.023V149.419H86.6378V161.814C86.6335 162.956 86.2451 164.063 85.5351 164.958C84.8252 165.852 83.8349 166.482 82.7237 166.746C75.8285 168.37 69.5725 171.442 64.9147 176.048C59.9439 180.967 56.1081 188.319 55.0317 225.476C54.3775 247.708 55.031 269.958 56.9888 292.113L153.536 291.519C146.997 269.46 142.602 246.821 140.41 223.917Z" fill="white"/>
<path d="M56.9496 292.785C56.7863 292.786 56.6287 292.725 56.5079 292.615C56.3871 292.505 56.3119 292.354 56.2972 292.191C54.3402 270.01 53.6867 247.734 54.3402 225.476C55.4427 187.484 59.559 180.412 64.4189 175.604C68.9331 171.136 75.1956 167.861 82.5345 166.126C83.5097 165.906 84.3814 165.361 85.0071 164.582C85.6327 163.802 85.9753 162.833 85.9789 161.833V149.439C85.9789 149.266 86.0476 149.1 86.17 148.978C86.2923 148.855 86.4582 148.787 86.6312 148.787H107.585C107.758 148.787 107.923 148.855 108.046 148.978C108.168 149.1 108.237 149.266 108.237 149.439V162.042C108.236 163.193 108.603 164.314 109.284 165.242C109.964 166.17 110.923 166.857 112.02 167.202C120.181 169.662 126.94 173.726 131.591 179.016C140.13 188.717 138.767 199.389 141.063 223.878C141.448 223.878 142.367 251.276 154.11 291.376C154.139 291.475 154.144 291.58 154.124 291.682C154.105 291.783 154.061 291.879 153.998 291.961C153.934 292.042 153.852 292.107 153.758 292.151C153.664 292.195 153.561 292.215 153.457 292.211L56.9496 292.785ZM87.2901 150.072V161.814C87.2859 163.108 86.8439 164.362 86.0361 165.372C85.2282 166.382 84.1021 167.09 82.8411 167.378C75.7371 169.055 69.6833 172.212 65.3387 176.511C60.668 181.136 56.7539 188.005 55.6514 225.515C55.0047 247.52 55.6385 269.543 57.5497 291.474L152.596 290.893C146.212 269.043 141.916 246.637 139.765 223.976C137.449 199.134 138.832 189.193 130.632 179.858C126.15 174.776 119.594 170.823 111.675 168.429C110.308 168.004 109.113 167.153 108.264 166C107.415 164.848 106.958 163.454 106.958 162.023V150.072H87.2901Z" fill="#2E4052"/>
<path d="M84.1132 161.488L109.842 162.003V165.356C109.842 165.356 129.19 171.716 135.126 182.245C141.063 192.774 150.991 276.118 158.409 297.469H52.1157C52.1157 297.469 52.8398 220.062 57.2692 195.149C61.6987 170.236 83.1477 164.599 83.1477 164.599L84.1132 161.488Z" fill="#2EC4B6"/>
<path d="M132.269 114.434C131.131 105.681 126.846 97.641 120.214 91.8157C113.583 85.9904 105.057 82.7778 96.2305 82.7778C87.4036 82.7778 78.8783 85.9904 72.2466 91.8157C65.6148 97.641 61.3299 105.681 60.1918 114.434C59.0907 114.39 57.9929 114.581 56.9711 114.993C55.9494 115.406 55.0271 116.031 54.2655 116.828C53.5039 117.624 52.9204 118.573 52.5538 119.612C52.1872 120.652 52.0458 121.757 52.139 122.855C52.2323 123.953 52.558 125.018 53.0946 125.981C53.6312 126.943 54.3664 127.781 55.2514 128.437C56.1364 129.094 57.1509 129.554 58.2277 129.789C59.3044 130.023 60.4186 130.026 61.4965 129.797C61.8031 130.788 62.1488 131.754 62.5337 132.706C66.0368 144.585 74.3737 158.8 94.2376 159.557C117.494 160.477 127.403 143.32 130.965 129.947L131.017 129.777C132.097 130.014 133.216 130.017 134.298 129.786C135.38 129.554 136.4 129.095 137.289 128.438C138.179 127.78 138.918 126.94 139.457 125.974C139.995 125.008 140.321 123.938 140.413 122.836C140.504 121.733 140.359 120.624 139.987 119.582C139.615 118.54 139.024 117.59 138.255 116.795C137.486 116 136.555 115.379 135.526 114.973C134.497 114.567 133.394 114.385 132.289 114.441L132.269 114.434Z" fill="white"/>
<path d="M95.9859 160.235C77.9421 160.235 66.8327 149.661 61.8879 132.882C61.5682 132.093 61.2812 131.31 61.0268 130.527C59.8964 130.677 58.7474 130.596 57.6493 130.289C56.5513 129.981 55.5271 129.454 54.6388 128.739C53.7506 128.024 53.0168 127.136 52.4819 126.129C51.947 125.122 51.6222 124.017 51.5271 122.881C51.4321 121.745 51.5687 120.601 51.9289 119.519C52.289 118.437 52.8651 117.44 53.6222 116.587C54.3793 115.734 55.3017 115.044 56.3334 114.559C57.3651 114.073 58.4847 113.802 59.6243 113.762C60.908 104.97 65.3134 96.9335 72.0349 91.1221C78.7564 85.3107 87.3451 82.1127 96.2305 82.1127C105.116 82.1127 113.705 85.3107 120.426 91.1221C127.148 96.9335 131.553 104.97 132.837 113.762C133.984 113.789 135.114 114.049 136.157 114.528C137.199 115.006 138.134 115.693 138.901 116.546C139.669 117.399 140.255 118.399 140.622 119.486C140.989 120.573 141.131 121.724 141.037 122.868C140.944 124.012 140.617 125.124 140.078 126.137C139.54 127.15 138.799 128.042 137.903 128.759C137.007 129.476 135.974 130.002 134.867 130.305C133.76 130.608 132.603 130.681 131.467 130.521C128.897 139.862 120.468 160.235 95.9859 160.235ZM62.1032 129.575C62.3837 130.495 62.7164 131.428 63.1208 132.432C66.5652 144.103 74.7391 158.102 94.2441 158.872C119.529 159.87 127.892 138.838 130.319 129.745L130.371 129.555C130.429 129.412 130.536 129.293 130.674 129.222C130.811 129.15 130.97 129.129 131.121 129.164C132.11 129.379 133.134 129.379 134.123 129.167C135.112 128.954 136.045 128.532 136.858 127.93C137.672 127.328 138.347 126.56 138.84 125.675C139.332 124.791 139.63 123.812 139.714 122.804C139.798 121.795 139.666 120.781 139.326 119.827C138.986 118.874 138.447 118.004 137.744 117.276C137.041 116.548 136.191 115.979 135.25 115.605C134.309 115.232 133.3 115.064 132.289 115.113C132.13 115.114 131.975 115.057 131.855 114.952C131.735 114.848 131.657 114.703 131.636 114.545C130.515 105.952 126.306 98.0611 119.794 92.3438C113.282 86.6265 104.912 83.4737 96.2468 83.4737C87.5812 83.4737 79.2117 86.6265 72.6998 92.3438C66.1879 98.0611 61.9785 105.952 60.8572 114.545C60.8365 114.703 60.7587 114.848 60.6385 114.952C60.5184 115.057 60.3641 115.114 60.2048 115.113C59.1884 115.051 58.1706 115.209 57.2202 115.574C56.2698 115.94 55.4089 116.505 54.6957 117.232C53.9825 117.959 53.4335 118.83 53.0859 119.787C52.7383 120.744 52.6001 121.765 52.6807 122.78C52.7613 123.795 53.0588 124.781 53.5531 125.671C54.0473 126.562 54.7269 127.335 55.5459 127.941C56.3648 128.546 57.3041 128.968 58.3003 129.179C59.2965 129.39 60.3263 129.385 61.3203 129.164C61.482 129.123 61.6531 129.145 61.7987 129.227C61.9443 129.308 62.0532 129.442 62.1032 129.601V129.575Z" fill="#2E4052"/>
<path d="M85.5418 164.502C85.5418 164.502 74.3737 165.095 64.6668 171.221C54.96 177.346 35.8985 212.318 36.7857 231.628C37.6728 250.937 45.3901 261.636 66.1411 263.227C86.8922 264.819 130.795 235.777 130.795 235.777L123.41 211.164L70.6162 225.104L85.5418 164.502Z" fill="#2EC4B6"/>
<path d="M301.122 144.566C301.122 144.566 295.329 139.771 290.88 139.771H216.513C212.159 139.773 207.985 141.504 204.907 144.583C201.829 147.662 200.1 151.837 200.1 156.191V273.149H272.197C277.152 273.149 281.904 271.181 285.408 267.677C288.912 264.173 290.88 259.421 290.88 254.466V161.67C290.945 158.285 291.819 146.086 301.122 144.566Z" fill="white"/>
<path d="M272.197 273.802H200.126C199.953 273.802 199.787 273.733 199.665 273.611C199.542 273.488 199.474 273.322 199.474 273.149V156.191C199.479 151.666 201.278 147.327 204.477 144.127C207.676 140.927 212.014 139.126 216.539 139.119H290.906C295.538 139.119 301.344 143.861 301.565 144.064C301.663 144.143 301.734 144.25 301.773 144.37C301.811 144.489 301.813 144.618 301.78 144.739C301.747 144.86 301.68 144.969 301.586 145.053C301.492 145.137 301.377 145.192 301.252 145.212C292.517 146.64 291.624 158.18 291.558 161.683V254.466C291.552 259.597 289.509 264.515 285.878 268.14C282.248 271.765 277.327 273.802 272.197 273.802ZM200.778 272.497H272.197C276.977 272.492 281.561 270.591 284.941 267.21C288.321 263.83 290.223 259.247 290.228 254.466V161.67C290.293 158.089 291.187 146.732 299.615 144.24C297.775 142.935 293.933 140.424 290.88 140.424H216.513C212.333 140.429 208.327 142.092 205.372 145.048C202.417 148.004 200.756 152.011 200.752 156.191L200.778 272.497Z" fill="#2E4052"/>
<path d="M274.917 252.092H188.56V259.431C188.56 263.064 190.003 266.548 192.572 269.117C195.141 271.687 198.626 273.13 202.259 273.13H274.917C282.745 273.13 286.738 266.176 286.738 266.176C277.553 269.027 274.917 252.092 274.917 252.092Z" fill="white"/>
<path d="M274.917 273.802H202.272C198.466 273.802 194.816 272.29 192.124 269.598C189.433 266.907 187.921 263.256 187.921 259.45V252.092C187.921 251.919 187.989 251.753 188.112 251.63C188.234 251.508 188.4 251.439 188.573 251.439H274.917C275.075 251.438 275.227 251.493 275.347 251.595C275.467 251.697 275.546 251.838 275.57 251.994C275.57 252.092 277.194 262.066 281.963 265.041C282.634 265.469 283.394 265.739 284.185 265.83C284.976 265.922 285.777 265.833 286.529 265.569C286.654 265.529 286.788 265.529 286.914 265.566C287.04 265.604 287.151 265.679 287.234 265.781C287.316 265.884 287.366 266.008 287.376 266.139C287.387 266.27 287.357 266.401 287.292 266.515C287.129 266.809 283.032 273.802 274.917 273.802ZM189.212 252.744V259.431C189.212 262.891 190.587 266.209 193.034 268.656C195.48 271.103 198.799 272.477 202.259 272.477H274.917C280.227 272.477 283.717 269.053 285.263 267.122C278.87 267.637 275.543 259.02 274.363 252.724L189.212 252.744Z" fill="#2E4052"/>
<path d="M266.717 152.172H230.317C230.144 152.172 229.978 152.104 229.855 151.981C229.733 151.859 229.664 151.693 229.664 151.52C229.664 151.347 229.733 151.181 229.855 151.059C229.978 150.936 230.144 150.868 230.317 150.868H266.717C266.89 150.868 267.056 150.936 267.179 151.059C267.301 151.181 267.37 151.347 267.37 151.52C267.37 151.693 267.301 151.859 267.179 151.981C267.056 152.104 266.89 152.172 266.717 152.172Z" fill="#2E4052"/>
<path d="M221.601 174.404H213.056C212.865 174.405 212.676 174.368 212.5 174.296C212.324 174.223 212.164 174.117 212.03 173.982C211.895 173.847 211.788 173.687 211.716 173.511C211.643 173.335 211.606 173.146 211.607 172.956V165.128C211.607 164.744 211.76 164.375 212.031 164.104C212.303 163.832 212.671 163.68 213.056 163.68H221.601C221.985 163.681 222.352 163.834 222.623 164.106C222.895 164.377 223.048 164.744 223.049 165.128V172.956C223.049 173.146 223.012 173.334 222.939 173.51C222.866 173.686 222.76 173.845 222.625 173.98C222.491 174.114 222.331 174.221 222.155 174.294C221.98 174.367 221.791 174.404 221.601 174.404ZM213.056 164.991C213.017 164.991 212.981 165.006 212.954 165.033C212.927 165.06 212.912 165.096 212.912 165.134V172.962C212.912 173 212.927 173.037 212.954 173.064C212.981 173.091 213.017 173.106 213.056 173.106H221.601C221.639 173.106 221.676 173.091 221.703 173.064C221.73 173.037 221.745 173 221.745 172.962V165.134C221.745 165.096 221.73 165.06 221.703 165.033C221.676 165.006 221.639 164.991 221.601 164.991H213.056Z" fill="#2E4052"/>
<path d="M273.639 169.701H229.234C229.061 169.701 228.895 169.632 228.772 169.51C228.65 169.387 228.581 169.221 228.581 169.048C228.581 168.875 228.65 168.709 228.772 168.587C228.895 168.465 229.061 168.396 229.234 168.396H273.639C273.812 168.396 273.978 168.465 274.1 168.587C274.222 168.709 274.291 168.875 274.291 169.048C274.291 169.221 274.222 169.387 274.1 169.51C273.978 169.632 273.812 169.701 273.639 169.701Z" fill="#2E4052"/>
<path d="M221.601 191.698H213.056C212.671 191.698 212.303 191.545 212.031 191.274C211.76 191.002 211.607 190.634 211.607 190.25V182.421C211.606 182.231 211.643 182.042 211.716 181.866C211.788 181.69 211.895 181.53 212.03 181.395C212.164 181.261 212.324 181.154 212.5 181.082C212.676 181.009 212.865 180.972 213.056 180.973H221.601C221.791 180.973 221.98 181.011 222.155 181.083C222.331 181.156 222.491 181.263 222.625 181.397C222.76 181.532 222.866 181.692 222.939 181.867C223.012 182.043 223.049 182.231 223.049 182.421V190.25C223.048 190.633 222.895 191 222.623 191.272C222.352 191.543 221.985 191.696 221.601 191.698ZM213.056 182.284C213.017 182.284 212.981 182.3 212.954 182.326C212.927 182.353 212.912 182.39 212.912 182.428V190.256C212.912 190.294 212.927 190.331 212.954 190.358C212.981 190.384 213.017 190.4 213.056 190.4H221.601C221.639 190.4 221.676 190.384 221.703 190.358C221.73 190.331 221.745 190.294 221.745 190.256V182.428C221.745 182.39 221.73 182.353 221.703 182.326C221.676 182.3 221.639 182.284 221.601 182.284H213.056Z" fill="#2E4052"/>
<path d="M273.639 186.988H229.234C229.061 186.988 228.895 186.919 228.772 186.797C228.65 186.674 228.581 186.508 228.581 186.335C228.581 186.162 228.65 185.997 228.772 185.874C228.895 185.752 229.061 185.683 229.234 185.683H273.639C273.812 185.683 273.978 185.752 274.1 185.874C274.222 185.997 274.291 186.162 274.291 186.335C274.291 186.508 274.222 186.674 274.1 186.797C273.978 186.919 273.812 186.988 273.639 186.988Z" fill="#2E4052"/>
<path d="M221.601 208.991H213.056C212.671 208.991 212.303 208.839 212.031 208.567C211.76 208.296 211.607 207.927 211.607 207.543V199.715C211.606 199.525 211.643 199.336 211.716 199.16C211.788 198.984 211.895 198.824 212.03 198.689C212.164 198.554 212.324 198.448 212.5 198.375C212.676 198.303 212.865 198.266 213.056 198.267H221.601C221.791 198.267 221.98 198.304 222.155 198.377C222.331 198.45 222.491 198.557 222.625 198.691C222.76 198.826 222.866 198.985 222.939 199.161C223.012 199.337 223.049 199.525 223.049 199.715V207.543C223.048 207.927 222.895 208.294 222.623 208.565C222.352 208.837 221.985 208.99 221.601 208.991ZM213.056 199.578C213.017 199.578 212.981 199.593 212.954 199.62C212.927 199.647 212.912 199.684 212.912 199.722V207.55C212.912 207.588 212.927 207.624 212.954 207.651C212.981 207.678 213.017 207.693 213.056 207.693H221.601C221.639 207.693 221.676 207.678 221.703 207.651C221.73 207.624 221.745 207.588 221.745 207.55V199.722C221.745 199.684 221.73 199.647 221.703 199.62C221.676 199.593 221.639 199.578 221.601 199.578H213.056Z" fill="#2E4052"/>
<path d="M273.639 204.281H229.234C229.061 204.281 228.895 204.213 228.772 204.09C228.65 203.968 228.581 203.802 228.581 203.629C228.581 203.456 228.65 203.29 228.772 203.168C228.895 203.045 229.061 202.977 229.234 202.977H273.639C273.812 202.977 273.978 203.045 274.1 203.168C274.222 203.29 274.291 203.456 274.291 203.629C274.291 203.802 274.222 203.968 274.1 204.09C273.978 204.213 273.812 204.281 273.639 204.281Z" fill="#2E4052"/>
<path d="M221.601 226.285H213.056C212.671 226.285 212.303 226.132 212.031 225.861C211.76 225.589 211.607 225.221 211.607 224.837V217.009C211.606 216.818 211.643 216.629 211.716 216.452C211.788 216.276 211.895 216.116 212.029 215.98C212.164 215.845 212.324 215.738 212.5 215.665C212.676 215.592 212.865 215.554 213.056 215.554H221.601C221.986 215.556 222.354 215.71 222.626 215.982C222.897 216.255 223.049 216.624 223.049 217.009V224.837C223.048 225.22 222.895 225.588 222.623 225.859C222.352 226.13 221.985 226.283 221.601 226.285ZM213.056 216.865C213.036 216.865 213.017 216.869 212.999 216.877C212.981 216.884 212.965 216.895 212.952 216.909C212.938 216.924 212.928 216.94 212.921 216.958C212.914 216.976 212.911 216.996 212.912 217.015V224.843C212.912 224.881 212.927 224.918 212.954 224.945C212.981 224.972 213.017 224.987 213.056 224.987H221.601C221.639 224.987 221.676 224.972 221.703 224.945C221.73 224.918 221.745 224.881 221.745 224.843V217.015C221.746 216.996 221.743 216.976 221.736 216.958C221.729 216.94 221.719 216.924 221.705 216.909C221.692 216.895 221.676 216.884 221.658 216.877C221.64 216.869 221.621 216.865 221.601 216.865H213.056Z" fill="#2E4052"/>
<path d="M273.639 221.575H229.234C229.061 221.575 228.895 221.506 228.772 221.384C228.65 221.262 228.581 221.096 228.581 220.923C228.581 220.75 228.65 220.584 228.772 220.461C228.895 220.339 229.061 220.27 229.234 220.27H273.639C273.812 220.27 273.978 220.339 274.1 220.461C274.222 220.584 274.291 220.75 274.291 220.923C274.291 221.096 274.222 221.262 274.1 221.384C273.978 221.506 273.812 221.575 273.639 221.575Z" fill="#2E4052"/>
<path d="M221.601 243.579H213.056C212.671 243.579 212.303 243.426 212.031 243.154C211.76 242.883 211.607 242.515 211.607 242.13V234.302C211.616 233.924 211.772 233.564 212.043 233.299C212.313 233.035 212.677 232.887 213.056 232.887H221.601C221.985 232.888 222.352 233.042 222.623 233.313C222.895 233.584 223.048 233.951 223.049 234.335V242.163C223.039 242.541 222.882 242.9 222.612 243.164C222.342 243.428 221.979 243.577 221.601 243.579ZM213.056 234.191C213.017 234.191 212.981 234.207 212.954 234.233C212.927 234.26 212.912 234.297 212.912 234.335V242.163C212.912 242.201 212.927 242.238 212.954 242.265C212.981 242.291 213.017 242.307 213.056 242.307H221.601C221.639 242.307 221.676 242.291 221.703 242.265C221.73 242.238 221.745 242.201 221.745 242.163V234.335C221.745 234.297 221.73 234.26 221.703 234.233C221.676 234.207 221.639 234.191 221.601 234.191H213.056Z" fill="#2E4052"/>
<path d="M273.639 238.869H229.234C229.061 238.869 228.895 238.8 228.772 238.678C228.65 238.555 228.581 238.389 228.581 238.216C228.581 238.043 228.65 237.877 228.772 237.755C228.895 237.633 229.061 237.564 229.234 237.564H273.639C273.812 237.564 273.978 237.633 274.1 237.755C274.222 237.877 274.291 238.043 274.291 238.216C274.291 238.389 274.222 238.555 274.1 238.678C273.978 238.8 273.812 238.869 273.639 238.869Z" fill="#2E4052"/>
<path d="M189.832 187.692C190.262 184.332 191.492 181.124 193.42 178.338C194.301 177.098 195.755 175.728 198.639 173.002C203.903 168.057 204.673 168.194 204.96 168.357C205.906 168.892 205.24 171.73 204.96 172.923C203.87 177.568 201.842 178.951 200.511 182.115C199.911 183.563 199.859 184.418 200.315 194.379C200.818 205.208 201.02 207.067 200.119 207.426C198.449 208.078 194.575 202.951 192.507 198.626C190.892 195.197 189.982 191.479 189.832 187.692Z" fill="white"/>
<path d="M191.926 198.887C190.269 195.389 189.334 191.592 189.18 187.725C189.173 187.684 189.173 187.642 189.18 187.601C189.623 184.138 190.894 180.834 192.885 177.966C193.798 176.661 195.273 175.285 198.195 172.538C203.597 167.47 204.575 167.378 205.299 167.789C206.565 168.5 206.128 170.881 205.619 173.054C204.477 177.901 202.455 179.192 201.137 182.35C200.589 183.654 200.537 184.574 200.987 194.327C201.561 206.447 201.731 207.471 200.38 208.026C197.66 209.089 193.205 201.574 191.926 198.887ZM190.484 187.725C190.638 191.393 191.526 194.993 193.094 198.312C195.488 203.316 199.011 207.139 199.878 206.793C200.302 206.369 200.022 201.894 199.663 194.398C199.193 184.241 199.252 183.439 199.911 181.86C201.287 178.599 203.257 177.294 204.327 172.767C204.979 169.877 204.797 169.153 204.679 168.977C204.366 169.068 203.159 169.662 199.082 173.491C196.205 176.192 194.77 177.542 193.929 178.71C192.078 181.397 190.897 184.488 190.484 187.725Z" fill="#2E4052"/>
<path d="M86.0122 197.423L85.8395 197.922C85.1246 199.989 86.2205 202.244 88.2873 202.959L130.345 217.506C132.412 218.221 134.667 217.125 135.382 215.058L135.555 214.559C136.27 212.492 135.174 210.237 133.107 209.522L91.0488 194.975C88.982 194.26 86.7271 195.356 86.0122 197.423Z" fill="white"/>
<path d="M131.636 218.392C130.527 218.392 134.135 219.527 88.0794 203.59C87.5065 203.392 86.9783 203.083 86.5249 202.681C86.0715 202.278 85.7018 201.791 85.437 201.245C85.1723 200.7 85.0176 200.108 84.9818 199.503C84.9461 198.898 85.03 198.292 85.2287 197.719L85.4048 197.217C85.8062 196.061 86.6498 195.111 87.7506 194.577C88.8514 194.042 90.1193 193.966 91.2759 194.366L133.326 208.92C133.899 209.118 134.427 209.427 134.881 209.829C135.334 210.231 135.704 210.719 135.968 211.264C136.233 211.81 136.388 212.402 136.424 213.007C136.459 213.612 136.375 214.218 136.177 214.791L136.007 215.293C135.691 216.2 135.1 216.985 134.317 217.541C133.534 218.096 132.597 218.394 131.636 218.392ZM89.7625 195.423C89.0743 195.423 88.4034 195.638 87.8432 196.038C87.2831 196.438 86.8617 197.003 86.6378 197.654L86.4616 198.149C86.1745 198.978 86.2283 199.887 86.6112 200.676C86.9941 201.465 87.6748 202.07 88.5035 202.357L130.56 216.904C131.389 217.191 132.298 217.138 133.087 216.755C133.876 216.372 134.48 215.691 134.768 214.862L134.937 214.36C135.079 213.95 135.139 213.516 135.113 213.083C135.088 212.65 134.977 212.227 134.787 211.836C134.598 211.446 134.333 211.097 134.008 210.809C133.684 210.522 133.306 210.301 132.895 210.159C87.0292 194.288 90.5714 195.423 89.7625 195.423Z" fill="#2E4052"/>
<path d="M130.867 217.439L142.831 218.092L133.62 209.846C132.375 210.619 131.426 211.788 130.927 213.165C130.427 214.543 130.406 216.048 130.867 217.439Z" fill="white"/>
<path d="M142.863 218.731C141.878 218.731 146.321 218.914 130.867 218.079C130.736 218.072 130.609 218.027 130.505 217.947C130.4 217.868 130.321 217.759 130.28 217.635C129.761 216.103 129.779 214.441 130.328 212.92C130.878 211.4 131.928 210.111 133.306 209.265C133.426 209.192 133.567 209.16 133.706 209.173C133.846 209.185 133.978 209.243 134.083 209.337L143.294 217.576C143.398 217.663 143.473 217.779 143.508 217.91C143.543 218.041 143.536 218.18 143.489 218.307C143.442 218.434 143.356 218.543 143.244 218.619C143.132 218.695 142.999 218.734 142.863 218.731ZM131.395 216.813L141.043 217.328L133.593 210.661C132.646 211.344 131.927 212.296 131.529 213.393C131.131 214.49 131.073 215.682 131.362 216.813H131.395Z" fill="#2E4052"/>
<path d="M87.3227 208.098C89.9468 206.87 92.3237 205.172 94.3354 203.088C97.5058 199.728 103.931 196.662 107.591 197.256C111.251 197.849 125.485 205.462 125.778 206.943C126.072 208.424 114.806 207.041 114.806 207.041C114.806 207.041 119.803 209.911 115.458 212.181C115.458 212.181 119.973 214.458 116.215 217.224C116.215 217.224 119.183 219.794 116.019 222.443C112.855 225.091 112.066 223.623 108.504 225.998C104.943 228.372 95.3596 234.107 91.2042 230.564C87.0487 227.022 79.4163 215.795 87.3227 208.098Z" fill="white"/>
<path d="M90.7541 231.034C87.8381 228.536 83.4282 222.599 83.2325 216.493C83.1607 214.837 83.4482 213.184 84.0754 211.65C84.7026 210.115 85.6547 208.734 86.8661 207.602C89.4666 206.349 91.8339 204.662 93.8657 202.611C97.0557 199.219 103.651 195.925 107.695 196.577C110.853 197.093 126.007 204.712 126.418 206.786C126.448 206.931 126.442 207.081 126.402 207.223C126.361 207.365 126.286 207.495 126.183 207.602C125.309 208.541 120.684 208.287 116.946 207.908C118.25 209.389 118.211 210.961 116.652 212.155C118.609 213.636 118.968 215.58 117.141 217.257C118.557 219.044 118.505 221.171 116.417 222.932C113.084 225.744 112.301 224.237 108.844 226.533C104.134 229.677 95.04 234.707 90.7541 231.034ZM87.6946 208.613C86.6419 209.618 85.8158 210.837 85.2714 212.186C84.7269 213.536 84.4766 214.987 84.5372 216.441C84.7199 222.084 88.9666 227.772 91.6021 230.029C92.5937 230.877 96.7034 233.05 108.119 225.463C111.707 223.069 112.621 224.439 115.576 221.947C115.923 221.703 116.212 221.387 116.424 221.019C116.636 220.652 116.765 220.243 116.802 219.82C116.737 219.008 116.366 218.25 115.765 217.7C115.691 217.636 115.632 217.556 115.594 217.467C115.555 217.377 115.536 217.28 115.54 217.182C115.544 217.084 115.57 216.989 115.615 216.902C115.661 216.816 115.725 216.741 115.804 216.683C116.665 216.03 117.076 215.43 117.03 214.843C116.946 213.871 115.634 213.003 115.139 212.749C115.032 212.694 114.942 212.611 114.88 212.509C114.817 212.406 114.784 212.288 114.784 212.168C114.784 212.048 114.817 211.93 114.88 211.828C114.942 211.726 115.032 211.642 115.139 211.588C115.791 211.248 116.567 210.707 116.58 210.042C116.58 209.037 115.041 207.908 114.486 207.589C114.356 207.514 114.255 207.396 114.201 207.255C114.148 207.115 114.144 206.96 114.192 206.817C114.24 206.674 114.335 206.552 114.463 206.471C114.59 206.391 114.741 206.357 114.891 206.375C118.896 206.865 123.541 207.145 124.93 206.826C122.973 204.869 110.892 198.43 107.493 197.882C104.271 197.36 97.9951 200.152 94.8182 203.518C92.7725 205.635 90.3586 207.361 87.6946 208.613Z" fill="#2E4052"/>
<path d="M62.9055 221.425C62.8049 221.428 62.705 221.408 62.6136 221.366C62.5222 221.323 62.4417 221.261 62.3786 221.183C62.3154 221.104 62.2712 221.012 62.2494 220.914C62.2277 220.816 62.229 220.714 62.2531 220.616L69.9638 190.145C69.9844 190.061 70.0214 189.983 70.0726 189.913C70.1239 189.844 70.1884 189.785 70.2624 189.741C70.3364 189.697 70.4185 189.668 70.5038 189.655C70.5892 189.643 70.6762 189.648 70.7597 189.669C70.8429 189.69 70.921 189.728 70.9897 189.779C71.0583 189.831 71.1161 189.895 71.1598 189.969C71.2034 190.043 71.232 190.125 71.244 190.21C71.2559 190.295 71.251 190.382 71.2294 190.465L63.5383 220.936C63.5021 221.076 63.4202 221.2 63.3057 221.289C63.1911 221.377 63.0503 221.425 62.9055 221.425Z" fill="white"/>
<path d="M46.8905 234.844C46.7682 234.845 46.6481 234.811 46.544 234.747C46.4398 234.683 46.3557 234.591 46.3013 234.482C46.2469 234.372 46.2244 234.25 46.2363 234.128C46.2481 234.006 46.294 233.89 46.3686 233.793C46.7339 233.317 55.3514 222.143 64.1515 220.153L84.6286 208.411C84.7028 208.364 84.7858 208.332 84.8726 208.318C84.9595 208.303 85.0483 208.307 85.1337 208.328C85.2192 208.349 85.2995 208.387 85.3699 208.439C85.4403 208.492 85.4993 208.559 85.5433 208.635C85.5873 208.711 85.6155 208.795 85.6261 208.883C85.6367 208.97 85.6295 209.059 85.605 209.143C85.5805 209.228 85.5392 209.306 85.4835 209.374C85.4278 209.442 85.3589 209.499 85.2809 209.539C63.2773 222.175 64.6799 221.379 64.5298 221.412C56.1668 223.239 47.4971 234.459 47.4058 234.596C47.3444 234.674 47.2661 234.736 47.1768 234.779C47.0875 234.822 46.9896 234.844 46.8905 234.844Z" fill="white"/>
<path d="M53.5574 261.525C53.1401 261.48 52.7389 261.339 52.3856 261.113C52.0323 260.886 51.7367 260.581 51.5221 260.22C51.4525 260.065 51.446 259.889 51.5041 259.729C51.5622 259.57 51.6803 259.439 51.8332 259.365C51.9862 259.291 52.1619 259.28 52.3231 259.333C52.4843 259.387 52.6182 259.502 52.6963 259.652C52.6963 259.698 52.9964 260.115 53.9488 260.259C56.6234 260.657 65.691 258.876 92.3132 233.715C92.4395 233.597 92.6077 233.533 92.7808 233.539C92.9539 233.544 93.1177 233.618 93.2362 233.745C93.3548 233.871 93.4182 234.039 93.4127 234.212C93.4072 234.385 93.3332 234.549 93.2069 234.668C86.5138 241.008 62.625 263.266 53.5574 261.525Z" fill="white"/>
<path d="M148.917 260.357C148.755 260.358 148.598 260.298 148.477 260.189C148.357 260.081 148.281 259.931 148.265 259.77C143.972 218.02 144.201 220.753 144.318 220.499C149.537 209.194 139.386 199.754 139.282 199.663C139.06 199.461 139.334 200.4 136.457 187.868C136.418 187.7 136.448 187.523 136.54 187.376C136.632 187.229 136.778 187.125 136.947 187.086C137.115 187.047 137.292 187.076 137.439 187.168C137.586 187.26 137.69 187.406 137.729 187.575L140.339 198.841C141.643 200.146 150.691 209.572 145.603 220.884L149.563 259.633C149.573 259.724 149.564 259.816 149.536 259.903C149.508 259.99 149.462 260.071 149.401 260.139C149.34 260.207 149.266 260.262 149.182 260.299C149.099 260.337 149.009 260.357 148.917 260.357Z" fill="white"/>
<path d="M156.034 245.529C155.887 245.534 155.742 245.489 155.624 245.402C155.505 245.314 155.42 245.189 155.382 245.046C154.656 242.052 154.235 238.992 154.123 235.914C153.94 231.132 154.468 224.282 158.037 218.829C158.131 218.683 158.279 218.581 158.449 218.545C158.618 218.509 158.795 218.542 158.94 218.636C159.086 218.731 159.187 218.879 159.224 219.048C159.26 219.218 159.227 219.394 159.133 219.54C152.642 229.462 156.602 244.564 156.641 244.72C156.664 244.814 156.666 244.912 156.647 245.007C156.628 245.102 156.588 245.191 156.529 245.269C156.471 245.346 156.397 245.41 156.311 245.455C156.225 245.5 156.131 245.525 156.034 245.529Z" fill="white"/>
<path d="M55.1361 116.032C55.1361 116.032 58.7501 113.671 60.7528 116.411C62.7555 119.151 65.7236 119.079 67.3545 110.181C68.9854 101.283 78.5357 87.4858 100.233 85.2613C100.233 85.2613 107.702 94.903 117.194 98.1647C126.685 101.426 126.326 114.702 129.125 117.148C131.923 119.594 133.163 115.073 134.481 114.63C135.798 114.186 140.026 119.066 140.026 119.066C141.493 96.1555 128.486 75.574 105.027 75.424C103.005 74.6868 87.0879 69.1419 72.2079 78.3921C59.8591 86.0572 53.1595 100.833 55.1361 116.032Z" fill="#2E4052"/>
<path d="M69.305 117.063C69.176 117.063 69.05 117.024 68.9431 116.952C68.8361 116.88 68.7529 116.777 68.704 116.658C68.6551 116.538 68.6428 116.407 68.6685 116.281C68.6942 116.154 68.7568 116.038 68.8484 115.948C70.8782 113.889 73.4262 112.417 76.2232 111.687C79.0202 110.957 81.9625 110.995 84.7395 111.799C84.902 111.858 85.0346 111.979 85.108 112.135C85.1814 112.292 85.1896 112.471 85.1309 112.634C85.0719 112.795 84.952 112.926 84.7969 112.999C84.6419 113.073 84.4642 113.082 84.3024 113.025C81.7595 112.275 79.0597 112.238 76.497 112.917C73.9342 113.595 71.6068 114.964 69.7682 116.874C69.7072 116.934 69.6349 116.982 69.5554 117.015C69.476 117.047 69.3909 117.064 69.305 117.063Z" fill="#2E4052"/>
<path d="M74.2563 122.308C74.1417 122.188 74.0769 122.029 74.0752 121.864C74.0735 121.698 74.135 121.538 74.2471 121.416C74.3592 121.294 74.5135 121.219 74.6788 121.206C74.8441 121.194 75.0079 121.245 75.1369 121.349C76.3177 122.432 77.1527 121.082 78.6726 120.266C79.2302 120.006 79.8381 119.871 80.4535 119.871C81.0689 119.871 81.6769 120.006 82.2344 120.266C82.3901 120.342 82.5092 120.477 82.5655 120.641C82.6218 120.805 82.6106 120.985 82.5345 121.14C82.4584 121.296 82.3235 121.415 82.1596 121.471C81.9956 121.528 81.8161 121.516 81.6604 121.44C81.2897 121.267 80.8865 121.174 80.4773 121.167C80.068 121.16 79.662 121.24 79.2858 121.401C78.0072 122.099 76.3242 124.187 74.2563 122.308Z" fill="#2E4052"/>
<path d="M80.6427 127.755C82.8296 127.755 84.6024 125.982 84.6024 123.795C84.6024 121.608 82.8296 119.836 80.6427 119.836C78.4558 119.836 76.683 121.608 76.683 123.795C76.683 125.982 78.4558 127.755 80.6427 127.755Z" fill="#2E4052"/>
<path d="M118.877 114.16C118.712 114.16 118.553 114.097 118.433 113.984C116.718 112.395 114.571 111.35 112.263 110.981C109.955 110.612 107.589 110.935 105.464 111.91C105.308 111.981 105.129 111.987 104.968 111.927C104.807 111.867 104.676 111.746 104.603 111.59C104.567 111.512 104.547 111.428 104.543 111.342C104.54 111.256 104.553 111.17 104.583 111.09C104.613 111.009 104.658 110.935 104.716 110.872C104.775 110.809 104.845 110.758 104.923 110.722C107.282 109.642 109.908 109.285 112.47 109.695C115.032 110.104 117.416 111.263 119.32 113.025C119.418 113.114 119.486 113.23 119.517 113.359C119.547 113.488 119.537 113.622 119.489 113.745C119.441 113.868 119.357 113.974 119.247 114.048C119.138 114.122 119.009 114.161 118.877 114.16Z" fill="#2E4052"/>
<path d="M112.581 119.17C112.19 119.056 111.779 119.026 111.376 119.082C110.972 119.138 110.585 119.28 110.24 119.496C110.169 119.55 110.088 119.588 110.001 119.609C109.915 119.63 109.826 119.633 109.738 119.618C109.651 119.603 109.567 119.571 109.493 119.522C109.418 119.474 109.354 119.411 109.305 119.338C109.256 119.264 109.222 119.181 109.206 119.094C109.19 119.006 109.192 118.917 109.211 118.83C109.231 118.744 109.268 118.662 109.32 118.591C109.373 118.519 109.439 118.459 109.515 118.413C110.033 118.081 110.618 117.866 111.228 117.786C111.838 117.706 112.459 117.762 113.045 117.95C114.636 118.557 115.654 119.796 116.691 118.603C116.806 118.484 116.961 118.413 117.126 118.405C117.29 118.396 117.452 118.45 117.579 118.556C117.705 118.662 117.787 118.811 117.807 118.975C117.828 119.139 117.786 119.304 117.689 119.438C115.908 121.525 113.964 119.699 112.581 119.17Z" fill="#2E4052"/>
<path d="M111.538 125.661C113.725 125.661 115.497 123.888 115.497 121.701C115.497 119.514 113.725 117.742 111.538 117.742C109.351 117.742 107.578 119.514 107.578 121.701C107.578 123.888 109.351 125.661 111.538 125.661Z" fill="#2E4052"/>
<path d="M94.4007 132.817C94.315 132.814 94.2309 132.793 94.153 132.758C94.0752 132.722 94.0052 132.671 93.9471 132.608C93.8889 132.545 93.8437 132.471 93.8141 132.39C93.7845 132.31 93.771 132.224 93.7744 132.139C93.7779 132.053 93.7981 131.969 93.8341 131.891C93.87 131.813 93.921 131.743 93.984 131.685C94.047 131.627 94.1208 131.582 94.2013 131.552C94.2817 131.523 94.3672 131.509 94.4529 131.512C96.586 131.604 99.1367 131.271 99.5477 130.573C99.9195 129.771 98.1582 124.852 96.286 120.788C96.215 120.631 96.2087 120.453 96.2686 120.292C96.3284 120.13 96.4496 119.999 96.6056 119.927C96.6835 119.891 96.7678 119.87 96.8537 119.867C96.9395 119.863 97.0252 119.877 97.1058 119.906C97.1865 119.936 97.2604 119.981 97.3235 120.04C97.3865 120.098 97.4374 120.168 97.4732 120.247C98.7779 123.026 101.616 129.666 100.683 131.258C99.7499 132.85 96.1686 132.895 94.4007 132.817Z" fill="#2E4052"/>
<path d="M74.6934 137.795C77.7125 137.795 80.16 136.197 80.16 134.226C80.16 132.256 77.7125 130.658 74.6934 130.658C71.6742 130.658 69.2267 132.256 69.2267 134.226C69.2267 136.197 71.6742 137.795 74.6934 137.795Z" fill="#2EC4B6"/>
<path d="M114.754 136.803C117.773 136.803 120.22 135.205 120.22 133.235C120.22 131.264 117.773 129.666 114.754 129.666C111.735 129.666 109.287 131.264 109.287 133.235C109.287 135.205 111.735 136.803 114.754 136.803Z" fill="#2EC4B6"/>
<path d="M96.9513 146.516C91.2955 146.516 88.0664 142.048 88.0273 141.989C87.9421 141.848 87.9136 141.68 87.9475 141.518C87.9814 141.357 88.0751 141.214 88.2099 141.119C88.3446 141.024 88.5104 140.984 88.6738 141.006C88.8372 141.028 88.9861 141.111 89.0906 141.239C90.426 143.015 92.3173 144.292 94.4632 144.868C96.609 145.444 98.8858 145.284 100.931 144.416C101.092 144.354 101.272 144.358 101.431 144.428C101.589 144.499 101.713 144.629 101.775 144.791C101.838 144.953 101.833 145.133 101.763 145.291C101.692 145.449 101.562 145.573 101.4 145.636C99.9853 146.204 98.4763 146.503 96.9513 146.516Z" fill="#2E4052"/>
<path d="M114.812 207.661C114.695 207.661 114.58 207.629 114.48 207.569C112.007 206.194 109.197 205.541 106.371 205.684C106.285 205.692 106.199 205.682 106.117 205.657C106.035 205.631 105.959 205.59 105.893 205.534C105.827 205.479 105.772 205.412 105.732 205.336C105.692 205.259 105.668 205.176 105.66 205.09C105.652 205.005 105.662 204.918 105.687 204.836C105.713 204.754 105.755 204.678 105.81 204.612C105.865 204.546 105.932 204.491 106.009 204.451C106.085 204.411 106.168 204.387 106.254 204.379C109.357 204.201 112.446 204.918 115.152 206.447C115.275 206.52 115.371 206.632 115.424 206.765C115.478 206.899 115.486 207.046 115.447 207.184C115.408 207.322 115.325 207.444 115.211 207.53C115.096 207.616 114.956 207.662 114.812 207.661Z" fill="#2E4052"/>
<path d="M115.465 212.801C115.382 212.802 115.3 212.787 115.224 212.755C111.512 211.268 106.423 211.516 106.371 211.516C106.205 211.516 106.045 211.453 105.923 211.339C105.802 211.225 105.729 211.069 105.719 210.903C105.714 210.817 105.727 210.731 105.756 210.651C105.785 210.57 105.829 210.495 105.887 210.432C105.944 210.368 106.014 210.316 106.091 210.28C106.169 210.243 106.253 210.222 106.339 210.218C106.554 210.218 111.76 209.95 115.739 211.522C115.908 211.559 116.057 211.661 116.151 211.807C116.245 211.952 116.278 212.129 116.241 212.299C116.205 212.468 116.103 212.617 115.957 212.711C115.811 212.805 115.634 212.837 115.465 212.801Z" fill="#2E4052"/>
<path d="M115.961 217.805C112.79 216.591 107.715 217.152 107.663 217.152C107.492 217.171 107.32 217.12 107.186 217.013C107.051 216.905 106.965 216.749 106.945 216.578C106.935 216.493 106.942 216.406 106.966 216.324C106.989 216.241 107.029 216.164 107.082 216.097C107.135 216.03 107.201 215.974 107.276 215.932C107.351 215.89 107.434 215.864 107.519 215.854C107.741 215.854 112.953 215.254 116.424 216.585C116.586 216.646 116.716 216.769 116.787 216.927C116.858 217.085 116.864 217.264 116.802 217.426C116.741 217.588 116.618 217.719 116.46 217.79C116.302 217.861 116.122 217.866 115.961 217.805Z" fill="#2E4052"/>
<path d="M62.0183 102.822C61.9131 102.823 61.8091 102.799 61.7153 102.751C61.6216 102.703 61.5408 102.633 61.4799 102.547C61.419 102.461 61.3798 102.362 61.3657 102.258C61.3515 102.153 61.3628 102.047 61.3986 101.948C66.787 86.84 81.6213 82.1953 81.7583 82.1496C81.9198 82.1114 82.0898 82.1361 82.2337 82.2189C82.3776 82.3016 82.4846 82.4361 82.5328 82.5949C82.581 82.7537 82.5669 82.9249 82.4933 83.0737C82.4197 83.2225 82.2921 83.3376 82.1366 83.3956C81.9931 83.4413 67.7851 87.9098 62.6315 102.385C62.587 102.513 62.5042 102.623 62.3944 102.701C62.2846 102.78 62.1532 102.822 62.0183 102.822Z" fill="white"/>
<path d="M116.267 92.3327C114.278 90.6147 112.507 88.6582 110.996 86.5073C110.939 86.4366 110.898 86.3548 110.874 86.2672C110.851 86.1795 110.846 86.0879 110.86 85.9982C110.874 85.9085 110.906 85.8227 110.955 85.7462C111.004 85.6698 111.068 85.6044 111.144 85.5543C111.22 85.5042 111.305 85.4704 111.394 85.4551C111.484 85.4398 111.576 85.4433 111.664 85.4655C111.752 85.4876 111.834 85.5279 111.906 85.5838C111.977 85.6396 112.036 85.7097 112.079 85.7897C112.157 85.9006 119.496 96.7687 129.875 96.7687H130.071C130.244 96.7687 130.41 96.8374 130.532 96.9597C130.654 97.0821 130.723 97.248 130.723 97.421C130.723 97.594 130.654 97.7599 130.532 97.8823C130.41 98.0046 130.244 98.0734 130.071 98.0734C124.898 98.119 120.175 95.7249 116.267 92.3327Z" fill="white"/>
<path d="M126.887 93.6831C121.473 93.6831 118.361 88.784 118.322 88.7187C118.232 88.5723 118.204 88.3963 118.243 88.229C118.282 88.0616 118.385 87.9165 118.531 87.825C118.604 87.7795 118.685 87.7487 118.769 87.7346C118.854 87.7204 118.941 87.7231 119.024 87.7425C119.108 87.7619 119.187 87.7976 119.257 87.8476C119.326 87.8976 119.386 87.9608 119.431 88.0338C119.607 88.3208 123.9 95.0204 131.265 91.2042C131.419 91.1246 131.598 91.1094 131.763 91.162C131.928 91.2146 132.066 91.3307 132.145 91.4847C132.225 91.6387 132.24 91.8179 132.187 91.9831C132.135 92.1483 132.019 92.2858 131.865 92.3653C130.337 93.2015 128.629 93.6537 126.887 93.6831Z" fill="white"/>
<path d="M39.3298 199.806C39.2142 199.806 39.1008 199.775 39.001 199.717C38.9013 199.658 38.8189 199.574 38.7623 199.474C38.6905 199.35 31.6844 186.714 45.4162 174.495C58.4761 162.871 54.1445 142.863 54.1445 142.648C54.1065 142.475 54.1387 142.294 54.2341 142.145C54.3296 141.995 54.4804 141.89 54.6534 141.852C54.8264 141.814 55.0074 141.846 55.1567 141.942C55.3059 142.037 55.4112 142.188 55.4492 142.361C55.4949 142.57 59.97 163.34 46.3164 175.467C33.4 186.968 39.656 198.352 39.9235 198.828C39.9821 198.929 40.0124 199.044 40.0112 199.161C40.01 199.278 39.9773 199.393 39.9166 199.493C39.8559 199.593 39.7694 199.675 39.6662 199.73C39.5629 199.785 39.4467 199.812 39.3298 199.806Z" fill="white"/>
<path d="M145.355 189.767C145.251 189.766 145.149 189.741 145.057 189.693C144.965 189.645 144.885 189.576 144.825 189.491C144.765 189.406 144.726 189.308 144.712 189.205C144.697 189.102 144.708 188.997 144.742 188.899C144.775 188.795 148.31 178.383 142.276 168.644C135.975 158.48 135.1 142.328 135.048 141.65C135.048 141.482 135.112 141.321 135.228 141.2C135.343 141.078 135.501 141.006 135.668 140.998C135.83 140.991 135.988 141.045 136.112 141.149C136.236 141.252 136.317 141.398 136.34 141.559C136.34 141.728 137.247 158.063 143.372 167.939C149.746 178.227 146.118 188.867 145.981 189.317C145.939 189.449 145.855 189.563 145.742 189.644C145.629 189.725 145.494 189.768 145.355 189.767Z" fill="white"/>
<path d="M59.422 126.985C59.2643 126.987 59.1113 126.931 58.9914 126.829C56.4669 124.643 56.5843 122.615 57.9803 121.147H54.7969C54.6239 121.147 54.4579 121.078 54.3356 120.956C54.2133 120.833 54.1445 120.667 54.1445 120.494C54.1445 120.321 54.2133 120.155 54.3356 120.033C54.4579 119.911 54.6239 119.842 54.7969 119.842H60.0156C60.1638 119.844 60.3068 119.897 60.4212 119.991C60.5355 120.085 60.6144 120.216 60.6447 120.361C60.6751 120.506 60.6552 120.657 60.5883 120.789C60.5214 120.921 60.4114 121.027 60.2766 121.088C60.2766 121.088 58.5152 121.877 58.3195 123.162C58.2021 123.958 58.7175 124.859 59.846 125.837C59.9474 125.924 60.0197 126.039 60.0533 126.168C60.0869 126.298 60.0802 126.434 60.034 126.559C59.9878 126.684 59.9044 126.792 59.7949 126.868C59.6855 126.944 59.5553 126.985 59.422 126.985Z" fill="#2E4052"/>
<path d="M131.813 126.646C131.668 126.647 131.527 126.6 131.413 126.513C131.298 126.425 131.215 126.302 131.178 126.162C131.14 126.023 131.151 125.875 131.206 125.741C131.262 125.608 131.361 125.497 131.486 125.426C132.791 124.676 133.443 123.887 133.496 123.078C133.541 121.975 132.354 120.918 131.891 120.605C131.777 120.529 131.69 120.418 131.642 120.29C131.594 120.161 131.588 120.02 131.625 119.888C131.662 119.756 131.74 119.638 131.847 119.553C131.955 119.467 132.086 119.418 132.224 119.412L137.808 119.105C137.98 119.096 138.148 119.155 138.276 119.27C138.405 119.385 138.482 119.546 138.493 119.718C138.498 119.804 138.486 119.89 138.458 119.971C138.43 120.052 138.386 120.127 138.33 120.191C138.273 120.255 138.203 120.308 138.126 120.345C138.049 120.383 137.965 120.405 137.879 120.41L133.822 120.631C135.694 122.875 134.787 125.041 132.139 126.561C132.039 126.618 131.927 126.647 131.813 126.646Z" fill="#2E4052"/>
<path d="M162.753 71.9078H222.404C222.969 71.9078 223.528 72.0192 224.05 72.2357C224.572 72.4521 225.046 72.7694 225.446 73.1693C225.845 73.5692 226.162 74.0438 226.377 74.5662C226.593 75.0885 226.703 75.6482 226.703 76.2133V111.114C226.703 111.679 226.593 112.239 226.377 112.761C226.162 113.283 225.845 113.758 225.446 114.158C225.046 114.558 224.572 114.875 224.05 115.091C223.528 115.308 222.969 115.419 222.404 115.419H173.797L167.483 132.217C167.448 132.319 167.38 132.407 167.288 132.465C167.197 132.522 167.088 132.547 166.981 132.534C166.874 132.521 166.774 132.471 166.699 132.393C166.624 132.315 166.578 132.214 166.569 132.106L164.743 115.419H162.786C162.221 115.419 161.661 115.308 161.139 115.091C160.617 114.875 160.143 114.558 159.744 114.158C159.344 113.758 159.028 113.283 158.812 112.761C158.597 112.239 158.486 111.679 158.487 111.114V76.2133C158.485 75.0777 158.933 73.9874 159.732 73.1808C160.532 72.3741 161.618 71.9165 162.753 71.9078Z" fill="white"/>
<path d="M165.924 132.178L164.156 116.072H162.753C161.44 116.07 160.18 115.547 159.252 114.617C158.323 113.688 157.802 112.427 157.802 111.114V76.2133C157.802 74.8995 158.323 73.6395 159.252 72.7099C160.18 71.7803 161.44 71.2572 162.753 71.2555H222.404C223.717 71.2572 224.977 71.7803 225.905 72.7099C226.833 73.6395 227.355 74.8995 227.355 76.2133V111.114C227.355 112.427 226.833 113.688 225.905 114.617C224.977 115.547 223.717 116.07 222.404 116.072H174.254L168.096 132.426C168.007 132.66 167.842 132.858 167.628 132.988C167.414 133.118 167.163 133.173 166.914 133.145C166.665 133.116 166.432 133.006 166.253 132.831C166.074 132.656 165.958 132.426 165.924 132.178ZM162.753 72.5602C161.786 72.5619 160.858 72.9476 160.174 73.6325C159.491 74.3174 159.107 75.2456 159.107 76.2133V111.114C159.107 112.081 159.491 113.01 160.174 113.695C160.858 114.379 161.786 114.765 162.753 114.767H164.71C164.872 114.766 165.028 114.825 165.148 114.932C165.268 115.039 165.345 115.187 165.363 115.347L167.111 131.284L173.165 115.191C173.211 115.067 173.294 114.96 173.402 114.884C173.51 114.809 173.639 114.768 173.771 114.767H222.378C223.345 114.765 224.273 114.379 224.956 113.695C225.64 113.01 226.024 112.081 226.024 111.114V76.2133C226.024 75.2456 225.64 74.3174 224.956 73.6325C224.273 72.9476 223.345 72.5619 222.378 72.5602H162.753Z" fill="#2E4052"/>
<path d="M189.832 107.813C186.309 107.885 183.263 106.919 182.421 105.458C181.691 104.186 182.284 102 183.25 101.42C183.654 101.179 184.065 101.302 185.207 101.622C187.36 102.216 193.687 103.86 194.875 101.981C195.094 101.58 195.215 101.133 195.227 100.676C195.129 96.025 189.695 96.2272 185.292 94.5703C181.312 93.0764 179.982 83.1738 186.009 80.5906C189.878 78.9336 194.124 80.5514 197.412 83.1999C197.601 83.353 197.74 83.559 197.811 83.7915C197.882 84.0239 197.881 84.2722 197.81 84.5046C197.236 86.4616 196.108 87.0488 193.896 85.8811C191.848 84.8112 188.495 84.8765 187.588 86.8335C187.446 87.2481 187.389 87.687 187.42 88.1241C187.452 88.5613 187.571 88.9876 187.771 89.3776C189.591 93.1743 195.429 91.2564 198.567 94.3811C200.804 96.6056 201.033 100.539 199.963 102.907C198.391 106.397 193.537 107.735 189.832 107.813Z" fill="#FFD23F"/>
<path d="M191.39 77.0341L190.268 77.0576C189.652 77.0705 189.164 77.5803 189.176 78.1963L189.834 109.606C189.847 110.222 190.357 110.711 190.973 110.698L192.095 110.675C192.711 110.662 193.2 110.152 193.187 109.536L192.529 78.126C192.516 77.5101 192.006 77.0212 191.39 77.0341Z" fill="#FFD23F"/>
</g>
<defs>
<clipPath id="clip0_25_5373">
<rect width="334" height="334" fill="white"/>
</clipPath>
</defs>
</svg>
