<svg width="334" height="334" viewBox="0 0 334 334" fill="none" xmlns="http://www.w3.org/2000/svg">
<g clip-path="url(#clip0_25_5250)">
<g opacity="0.2">
<path d="M249.798 265.075C300.75 214.123 300.75 131.515 249.798 80.5639C198.847 29.6127 116.239 29.6127 65.2876 80.5639C14.3364 131.515 14.3364 214.123 65.2876 265.075C116.239 316.026 198.847 316.026 249.798 265.075Z" fill="#2EC4B6"/>
</g>
<path d="M78.2812 47.184C75.4624 49.005 72.7747 51.0214 70.2379 53.2182C58.3326 63.4926 40.5627 85.7114 45.8206 104.505C48.2604 113.214 53.1008 115.882 52.3441 122.445C51.9135 126.255 48.9062 130.273 41.1042 136.386C23.1321 150.43 50.2957 167.522 80.1013 164.841C109.907 162.16 122.354 154.09 126.418 142.368C135.433 116.274 131.304 93.0046 129.471 88.4448C116.469 56.1537 81.8039 47.9603 78.2812 47.184Z" fill="#2E4052"/>
<path d="M110.898 137.592C116.502 137.266 124.598 137.592 132.184 141.506C147.058 149.113 144.899 161.298 173.752 191.587L212.012 161.827L223.63 172.441C205.188 205.847 177.738 225.391 159.7 220.062C159.7 220.062 144.951 215.678 120.455 170.19C115.164 160.056 111.917 148.98 110.898 137.592Z" fill="white"/>
<path d="M165.976 221.569C163.793 221.581 161.62 221.277 159.524 220.668C158.911 220.486 144.233 215.691 119.894 170.483C115.008 161.422 111.355 149.68 110.246 137.644C110.239 137.558 110.249 137.47 110.276 137.388C110.304 137.305 110.347 137.229 110.404 137.163C110.461 137.097 110.531 137.044 110.609 137.005C110.687 136.967 110.772 136.945 110.859 136.94C119.131 136.451 126.405 137.775 132.484 140.854C147.488 148.539 145.355 160.6 173.817 190.634L211.594 161.279C211.715 161.186 211.865 161.138 212.018 161.144C212.17 161.15 212.316 161.209 212.429 161.312L224.054 171.925C224.162 172.024 224.233 172.156 224.257 172.301C224.281 172.445 224.255 172.593 224.184 172.721C208.032 202.031 184.215 221.569 165.976 221.569ZM121.042 169.864C145.029 214.406 159.752 219.37 159.902 219.442C177.953 224.804 204.914 204.692 222.808 172.604L211.973 162.708L174.137 192.063C174.01 192.163 173.85 192.213 173.688 192.202C173.527 192.191 173.375 192.121 173.262 192.004C144.592 161.905 146.471 149.517 131.878 142.054C126.17 139.138 119.353 137.847 111.596 138.212C112.149 143.834 113.241 149.389 114.858 154.801C116.44 160.006 118.51 165.049 121.042 169.864Z" fill="#2E4052"/>
<path d="M153.953 257.023C153.881 255.719 153.138 220.564 146.503 182.095C142.022 156.139 138.845 151.768 136.151 148.976C131.93 144.592 126.366 141.409 120.168 139.38C118.869 138.941 117.742 138.104 116.945 136.988C116.149 135.872 115.725 134.534 115.732 133.163V115.426H92.8285V133.006C92.8319 134.283 92.4238 135.527 91.6648 136.554C90.9058 137.581 89.8361 138.336 88.6144 138.708C82.3649 140.574 77.0353 143.724 73.6561 148.134C65.828 158.298 72.4819 169.779 73.6561 198.639C74.4165 217.997 72.46 237.367 67.8438 256.182L153.953 257.023Z" fill="white"/>
<path d="M153.953 257.676L67.8438 256.847C67.7432 256.85 67.6433 256.83 67.5518 256.788C67.4604 256.746 67.38 256.683 67.3168 256.605C67.2537 256.526 67.2095 256.435 67.1877 256.336C67.1659 256.238 67.1672 256.136 67.1914 256.038C71.7861 237.282 73.7316 217.974 72.9712 198.678C71.7904 169.733 65.0843 158.193 73.1016 147.749C76.4155 143.431 81.7061 140.091 88.3991 138.095C89.4837 137.76 90.4326 137.087 91.1065 136.173C91.7803 135.26 92.1438 134.155 92.1436 133.019V115.426C92.1436 115.253 92.2123 115.087 92.3346 114.964C92.457 114.842 92.6229 114.773 92.7959 114.773H115.713C115.886 114.773 116.052 114.842 116.174 114.964C116.296 115.087 116.365 115.253 116.365 115.426V133.15C116.358 134.384 116.74 135.589 117.456 136.594C118.173 137.599 119.188 138.352 120.357 138.747C126.881 140.906 132.53 144.279 136.601 148.532C139.654 151.703 142.752 156.641 147.123 181.997C152.694 214.262 154.175 244.655 154.56 256.221C154.56 256.645 154.56 256.873 154.56 256.997C154.567 257.167 154.508 257.333 154.394 257.46C154.281 257.587 154.123 257.664 153.953 257.676ZM68.6722 255.549C157.391 256.371 153.301 256.417 153.301 256.241C152.922 244.694 151.442 214.38 145.884 182.193C141.559 157.215 138.48 152.309 135.688 149.387C131.773 145.31 126.333 142.054 119.973 139.96C118.543 139.479 117.301 138.559 116.424 137.332C115.547 136.105 115.079 134.632 115.086 133.124V116.078H93.4809V133.006C93.4781 134.421 93.0225 135.798 92.1809 136.936C91.3393 138.073 90.1558 138.911 88.8036 139.328C82.378 141.252 77.3158 144.435 74.1715 148.532C66.5978 158.389 73.1408 169.949 74.302 198.613C75.0619 217.755 73.1717 236.911 68.6853 255.536L68.6722 255.549Z" fill="#2E4052"/>
<path d="M70.701 237.76C70.701 237.76 60.1526 274.454 60.4984 303.288H158.037L153.829 237.74L70.701 237.76Z" fill="#2E4052"/>
<path d="M226.787 215.528C226.065 215.536 225.348 215.4 224.679 215.129C224.009 214.858 223.4 214.458 222.886 213.95C222.372 213.442 221.964 212.838 221.686 212.171C221.407 211.505 221.263 210.79 221.262 210.068V104.375C221.25 102.839 221.845 101.36 222.917 100.261C223.99 99.161 225.454 98.5297 226.99 98.5039H301.383C302.134 98.5144 302.876 98.6761 303.564 98.9794C304.251 99.2827 304.871 99.7214 305.385 100.269C305.9 100.817 306.298 101.463 306.558 102.169C306.817 102.874 306.932 103.624 306.895 104.375L304.194 209.402C304.148 210.868 303.539 212.259 302.495 213.287C301.45 214.316 300.05 214.903 298.584 214.928L226.787 215.528Z" fill="#2E4052"/>
<path d="M294.377 99.1432H218.985C216.478 99.1432 214.445 101.176 214.445 103.684V210.361C214.445 212.869 216.478 214.902 218.985 214.902H294.377C296.884 214.902 298.917 212.869 298.917 210.361V103.684C298.917 101.176 296.884 99.1432 294.377 99.1432Z" fill="white"/>
<path d="M294.377 215.554H218.985C217.601 215.554 216.274 215.004 215.295 214.025C214.316 213.047 213.767 211.719 213.767 210.335V103.684C213.767 102.299 214.316 100.972 215.295 99.9933C216.274 99.0146 217.601 98.4648 218.985 98.4648H294.377C295.761 98.4648 297.088 99.0146 298.067 99.9933C299.046 100.972 299.595 102.299 299.595 103.684V210.355C299.59 211.735 299.038 213.058 298.06 214.032C297.082 215.007 295.757 215.554 294.377 215.554ZM218.985 99.8086C217.947 99.8086 216.952 100.221 216.218 100.955C215.484 101.689 215.071 102.685 215.071 103.723V210.355C215.071 211.393 215.484 212.388 216.218 213.122C216.952 213.856 217.947 214.269 218.985 214.269H294.377C295.415 214.269 296.41 213.856 297.144 213.122C297.878 212.388 298.291 211.393 298.291 210.355V103.684C298.291 102.645 297.878 101.65 297.144 100.916C296.41 100.182 295.415 99.7695 294.377 99.7695L218.985 99.8086Z" fill="#2E4052"/>
<path d="M289.719 107.859H223.65C222.702 107.859 221.934 108.627 221.934 109.574V128.544C221.934 129.492 222.702 130.26 223.65 130.26H289.719C290.666 130.26 291.435 129.492 291.435 128.544V109.574C291.435 108.627 290.666 107.859 289.719 107.859Z" fill="#2E4052"/>
<path d="M251.1 136.385H225.339C224.121 136.385 223.134 137.373 223.134 138.59V166.439C223.134 167.657 224.121 168.644 225.339 168.644H251.1C252.318 168.644 253.305 167.657 253.305 166.439V138.59C253.305 137.373 252.318 136.385 251.1 136.385Z" fill="white"/>
<path d="M251.094 169.296H225.339C224.582 169.295 223.856 168.993 223.321 168.457C222.785 167.922 222.484 167.196 222.482 166.439V138.59C222.482 137.833 222.783 137.106 223.319 136.57C223.855 136.034 224.581 135.733 225.339 135.733H251.094C251.851 135.733 252.578 136.034 253.114 136.57C253.65 137.106 253.951 137.833 253.951 138.59V166.439C253.949 167.196 253.648 167.922 253.112 168.457C252.577 168.993 251.851 169.295 251.094 169.296ZM225.339 137.038C224.927 137.038 224.532 137.201 224.241 137.493C223.95 137.784 223.787 138.179 223.787 138.59V166.439C223.788 166.85 223.952 167.244 224.243 167.535C224.534 167.826 224.928 167.99 225.339 167.992H251.094C251.505 167.992 251.9 167.828 252.191 167.537C252.483 167.246 252.646 166.851 252.646 166.439V138.59C252.647 138.386 252.608 138.184 252.53 137.995C252.452 137.806 252.338 137.635 252.193 137.491C252.049 137.346 251.878 137.232 251.689 137.154C251.5 137.077 251.298 137.037 251.094 137.038H225.339Z" fill="#2E4052"/>
<path d="M289.23 136.385H263.077C261.859 136.385 260.872 137.373 260.872 138.59V166.439C260.872 167.657 261.859 168.644 263.077 168.644H289.23C290.447 168.644 291.435 167.657 291.435 166.439V138.59C291.435 137.373 290.447 136.385 289.23 136.385Z" fill="white"/>
<path d="M289.223 169.296H263.077C262.32 169.295 261.594 168.993 261.059 168.457C260.523 167.922 260.222 167.196 260.22 166.439V138.59C260.222 137.833 260.523 137.107 261.059 136.572C261.594 136.036 262.32 135.735 263.077 135.733H289.223C289.982 135.733 290.709 136.034 291.246 136.57C291.783 137.105 292.085 137.832 292.087 138.59V166.439C292.085 167.197 291.783 167.924 291.246 168.46C290.709 168.995 289.982 169.296 289.223 169.296ZM263.077 137.038C262.665 137.038 262.27 137.201 261.979 137.493C261.688 137.784 261.525 138.179 261.525 138.59V166.439C261.526 166.85 261.69 167.244 261.981 167.535C262.272 167.826 262.666 167.99 263.077 167.992H289.223C289.635 167.992 290.031 167.828 290.323 167.537C290.615 167.246 290.78 166.851 290.782 166.439V138.59C290.782 138.386 290.742 138.184 290.663 137.995C290.585 137.806 290.47 137.635 290.325 137.49C290.18 137.346 290.008 137.232 289.819 137.154C289.63 137.077 289.428 137.037 289.223 137.038H263.077Z" fill="#2E4052"/>
<path d="M251.1 174.639H225.339C224.121 174.639 223.134 175.626 223.134 176.844V204.692C223.134 205.91 224.121 206.897 225.339 206.897H251.1C252.318 206.897 253.305 205.91 253.305 204.692V176.844C253.305 175.626 252.318 174.639 251.1 174.639Z" fill="white"/>
<path d="M251.094 207.55H225.339C224.582 207.548 223.856 207.246 223.321 206.711C222.785 206.175 222.484 205.45 222.482 204.692V176.844C222.484 176.087 222.785 175.361 223.321 174.825C223.856 174.29 224.582 173.988 225.339 173.987H251.094C251.851 173.988 252.577 174.29 253.112 174.825C253.648 175.361 253.949 176.087 253.951 176.844V204.692C253.949 205.45 253.648 206.175 253.112 206.711C252.577 207.246 251.851 207.548 251.094 207.55ZM225.339 175.291C224.928 175.293 224.534 175.457 224.243 175.748C223.952 176.039 223.788 176.433 223.787 176.844V204.692C223.788 205.104 223.952 205.498 224.243 205.788C224.534 206.079 224.928 206.243 225.339 206.245H251.094C251.505 206.245 251.9 206.081 252.191 205.79C252.483 205.499 252.646 205.104 252.646 204.692V176.844C252.646 176.432 252.483 176.037 252.191 175.746C251.9 175.455 251.505 175.291 251.094 175.291H225.339Z" fill="#2E4052"/>
<path d="M289.23 174.639H263.077C261.859 174.639 260.872 175.626 260.872 176.844V204.692C260.872 205.91 261.859 206.897 263.077 206.897H289.23C290.447 206.897 291.435 205.91 291.435 204.692V176.844C291.435 175.626 290.447 174.639 289.23 174.639Z" fill="white"/>
<path d="M289.223 207.55H263.077C262.32 207.548 261.594 207.246 261.059 206.711C260.523 206.175 260.222 205.45 260.22 204.692V176.844C260.222 176.087 260.523 175.361 261.059 174.825C261.594 174.29 262.32 173.988 263.077 173.987H289.223C289.982 173.987 290.709 174.287 291.246 174.823C291.783 175.359 292.085 176.085 292.087 176.844V204.692C292.085 205.451 291.783 206.178 291.246 206.713C290.709 207.249 289.982 207.55 289.223 207.55ZM263.077 175.291C262.666 175.293 262.272 175.457 261.981 175.748C261.69 176.039 261.526 176.433 261.525 176.844V204.692C261.526 205.104 261.69 205.498 261.981 205.788C262.272 206.079 262.666 206.243 263.077 206.245H289.223C289.635 206.245 290.031 206.082 290.323 205.791C290.615 205.5 290.78 205.105 290.782 204.692V176.844C290.78 176.431 290.615 176.037 290.323 175.746C290.031 175.455 289.635 175.291 289.223 175.291H263.077Z" fill="#2E4052"/>
<path d="M240.082 144.051H236.351C236.178 144.051 236.038 144.191 236.038 144.364V160.666C236.038 160.839 236.178 160.979 236.351 160.979H240.082C240.255 160.979 240.395 160.839 240.395 160.666V144.364C240.395 144.191 240.255 144.051 240.082 144.051Z" fill="#2E4052"/>
<path d="M246.371 150.333H230.069C229.896 150.333 229.755 150.473 229.755 150.646V154.377C229.755 154.55 229.896 154.69 230.069 154.69H246.371C246.544 154.69 246.684 154.55 246.684 154.377V150.646C246.684 150.473 246.544 150.333 246.371 150.333Z" fill="#2E4052"/>
<path d="M284.304 150.333H268.002C267.829 150.333 267.689 150.473 267.689 150.646V154.377C267.689 154.55 267.829 154.69 268.002 154.69H284.304C284.477 154.69 284.618 154.55 284.618 154.377V150.646C284.618 150.473 284.477 150.333 284.304 150.333Z" fill="#2E4052"/>
<path d="M284.304 192.611H268.002C267.829 192.611 267.689 192.751 267.689 192.924V196.656C267.689 196.828 267.829 196.969 268.002 196.969H284.304C284.477 196.969 284.618 196.828 284.618 196.656V192.924C284.618 192.751 284.477 192.611 284.304 192.611Z" fill="#2E4052"/>
<path d="M284.304 184.568H268.002C267.829 184.568 267.689 184.708 267.689 184.881V188.612C267.689 188.785 267.829 188.925 268.002 188.925H284.304C284.477 188.925 284.618 188.785 284.618 188.612V184.881C284.618 184.708 284.477 184.568 284.304 184.568Z" fill="#2E4052"/>
<path d="M242.442 183.466L230.915 194.994C230.792 195.116 230.792 195.314 230.915 195.436L233.553 198.075C233.675 198.197 233.874 198.197 233.996 198.075L245.523 186.548C245.646 186.425 245.646 186.227 245.523 186.105L242.885 183.466C242.763 183.344 242.564 183.344 242.442 183.466Z" fill="#2E4052"/>
<path d="M233.555 183.479L230.917 186.118C230.794 186.24 230.794 186.438 230.917 186.561L242.444 198.088C242.566 198.21 242.764 198.21 242.887 198.088L245.525 195.449C245.648 195.327 245.648 195.129 245.525 195.006L233.998 183.479C233.876 183.357 233.677 183.357 233.555 183.479Z" fill="#2E4052"/>
<path d="M206.793 165.976C210.329 162.949 209.729 160.353 211.659 157.913C212.214 157.208 212.149 157.574 216.35 154.899C220.753 152.094 221.725 151.129 222.384 151.546C223.356 152.159 222.671 155.147 221.823 157.13C220.668 159.837 218.985 161.227 218 162.297C216.128 164.325 214.256 167.907 214.419 174.73L206.793 165.976Z" fill="white"/>
<path d="M214.432 175.383C214.259 175.383 214.093 175.314 213.971 175.192C213.848 175.069 213.78 174.903 213.78 174.73C213.636 169.022 214.895 164.684 217.524 161.84C218.685 160.581 220.133 159.407 221.229 156.856C222.273 154.41 222.377 152.29 222.038 152.074C221.673 152.074 219.794 153.464 216.709 155.427C212.651 158.037 212.618 157.737 212.175 158.298C210.342 160.62 210.909 163.301 207.224 166.452C207.16 166.516 207.083 166.565 207 166.598C206.916 166.631 206.826 166.646 206.736 166.642C206.646 166.638 206.558 166.616 206.477 166.576C206.396 166.537 206.324 166.481 206.266 166.412C206.207 166.343 206.164 166.263 206.138 166.177C206.112 166.091 206.105 166 206.116 165.911C206.126 165.821 206.156 165.735 206.202 165.658C206.247 165.58 206.309 165.513 206.382 165.461C209.781 162.551 209.109 160.079 211.151 157.489C211.803 156.654 211.803 157.006 216.004 154.325C220.694 151.344 221.64 150.28 222.736 150.978C224.622 152.172 222.521 157.156 222.43 157.371C221.275 160.085 219.703 161.403 218.483 162.721C216.095 165.33 214.947 169.342 215.078 174.698C215.082 174.786 215.069 174.873 215.038 174.956C215.008 175.038 214.961 175.114 214.901 175.178C214.841 175.242 214.768 175.293 214.687 175.328C214.607 175.363 214.52 175.382 214.432 175.383Z" fill="#2E4052"/>
<path d="M90.3235 131.995H117.585L118.479 135.792C118.479 135.792 132.55 139.054 138.754 144.729C144.957 150.404 158.324 172.16 158.324 172.16L149.191 180.262C151.013 202.833 152.838 225.404 154.664 247.975L60.4918 243.618C60.4918 243.618 81.1059 139.282 81.6082 138.023C82.1105 136.764 88.9014 135.596 88.9014 135.596L90.3235 131.995Z" fill="#2EC4B6"/>
<path d="M119.255 206.923C138.425 206.923 153.966 191.383 153.966 172.212C153.966 153.042 138.425 137.501 119.255 137.501C100.084 137.501 84.5438 153.042 84.5438 172.212C84.5438 191.383 100.084 206.923 119.255 206.923Z" fill="#FFD23F"/>
<path d="M119.379 192.637C114.284 193.289 109.724 192.324 108.289 190.334C107.037 188.593 107.571 185.337 108.889 184.359C109.437 183.948 110.05 184.065 111.773 184.359C114.976 184.9 124.402 186.316 125.837 183.439C126.101 182.822 126.208 182.15 126.15 181.482C125.315 174.756 117.481 175.852 110.846 174.111C104.858 172.538 101.453 158.389 109.803 153.744C115.165 150.77 121.545 152.44 126.718 155.806C127.009 155.999 127.236 156.273 127.372 156.594C127.508 156.916 127.546 157.27 127.481 157.613C126.946 160.561 125.394 161.527 121.975 160.222C118.851 158.976 113.997 159.57 112.979 162.544C112.431 164.143 113.416 165.871 113.632 166.204C116.841 171.423 125.015 167.783 130.032 171.847C133.6 174.737 134.513 180.406 133.293 184C131.558 189.317 124.722 191.978 119.379 192.637Z" fill="white"/>
<path d="M117.561 147.733L114.893 148.063C114.293 148.138 113.866 148.685 113.941 149.286L119.704 195.755C119.778 196.356 120.326 196.782 120.926 196.708L123.594 196.377C124.194 196.302 124.621 195.755 124.546 195.154L118.783 148.685C118.709 148.085 118.161 147.658 117.561 147.733Z" fill="white"/>
<path d="M119.229 201.574C113.576 201.576 108.042 199.945 103.293 196.878C98.5446 193.811 94.7825 189.437 92.459 184.284C90.1356 179.13 89.3497 173.415 90.1958 167.825C91.0419 162.236 93.4839 157.009 97.2285 152.774C100.973 148.539 105.861 145.475 111.305 143.951C116.749 142.426 122.517 142.506 127.916 144.181C133.316 145.855 138.117 149.053 141.743 153.391C145.369 157.728 147.665 163.02 148.356 168.631C148.871 172.758 148.501 176.947 147.272 180.921C146.043 184.894 143.983 188.561 141.228 191.677C138.473 194.792 135.086 197.286 131.294 198.993C127.501 200.699 123.388 201.579 119.229 201.574ZM119.275 144.22C113.576 144.211 108.01 145.938 103.317 149.17C98.6247 152.403 95.0277 156.988 93.0053 162.315C90.9829 167.643 90.6309 173.46 91.9962 178.992C93.3616 184.524 96.3795 189.51 100.648 193.284C104.917 197.059 110.234 199.444 115.892 200.122C121.55 200.8 127.28 199.739 132.32 197.08C137.36 194.421 141.47 190.29 144.104 185.237C146.738 180.184 147.771 174.448 147.064 168.794C146.23 162.007 142.945 155.76 137.827 151.225C132.71 146.69 126.112 144.18 119.275 144.168V144.22Z" fill="white"/>
<path d="M150.104 173.895C146.503 179.851 140.254 184.196 140.254 184.196C140.254 184.196 143.516 174.678 141.265 174.561C139.014 174.443 137.573 180.595 132.785 182.389C130.304 183.402 128.22 185.195 126.848 187.497L79.038 196.851C81.1777 177.859 83.3195 158.867 85.4635 139.876C81.9083 139.647 72.8016 139.562 66.2977 145.407C60.968 150.202 59.161 156.334 57.5824 163.288C48.8084 201.933 44.4246 221.255 49.9891 227.218C50.0609 227.303 50.1587 227.374 50.237 227.453C53.6227 233.324 64.3994 235.79 75.9067 231.073C95.5861 225.665 114.279 217.159 131.284 205.873C131.284 205.873 140.052 204.184 146.777 197.582C153.503 190.98 154.605 180.934 155.382 173.895C156.158 166.856 153.699 167.933 150.104 173.895Z" fill="white"/>
<path d="M64.0406 234.191C57.2627 234.191 51.9527 231.582 49.689 227.851C42.9503 221.706 49.5586 195.534 56.917 163.145C58.5152 156.099 60.4201 149.778 65.8019 144.951C72.1101 139.282 80.8058 138.936 85.4701 139.23C85.5592 139.235 85.6464 139.259 85.726 139.299C85.8057 139.34 85.8762 139.396 85.9332 139.465C86.2072 139.797 86.5204 136.046 79.7556 196.049L126.418 186.916C127.853 184.599 129.993 182.802 132.524 181.789C137.214 180.04 138.466 173.765 141.278 173.961C143.835 174.085 142.217 179.995 141.487 182.441C143.555 180.758 147.143 177.516 149.511 173.589C152.635 168.416 154.077 168.187 154.879 168.461C156.015 168.846 156.354 170.555 155.969 174C155.206 180.901 154.044 191.326 147.175 198.078C140.848 204.301 132.654 206.245 131.519 206.493C114.494 217.769 95.7899 226.277 76.1024 231.699C72.2798 233.299 68.1842 234.145 64.0406 234.191ZM63.5057 149.543C61.2486 152.72 59.7677 156.615 58.2217 163.438C49.5064 201.809 45.1357 221.066 50.4653 226.761C50.5923 226.862 50.7043 226.981 50.798 227.114C53.9162 232.489 64.0667 235.209 75.6588 230.454C91.1521 226.188 106.053 220.008 120.018 212.057C127.481 207.791 130.795 205.293 131.18 205.221C131.265 205.221 139.836 203.499 146.314 197.132C152.792 190.765 153.934 180.954 154.723 173.837C155.14 170.125 154.521 169.681 154.514 169.675C154.508 169.668 153.483 169.603 150.678 174.241C147.058 180.249 140.893 184.561 140.665 184.744C140.552 184.822 140.418 184.864 140.28 184.861C140.143 184.859 140.01 184.813 139.9 184.731C139.79 184.648 139.709 184.533 139.668 184.402C139.628 184.271 139.629 184.13 139.673 184C141.069 179.897 141.82 175.709 141.252 175.22C139.615 175.148 137.945 181.182 133.032 183.009C130.684 183.966 128.713 185.666 127.422 187.849C127.187 188.221 130.312 187.49 79.1489 197.497C79.0488 197.516 78.9456 197.511 78.8477 197.483C78.7498 197.455 78.6599 197.404 78.585 197.335C78.5102 197.266 78.4526 197.181 78.4168 197.085C78.3811 196.99 78.3682 196.887 78.3791 196.786L84.7264 140.495C76.0829 140.097 68.4961 142.518 63.5057 149.53V149.543Z" fill="#2E4052"/>
<path d="M91.9805 134.618C91.9805 134.618 71.3664 136.014 64.158 144.729C56.9496 153.444 52.2593 179.205 52.2593 179.205L83.4543 189.18C80.3557 171.566 85.3135 153.464 98.5365 141.559L97.9494 134.631L91.9805 134.618Z" fill="#2EC4B6"/>
<path d="M80.1861 187.307C80.0934 187.308 80.0017 187.289 79.9169 187.252C79.8322 187.214 79.7565 187.159 79.6948 187.09C79.633 187.021 79.5868 186.939 79.559 186.851C79.5312 186.762 79.5226 186.669 79.5337 186.577L82.7955 160.738C82.8059 160.652 82.8332 160.57 82.8756 160.495C82.9181 160.42 82.9749 160.355 83.0428 160.302C83.1107 160.249 83.1883 160.21 83.2713 160.188C83.3542 160.165 83.4408 160.159 83.5261 160.17C83.6114 160.18 83.6939 160.208 83.7686 160.25C83.8434 160.293 83.909 160.349 83.9618 160.417C84.0145 160.485 84.0533 160.563 84.076 160.646C84.0986 160.729 84.1046 160.815 84.0936 160.901L80.8319 186.74C80.8114 186.897 80.7345 187.041 80.6157 187.145C80.4969 187.25 80.3442 187.307 80.1861 187.307Z" fill="white"/>
<path d="M117.702 303.94C117.605 303.942 117.509 303.922 117.42 303.882C117.332 303.841 117.254 303.782 117.191 303.707C117.129 303.633 117.083 303.546 117.059 303.452C117.035 303.357 117.032 303.259 117.05 303.164C120.429 284.702 120.129 285.922 120.397 285.694L131.121 276.529C131.253 276.416 131.423 276.36 131.596 276.374C131.768 276.387 131.928 276.469 132.041 276.6C132.153 276.732 132.209 276.903 132.196 277.075C132.182 277.248 132.101 277.408 131.969 277.52L121.421 286.535L118.335 303.405C118.308 303.554 118.23 303.688 118.115 303.786C117.999 303.883 117.853 303.938 117.702 303.94Z" fill="white"/>
<path d="M140.861 74.7129C140.861 74.7129 140.084 74.1519 138.695 73.2778C135.722 65.0135 129.892 58.0846 122.257 53.7421C114.623 49.3996 105.688 47.9296 97.0652 49.5977C88.4422 51.2657 80.6998 55.9618 75.2358 62.8381C69.7718 69.7143 66.9464 78.3175 67.2697 87.0944C66.0564 87.0625 64.8521 87.3096 63.7494 87.8167C62.6468 88.3238 61.6753 89.0774 60.91 90.0193C60.1446 90.9612 59.6057 92.0663 59.335 93.2494C59.0642 94.4325 59.0688 95.6619 59.3483 96.843C59.6278 98.024 60.1748 99.1251 60.9471 100.061C61.7194 100.998 62.6964 101.744 63.8028 102.243C64.9091 102.742 66.1153 102.98 67.3283 102.939C68.5412 102.898 69.7286 102.579 70.7989 102.007C75.4827 113.814 86.005 128.981 109.072 127.918C146.51 126.183 140.861 74.7129 140.861 74.7129Z" fill="white"/>
<path d="M106.763 128.623C85.6397 128.623 75.3848 114.923 70.4531 102.901C69.3021 103.393 68.0572 103.627 66.8061 103.587C65.5549 103.547 64.3276 103.233 63.2105 102.668C62.0933 102.103 61.1133 101.301 60.3393 100.317C59.5652 99.3333 59.0159 98.192 58.7298 96.9733C58.4437 95.7545 58.4279 94.488 58.6833 93.2625C58.9387 92.037 59.4593 90.8823 60.2084 89.8793C60.9576 88.8764 61.9172 88.0496 63.0198 87.4569C64.1225 86.8642 65.3415 86.5201 66.5913 86.4486C66.0107 66.0041 82.8085 48.2734 104.049 48.2734C111.72 48.287 119.203 50.6483 125.492 55.0402C131.781 59.432 136.575 65.6438 139.23 72.8407C140.534 73.6496 141.187 74.1454 141.239 74.1845C141.313 74.2377 141.375 74.3059 141.421 74.3845C141.467 74.4632 141.496 74.5506 141.506 74.6412C141.539 74.9217 144.435 102.855 131.199 118.348C124.852 125.746 116.417 128.623 106.763 128.623ZM71.4055 101.766C76.2459 113.964 86.7095 128.296 109.046 127.259C117.879 126.848 125.002 123.554 130.208 117.474C142.361 103.266 140.508 78.0529 140.241 75.0717C138.388 73.767 138.212 73.8649 138.075 73.4996C135.155 65.3812 129.428 58.5747 121.928 54.309C114.429 50.0432 105.652 48.5995 97.1811 50.2385C88.7106 51.8775 81.1052 56.4911 75.7384 63.2463C70.3715 70.0015 67.5969 78.4531 67.9155 87.0748C67.9186 87.1624 67.904 87.2497 67.8727 87.3315C67.8413 87.4134 67.7937 87.488 67.7329 87.5511C67.6575 87.6296 67.5638 87.688 67.4601 87.7211C67.3564 87.7541 67.2461 87.7607 67.1392 87.7402C66.0323 87.7319 64.938 87.9763 63.9398 88.4548C62.9417 88.9333 62.0659 89.6334 61.3792 90.5016C60.6925 91.3699 60.213 92.3834 59.9773 93.465C59.7417 94.5466 59.7559 95.6677 60.0191 96.7429C60.2823 97.8181 60.7874 98.8191 61.496 99.6696C62.2046 100.52 63.0979 101.198 64.108 101.651C65.1181 102.103 66.2182 102.32 67.3245 102.283C68.4309 102.247 69.5143 101.958 70.4923 101.439C70.5727 101.396 70.6614 101.37 70.7526 101.363C70.8438 101.356 70.9354 101.368 71.0215 101.399C71.1077 101.43 71.1863 101.478 71.2525 101.542C71.3187 101.605 71.3708 101.681 71.4055 101.766Z" fill="#2E4052"/>
<path d="M61.8813 89.0318C61.8813 89.0318 64.3472 87.3031 66.0759 89.0318C67.8046 90.7606 72.0514 92.6067 74.2302 83.8914C77.4136 71.1642 80.3688 65.1039 82.8477 61.3203C84.5829 58.7109 87.7011 55.1426 93.67 52.1875C96.042 56.6658 99.498 60.4784 103.723 63.2773C114.101 69.9312 122.373 65.1235 130.541 70.988C140.456 78.1051 139.138 92.6458 140.932 92.4436C143.157 92.1892 149.132 69.4093 136.464 53.3356C127.161 41.5282 110.37 36.616 93.8397 40.8236C91.3086 34.9069 86.2398 31.2146 80.7928 30.7645C73.1864 30.1383 63.9297 36.329 63.3948 44.6138C63.049 49.8325 66.2781 53.8379 67.5306 55.2274C61.4788 65.3898 59.4627 77.4539 61.8813 89.0318Z" fill="#2E4052"/>
<path d="M85.9659 84.1523C85.8284 84.1537 85.694 84.1116 85.5819 84.0321C85.4697 83.9525 85.3856 83.8396 85.3415 83.7094C85.2973 83.5792 85.2955 83.4384 85.3362 83.307C85.3768 83.1757 85.4579 83.0606 85.5679 82.9781C87.7286 81.2925 90.304 80.221 93.0227 79.8766C95.7414 79.5322 98.5027 79.9276 101.015 81.0211C101.094 81.0585 101.165 81.1114 101.223 81.1766C101.281 81.2417 101.325 81.3179 101.353 81.4006C101.382 81.4832 101.393 81.5707 101.386 81.6577C101.38 81.7448 101.356 81.8297 101.317 81.9074C101.277 81.9851 101.222 82.0541 101.155 82.1102C101.088 82.1663 101.011 82.2084 100.927 82.234C100.844 82.2597 100.756 82.2683 100.669 82.2594C100.582 82.2505 100.498 82.2243 100.422 82.1823C98.1305 81.1798 95.6085 80.8237 93.1292 81.1525C90.6499 81.4814 88.308 82.4828 86.3573 84.048C86.2412 84.1234 86.1041 84.16 85.9659 84.1523Z" fill="#2E4052"/>
<path d="M89.8734 89.6255C89.7618 89.4931 89.7074 89.3219 89.722 89.1494C89.7367 88.9769 89.8193 88.8173 89.9517 88.7057C90.084 88.5941 90.2553 88.5396 90.4278 88.5543C90.6003 88.569 90.7599 88.6516 90.8715 88.784C91.5238 89.5276 91.9805 89.3645 93.2069 88.7057C93.5509 88.5071 93.9084 88.3327 94.2767 88.1838C94.838 88.0051 95.4317 87.9523 96.0157 88.0289C96.5997 88.1056 97.1597 88.3099 97.6559 88.6274C97.7891 88.7276 97.8789 88.8751 97.9069 89.0395C97.9348 89.2039 97.8987 89.3727 97.806 89.5113C97.7133 89.65 97.5711 89.7478 97.4085 89.7848C97.2459 89.8218 97.0753 89.7951 96.9318 89.7103C96.6099 89.5074 96.2487 89.3752 95.872 89.3224C95.4953 89.2695 95.1116 89.2972 94.7464 89.4037C93.4743 89.8864 91.5891 91.6608 89.8734 89.6255Z" fill="#2E4052"/>
<path d="M95.7184 95.5097C97.7864 95.5097 99.4628 93.8332 99.4628 91.7652C99.4628 89.6972 97.7864 88.0208 95.7184 88.0208C93.6504 88.0208 91.9739 89.6972 91.9739 91.7652C91.9739 93.8332 93.6504 95.5097 95.7184 95.5097Z" fill="#2E4052"/>
<path d="M132.837 87.3423C132.741 87.3425 132.646 87.3215 132.559 87.2809C132.473 87.2403 132.396 87.1811 132.334 87.1075C130.92 85.4163 129.036 84.1822 126.921 83.561C124.805 82.9398 122.553 82.9595 120.449 83.6174C120.366 83.6458 120.279 83.6572 120.191 83.6511C120.104 83.645 120.019 83.6215 119.941 83.5819C119.864 83.5423 119.794 83.4874 119.738 83.4206C119.682 83.3538 119.64 83.2764 119.614 83.1929C119.588 83.1094 119.579 83.0216 119.588 82.9347C119.597 82.8478 119.623 82.7635 119.665 82.6869C119.707 82.6103 119.764 82.5429 119.832 82.4887C119.901 82.4345 119.98 82.3947 120.064 82.3715C122.415 81.6372 124.93 81.6173 127.292 82.314C129.655 83.0108 131.757 84.393 133.333 86.2855C133.408 86.3806 133.455 86.4947 133.469 86.6152C133.483 86.7356 133.463 86.8575 133.411 86.9672C133.36 87.077 133.279 87.1702 133.177 87.2364C133.076 87.3027 132.958 87.3394 132.837 87.3423Z" fill="#2E4052"/>
<path d="M126.235 91.2759C125.885 91.1266 125.507 91.0523 125.126 91.058C124.745 91.0636 124.369 91.1489 124.024 91.3085C123.87 91.3793 123.694 91.3873 123.534 91.3309C123.374 91.2744 123.243 91.158 123.167 91.0062C123.092 90.8544 123.078 90.6792 123.13 90.5176C123.181 90.3561 123.294 90.221 123.443 90.1408C123.975 89.8898 124.557 89.7596 125.146 89.7596C125.734 89.7596 126.316 89.8898 126.848 90.1408C127.194 90.3369 127.528 90.5548 127.846 90.7932C128.975 91.6021 129.438 91.8304 130.149 91.1715C130.276 91.0539 130.445 90.9916 130.618 90.9983C130.791 91.005 130.955 91.0803 131.072 91.2074C131.19 91.3346 131.252 91.5033 131.245 91.6764C131.239 91.8495 131.163 92.0128 131.036 92.1305C129.079 93.9375 127.435 91.9217 126.235 91.2759Z" fill="#2E4052"/>
<path d="M124.969 97.2449C127.037 97.2449 128.714 95.5684 128.714 93.5004C128.714 91.4324 127.037 89.756 124.969 89.756C122.901 89.756 121.225 91.4324 121.225 93.5004C121.225 95.5684 122.901 97.2449 124.969 97.2449Z" fill="#2E4052"/>
<path d="M107.539 101.916C107.453 101.901 107.371 101.87 107.298 101.824C107.224 101.777 107.16 101.717 107.11 101.646C107.06 101.575 107.024 101.495 107.005 101.411C106.985 101.326 106.983 101.238 106.997 101.152C107.012 101.067 107.043 100.985 107.09 100.911C107.136 100.838 107.196 100.774 107.267 100.724C107.338 100.673 107.418 100.638 107.503 100.618C107.587 100.599 107.675 100.596 107.761 100.611C109.75 100.957 112.177 100.931 112.621 100.357C113.051 99.6325 111.968 94.8247 110.722 90.7867C110.677 90.6233 110.698 90.4487 110.779 90.3C110.861 90.1513 110.997 90.0402 111.159 89.9902C111.321 89.9401 111.496 89.9551 111.647 90.032C111.798 90.1088 111.913 90.2415 111.968 90.4018C112.836 93.1678 114.734 99.7564 113.658 101.152C112.581 102.548 109.196 102.196 107.539 101.916Z" fill="#2E4052"/>
<path d="M94.0193 101.5C94.2561 99.6486 92.1507 97.8541 89.3168 97.4915C86.4829 97.129 83.9935 98.3358 83.7567 100.187C83.5199 102.038 85.6253 103.833 88.4592 104.195C91.2931 104.558 93.7824 103.351 94.0193 101.5Z" fill="#2EC4B6"/>
<path d="M131.731 105.375C131.967 103.524 129.862 101.73 127.028 101.367C124.194 101.005 121.705 102.211 121.468 104.063C121.231 105.914 123.337 107.708 126.17 108.071C129.004 108.433 131.494 107.227 131.731 105.375Z" fill="#2EC4B6"/>
<path d="M107.943 114.375C106.366 114.406 104.809 114.016 103.433 113.244C102.057 112.472 100.911 111.347 100.115 109.985C100.038 109.83 100.026 109.651 100.081 109.487C100.136 109.323 100.254 109.188 100.409 109.111C100.564 109.034 100.743 109.022 100.907 109.077C101.07 109.132 101.206 109.25 101.283 109.405C101.348 109.405 104.421 115.928 113.677 111.616C113.835 111.543 114.015 111.536 114.177 111.596C114.34 111.656 114.472 111.778 114.545 111.936C114.618 112.093 114.625 112.273 114.565 112.436C114.505 112.598 114.383 112.731 114.225 112.803C112.271 113.778 110.127 114.315 107.943 114.375Z" fill="#2E4052"/>
<path d="M67.6937 99.2541C64.3276 98.0081 62.8859 95.6988 64.5037 92.7306L61.4638 93.383C61.3778 93.4082 61.2875 93.4154 61.1985 93.4041C61.1096 93.3928 61.0239 93.3634 60.9469 93.3175C60.8698 93.2716 60.803 93.2104 60.7507 93.1376C60.6984 93.0647 60.6617 92.9819 60.6428 92.8943C60.6239 92.8066 60.6233 92.716 60.641 92.6281C60.6587 92.5403 60.6943 92.4569 60.7457 92.3834C60.797 92.3099 60.8629 92.2478 60.9394 92.2009C61.0158 92.154 61.1011 92.1234 61.1898 92.1109L65.8867 91.0998C66.0239 91.0707 66.1668 91.0865 66.2943 91.145C66.4217 91.2036 66.527 91.3016 66.5943 91.4246C66.6617 91.5476 66.6876 91.689 66.6683 91.8279C66.6489 91.9669 66.5853 92.0958 66.4869 92.1957C66.4869 92.1957 64.8364 93.9049 65.1822 95.5162C65.4105 96.5273 66.4021 97.3623 68.1243 98.0016C68.2903 98.0587 68.427 98.1794 68.504 98.3372C68.5811 98.495 68.5923 98.677 68.5352 98.8431C68.4781 99.0092 68.3574 99.1458 68.1996 99.2229C68.0418 99.3 67.8598 99.3112 67.6937 99.2541Z" fill="#2E4052"/>
<path d="M70.2118 50.8828C70.1032 50.8834 69.9962 50.8568 69.9006 50.8055C69.8049 50.7543 69.7235 50.6799 69.6638 50.5893C69.5137 50.361 66.0107 44.9335 67.648 40.1518C68.483 37.7055 70.5184 35.9181 73.6887 34.8352C73.7713 34.8009 73.86 34.7839 73.9494 34.7852C74.0387 34.7866 74.1269 34.8063 74.2083 34.8432C74.2897 34.8801 74.3627 34.9333 74.4227 34.9995C74.4827 35.0657 74.5285 35.1436 74.5572 35.2283C74.5858 35.3129 74.5968 35.4026 74.5894 35.4917C74.582 35.5807 74.5563 35.6673 74.514 35.7461C74.4718 35.8248 74.4137 35.8941 74.3436 35.9495C74.2734 36.0048 74.1927 36.0452 74.1062 36.0681C71.3403 37.014 69.579 38.5275 68.8875 40.5758C67.4589 44.7247 70.7271 49.7934 70.7597 49.8456C70.832 49.9443 70.875 50.0614 70.8839 50.1834C70.8928 50.3054 70.8672 50.4274 70.8101 50.5356C70.7529 50.6437 70.6665 50.7336 70.5607 50.7951C70.4549 50.8565 70.334 50.8869 70.2118 50.8828Z" fill="white"/>
<path d="M109.046 59.2002C106.811 57.5221 104.925 55.4236 103.494 53.0225C103.427 52.8717 103.419 52.7009 103.472 52.5445C103.526 52.3881 103.636 52.2578 103.782 52.18C103.928 52.1021 104.098 52.0825 104.258 52.125C104.417 52.1676 104.555 52.2692 104.642 52.4093C104.903 52.8986 111.29 64.3994 127.09 62.625C127.175 62.6156 127.262 62.6231 127.345 62.6472C127.427 62.6713 127.505 62.7114 127.572 62.7654C127.639 62.8193 127.695 62.8859 127.737 62.9614C127.778 63.037 127.804 63.1199 127.814 63.2056C127.823 63.2913 127.816 63.378 127.792 63.4607C127.767 63.5435 127.727 63.6207 127.673 63.6879C127.619 63.7551 127.553 63.8111 127.477 63.8526C127.402 63.8941 127.319 63.9203 127.233 63.9297C120.031 64.7321 113.788 62.8664 109.046 59.2002Z" fill="white"/>
<path d="M119.229 56.8648C117.288 55.9826 115.549 54.7103 114.121 53.1269C114.062 53.0612 114.017 52.9841 113.988 52.9004C113.96 52.8167 113.949 52.7281 113.956 52.6399C113.963 52.5518 113.987 52.466 114.028 52.3877C114.069 52.3094 114.126 52.2403 114.195 52.1845C114.263 52.1288 114.342 52.0875 114.427 52.0633C114.512 52.0391 114.602 52.0324 114.689 52.0437C114.777 52.055 114.861 52.0839 114.938 52.1288C115.014 52.1737 115.08 52.2337 115.132 52.3049C115.387 52.6181 121.577 59.9635 133.887 56.4473C133.971 56.4185 134.059 56.407 134.148 56.4136C134.236 56.4201 134.322 56.4446 134.401 56.4855C134.479 56.5264 134.549 56.5829 134.605 56.6515C134.661 56.7201 134.702 56.7993 134.727 56.8845C134.751 56.9696 134.758 57.0588 134.747 57.1467C134.735 57.2345 134.706 57.3192 134.661 57.3954C134.616 57.4717 134.556 57.5381 134.485 57.5904C134.413 57.6427 134.332 57.68 134.246 57.6998C129.223 59.135 123.945 59.1219 119.229 56.8648Z" fill="white"/>
<path d="M61.5291 81.1711C61.4943 81.0025 61.5275 80.827 61.6216 80.6828C61.7157 80.5386 61.863 80.4374 62.0314 80.4014C73.2647 78.0725 74.7977 64.7908 74.8108 64.6603C74.8289 64.4873 74.9151 64.3286 75.0503 64.2191C75.1855 64.1096 75.3586 64.0583 75.5316 64.0765C75.7046 64.0946 75.8633 64.1808 75.9728 64.316C76.0823 64.4512 76.1336 64.6243 76.1155 64.7973C75.7646 67.3866 74.9981 69.9022 73.8453 72.2471C71.3468 77.368 67.3219 80.6297 62.3054 81.68C62.2209 81.6981 62.1338 81.6992 62.0489 81.6834C61.964 81.6676 61.8831 81.635 61.8109 81.5877C61.7387 81.5404 61.6766 81.4792 61.6282 81.4077C61.5798 81.3362 61.5461 81.2558 61.5291 81.1711Z" fill="white"/>
<path d="M53.2508 80.4144C53.2408 80.3292 53.2478 80.2428 53.2712 80.1602C53.2947 80.0776 53.3342 80.0005 53.3875 79.9332C53.4409 79.8659 53.507 79.8099 53.582 79.7682C53.6571 79.7265 53.7396 79.7 53.8249 79.6903C59.6177 79.038 65.1561 71.4577 65.2148 71.386C65.3156 71.2464 65.4674 71.1523 65.6373 71.1242C65.8071 71.0961 65.9812 71.1362 66.1216 71.2359C66.1916 71.2859 66.2511 71.3492 66.2966 71.4222C66.3421 71.4952 66.3726 71.5765 66.3866 71.6614C66.4005 71.7463 66.3976 71.8331 66.3778 71.9168C66.3581 72.0005 66.322 72.0795 66.2716 72.1492C66.0302 72.4819 60.3288 80.2644 53.9684 80.9885C53.7973 81.0068 53.6258 80.9568 53.4914 80.8493C53.357 80.7417 53.2705 80.5854 53.2508 80.4144Z" fill="white"/>
<path d="M47.0796 148.382C46.9407 148.381 46.8059 148.335 46.6948 148.252C46.5447 148.141 42.9829 145.486 43.1199 142.433C43.1852 140.932 44.105 139.641 45.8532 138.584C56.8126 131.963 57.3019 125.961 56.6169 122.973C56.5876 122.887 56.5768 122.795 56.5852 122.704C56.5936 122.613 56.621 122.525 56.6656 122.445C56.7103 122.365 56.7711 122.296 56.8443 122.241C56.9175 122.187 57.0014 122.148 57.0905 122.128C57.1796 122.108 57.2719 122.106 57.3615 122.124C57.4511 122.142 57.536 122.178 57.6107 122.231C57.6854 122.283 57.7481 122.351 57.7949 122.43C57.8418 122.508 57.8716 122.596 57.8825 122.686C59.6699 130.469 51.5352 136.679 46.5252 139.699C45.1813 140.515 44.4703 141.454 44.4246 142.491C44.3137 144.846 47.4384 147.182 47.4711 147.201C47.5834 147.283 47.6668 147.398 47.7094 147.529C47.752 147.661 47.7514 147.803 47.7078 147.935C47.6642 148.067 47.5798 148.181 47.4668 148.261C47.3539 148.342 47.2183 148.384 47.0796 148.382Z" fill="white"/>
<path d="M65.6845 210.055C65.5736 210.055 65.4645 210.027 65.3675 209.973C65.2705 209.92 65.1888 209.842 65.13 209.748C65.0712 209.654 65.0374 209.547 65.0317 209.436C65.026 209.325 65.0486 209.215 65.0974 209.115C65.2931 208.717 69.8986 199.435 78.7966 196.205C78.8777 196.173 78.9645 196.158 79.0517 196.16C79.1389 196.162 79.2248 196.182 79.3042 196.218C79.3837 196.254 79.4552 196.305 79.5145 196.369C79.5737 196.433 79.6195 196.508 79.6492 196.59C79.6789 196.672 79.6918 196.76 79.6872 196.847C79.6826 196.934 79.6606 197.019 79.6224 197.098C79.5843 197.176 79.5308 197.246 79.4652 197.303C79.3995 197.361 79.323 197.405 79.2402 197.432C70.8184 200.478 66.2977 209.592 66.252 209.683C66.2006 209.791 66.1205 209.883 66.0204 209.948C65.9203 210.014 65.8041 210.051 65.6845 210.055Z" fill="#2E4052"/>
<path d="M169.101 210.055C168.928 210.055 168.762 209.986 168.639 209.864C168.517 209.741 168.448 209.575 168.448 209.402C168.102 198.039 173.015 191.391 173.243 191.137C173.348 190.998 173.503 190.907 173.675 190.883C173.847 190.859 174.021 190.905 174.159 191.01C174.298 191.114 174.389 191.27 174.413 191.441C174.437 191.613 174.391 191.788 174.287 191.926C174.235 191.991 169.42 198.508 169.753 209.389C169.755 209.476 169.739 209.562 169.707 209.643C169.675 209.724 169.627 209.797 169.566 209.859C169.506 209.921 169.433 209.97 169.353 210.004C169.273 210.037 169.187 210.055 169.101 210.055Z" fill="#2E4052"/>
<path d="M153.125 97.1209C152.394 95.9512 152.156 94.5398 152.463 93.1952C152.77 91.8506 153.596 90.6821 154.762 89.9451L199.682 61.6269C200.276 61.2526 200.939 61.0019 201.632 60.8898C202.325 60.7778 203.034 60.8067 203.715 60.9748C204.397 61.1429 205.037 61.4467 205.599 61.8681C206.16 62.2895 206.631 62.8199 206.982 63.4274L213.388 74.5172L251.224 49.8195C252.383 49.0625 253.796 48.7971 255.151 49.0815C256.505 49.366 257.692 50.177 258.449 51.3362C259.206 52.4954 259.471 53.9077 259.187 55.2626C258.902 56.6175 258.091 57.8039 256.932 58.5609L214.471 86.2724C213.877 86.66 213.21 86.9225 212.511 87.0437C211.812 87.165 211.096 87.1425 210.406 86.9777C209.716 86.8129 209.067 86.5091 208.499 86.085C207.93 85.6609 207.454 85.1254 207.1 84.5111L200.648 73.343L160.32 98.7452C159.15 99.4832 157.735 99.7267 156.386 99.4221C155.037 99.1176 153.864 98.2899 153.125 97.1209Z" fill="#2E4052"/>
<path d="M246.071 47.1449L270.083 43.8831C270.194 43.8673 270.307 43.8837 270.408 43.9304C270.51 43.9772 270.596 44.0522 270.656 44.1466C270.716 44.241 270.747 44.3507 270.746 44.4625C270.745 44.5743 270.712 44.6834 270.651 44.7769L257.748 64.4189C257.694 64.4983 257.623 64.5634 257.538 64.6084C257.454 64.6534 257.36 64.6769 257.265 64.6769C257.169 64.6769 257.075 64.6534 256.991 64.6084C256.907 64.5634 256.835 64.4983 256.782 64.4189L245.692 48.0386C245.639 47.9585 245.606 47.8665 245.597 47.7707C245.588 47.6748 245.603 47.5783 245.64 47.4896C245.678 47.401 245.737 47.3231 245.812 47.2629C245.887 47.2027 245.976 47.1622 246.071 47.1449Z" fill="#2E4052"/>
</g>
<defs>
<clipPath id="clip0_25_5250">
<rect width="334" height="334" fill="white"/>
</clipPath>
</defs>
</svg>
