<svg width="334" height="335" viewBox="0 0 334 335" fill="none" xmlns="http://www.w3.org/2000/svg">
<g clip-path="url(#clip0_137_3375)">
<g opacity="0.2">
<path d="M249.798 265.1C300.75 214.149 300.75 131.541 249.798 80.5896C198.847 29.6384 116.239 29.6384 65.2877 80.5896C14.3365 131.541 14.3365 214.149 65.2877 265.1C116.239 316.052 198.847 316.052 249.798 265.1Z" fill="#3E92CC"/>
</g>
<path d="M78.2813 47.2097C75.4625 49.0307 72.7747 51.047 70.2379 53.2439C58.3326 63.5183 40.5628 85.7371 45.8206 104.531C48.2604 113.24 53.1008 115.908 52.3441 122.471C51.9135 126.28 48.9062 130.299 41.1042 136.411C23.1321 150.456 50.2957 167.548 80.1013 164.866C109.907 162.185 122.354 154.116 126.418 142.393C135.433 116.299 131.304 93.0303 129.471 88.4705C116.469 56.1794 81.8039 47.986 78.2813 47.2097Z" fill="#2E4052"/>
<path d="M110.898 137.618C116.502 137.292 124.598 137.618 132.184 141.532C147.058 149.138 144.899 161.324 173.752 191.613L212.012 161.853L223.63 172.466C205.188 205.873 177.738 225.417 159.7 220.087C159.7 220.087 144.951 215.704 120.455 170.216C115.164 160.081 111.917 149.005 110.898 137.618Z" fill="white"/>
<path d="M165.976 221.594C163.793 221.606 161.62 221.303 159.524 220.694C158.911 220.511 144.233 215.717 119.894 170.509C115.008 161.448 111.355 149.706 110.246 137.67C110.239 137.583 110.249 137.496 110.276 137.413C110.304 137.331 110.347 137.254 110.404 137.189C110.461 137.123 110.531 137.069 110.609 137.031C110.687 136.993 110.772 136.971 110.859 136.966C119.131 136.476 126.405 137.801 132.484 140.88C147.488 148.564 145.355 160.626 173.817 190.66L211.594 161.305C211.715 161.211 211.865 161.164 212.018 161.17C212.17 161.176 212.316 161.235 212.429 161.337L224.054 171.951C224.162 172.05 224.233 172.182 224.257 172.326C224.281 172.47 224.255 172.619 224.184 172.747C208.032 202.056 184.215 221.594 165.976 221.594ZM121.042 169.889C145.029 214.431 159.752 219.396 159.902 219.468C177.953 224.83 204.914 204.718 222.808 172.629L211.973 162.733L174.137 192.089C174.01 192.189 173.85 192.239 173.688 192.228C173.527 192.217 173.375 192.146 173.262 192.03C144.592 161.931 146.471 149.543 131.878 142.08C126.17 139.164 119.353 137.872 111.596 138.238C112.149 143.859 113.241 149.414 114.858 154.827C116.44 160.032 118.51 165.075 121.042 169.889Z" fill="#2E4052"/>
<path d="M153.953 257.049C153.881 255.744 153.138 220.59 146.503 182.121C142.022 156.164 138.845 151.793 136.151 149.001C131.93 144.618 126.366 141.434 120.168 139.405C118.869 138.967 117.742 138.13 116.945 137.014C116.149 135.898 115.725 134.56 115.732 133.189V115.451H92.8285V133.032C92.8319 134.309 92.4238 135.553 91.6648 136.58C90.9058 137.607 89.8361 138.362 88.6144 138.734C82.3649 140.599 77.0353 143.75 73.6561 148.16C65.828 158.323 72.4819 169.805 73.6561 198.664C74.4165 218.023 72.46 237.392 67.8438 256.208L153.953 257.049Z" fill="white"/>
<path d="M153.953 257.701L67.8437 256.873C67.7431 256.876 67.6432 256.856 67.5518 256.814C67.4604 256.771 67.38 256.709 67.3168 256.63C67.2536 256.552 67.2094 256.46 67.1877 256.362C67.1659 256.264 67.1672 256.162 67.1914 256.064C71.7861 237.307 73.7315 218 72.9711 198.704C71.7904 169.759 65.0843 158.219 73.1016 147.775C76.4155 143.457 81.706 140.117 88.3991 138.12C89.4837 137.786 90.4325 137.112 91.1064 136.199C91.7803 135.285 92.1438 134.18 92.1435 133.045V115.451C92.1435 115.278 92.2123 115.112 92.3346 114.99C92.4569 114.868 92.6229 114.799 92.7959 114.799H115.713C115.886 114.799 116.052 114.868 116.174 114.99C116.296 115.112 116.365 115.278 116.365 115.451V133.176C116.358 134.41 116.74 135.615 117.456 136.62C118.173 137.624 119.188 138.378 120.357 138.773C126.881 140.932 132.53 144.305 136.601 148.558C139.654 151.728 142.752 156.666 147.123 182.023C152.694 214.288 154.175 244.681 154.56 256.247C154.56 256.671 154.56 256.899 154.56 257.023C154.567 257.193 154.508 257.359 154.394 257.486C154.281 257.612 154.123 257.69 153.953 257.701ZM68.6722 255.575C157.391 256.397 153.301 256.442 153.301 256.266C152.922 244.72 151.442 214.405 145.884 182.219C141.559 157.241 138.479 152.335 135.687 149.412C131.773 145.335 126.333 142.08 119.973 139.986C118.543 139.505 117.301 138.585 116.424 137.358C115.547 136.13 115.079 134.658 115.086 133.15V116.104H93.4808V133.032C93.478 134.447 93.0225 135.824 92.1809 136.961C91.3393 138.099 90.1558 138.937 88.8035 139.353C82.3779 141.278 77.3158 144.461 74.1715 148.558C66.5977 158.415 73.1408 169.974 74.3019 198.638C75.0618 217.781 73.1717 236.937 68.6852 255.562L68.6722 255.575Z" fill="#2E4052"/>
<path d="M70.701 237.785C70.701 237.785 60.1526 274.48 60.4983 303.313H158.037L153.829 237.766L70.701 237.785Z" fill="#2E4052"/>
<path d="M226.787 215.553C226.065 215.561 225.348 215.426 224.679 215.155C224.009 214.884 223.4 214.483 222.886 213.976C222.372 213.468 221.964 212.863 221.685 212.197C221.407 211.531 221.263 210.816 221.262 210.093V104.401C221.25 102.865 221.845 101.386 222.917 100.286C223.99 99.1867 225.454 98.5553 226.989 98.5295H301.383C302.134 98.54 302.876 98.7017 303.564 99.0051C304.251 99.3084 304.871 99.7471 305.385 100.295C305.9 100.843 306.298 101.489 306.558 102.194C306.817 102.9 306.932 103.65 306.895 104.401L304.194 209.428C304.148 210.893 303.539 212.284 302.495 213.313C301.45 214.342 300.05 214.929 298.584 214.953L226.787 215.553Z" fill="#2E4052"/>
<path d="M294.377 99.1689H218.985C216.478 99.1689 214.445 101.202 214.445 103.709V210.387C214.445 212.895 216.478 214.927 218.985 214.927H294.377C296.884 214.927 298.917 212.895 298.917 210.387V103.709C298.917 101.202 296.884 99.1689 294.377 99.1689Z" fill="white"/>
<path d="M294.377 215.58H218.985C217.601 215.58 216.274 215.03 215.295 214.051C214.316 213.072 213.767 211.745 213.767 210.361V103.709C213.767 102.325 214.316 100.998 215.295 100.019C216.274 99.0403 217.601 98.4905 218.985 98.4905H294.377C295.761 98.4905 297.088 99.0403 298.067 100.019C299.046 100.998 299.595 102.325 299.595 103.709V210.38C299.59 211.761 299.038 213.084 298.06 214.058C297.082 215.033 295.757 215.58 294.377 215.58ZM218.985 99.8343C217.947 99.8343 216.952 100.247 216.218 100.981C215.484 101.715 215.071 102.71 215.071 103.748V210.38C215.071 211.419 215.484 212.414 216.218 213.148C216.952 213.882 217.947 214.295 218.985 214.295H294.377C295.415 214.295 296.41 213.882 297.144 213.148C297.878 212.414 298.291 211.419 298.291 210.38V103.709C298.291 102.671 297.878 101.676 297.144 100.942C296.41 100.208 295.415 99.7952 294.377 99.7952L218.985 99.8343Z" fill="#2E4052"/>
<path d="M289.719 107.884H223.65C222.702 107.884 221.934 108.652 221.934 109.6V128.57C221.934 129.517 222.702 130.286 223.65 130.286H289.719C290.666 130.286 291.435 129.517 291.435 128.57V109.6C291.435 108.652 290.666 107.884 289.719 107.884Z" fill="#2E4052"/>
<path d="M251.1 136.411H225.339C224.121 136.411 223.134 137.398 223.134 138.616V166.465C223.134 167.682 224.121 168.67 225.339 168.67H251.1C252.318 168.67 253.305 167.682 253.305 166.465V138.616C253.305 137.398 252.318 136.411 251.1 136.411Z" fill="white"/>
<path d="M251.094 169.322H225.339C224.582 169.32 223.856 169.019 223.321 168.483C222.785 167.948 222.484 167.222 222.482 166.465V138.616C222.482 137.858 222.783 137.132 223.319 136.596C223.855 136.06 224.581 135.759 225.339 135.759H251.094C251.852 135.759 252.578 136.06 253.114 136.596C253.65 137.132 253.951 137.858 253.951 138.616V166.465C253.949 167.222 253.648 167.948 253.112 168.483C252.577 169.019 251.851 169.32 251.094 169.322ZM225.339 137.063C224.927 137.063 224.533 137.227 224.241 137.518C223.95 137.809 223.787 138.204 223.787 138.616V166.465C223.788 166.876 223.952 167.27 224.243 167.561C224.534 167.851 224.928 168.015 225.339 168.017H251.094C251.506 168.017 251.9 167.854 252.192 167.562C252.483 167.271 252.646 166.876 252.646 166.465V138.616C252.647 138.412 252.608 138.21 252.53 138.021C252.452 137.832 252.338 137.661 252.193 137.516C252.049 137.372 251.878 137.258 251.689 137.18C251.5 137.102 251.298 137.063 251.094 137.063H225.339Z" fill="#2E4052"/>
<path d="M289.23 136.411H263.077C261.859 136.411 260.872 137.398 260.872 138.616V166.465C260.872 167.682 261.859 168.67 263.077 168.67H289.23C290.447 168.67 291.435 167.682 291.435 166.465V138.616C291.435 137.398 290.447 136.411 289.23 136.411Z" fill="white"/>
<path d="M289.223 169.322H263.077C262.32 169.32 261.594 169.019 261.059 168.483C260.523 167.948 260.222 167.222 260.22 166.465V138.616C260.222 137.859 260.523 137.133 261.059 136.598C261.594 136.062 262.32 135.761 263.077 135.759H289.223C289.982 135.759 290.709 136.06 291.246 136.595C291.783 137.131 292.085 137.858 292.087 138.616V166.465C292.085 167.223 291.783 167.95 291.246 168.485C290.709 169.021 289.982 169.322 289.223 169.322ZM263.077 137.063C262.665 137.063 262.271 137.227 261.979 137.518C261.688 137.809 261.525 138.204 261.525 138.616V166.465C261.526 166.876 261.691 167.27 261.981 167.561C262.272 167.851 262.666 168.015 263.077 168.017H289.223C289.636 168.017 290.031 167.854 290.323 167.563C290.616 167.272 290.781 166.877 290.782 166.465V138.616C290.782 138.412 290.742 138.209 290.663 138.02C290.585 137.832 290.47 137.66 290.325 137.516C290.18 137.372 290.008 137.257 289.819 137.18C289.63 137.102 289.428 137.063 289.223 137.063H263.077Z" fill="#2E4052"/>
<path d="M251.1 174.665H225.339C224.121 174.665 223.134 175.652 223.134 176.869V204.718C223.134 205.936 224.121 206.923 225.339 206.923H251.1C252.318 206.923 253.305 205.936 253.305 204.718V176.869C253.305 175.652 252.318 174.665 251.1 174.665Z" fill="white"/>
<path d="M251.094 207.575H225.339C224.582 207.574 223.856 207.272 223.321 206.737C222.785 206.201 222.484 205.475 222.482 204.718V176.869C222.484 176.112 222.785 175.386 223.321 174.851C223.856 174.316 224.582 174.014 225.339 174.012H251.094C251.851 174.014 252.577 174.316 253.112 174.851C253.648 175.386 253.949 176.112 253.951 176.869V204.718C253.949 205.475 253.648 206.201 253.112 206.737C252.577 207.272 251.851 207.574 251.094 207.575ZM225.339 175.317C224.928 175.319 224.534 175.483 224.243 175.774C223.952 176.064 223.788 176.458 223.787 176.869V204.718C223.788 205.129 223.952 205.523 224.243 205.814C224.534 206.105 224.928 206.269 225.339 206.271H251.094C251.506 206.271 251.9 206.107 252.192 205.816C252.483 205.525 252.646 205.13 252.646 204.718V176.869C252.646 176.458 252.483 176.063 252.192 175.772C251.9 175.48 251.506 175.317 251.094 175.317H225.339Z" fill="#2E4052"/>
<path d="M289.23 174.665H263.077C261.859 174.665 260.872 175.652 260.872 176.869V204.718C260.872 205.936 261.859 206.923 263.077 206.923H289.23C290.447 206.923 291.435 205.936 291.435 204.718V176.869C291.435 175.652 290.447 174.665 289.23 174.665Z" fill="white"/>
<path d="M289.223 207.575H263.077C262.32 207.574 261.594 207.272 261.059 206.737C260.523 206.201 260.222 205.475 260.22 204.718V176.869C260.222 176.112 260.523 175.386 261.059 174.851C261.594 174.316 262.32 174.014 263.077 174.012H289.223C289.982 174.012 290.709 174.313 291.246 174.849C291.783 175.384 292.085 176.111 292.087 176.869V204.718C292.085 205.476 291.783 206.203 291.246 206.739C290.709 207.274 289.982 207.575 289.223 207.575ZM263.077 175.317C262.666 175.319 262.272 175.483 261.981 175.774C261.691 176.064 261.526 176.458 261.525 176.869V204.718C261.526 205.129 261.691 205.523 261.981 205.814C262.272 206.105 262.666 206.269 263.077 206.271H289.223C289.636 206.271 290.031 206.107 290.323 205.816C290.616 205.525 290.781 205.13 290.782 204.718V176.869C290.781 176.457 290.616 176.062 290.323 175.771C290.031 175.48 289.636 175.317 289.223 175.317H263.077Z" fill="#2E4052"/>
<path d="M240.082 144.076H236.351C236.178 144.076 236.038 144.216 236.038 144.389V160.691C236.038 160.864 236.178 161.004 236.351 161.004H240.082C240.255 161.004 240.395 160.864 240.395 160.691V144.389C240.395 144.216 240.255 144.076 240.082 144.076Z" fill="#2E4052"/>
<path d="M246.371 150.358H230.068C229.896 150.358 229.755 150.498 229.755 150.671V154.403C229.755 154.576 229.896 154.716 230.068 154.716H246.371C246.544 154.716 246.684 154.576 246.684 154.403V150.671C246.684 150.498 246.544 150.358 246.371 150.358Z" fill="#2E4052"/>
<path d="M284.304 150.358H268.002C267.829 150.358 267.689 150.498 267.689 150.671V154.403C267.689 154.576 267.829 154.716 268.002 154.716H284.304C284.477 154.716 284.618 154.576 284.618 154.403V150.671C284.618 150.498 284.477 150.358 284.304 150.358Z" fill="#2E4052"/>
<path d="M284.304 192.637H268.002C267.829 192.637 267.689 192.777 267.689 192.95V196.681C267.689 196.854 267.829 196.994 268.002 196.994H284.304C284.477 196.994 284.618 196.854 284.618 196.681V192.95C284.618 192.777 284.477 192.637 284.304 192.637Z" fill="#2E4052"/>
<path d="M284.304 184.593H268.002C267.829 184.593 267.689 184.733 267.689 184.906V188.638C267.689 188.811 267.829 188.951 268.002 188.951H284.304C284.477 188.951 284.618 188.811 284.618 188.638V184.906C284.618 184.733 284.477 184.593 284.304 184.593Z" fill="#2E4052"/>
<path d="M242.442 183.492L230.915 195.019C230.792 195.141 230.792 195.34 230.915 195.462L233.553 198.1C233.676 198.223 233.874 198.223 233.996 198.1L245.523 186.573C245.646 186.451 245.646 186.253 245.523 186.13L242.885 183.492C242.763 183.369 242.564 183.369 242.442 183.492Z" fill="#2E4052"/>
<path d="M233.555 183.505L230.916 186.143C230.794 186.266 230.794 186.464 230.916 186.586L242.444 198.113C242.566 198.236 242.764 198.236 242.887 198.113L245.525 195.475C245.647 195.353 245.647 195.154 245.525 195.032L233.998 183.505C233.876 183.383 233.677 183.383 233.555 183.505Z" fill="#2E4052"/>
<path d="M206.793 166.001C210.329 162.974 209.729 160.378 211.659 157.938C212.214 157.234 212.149 157.599 216.35 154.925C220.753 152.119 221.725 151.154 222.384 151.572C223.356 152.185 222.671 155.172 221.823 157.156C220.668 159.863 218.985 161.252 218 162.322C216.128 164.351 214.256 167.932 214.419 174.756L206.793 166.001Z" fill="white"/>
<path d="M214.432 175.408C214.259 175.408 214.093 175.34 213.971 175.217C213.848 175.095 213.779 174.929 213.779 174.756C213.636 169.048 214.895 164.71 217.524 161.866C218.685 160.607 220.133 159.432 221.229 156.882C222.273 154.435 222.377 152.315 222.038 152.1C221.673 152.1 219.794 153.49 216.708 155.453C212.651 158.062 212.618 157.762 212.175 158.323C210.342 160.646 210.909 163.327 207.223 166.478C207.16 166.541 207.083 166.591 206.999 166.624C206.915 166.656 206.826 166.671 206.736 166.667C206.646 166.664 206.558 166.641 206.477 166.602C206.396 166.562 206.324 166.506 206.266 166.438C206.207 166.369 206.164 166.289 206.138 166.203C206.112 166.117 206.104 166.026 206.115 165.936C206.126 165.847 206.156 165.761 206.202 165.683C206.247 165.606 206.309 165.539 206.382 165.486C209.781 162.577 209.109 160.104 211.151 157.515C211.803 156.68 211.803 157.032 216.004 154.351C220.694 151.369 221.64 150.306 222.736 151.004C224.621 152.198 222.521 157.182 222.43 157.397C221.275 160.111 219.703 161.429 218.483 162.746C216.095 165.356 214.947 169.368 215.078 174.723C215.082 174.811 215.069 174.899 215.038 174.981C215.008 175.064 214.961 175.14 214.901 175.203C214.84 175.267 214.768 175.319 214.687 175.354C214.607 175.389 214.52 175.408 214.432 175.408Z" fill="#2E4052"/>
<path d="M90.3235 132.021H117.585L118.479 135.818C118.479 135.818 132.55 139.079 138.753 144.755C144.957 150.43 158.324 172.186 158.324 172.186L149.191 180.288C151.013 202.859 152.838 225.43 154.664 248.001L60.4918 243.644C60.4918 243.644 81.1059 139.308 81.6082 138.049C82.1105 136.79 88.9014 135.622 88.9014 135.622L90.3235 132.021Z" fill="#3E92CC"/>
<path d="M119.255 206.949C138.425 206.949 153.966 191.408 153.966 172.238C153.966 153.067 138.425 137.527 119.255 137.527C100.084 137.527 84.5437 153.067 84.5437 172.238C84.5437 191.408 100.084 206.949 119.255 206.949Z" fill="#2E4052"/>
<path d="M119.379 192.663C114.284 193.315 109.724 192.35 108.289 190.36C107.037 188.618 107.571 185.363 108.889 184.384C109.437 183.974 110.05 184.091 111.773 184.384C114.976 184.926 124.402 186.342 125.837 183.465C126.101 182.848 126.208 182.176 126.15 181.508C125.315 174.782 117.481 175.878 110.846 174.136C104.858 172.564 101.453 158.415 109.803 153.77C115.165 150.795 121.545 152.465 126.718 155.831C127.009 156.024 127.236 156.298 127.372 156.62C127.508 156.941 127.546 157.296 127.481 157.638C126.946 160.587 125.394 161.552 121.975 160.248C118.851 159.002 113.997 159.595 112.979 162.57C112.431 164.168 113.416 165.897 113.632 166.23C116.841 171.449 125.015 167.808 130.032 171.873C133.6 174.762 134.513 180.431 133.293 184.026C131.558 189.342 124.722 192.004 119.379 192.663Z" fill="white"/>
<path d="M117.56 147.758L114.893 148.089C114.293 148.163 113.866 148.711 113.941 149.311L119.704 195.781C119.778 196.381 120.326 196.808 120.926 196.733L123.594 196.403C124.194 196.328 124.621 195.781 124.546 195.18L118.783 148.711C118.708 148.11 118.161 147.684 117.56 147.758Z" fill="white"/>
<path d="M119.229 201.6C113.576 201.601 108.042 199.971 103.293 196.903C98.5446 193.836 94.7824 189.463 92.459 184.309C90.1356 179.156 89.3497 173.441 90.1958 167.851C91.0418 162.261 93.4839 157.035 97.2285 152.8C100.973 148.565 105.861 145.501 111.305 143.976C116.749 142.452 122.517 142.532 127.916 144.206C133.316 145.881 138.117 149.079 141.743 153.416C145.369 157.754 147.665 163.046 148.356 168.656C148.871 172.784 148.501 176.973 147.272 180.946C146.043 184.92 143.983 188.586 141.228 191.702C138.473 194.818 135.086 197.312 131.293 199.019C127.501 200.725 123.388 201.605 119.229 201.6ZM119.274 144.246C113.576 144.237 108.01 145.963 103.317 149.196C98.6247 152.428 95.0277 157.013 93.0053 162.341C90.9828 167.668 90.6309 173.485 91.9962 179.018C93.3615 184.55 96.3794 189.535 100.648 193.31C104.917 197.085 110.234 199.47 115.892 200.148C121.55 200.826 127.28 199.765 132.32 197.106C137.36 194.447 141.47 190.316 144.104 185.262C146.738 180.209 147.771 174.474 147.064 168.82C146.23 162.033 142.945 155.785 137.827 151.25C132.71 146.716 126.112 144.206 119.274 144.194V144.246Z" fill="white"/>
<path d="M150.104 173.921C146.503 179.877 140.254 184.221 140.254 184.221C140.254 184.221 143.516 174.704 141.265 174.586C139.015 174.469 137.573 180.62 132.785 182.414C130.304 183.428 128.22 185.221 126.848 187.522L79.038 196.877C81.1777 177.885 83.3196 158.893 85.4636 139.901C81.9083 139.673 72.8016 139.588 66.2977 145.433C60.9681 150.228 59.1611 156.36 57.5824 163.314C48.8084 201.959 44.4247 221.281 49.9891 227.243C50.0609 227.328 50.1588 227.4 50.237 227.478C53.6227 233.349 64.3994 235.815 75.9068 231.099C95.5862 225.691 114.279 217.184 131.284 205.899C131.284 205.899 140.052 204.209 146.777 197.607C153.503 191.006 154.606 180.96 155.382 173.921C156.158 166.882 153.699 167.958 150.104 173.921Z" fill="white"/>
<path d="M64.0406 234.217C57.2628 234.217 51.9527 231.608 49.6891 227.876C42.9504 221.731 49.5586 195.559 56.917 163.17C58.5153 156.125 60.4201 149.804 65.802 144.976C72.1101 139.307 80.8059 138.962 85.4701 139.255C85.5593 139.261 85.6464 139.284 85.7261 139.325C85.8058 139.365 85.8763 139.421 85.9333 139.49C86.2073 139.823 86.5204 136.072 79.7556 196.074L126.418 186.942C127.853 184.624 129.993 182.828 132.524 181.814C137.214 180.066 138.467 173.79 141.278 173.986C143.835 174.11 142.217 180.02 141.487 182.467C143.555 180.783 147.143 177.541 149.511 173.614C152.635 168.441 154.077 168.213 154.879 168.487C156.015 168.872 156.354 170.581 155.969 174.025C155.206 180.927 154.044 191.351 147.175 198.103C140.848 204.327 132.654 206.271 131.519 206.518C114.494 217.794 95.7899 226.302 76.1025 231.725C72.2799 233.325 68.1842 234.171 64.0406 234.217ZM63.5057 149.569C61.2486 152.746 59.7678 156.64 58.2217 163.464C49.5064 201.835 45.1357 221.092 50.4654 226.787C50.5923 226.888 50.7043 227.007 50.7981 227.139C53.9163 232.514 64.0667 235.235 75.6589 230.479C91.1521 226.214 106.053 220.034 120.018 212.083C127.481 207.817 130.795 205.318 131.18 205.246C131.265 205.246 139.836 203.524 146.314 197.157C152.792 190.79 153.934 180.979 154.723 173.862C155.14 170.15 154.521 169.707 154.514 169.7C154.508 169.694 153.483 169.628 150.678 174.267C147.058 180.275 140.893 184.587 140.665 184.769C140.552 184.848 140.418 184.889 140.28 184.887C140.143 184.884 140.01 184.839 139.9 184.756C139.79 184.674 139.709 184.559 139.668 184.428C139.628 184.296 139.629 184.156 139.673 184.026C141.069 179.922 141.82 175.734 141.252 175.245C139.615 175.173 137.945 181.208 133.033 183.034C130.684 183.991 128.713 185.691 127.422 187.874C127.188 188.246 130.312 187.516 79.1489 197.523C79.0488 197.542 78.9457 197.537 78.8478 197.509C78.7499 197.481 78.6599 197.43 78.5851 197.361C78.5103 197.292 78.4527 197.206 78.4169 197.111C78.3811 197.015 78.3682 196.913 78.3791 196.812L84.7265 140.521C76.0829 140.123 68.4961 142.543 63.5057 149.556V149.569Z" fill="#2E4052"/>
<path d="M91.9805 134.643C91.9805 134.643 71.3664 136.039 64.158 144.755C56.9496 153.47 52.2593 179.231 52.2593 179.231L83.4544 189.205C80.3557 171.592 85.3135 153.49 98.5365 141.584L97.9494 134.656L91.9805 134.643Z" fill="#3E92CC"/>
<path d="M80.1861 187.333C80.0934 187.334 80.0017 187.315 79.917 187.277C79.8323 187.239 79.7565 187.184 79.6948 187.115C79.6331 187.046 79.5868 186.965 79.559 186.876C79.5313 186.788 79.5226 186.694 79.5338 186.602L82.7955 160.763C82.806 160.678 82.8332 160.595 82.8756 160.521C82.9181 160.446 82.9749 160.38 83.0428 160.327C83.1107 160.275 83.1883 160.236 83.2713 160.213C83.3542 160.191 83.4408 160.185 83.5261 160.196C83.6114 160.206 83.6939 160.233 83.7686 160.276C83.8434 160.318 83.9091 160.375 83.9618 160.443C84.0145 160.511 84.0533 160.588 84.076 160.671C84.0986 160.754 84.1046 160.841 84.0937 160.926L80.8319 186.765C80.8114 186.922 80.7345 187.066 80.6157 187.171C80.4969 187.275 80.3443 187.333 80.1861 187.333Z" fill="white"/>
<path d="M117.702 303.966C117.605 303.967 117.509 303.947 117.42 303.907C117.332 303.867 117.254 303.807 117.191 303.733C117.128 303.659 117.083 303.571 117.059 303.477C117.035 303.383 117.032 303.285 117.05 303.189C120.429 284.728 120.129 285.948 120.397 285.719L131.121 276.554C131.253 276.442 131.423 276.386 131.596 276.399C131.768 276.413 131.928 276.494 132.041 276.626C132.153 276.757 132.209 276.928 132.195 277.101C132.182 277.273 132.101 277.433 131.969 277.546L121.421 286.561L118.335 303.431C118.308 303.579 118.23 303.714 118.115 303.811C117.999 303.909 117.853 303.963 117.702 303.966Z" fill="white"/>
<path d="M140.861 74.7387C140.861 74.7387 140.084 74.1777 138.695 73.3035C135.722 65.0393 129.892 58.1104 122.257 53.7679C114.623 49.4253 105.688 47.9554 97.0652 49.6234C88.4422 51.2915 80.6998 55.9876 75.2358 62.8638C69.7719 69.7401 66.9464 78.3433 67.2697 87.1202C66.0565 87.0882 64.8521 87.3354 63.7495 87.8425C62.6468 88.3496 61.6754 89.1032 60.91 90.0451C60.1446 90.987 59.6058 92.0921 59.335 93.2751C59.0643 94.4582 59.0688 95.6877 59.3483 96.8687C59.6278 98.0498 60.1748 99.1509 60.9471 100.087C61.7194 101.023 62.6964 101.77 63.8028 102.269C64.9092 102.768 66.1153 103.006 67.3283 102.965C68.5413 102.924 69.7287 102.605 70.7989 102.033C75.4827 113.84 86.005 129.007 109.072 127.944C146.51 126.209 140.861 74.7387 140.861 74.7387Z" fill="white"/>
<path d="M106.763 128.648C85.6397 128.648 75.3848 114.949 70.4531 102.926C69.3021 103.418 68.0572 103.653 66.8061 103.612C65.5549 103.572 64.3276 103.259 63.2105 102.694C62.0933 102.129 61.1133 101.327 60.3393 100.343C59.5652 99.3589 59.0159 98.2176 58.7298 96.9989C58.4437 95.7802 58.4279 94.5136 58.6833 93.2881C58.9387 92.0626 59.4593 90.9079 60.2084 89.905C60.9576 88.902 61.9172 88.0752 63.0198 87.4825C64.1225 86.8899 65.3415 86.5457 66.5913 86.4742C66.0107 66.0298 82.8085 48.2991 104.049 48.2991C111.72 48.3126 119.203 50.674 125.492 55.0658C131.781 59.4576 136.575 65.6694 139.23 72.8663C140.534 73.6752 141.187 74.171 141.239 74.2102C141.313 74.2634 141.375 74.3315 141.421 74.4101C141.467 74.4888 141.496 74.5762 141.506 74.6668C141.539 74.9473 144.435 102.881 131.199 118.374C124.852 125.771 116.417 128.648 106.763 128.648ZM71.4055 101.791C76.2459 113.99 86.7095 128.322 109.046 127.285C117.879 126.874 125.002 123.58 130.208 117.5C142.361 103.292 140.508 78.0786 140.241 75.0974C138.388 73.7927 138.212 73.8905 138.075 73.5252C135.155 65.4069 129.428 58.6003 121.928 54.3346C114.429 50.0689 105.652 48.6251 97.1811 50.2641C88.7106 51.9031 81.1052 56.5167 75.7384 63.272C70.3715 70.0272 67.5969 78.4787 67.9155 87.1005C67.9186 87.1881 67.904 87.2754 67.8727 87.3572C67.8413 87.439 67.7937 87.5137 67.7329 87.5767C67.6575 87.6552 67.5638 87.7137 67.4601 87.7467C67.3564 87.7798 67.2461 87.7864 67.1392 87.7659C66.0323 87.7575 64.938 88.0019 63.9398 88.4804C62.9417 88.959 62.0659 89.659 61.3792 90.5273C60.6925 91.3955 60.213 92.409 59.9774 93.4906C59.7417 94.5722 59.7559 95.6933 60.0191 96.7686C60.2823 97.8438 60.7874 98.8448 61.496 99.6952C62.2046 100.546 63.0979 101.223 64.108 101.676C65.1181 102.129 66.2182 102.346 67.3245 102.309C68.4309 102.272 69.5143 101.984 70.4923 101.465C70.5727 101.422 70.6614 101.396 70.7526 101.389C70.8438 101.382 70.9354 101.394 71.0215 101.425C71.1077 101.456 71.1864 101.504 71.2525 101.567C71.3187 101.63 71.3708 101.707 71.4055 101.791Z" fill="#2E4052"/>
<path d="M61.8813 89.0575C61.8813 89.0575 64.3472 87.3288 66.0759 89.0575C67.8046 90.7863 72.0514 92.6324 74.2302 83.9171C77.4136 71.1898 80.3688 65.1296 82.8477 61.346C84.5829 58.7366 87.7011 55.1683 93.6701 52.2132C96.042 56.6915 99.4981 60.5041 103.723 63.303C114.101 69.9569 122.373 65.1491 130.541 71.0137C140.456 78.1308 139.138 92.6715 140.932 92.4693C143.157 92.2149 149.132 69.435 136.464 53.3613C127.161 41.5539 110.37 36.6417 93.8397 40.8493C91.3086 34.9326 86.2399 31.2403 80.7928 30.7902C73.1865 30.1639 63.9297 36.3547 63.3948 44.6395C63.049 49.8582 66.2781 53.8636 67.5306 55.2531C61.4788 65.4155 59.4627 77.4796 61.8813 89.0575Z" fill="#2E4052"/>
<path d="M94.0192 101.525C94.256 99.6743 92.1506 97.8798 89.3167 97.5172C86.4828 97.1547 83.9935 98.3615 83.7567 100.213C83.5199 102.064 85.6252 103.858 88.4592 104.221C91.2931 104.583 93.7824 103.377 94.0192 101.525Z" fill="#3E92CC"/>
<path d="M131.73 105.401C131.967 103.55 129.862 101.755 127.028 101.393C124.194 101.03 121.705 102.237 121.468 104.088C121.231 105.939 123.336 107.734 126.17 108.096C129.004 108.459 131.494 107.252 131.73 105.401Z" fill="#3E92CC"/>
<path d="M67.6937 99.2798C64.3276 98.0339 62.8859 95.7246 64.5037 92.7564L61.4638 93.4087C61.3778 93.4339 61.2875 93.4411 61.1985 93.4299C61.1096 93.4186 61.0239 93.3891 60.9469 93.3432C60.8698 93.2974 60.803 93.2361 60.7507 93.1633C60.6984 93.0905 60.6617 93.0077 60.6428 92.92C60.6239 92.8324 60.6233 92.7418 60.641 92.6539C60.6587 92.566 60.6943 92.4827 60.7457 92.4092C60.797 92.3357 60.8629 92.2735 60.9394 92.2267C61.0158 92.1798 61.1011 92.1491 61.1898 92.1367L65.8867 91.1255C66.0239 91.0964 66.1668 91.1123 66.2943 91.1708C66.4217 91.2293 66.527 91.3273 66.5943 91.4504C66.6617 91.5734 66.6876 91.7148 66.6683 91.8537C66.6489 91.9926 66.5853 92.1216 66.4869 92.2215C66.4869 92.2215 64.8364 93.9306 65.1822 95.5419C65.4105 96.553 66.4021 97.388 68.1243 98.0273C68.2903 98.0844 68.427 98.2052 68.504 98.363C68.5811 98.5208 68.5923 98.7028 68.5352 98.8689C68.4781 99.035 68.3574 99.1716 68.1996 99.2486C68.0418 99.3257 67.8598 99.3369 67.6937 99.2798Z" fill="#2E4052"/>
<path d="M70.2117 50.9085C70.1032 50.909 69.9962 50.8824 69.9005 50.8312C69.8048 50.7799 69.7235 50.7056 69.6638 50.6149C69.5137 50.3866 66.0106 44.9591 67.648 40.1774C68.483 37.7311 70.5183 35.9437 73.6887 34.8608C73.7712 34.8265 73.8599 34.8095 73.9493 34.8109C74.0387 34.8122 74.1268 34.832 74.2083 34.8688C74.2897 34.9057 74.3627 34.9589 74.4227 35.0251C74.4827 35.0914 74.5285 35.1692 74.5571 35.2539C74.5858 35.3386 74.5968 35.4282 74.5893 35.5173C74.5819 35.6064 74.5563 35.693 74.514 35.7717C74.4717 35.8505 74.4137 35.9197 74.3435 35.9751C74.2734 36.0305 74.1926 36.0709 74.1062 36.0938C71.3403 37.0397 69.5789 38.5531 68.8875 40.6014C67.4588 44.7504 70.7271 49.8191 70.7597 49.8713C70.8319 49.97 70.875 50.087 70.8839 50.209C70.8928 50.331 70.8672 50.4531 70.81 50.5612C70.7529 50.6694 70.6665 50.7593 70.5607 50.8207C70.4549 50.8821 70.334 50.9125 70.2117 50.9085Z" fill="white"/>
<path d="M109.046 59.2259C106.811 57.5477 104.925 55.4492 103.494 53.0482C103.427 52.8974 103.419 52.7265 103.472 52.5701C103.525 52.4137 103.636 52.2835 103.782 52.2056C103.928 52.1277 104.098 52.1081 104.257 52.1507C104.417 52.1933 104.555 52.2949 104.642 52.435C104.903 52.9242 111.29 64.425 127.09 62.6507C127.175 62.6412 127.262 62.6488 127.345 62.6729C127.427 62.6969 127.505 62.7371 127.572 62.791C127.639 62.8449 127.695 62.9115 127.736 62.9871C127.778 63.0626 127.804 63.1456 127.814 63.2312C127.823 63.3169 127.815 63.4036 127.791 63.4864C127.767 63.5691 127.727 63.6463 127.673 63.7135C127.619 63.7808 127.553 63.8367 127.477 63.8782C127.402 63.9197 127.319 63.9459 127.233 63.9553C120.031 64.7577 113.788 62.892 109.046 59.2259Z" fill="white"/>
<path d="M119.229 56.8904C117.288 56.0082 115.549 54.7358 114.121 53.1525C114.062 53.0867 114.017 53.0097 113.988 52.926C113.96 52.8423 113.949 52.7536 113.956 52.6655C113.963 52.5774 113.987 52.4916 114.029 52.4133C114.07 52.335 114.126 52.2659 114.195 52.2101C114.263 52.1544 114.343 52.1131 114.428 52.0889C114.513 52.0647 114.602 52.058 114.689 52.0693C114.777 52.0805 114.861 52.1095 114.938 52.1544C115.014 52.1993 115.08 52.2592 115.132 52.3305C115.387 52.6436 121.577 59.989 133.887 56.4729C133.971 56.4441 134.06 56.4326 134.148 56.4391C134.236 56.4457 134.322 56.4702 134.401 56.5111C134.479 56.552 134.549 56.6084 134.605 56.677C134.661 56.7456 134.702 56.8249 134.727 56.91C134.751 56.9952 134.758 57.0844 134.747 57.1722C134.735 57.2601 134.706 57.3447 134.661 57.421C134.617 57.4973 134.556 57.5636 134.485 57.616C134.414 57.6683 134.332 57.7055 134.246 57.7254C129.223 59.1606 123.945 59.1475 119.229 56.8904Z" fill="white"/>
<path d="M61.5291 81.1969C61.4943 81.0283 61.5276 80.8527 61.6217 80.7085C61.7157 80.5643 61.863 80.4632 62.0314 80.4271C73.2648 78.0983 74.7978 64.8165 74.8108 64.6861C74.829 64.5131 74.9151 64.3543 75.0503 64.2449C75.1855 64.1354 75.3586 64.0841 75.5317 64.1022C75.7047 64.1204 75.8634 64.2065 75.9729 64.3417C76.0824 64.4769 76.1337 64.6501 76.1155 64.8231C75.7647 67.4123 74.9981 69.9279 73.8453 72.2728C71.3469 77.3937 67.3219 80.6554 62.3054 81.7057C62.221 81.7238 62.1338 81.725 62.0489 81.7092C61.964 81.6933 61.8832 81.6608 61.8109 81.6135C61.7387 81.5661 61.6766 81.5049 61.6283 81.4334C61.5799 81.3619 61.5462 81.2815 61.5291 81.1969Z" fill="white"/>
<path d="M53.2508 80.4401C53.2408 80.3549 53.2477 80.2685 53.2712 80.1859C53.2946 80.1033 53.3342 80.0262 53.3875 79.9589C53.4408 79.8916 53.5069 79.8356 53.582 79.7939C53.657 79.7522 53.7395 79.7257 53.8248 79.716C59.6177 79.0637 65.156 71.4834 65.2148 71.4117C65.3155 71.2721 65.4674 71.178 65.6372 71.1499C65.8071 71.1218 65.9812 71.1619 66.1215 71.2616C66.1916 71.3116 66.251 71.3749 66.2965 71.4479C66.342 71.5209 66.3726 71.6022 66.3865 71.6871C66.4005 71.772 66.3975 71.8588 66.3778 71.9425C66.358 72.0262 66.3219 72.1052 66.2716 72.1749C66.0302 72.5076 60.3287 80.2901 53.9684 81.0142C53.7972 81.0325 53.6257 80.9825 53.4913 80.875C53.3569 80.7674 53.2704 80.6111 53.2508 80.4401Z" fill="white"/>
<path d="M47.0797 148.408C46.9408 148.406 46.8059 148.361 46.6948 148.277C46.5447 148.166 42.9829 145.511 43.1199 142.458C43.1852 140.958 44.105 139.666 45.8533 138.609C56.8126 131.988 57.3019 125.987 56.6169 122.999C56.5876 122.912 56.5768 122.821 56.5852 122.73C56.5936 122.639 56.621 122.55 56.6656 122.471C56.7103 122.391 56.7712 122.322 56.8443 122.267C56.9175 122.212 57.0014 122.174 57.0905 122.153C57.1796 122.133 57.2719 122.132 57.3616 122.15C57.4512 122.167 57.5361 122.204 57.6107 122.256C57.6854 122.309 57.7482 122.377 57.795 122.455C57.8418 122.534 57.8716 122.621 57.8825 122.712C59.6699 130.494 51.5352 136.705 46.5252 139.725C45.1813 140.54 44.4703 141.48 44.4246 142.517C44.3137 144.872 47.4385 147.207 47.4711 147.227C47.5834 147.308 47.6669 147.423 47.7094 147.555C47.752 147.687 47.7514 147.829 47.7078 147.961C47.6642 148.092 47.5798 148.206 47.4668 148.287C47.3539 148.367 47.2183 148.41 47.0797 148.408Z" fill="white"/>
<path d="M65.6845 210.08C65.5737 210.08 65.4646 210.052 65.3676 209.999C65.2705 209.945 65.1888 209.868 65.13 209.774C65.0713 209.68 65.0375 209.572 65.0317 209.461C65.026 209.351 65.0486 209.24 65.0974 209.141C65.2931 208.743 69.8987 199.46 78.7966 196.231C78.8778 196.199 78.9645 196.184 79.0517 196.186C79.1389 196.188 79.2248 196.207 79.3043 196.243C79.3838 196.279 79.4553 196.331 79.5145 196.395C79.5738 196.459 79.6196 196.534 79.6492 196.616C79.6789 196.698 79.6918 196.785 79.6872 196.872C79.6826 196.959 79.6606 197.045 79.6225 197.123C79.5844 197.202 79.5309 197.272 79.4652 197.329C79.3996 197.386 79.3231 197.43 79.2402 197.457C70.8185 200.504 66.2977 209.617 66.2521 209.708C66.2007 209.816 66.1205 209.908 66.0204 209.974C65.9203 210.039 65.8041 210.076 65.6845 210.08Z" fill="#2E4052"/>
<path d="M169.1 210.08C168.927 210.08 168.761 210.012 168.639 209.889C168.517 209.767 168.448 209.601 168.448 209.428C168.102 198.064 173.014 191.417 173.243 191.162C173.347 191.024 173.503 190.933 173.675 190.909C173.847 190.885 174.021 190.931 174.159 191.035C174.298 191.14 174.389 191.295 174.413 191.467C174.437 191.639 174.391 191.813 174.287 191.952C174.234 192.017 169.42 198.534 169.753 209.415C169.755 209.502 169.739 209.588 169.707 209.669C169.675 209.749 169.627 209.823 169.566 209.885C169.506 209.947 169.433 209.996 169.353 210.03C169.273 210.063 169.187 210.08 169.1 210.08Z" fill="#2E4052"/>
<path d="M84.6436 86.8874C84.5135 86.8857 84.3869 86.8451 84.2801 86.7708C84.1732 86.6966 84.091 86.592 84.044 86.4707C83.997 86.3494 83.9874 86.2168 84.0164 86.0899C84.0453 85.9631 84.1116 85.8478 84.2066 85.7588C86.1911 83.8782 88.6467 82.5684 91.3141 81.9679C93.9814 81.3673 96.7615 81.4984 99.3605 82.3471C99.5199 82.411 99.6477 82.5352 99.7161 82.6928C99.7845 82.8503 99.788 83.0285 99.7258 83.1886C99.6631 83.3492 99.5395 83.4785 99.3818 83.5481C99.2241 83.6178 99.0452 83.6222 98.8843 83.5604C96.516 82.772 93.9766 82.6495 91.5435 83.2064C89.1103 83.7632 86.8769 84.9779 85.0872 86.7178C84.9659 86.8281 84.8076 86.8886 84.6436 86.8874Z" fill="#2E4052"/>
<path d="M89.1059 94.2916C88.2118 94.2655 87.3647 93.8854 86.7509 93.2348C86.6281 93.1128 86.5587 92.947 86.5581 92.7739C86.5575 92.6008 86.6257 92.4345 86.7477 92.3117C86.8696 92.1889 87.0354 92.1195 87.2085 92.1189C87.3816 92.1183 87.5479 92.1865 87.6707 92.3085C87.9811 92.6373 88.3836 92.8646 88.8254 92.9608C91.3238 93.3913 92.3806 87.9247 100.046 92.4128C100.176 92.5078 100.267 92.6479 100.3 92.8059C100.334 92.9639 100.307 93.1287 100.226 93.2683C100.145 93.4079 100.015 93.5124 99.8609 93.5617C99.7071 93.6109 99.5405 93.6014 99.3933 93.5349C96.8361 92.041 94.7813 91.5778 93.2743 92.2302C91.9436 92.7716 90.7954 94.2916 89.1059 94.2916Z" fill="#2E4052"/>
<path d="M131.495 85.7328C131.324 85.7321 131.16 85.6642 131.038 85.5436C129.474 84.0001 127.487 82.954 125.329 82.5373C123.171 82.1205 120.938 82.3517 118.911 83.2017C118.832 83.2347 118.747 83.2518 118.661 83.2519C118.575 83.2521 118.49 83.2353 118.411 83.2026C118.332 83.1699 118.259 83.1219 118.199 83.0613C118.138 83.0007 118.09 82.9287 118.057 82.8495C118.024 82.7702 118.006 82.6853 118.006 82.5994C118.006 82.5136 118.023 82.4286 118.056 82.3492C118.088 82.2699 118.136 82.1977 118.197 82.1369C118.258 82.0761 118.33 82.0279 118.409 81.9949C120.673 81.045 123.167 80.7859 125.578 81.2502C127.989 81.7145 130.209 82.8815 131.958 84.6043C132.055 84.6947 132.122 84.8124 132.15 84.9417C132.178 85.0711 132.166 85.2059 132.116 85.3284C132.066 85.4509 131.979 85.5551 131.868 85.6274C131.757 85.6996 131.627 85.7364 131.495 85.7328Z" fill="#2E4052"/>
<path d="M125.363 90.2536C125.002 90.1389 124.622 90.1006 124.246 90.1411C123.869 90.1815 123.506 90.2998 123.178 90.4884C123.105 90.5379 123.023 90.5721 122.936 90.589C122.85 90.6059 122.761 90.6051 122.675 90.5867C122.589 90.5683 122.507 90.5327 122.435 90.482C122.363 90.4312 122.302 90.3665 122.256 90.2916C122.21 90.2167 122.179 90.1332 122.166 90.0461C122.153 89.959 122.157 89.8702 122.18 89.785C122.202 89.6998 122.241 89.6199 122.295 89.5502C122.348 89.4805 122.416 89.4224 122.493 89.3794C122.998 89.0814 123.562 88.8977 124.146 88.8413C124.73 88.785 125.319 88.8573 125.872 89.0533C126.233 89.2159 126.584 89.4011 126.922 89.6078C128.122 90.3123 128.599 90.4884 129.244 89.7708C129.36 89.6419 129.523 89.5644 129.696 89.5552C129.869 89.546 130.039 89.606 130.167 89.7219C130.296 89.8378 130.374 90.0002 130.383 90.1733C130.392 90.3464 130.332 90.5161 130.216 90.645C128.435 92.6151 126.609 90.7885 125.363 90.2536Z" fill="#2E4052"/>
<path d="M124.313 96.3138C126.377 96.3138 128.051 94.6402 128.051 92.5758C128.051 90.5114 126.377 88.8379 124.313 88.8379C122.248 88.8379 120.575 90.5114 120.575 92.5758C120.575 94.6402 122.248 96.3138 124.313 96.3138Z" fill="#2E4052"/>
<path d="M107.789 102.55C107.703 102.544 107.62 102.52 107.543 102.482C107.466 102.443 107.398 102.39 107.342 102.324C107.286 102.259 107.243 102.184 107.216 102.102C107.19 102.021 107.179 101.935 107.185 101.849C107.192 101.763 107.215 101.68 107.254 101.603C107.293 101.526 107.346 101.458 107.411 101.402C107.476 101.346 107.552 101.303 107.633 101.276C107.715 101.249 107.801 101.239 107.887 101.245C109.896 101.402 112.303 101.154 112.688 100.534C113.047 99.7776 111.546 95.1003 109.915 91.2124C109.883 91.1331 109.865 91.0482 109.865 90.9623C109.865 90.8765 109.882 90.7915 109.915 90.7121C109.947 90.6328 109.995 90.5606 110.056 90.4998C110.117 90.439 110.189 90.3908 110.268 90.3578C110.347 90.3248 110.432 90.3078 110.518 90.3076C110.604 90.3075 110.689 90.3242 110.768 90.3569C110.847 90.3897 110.919 90.4377 110.98 90.4983C111.041 90.5589 111.089 90.6308 111.122 90.7101C112.238 93.3781 114.736 99.745 113.79 101.232C112.845 102.72 109.459 102.681 107.789 102.55Z" fill="#2E4052"/>
<path d="M109.55 116.758C107.55 116.74 105.599 116.137 103.938 115.023C102.276 113.909 100.978 112.333 100.202 110.489C100.153 110.379 100.136 110.257 100.152 110.138C100.169 110.019 100.218 109.906 100.294 109.813C100.37 109.72 100.471 109.649 100.585 109.61C100.699 109.57 100.821 109.563 100.939 109.589C106.661 110.786 112.582 110.654 118.246 109.204C118.361 109.175 118.482 109.178 118.596 109.213C118.71 109.248 118.812 109.313 118.891 109.402C118.97 109.491 119.024 109.599 119.046 109.716C119.068 109.833 119.057 109.954 119.016 110.065C118.303 112.01 117.016 113.691 115.326 114.887C113.635 116.082 111.621 116.735 109.55 116.758ZM101.996 111.122C102.782 112.467 103.914 113.578 105.274 114.338C106.634 115.098 108.172 115.481 109.73 115.445C111.288 115.41 112.808 114.959 114.132 114.138C115.456 113.316 116.536 112.156 117.261 110.776C112.243 111.881 107.058 111.999 101.996 111.122Z" fill="#2E4052"/>
<path d="M203.134 50.0088C202.979 50.0091 202.826 49.9777 202.684 49.9167C202.542 49.8557 202.415 49.7662 202.308 49.6539C202.202 49.5416 202.121 49.4087 202.068 49.2635C202.015 49.1184 201.993 48.964 202.002 48.8098L204.186 15.0798C204.206 14.7816 204.344 14.5036 204.569 14.3065C204.793 14.1094 205.087 14.0092 205.385 14.0278C213.858 14.584 221.838 18.2016 227.839 24.2059C233.839 30.2103 237.45 38.1914 237.998 46.6607C238.016 46.959 237.916 47.2525 237.719 47.4772C237.522 47.7018 237.244 47.8393 236.945 47.8597C197.77 50.3594 203.835 50.0088 203.134 50.0088ZM206.381 16.3806L204.344 47.6674L235.667 45.6766C234.918 38.165 231.593 31.1436 226.255 25.8038C220.917 20.4639 213.895 17.1346 206.381 16.3806Z" fill="#2E4052"/>
<path d="M201.947 17.1005C195.564 16.6868 189.186 17.9928 183.483 20.8814C177.781 23.77 172.964 28.1347 169.539 33.5172C166.113 38.8998 164.206 45.1018 164.016 51.4721C163.826 57.8425 165.361 64.1463 168.46 69.7218C171.559 75.2974 176.107 79.939 181.627 83.1596C187.148 86.3801 193.436 88.0607 199.834 88.0251C206.231 87.9894 212.5 86.2388 217.984 82.9569C223.468 79.675 227.964 74.983 231 69.3732L199.632 52.4869L201.947 17.1005Z" fill="#2E4052"/>
<path d="M237.921 49.0256L202 51.2808L233.67 68.0256C236.895 62.2135 238.369 55.6251 237.921 49.0256Z" fill="#3E92CC"/>
</g>
<defs>
<clipPath id="clip0_137_3375">
<rect width="334" height="334" fill="white" transform="translate(0 0.0256348)"/>
</clipPath>
</defs>
</svg>
