<svg width="334" height="334" viewBox="0 0 334 334" fill="none" xmlns="http://www.w3.org/2000/svg">
<g clip-path="url(#clip0_25_5438)">
<g opacity="0.2">
<path d="M232.22 259.25C283.171 208.299 283.171 125.691 232.22 74.7398C181.269 23.7886 98.6603 23.7886 47.7091 74.7398C-3.24214 125.691 -3.24214 208.299 47.7091 259.25C98.6603 310.202 181.269 310.202 232.22 259.25Z" fill="#2EC4B6"/>
</g>
<path d="M113.821 139.706C113.821 139.706 115.713 150.724 124.382 156.823C133.052 162.923 129.523 172.93 111.062 179.244C92.6002 185.559 80.9755 169.185 80.9755 169.185L86.1094 149.439L113.821 139.706Z" fill="#2E4052"/>
<path d="M288.14 166.622H211.398C209.136 166.622 207.302 168.456 207.302 170.718V219.931C207.302 222.194 209.136 224.028 211.398 224.028H288.14C290.403 224.028 292.237 222.194 292.237 219.931V170.718C292.237 168.456 290.403 166.622 288.14 166.622Z" fill="white"/>
<path d="M288.14 224.68H211.398C210.139 224.679 208.933 224.178 208.042 223.287C207.152 222.397 206.651 221.19 206.649 219.931V170.718C206.651 169.459 207.152 168.252 208.042 167.362C208.933 166.472 210.139 165.971 211.398 165.969H288.14C288.765 165.968 289.383 166.091 289.961 166.329C290.538 166.567 291.063 166.917 291.505 167.358C291.947 167.799 292.298 168.322 292.538 168.899C292.778 169.476 292.901 170.094 292.902 170.718V219.931C292.901 220.556 292.778 221.174 292.538 221.751C292.298 222.327 291.947 222.851 291.505 223.292C291.063 223.733 290.538 224.083 289.961 224.321C289.383 224.559 288.765 224.681 288.14 224.68ZM211.398 167.274C210.486 167.276 209.61 167.639 208.965 168.285C208.319 168.93 207.956 169.805 207.954 170.718V219.931C207.956 220.844 208.319 221.719 208.965 222.365C209.61 223.01 210.486 223.374 211.398 223.376H288.14C289.053 223.374 289.928 223.01 290.574 222.365C291.219 221.719 291.583 220.844 291.585 219.931V170.718C291.583 169.805 291.219 168.93 290.574 168.285C289.928 167.639 289.053 167.276 288.14 167.274H211.398Z" fill="#2E4052"/>
<path d="M229.312 195.742H222.182C221.739 195.742 221.379 196.101 221.379 196.545V214.836C221.379 215.279 221.739 215.639 222.182 215.639H229.312C229.755 215.639 230.114 215.279 230.114 214.836V196.545C230.114 196.101 229.755 195.742 229.312 195.742Z" fill="#2E4052"/>
<path d="M245.327 190.263H238.197C237.754 190.263 237.394 190.622 237.394 191.065V214.836C237.394 215.279 237.754 215.639 238.197 215.639H245.327C245.77 215.639 246.129 215.279 246.129 214.836V191.065C246.129 190.622 245.77 190.263 245.327 190.263Z" fill="#2E4052"/>
<path d="M261.342 185.337H254.212C253.769 185.337 253.409 185.697 253.409 186.14V214.836C253.409 215.28 253.769 215.639 254.212 215.639H261.342C261.785 215.639 262.144 215.28 262.144 214.836V186.14C262.144 185.697 261.785 185.337 261.342 185.337Z" fill="#2E4052"/>
<path d="M277.357 181.162H270.227C269.784 181.162 269.425 181.522 269.425 181.965V214.836C269.425 215.279 269.784 215.639 270.227 215.639H277.357C277.8 215.639 278.159 215.279 278.159 214.836V181.965C278.159 181.522 277.8 181.162 277.357 181.162Z" fill="#2E4052"/>
<path d="M221.066 71.4773H142.524C139.148 71.4773 136.412 74.2139 136.412 77.5898V136.451C136.412 139.827 139.148 142.563 142.524 142.563H221.066C224.442 142.563 227.179 139.827 227.179 136.451V77.5898C227.179 74.2139 224.442 71.4773 221.066 71.4773Z" fill="white"/>
<mask id="mask0_25_5438" style="mask-type:luminance" maskUnits="userSpaceOnUse" x="136" y="71" width="92" height="72">
<path d="M221.066 71.4773H142.524C139.148 71.4773 136.412 74.2139 136.412 77.5898V136.451C136.412 139.827 139.148 142.563 142.524 142.563H221.066C224.442 142.563 227.179 139.827 227.179 136.451V77.5898C227.179 74.2139 224.442 71.4773 221.066 71.4773Z" fill="white"/>
</mask>
<g mask="url(#mask0_25_5438)">
<mask id="mask1_25_5438" style="mask-type:luminance" maskUnits="userSpaceOnUse" x="226" y="40" width="31" height="35">
<path d="M256.528 40.4453H226.859V74.5107H256.528V40.4453Z" fill="white"/>
</mask>
<g mask="url(#mask1_25_5438)">
</g>
<mask id="mask2_25_5438" style="mask-type:luminance" maskUnits="userSpaceOnUse" x="226" y="74" width="31" height="35">
<path d="M256.528 74.5042H226.859V108.57H256.528V74.5042Z" fill="white"/>
</mask>
<g mask="url(#mask2_25_5438)">
<path d="M256.626 78.8292C224.478 78.8292 226.755 78.9075 226.755 78.6988C258.902 78.6988 256.626 78.627 256.626 78.8292Z" fill="#2E4052"/>
<path d="M256.626 95.8945C224.478 95.8945 226.755 95.9728 226.755 95.7641C258.902 95.7314 256.626 95.6597 256.626 95.8945Z" fill="#2E4052"/>
<path d="M256.626 87.3488C224.478 87.3488 226.755 87.4206 226.755 87.2184C258.902 87.2184 256.626 87.1401 256.626 87.3488Z" fill="#2E4052"/>
<path d="M256.626 104.375C224.478 104.375 226.755 104.447 226.755 104.245C258.902 104.251 256.626 104.173 256.626 104.375Z" fill="#2E4052"/>
<path d="M226.957 78.8292C194.81 78.8292 197.086 78.9075 197.086 78.6988C229.24 78.6988 226.957 78.627 226.957 78.8292Z" fill="#2E4052"/>
<path d="M226.957 95.8945C194.81 95.8945 197.086 95.9728 197.086 95.7641C229.24 95.7314 226.957 95.6597 226.957 95.8945Z" fill="#2E4052"/>
<path d="M226.957 87.3488C194.81 87.3488 197.086 87.4206 197.086 87.2184C229.24 87.2184 226.957 87.1401 226.957 87.3488Z" fill="#2E4052"/>
<path d="M226.957 104.375C194.81 104.375 197.086 104.447 197.086 104.245C229.24 104.251 226.957 104.173 226.957 104.375Z" fill="#2E4052"/>
</g>
<mask id="mask3_25_5438" style="mask-type:luminance" maskUnits="userSpaceOnUse" x="226" y="108" width="31" height="35">
<path d="M256.528 108.57H226.859V142.635H256.528V108.57Z" fill="white"/>
</mask>
<g mask="url(#mask3_25_5438)">
<path d="M256.626 112.895C224.478 112.895 226.755 112.973 226.755 112.764C258.902 112.764 256.626 112.692 256.626 112.895Z" fill="#2E4052"/>
<path d="M256.626 129.927C224.478 129.927 226.755 130.006 226.755 129.797C258.902 129.816 256.626 129.725 256.626 129.927Z" fill="#2E4052"/>
<path d="M256.626 121.414C224.478 121.414 226.755 121.486 226.755 121.284C258.902 121.284 256.626 121.206 256.626 121.414Z" fill="#2E4052"/>
<path d="M256.626 138.447C224.478 138.447 226.755 138.519 226.755 138.31C258.902 138.297 256.626 138.238 256.626 138.447Z" fill="#2E4052"/>
<path d="M226.957 112.895C194.81 112.895 197.086 112.973 197.086 112.764C229.24 112.764 226.957 112.692 226.957 112.895Z" fill="#2E4052"/>
<path d="M226.957 129.927C194.81 129.927 197.086 130.006 197.086 129.797C229.24 129.816 226.957 129.725 226.957 129.927Z" fill="#2E4052"/>
<path d="M226.957 121.414C194.81 121.414 197.086 121.486 197.086 121.284C229.24 121.284 226.957 121.206 226.957 121.414Z" fill="#2E4052"/>
<path d="M226.957 138.447C194.81 138.447 197.086 138.519 197.086 138.31C229.24 138.297 226.957 138.238 226.957 138.447Z" fill="#2E4052"/>
</g>
<mask id="mask4_25_5438" style="mask-type:luminance" maskUnits="userSpaceOnUse" x="197" y="40" width="30" height="35">
<path d="M226.859 40.4453H197.191V74.5107H226.859V40.4453Z" fill="white"/>
</mask>
<g mask="url(#mask4_25_5438)">
<path d="M215.795 108.694C215.6 108.694 215.665 111.303 215.665 74.3868C215.867 74.3672 215.795 71.7578 215.795 108.694Z" fill="#2E4052"/>
<path d="M200.961 108.694C200.765 108.694 200.831 111.303 200.831 74.3868C201.033 74.3672 200.961 71.7578 200.961 108.694Z" fill="#2E4052"/>
<path d="M223.213 108.694C223.01 108.694 223.082 111.303 223.082 74.3868C223.284 74.3672 223.213 71.7578 223.213 108.694Z" fill="#2E4052"/>
<path d="M208.378 108.694C208.183 108.694 208.248 111.303 208.248 74.3868C208.45 74.3672 208.378 71.7578 208.378 108.694Z" fill="#2E4052"/>
<path d="M215.795 74.6281C215.6 74.6281 215.665 77.2375 215.665 40.3214C215.867 40.3214 215.795 37.6859 215.795 74.6281Z" fill="#2E4052"/>
<path d="M200.961 74.6281C200.765 74.6281 200.831 77.2375 200.831 40.3214C201.033 40.3214 200.961 37.6859 200.961 74.6281Z" fill="#2E4052"/>
<path d="M223.213 74.6281C223.01 74.6281 223.082 77.2375 223.082 40.3214C223.284 40.3214 223.213 37.6859 223.213 74.6281Z" fill="#2E4052"/>
<path d="M208.378 74.6281C208.183 74.6281 208.248 77.2375 208.248 40.3214C208.45 40.3214 208.378 37.6859 208.378 74.6281Z" fill="#2E4052"/>
</g>
<mask id="mask5_25_5438" style="mask-type:luminance" maskUnits="userSpaceOnUse" x="197" y="74" width="30" height="35">
<path d="M226.859 74.5042H197.191V108.57H226.859V74.5042Z" fill="white"/>
</mask>
<g mask="url(#mask5_25_5438)">
<path d="M215.795 142.752C215.6 142.752 215.665 145.362 215.665 108.452C215.867 108.452 215.795 105.817 215.795 142.752Z" fill="#2E4052"/>
<path d="M200.961 142.752C200.765 142.752 200.831 145.362 200.831 108.452C201.033 108.452 200.961 105.817 200.961 142.752Z" fill="#2E4052"/>
<path d="M223.213 142.752C223.01 142.752 223.082 145.362 223.082 108.452C223.284 108.452 223.213 105.817 223.213 142.752Z" fill="#2E4052"/>
<path d="M208.378 142.752C208.183 142.752 208.248 145.362 208.248 108.452C208.45 108.452 208.378 105.817 208.378 142.752Z" fill="#2E4052"/>
<path d="M256.626 78.8292C224.478 78.8292 226.755 78.9075 226.755 78.6988C258.902 78.6988 256.626 78.627 256.626 78.8292Z" fill="#2E4052"/>
<path d="M256.626 95.8945C224.478 95.8945 226.755 95.9728 226.755 95.7641C258.902 95.7314 256.626 95.6597 256.626 95.8945Z" fill="#2E4052"/>
<path d="M256.626 87.3488C224.478 87.3488 226.755 87.4206 226.755 87.2184C258.902 87.2184 256.626 87.1401 256.626 87.3488Z" fill="#2E4052"/>
<path d="M256.626 104.375C224.478 104.375 226.755 104.447 226.755 104.245C258.902 104.251 256.626 104.173 256.626 104.375Z" fill="#2E4052"/>
<path d="M226.957 78.8292C194.81 78.8292 197.086 78.9075 197.086 78.6988C229.24 78.6988 226.957 78.627 226.957 78.8292Z" fill="#2E4052"/>
<path d="M226.957 95.8945C194.81 95.8945 197.086 95.9728 197.086 95.7641C229.24 95.7314 226.957 95.6597 226.957 95.8945Z" fill="#2E4052"/>
<path d="M226.957 87.3488C194.81 87.3488 197.086 87.4206 197.086 87.2184C229.24 87.2184 226.957 87.1401 226.957 87.3488Z" fill="#2E4052"/>
<path d="M226.957 104.375C194.81 104.375 197.086 104.447 197.086 104.245C229.24 104.251 226.957 104.173 226.957 104.375Z" fill="#2E4052"/>
<path d="M215.795 108.693C215.6 108.693 215.665 111.303 215.665 74.3867C215.867 74.3672 215.795 71.7578 215.795 108.693Z" fill="#2E4052"/>
<path d="M200.961 108.693C200.765 108.693 200.831 111.303 200.831 74.3867C201.033 74.3672 200.961 71.7578 200.961 108.693Z" fill="#2E4052"/>
<path d="M223.213 108.693C223.01 108.693 223.082 111.303 223.082 74.3867C223.284 74.3672 223.213 71.7578 223.213 108.693Z" fill="#2E4052"/>
<path d="M208.378 108.693C208.183 108.693 208.248 111.303 208.248 74.3867C208.45 74.3672 208.378 71.7578 208.378 108.693Z" fill="#2E4052"/>
<path d="M197.295 78.8292C165.141 78.8292 167.418 78.9075 167.418 78.6988C199.572 78.6988 197.295 78.627 197.295 78.8292Z" fill="#2E4052"/>
<path d="M197.295 95.8945C165.141 95.8945 167.418 95.9728 167.418 95.7641C199.572 95.7314 197.295 95.6597 197.295 95.8945Z" fill="#2E4052"/>
<path d="M197.295 87.3488C165.141 87.3488 167.418 87.4206 167.418 87.2184C199.572 87.2184 197.295 87.1401 197.295 87.3488Z" fill="#2E4052"/>
<path d="M197.295 104.375C165.141 104.375 167.418 104.447 167.418 104.245C199.572 104.251 197.295 104.173 197.295 104.375Z" fill="#2E4052"/>
<path d="M215.795 74.6281C215.6 74.6281 215.665 77.2375 215.665 40.3214C215.867 40.3214 215.795 37.6859 215.795 74.6281Z" fill="#2E4052"/>
<path d="M200.961 74.6281C200.765 74.6281 200.831 77.2375 200.831 40.3214C201.033 40.3214 200.961 37.6859 200.961 74.6281Z" fill="#2E4052"/>
<path d="M223.213 74.6281C223.01 74.6281 223.082 77.2375 223.082 40.3214C223.284 40.3214 223.213 37.6859 223.213 74.6281Z" fill="#2E4052"/>
<path d="M208.378 74.6281C208.183 74.6281 208.248 77.2375 208.248 40.3214C208.45 40.3214 208.378 37.6859 208.378 74.6281Z" fill="#2E4052"/>
</g>
<mask id="mask6_25_5438" style="mask-type:luminance" maskUnits="userSpaceOnUse" x="197" y="108" width="30" height="35">
<path d="M226.859 108.57H197.191V142.635H226.859V108.57Z" fill="white"/>
</mask>
<g mask="url(#mask6_25_5438)">
<path d="M215.795 176.818C215.6 176.818 215.665 179.46 215.665 142.518C215.867 142.518 215.795 139.882 215.795 176.818Z" fill="#2E4052"/>
<path d="M200.961 176.818C200.765 176.818 200.831 179.46 200.831 142.518C201.033 142.518 200.961 139.882 200.961 176.818Z" fill="#2E4052"/>
<path d="M223.213 176.818C223.01 176.818 223.082 179.46 223.082 142.518C223.284 142.518 223.213 139.882 223.213 176.818Z" fill="#2E4052"/>
<path d="M208.378 176.818C208.183 176.818 208.248 179.46 208.248 142.518C208.45 142.518 208.378 139.882 208.378 176.818Z" fill="#2E4052"/>
<path d="M256.626 112.895C224.478 112.895 226.755 112.973 226.755 112.764C258.902 112.764 256.626 112.692 256.626 112.895Z" fill="#2E4052"/>
<path d="M256.626 129.927C224.478 129.927 226.755 130.006 226.755 129.797C258.902 129.816 256.626 129.725 256.626 129.927Z" fill="#2E4052"/>
<path d="M256.626 121.414C224.478 121.414 226.755 121.486 226.755 121.284C258.902 121.284 256.626 121.206 256.626 121.414Z" fill="#2E4052"/>
<path d="M256.626 138.447C224.478 138.447 226.755 138.519 226.755 138.31C258.902 138.297 256.626 138.238 256.626 138.447Z" fill="#2E4052"/>
<path d="M226.957 112.895C194.81 112.895 197.086 112.973 197.086 112.764C229.24 112.764 226.957 112.692 226.957 112.895Z" fill="#2E4052"/>
<path d="M226.957 129.927C194.81 129.927 197.086 130.006 197.086 129.797C229.24 129.816 226.957 129.725 226.957 129.927Z" fill="#2E4052"/>
<path d="M226.957 121.414C194.81 121.414 197.086 121.486 197.086 121.284C229.24 121.284 226.957 121.206 226.957 121.414Z" fill="#2E4052"/>
<path d="M226.957 138.447C194.81 138.447 197.086 138.519 197.086 138.31C229.24 138.297 226.957 138.238 226.957 138.447Z" fill="#2E4052"/>
<path d="M215.795 142.752C215.6 142.752 215.665 145.362 215.665 108.452C215.867 108.452 215.795 105.817 215.795 142.752Z" fill="#2E4052"/>
<path d="M200.961 142.752C200.765 142.752 200.831 145.362 200.831 108.452C201.033 108.452 200.961 105.817 200.961 142.752Z" fill="#2E4052"/>
<path d="M223.213 142.752C223.01 142.752 223.082 145.362 223.082 108.452C223.284 108.452 223.213 105.817 223.213 142.752Z" fill="#2E4052"/>
<path d="M208.378 142.752C208.183 142.752 208.248 145.362 208.248 108.452C208.45 108.452 208.378 105.817 208.378 142.752Z" fill="#2E4052"/>
<path d="M197.295 112.895C165.141 112.895 167.418 112.973 167.418 112.764C199.572 112.764 197.295 112.692 197.295 112.895Z" fill="#2E4052"/>
<path d="M197.295 129.927C165.141 129.927 167.418 130.006 167.418 129.797C199.572 129.816 197.295 129.725 197.295 129.927Z" fill="#2E4052"/>
<path d="M197.295 121.414C165.141 121.414 167.418 121.486 167.418 121.284C199.572 121.284 197.295 121.206 197.295 121.414Z" fill="#2E4052"/>
<path d="M197.295 138.447C165.141 138.447 167.418 138.519 167.418 138.31C199.572 138.297 197.295 138.238 197.295 138.447Z" fill="#2E4052"/>
<path d="M215.795 108.694C215.6 108.694 215.665 111.303 215.665 74.3868C215.867 74.3672 215.795 71.7578 215.795 108.694Z" fill="#2E4052"/>
<path d="M200.961 108.694C200.765 108.694 200.831 111.303 200.831 74.3868C201.033 74.3672 200.961 71.7578 200.961 108.694Z" fill="#2E4052"/>
<path d="M223.213 108.694C223.01 108.694 223.082 111.303 223.082 74.3868C223.284 74.3672 223.213 71.7578 223.213 108.694Z" fill="#2E4052"/>
<path d="M208.378 108.694C208.183 108.694 208.248 111.303 208.248 74.3868C208.45 74.3672 208.378 71.7578 208.378 108.694Z" fill="#2E4052"/>
</g>
<mask id="mask7_25_5438" style="mask-type:luminance" maskUnits="userSpaceOnUse" x="167" y="40" width="31" height="35">
<path d="M197.191 40.4453H167.522V74.5107H197.191V40.4453Z" fill="white"/>
</mask>
<g mask="url(#mask7_25_5438)">
<path d="M186.133 108.694C185.931 108.694 185.996 111.303 185.996 74.3868C186.199 74.3672 186.133 71.7578 186.133 108.694Z" fill="#2E4052"/>
<path d="M171.299 108.694C171.097 108.694 171.162 111.303 171.162 74.3868C171.364 74.3672 171.299 71.7578 171.299 108.694Z" fill="#2E4052"/>
<path d="M193.55 108.694C193.348 108.694 193.413 111.303 193.413 74.3868C193.616 74.3672 193.55 71.7578 193.55 108.694Z" fill="#2E4052"/>
<path d="M178.742 108.694C178.54 108.694 178.605 111.303 178.605 74.3868C178.782 74.3672 178.742 71.7578 178.742 108.694Z" fill="#2E4052"/>
<path d="M186.133 74.6281C185.931 74.6281 185.996 77.2375 185.996 40.3214C186.199 40.3214 186.133 37.6859 186.133 74.6281Z" fill="#2E4052"/>
<path d="M171.299 74.6281C171.097 74.6281 171.162 77.2375 171.162 40.3214C171.364 40.3214 171.299 37.6859 171.299 74.6281Z" fill="#2E4052"/>
<path d="M193.55 74.6281C193.348 74.6281 193.413 77.2375 193.413 40.3214C193.616 40.3214 193.55 37.6859 193.55 74.6281Z" fill="#2E4052"/>
<path d="M178.742 74.6281C178.54 74.6281 178.605 77.2375 178.605 40.3214C178.782 40.3214 178.742 37.6859 178.742 74.6281Z" fill="#2E4052"/>
</g>
<mask id="mask8_25_5438" style="mask-type:luminance" maskUnits="userSpaceOnUse" x="167" y="74" width="31" height="35">
<path d="M197.191 74.5042H167.522V108.57H197.191V74.5042Z" fill="white"/>
</mask>
<g mask="url(#mask8_25_5438)">
<path d="M186.133 142.752C185.931 142.752 185.996 145.362 185.996 108.452C186.199 108.452 186.133 105.817 186.133 142.752Z" fill="#2E4052"/>
<path d="M171.299 142.752C171.097 142.752 171.162 145.362 171.162 108.452C171.364 108.452 171.299 105.817 171.299 142.752Z" fill="#2E4052"/>
<path d="M193.55 142.752C193.348 142.752 193.413 145.362 193.413 108.452C193.616 108.452 193.55 105.817 193.55 142.752Z" fill="#2E4052"/>
<path d="M178.742 142.752C178.54 142.752 178.605 145.362 178.605 108.452C178.782 108.452 178.742 105.817 178.742 142.752Z" fill="#2E4052"/>
<path d="M226.957 78.8292C194.81 78.8292 197.086 78.9075 197.086 78.6988C229.24 78.6988 226.957 78.627 226.957 78.8292Z" fill="#2E4052"/>
<path d="M226.957 95.8945C194.81 95.8945 197.086 95.9728 197.086 95.7641C229.24 95.7314 226.957 95.6597 226.957 95.8945Z" fill="#2E4052"/>
<path d="M226.957 87.3488C194.81 87.3488 197.086 87.4206 197.086 87.2184C229.24 87.2184 226.957 87.1401 226.957 87.3488Z" fill="#2E4052"/>
<path d="M226.957 104.375C194.81 104.375 197.086 104.447 197.086 104.245C229.24 104.251 226.957 104.173 226.957 104.375Z" fill="#2E4052"/>
<path d="M197.295 78.8292C165.141 78.8292 167.418 78.9075 167.418 78.6988C199.572 78.6988 197.295 78.627 197.295 78.8292Z" fill="#2E4052"/>
<path d="M197.295 95.8945C165.141 95.8945 167.418 95.9728 167.418 95.7641C199.572 95.7314 197.295 95.6597 197.295 95.8945Z" fill="#2E4052"/>
<path d="M197.295 87.3488C165.141 87.3488 167.418 87.4206 167.418 87.2184C199.572 87.2184 197.295 87.1401 197.295 87.3488Z" fill="#2E4052"/>
<path d="M197.295 104.375C165.141 104.375 167.418 104.447 167.418 104.245C199.572 104.251 197.295 104.173 197.295 104.375Z" fill="#2E4052"/>
<path d="M186.133 108.693C185.931 108.693 185.996 111.303 185.996 74.3867C186.199 74.3672 186.133 71.7578 186.133 108.693Z" fill="#2E4052"/>
<path d="M171.299 108.693C171.097 108.693 171.162 111.303 171.162 74.3867C171.364 74.3672 171.299 71.7578 171.299 108.693Z" fill="#2E4052"/>
<path d="M193.55 108.693C193.348 108.693 193.413 111.303 193.413 74.3867C193.616 74.3672 193.55 71.7578 193.55 108.693Z" fill="#2E4052"/>
<path d="M178.742 108.693C178.54 108.693 178.605 111.303 178.605 74.3867C178.782 74.3672 178.742 71.7578 178.742 108.693Z" fill="#2E4052"/>
<path d="M167.652 78.8292C135.498 78.8292 137.782 78.9075 137.782 78.6988C169.903 78.6988 167.652 78.627 167.652 78.8292Z" fill="#2E4052"/>
<path d="M167.652 95.8945C135.498 95.8945 137.782 95.9728 137.782 95.7641C169.903 95.7314 167.652 95.6597 167.652 95.8945Z" fill="#2E4052"/>
<path d="M167.652 87.3488C135.498 87.3488 137.782 87.4206 137.782 87.2184C169.903 87.2184 167.652 87.1401 167.652 87.3488Z" fill="#2E4052"/>
<path d="M167.652 104.375C135.498 104.375 137.782 104.447 137.782 104.245C169.903 104.251 167.652 104.173 167.652 104.375Z" fill="#2E4052"/>
<path d="M186.133 74.6281C185.931 74.6281 185.996 77.2375 185.996 40.3214C186.199 40.3214 186.133 37.6859 186.133 74.6281Z" fill="#2E4052"/>
<path d="M171.299 74.6281C171.097 74.6281 171.162 77.2375 171.162 40.3214C171.364 40.3214 171.299 37.6859 171.299 74.6281Z" fill="#2E4052"/>
<path d="M193.55 74.6281C193.348 74.6281 193.413 77.2375 193.413 40.3214C193.616 40.3214 193.55 37.6859 193.55 74.6281Z" fill="#2E4052"/>
<path d="M178.742 74.6281C178.54 74.6281 178.605 77.2375 178.605 40.3214C178.782 40.3214 178.742 37.6859 178.742 74.6281Z" fill="#2E4052"/>
</g>
<mask id="mask9_25_5438" style="mask-type:luminance" maskUnits="userSpaceOnUse" x="167" y="108" width="31" height="35">
<path d="M197.191 108.57H167.522V142.635H197.191V108.57Z" fill="white"/>
</mask>
<g mask="url(#mask9_25_5438)">
<path d="M186.133 176.818C185.931 176.818 185.996 179.46 185.996 142.518C186.199 142.518 186.133 139.882 186.133 176.818Z" fill="#2E4052"/>
<path d="M171.299 176.818C171.097 176.818 171.162 179.46 171.162 142.518C171.364 142.518 171.299 139.882 171.299 176.818Z" fill="#2E4052"/>
<path d="M193.55 176.818C193.348 176.818 193.413 179.46 193.413 142.518C193.616 142.518 193.55 139.882 193.55 176.818Z" fill="#2E4052"/>
<path d="M178.742 176.818C178.54 176.818 178.605 179.46 178.605 142.518C178.782 142.518 178.742 139.882 178.742 176.818Z" fill="#2E4052"/>
<path d="M226.957 112.895C194.81 112.895 197.086 112.973 197.086 112.764C229.24 112.764 226.957 112.692 226.957 112.895Z" fill="#2E4052"/>
<path d="M226.957 129.927C194.81 129.927 197.086 130.006 197.086 129.797C229.24 129.816 226.957 129.725 226.957 129.927Z" fill="#2E4052"/>
<path d="M226.957 121.414C194.81 121.414 197.086 121.486 197.086 121.284C229.24 121.284 226.957 121.206 226.957 121.414Z" fill="#2E4052"/>
<path d="M226.957 138.447C194.81 138.447 197.086 138.519 197.086 138.31C229.24 138.297 226.957 138.238 226.957 138.447Z" fill="#2E4052"/>
<path d="M197.295 112.895C165.141 112.895 167.418 112.973 167.418 112.764C199.572 112.764 197.295 112.692 197.295 112.895Z" fill="#2E4052"/>
<path d="M197.295 129.927C165.141 129.927 167.418 130.006 167.418 129.797C199.572 129.816 197.295 129.725 197.295 129.927Z" fill="#2E4052"/>
<path d="M197.295 121.414C165.141 121.414 167.418 121.486 167.418 121.284C199.572 121.284 197.295 121.206 197.295 121.414Z" fill="#2E4052"/>
<path d="M197.295 138.447C165.141 138.447 167.418 138.519 167.418 138.31C199.572 138.297 197.295 138.238 197.295 138.447Z" fill="#2E4052"/>
<path d="M186.133 142.752C185.931 142.752 185.996 145.362 185.996 108.452C186.199 108.452 186.133 105.817 186.133 142.752Z" fill="#2E4052"/>
<path d="M171.299 142.752C171.097 142.752 171.162 145.362 171.162 108.452C171.364 108.452 171.299 105.817 171.299 142.752Z" fill="#2E4052"/>
<path d="M193.55 142.752C193.348 142.752 193.413 145.362 193.413 108.452C193.616 108.452 193.55 105.817 193.55 142.752Z" fill="#2E4052"/>
<path d="M178.742 142.752C178.54 142.752 178.605 145.362 178.605 108.452C178.782 108.452 178.742 105.817 178.742 142.752Z" fill="#2E4052"/>
<path d="M167.652 112.895C135.498 112.895 137.782 112.973 137.782 112.764C169.903 112.764 167.652 112.692 167.652 112.895Z" fill="#2E4052"/>
<path d="M167.652 129.927C135.498 129.927 137.782 130.006 137.782 129.797C169.903 129.816 167.652 129.725 167.652 129.927Z" fill="#2E4052"/>
<path d="M167.652 121.414C135.498 121.414 137.782 121.486 137.782 121.284C169.903 121.284 167.652 121.206 167.652 121.414Z" fill="#2E4052"/>
<path d="M167.652 138.447C135.498 138.447 137.782 138.519 137.782 138.31C169.903 138.297 167.652 138.238 167.652 138.447Z" fill="#2E4052"/>
<path d="M186.133 108.694C185.931 108.694 185.996 111.303 185.996 74.3868C186.199 74.3672 186.133 71.7578 186.133 108.694Z" fill="#2E4052"/>
<path d="M171.299 108.694C171.097 108.694 171.162 111.303 171.162 74.3868C171.364 74.3672 171.299 71.7578 171.299 108.694Z" fill="#2E4052"/>
<path d="M193.55 108.694C193.348 108.694 193.413 111.303 193.413 74.3868C193.616 74.3672 193.55 71.7578 193.55 108.694Z" fill="#2E4052"/>
<path d="M178.742 108.694C178.54 108.694 178.605 111.303 178.605 74.3868C178.782 74.3672 178.742 71.7578 178.742 108.694Z" fill="#2E4052"/>
</g>
<mask id="mask10_25_5438" style="mask-type:luminance" maskUnits="userSpaceOnUse" x="137" y="40" width="31" height="35">
<path d="M167.522 40.4453H137.853V74.5107H167.522V40.4453Z" fill="white"/>
</mask>
<g mask="url(#mask10_25_5438)">
<path d="M156.465 108.694C156.263 108.694 156.334 111.303 156.334 74.3868C156.563 74.3672 156.465 71.7578 156.465 108.694Z" fill="#2E4052"/>
<path d="M141.631 108.694C141.428 108.694 141.5 111.303 141.5 74.3868C141.696 74.3672 141.631 71.7578 141.631 108.694Z" fill="#2E4052"/>
<path d="M163.882 108.694C163.68 108.694 163.745 111.303 163.745 74.3868C163.947 74.3672 163.882 71.7578 163.882 108.694Z" fill="#2E4052"/>
<path d="M149.048 108.694C148.845 108.694 148.917 111.303 148.917 74.3868C149.113 74.3672 149.048 71.7578 149.048 108.694Z" fill="#2E4052"/>
<path d="M156.465 74.6281C156.263 74.6281 156.334 77.2375 156.334 40.3214C156.563 40.3214 156.465 37.6859 156.465 74.6281Z" fill="#2E4052"/>
<path d="M141.631 74.6281C141.428 74.6281 141.5 77.2375 141.5 40.3214C141.696 40.3214 141.631 37.6859 141.631 74.6281Z" fill="#2E4052"/>
<path d="M163.882 74.6281C163.68 74.6281 163.745 77.2375 163.745 40.3214C163.947 40.3214 163.882 37.6859 163.882 74.6281Z" fill="#2E4052"/>
<path d="M149.048 74.6281C148.845 74.6281 148.917 77.2375 148.917 40.3214C149.113 40.3214 149.048 37.6859 149.048 74.6281Z" fill="#2E4052"/>
</g>
<mask id="mask11_25_5438" style="mask-type:luminance" maskUnits="userSpaceOnUse" x="137" y="74" width="31" height="35">
<path d="M167.522 74.5042H137.853V108.57H167.522V74.5042Z" fill="white"/>
</mask>
<g mask="url(#mask11_25_5438)">
<path d="M156.465 142.752C156.263 142.752 156.334 145.362 156.334 108.452C156.563 108.452 156.465 105.817 156.465 142.752Z" fill="#2E4052"/>
<path d="M141.631 142.752C141.428 142.752 141.5 145.362 141.5 108.452C141.696 108.452 141.631 105.817 141.631 142.752Z" fill="#2E4052"/>
<path d="M163.882 142.752C163.68 142.752 163.745 145.362 163.745 108.452C163.947 108.452 163.882 105.817 163.882 142.752Z" fill="#2E4052"/>
<path d="M149.048 142.752C148.845 142.752 148.917 145.362 148.917 108.452C149.113 108.452 149.048 105.817 149.048 142.752Z" fill="#2E4052"/>
<path d="M197.295 78.8292C165.141 78.8292 167.418 78.9075 167.418 78.6988C199.572 78.6988 197.295 78.627 197.295 78.8292Z" fill="#2E4052"/>
<path d="M197.295 95.8945C165.141 95.8945 167.418 95.9728 167.418 95.7641C199.572 95.7314 197.295 95.6597 197.295 95.8945Z" fill="#2E4052"/>
<path d="M197.295 87.3488C165.141 87.3488 167.418 87.4206 167.418 87.2184C199.572 87.2184 197.295 87.1401 197.295 87.3488Z" fill="#2E4052"/>
<path d="M197.295 104.375C165.141 104.375 167.418 104.447 167.418 104.245C199.572 104.251 197.295 104.173 197.295 104.375Z" fill="#2E4052"/>
<path d="M167.652 78.8292C135.498 78.8292 137.782 78.9075 137.782 78.6988C169.903 78.6988 167.652 78.627 167.652 78.8292Z" fill="#2E4052"/>
<path d="M167.652 95.8945C135.498 95.8945 137.782 95.9728 137.782 95.7641C169.903 95.7314 167.652 95.6597 167.652 95.8945Z" fill="#2E4052"/>
<path d="M167.652 87.3488C135.498 87.3488 137.782 87.4206 137.782 87.2184C169.903 87.2184 167.652 87.1401 167.652 87.3488Z" fill="#2E4052"/>
<path d="M167.652 104.375C135.498 104.375 137.782 104.447 137.782 104.245C169.903 104.251 167.652 104.173 167.652 104.375Z" fill="#2E4052"/>
<path d="M156.465 108.693C156.263 108.693 156.334 111.303 156.334 74.3867C156.563 74.3672 156.465 71.7578 156.465 108.693Z" fill="#2E4052"/>
<path d="M141.631 108.693C141.428 108.693 141.5 111.303 141.5 74.3867C141.696 74.3672 141.631 71.7578 141.631 108.693Z" fill="#2E4052"/>
<path d="M163.882 108.693C163.68 108.693 163.745 111.303 163.745 74.3867C163.947 74.3672 163.882 71.7578 163.882 108.693Z" fill="#2E4052"/>
<path d="M149.048 108.693C148.845 108.693 148.917 111.303 148.917 74.3867C149.113 74.3672 149.048 71.7578 149.048 108.693Z" fill="#2E4052"/>
<path d="M137.958 78.8292C105.81 78.8292 108.087 78.9075 108.087 78.6988C140.254 78.6988 137.958 78.627 137.958 78.8292Z" fill="#2E4052"/>
<path d="M137.958 95.8945C105.81 95.8945 108.087 95.9728 108.087 95.7641C140.254 95.7314 137.958 95.6597 137.958 95.8945Z" fill="#2E4052"/>
<path d="M137.958 87.3488C105.81 87.3488 108.087 87.4206 108.087 87.2184C140.254 87.2184 137.958 87.1401 137.958 87.3488Z" fill="#2E4052"/>
<path d="M137.958 104.375C105.81 104.375 108.087 104.447 108.087 104.245C140.254 104.251 137.958 104.173 137.958 104.375Z" fill="#2E4052"/>
<path d="M156.465 74.6281C156.263 74.6281 156.334 77.2375 156.334 40.3214C156.563 40.3214 156.465 37.6859 156.465 74.6281Z" fill="#2E4052"/>
<path d="M141.631 74.6281C141.428 74.6281 141.5 77.2375 141.5 40.3214C141.696 40.3214 141.631 37.6859 141.631 74.6281Z" fill="#2E4052"/>
<path d="M163.882 74.6281C163.68 74.6281 163.745 77.2375 163.745 40.3214C163.947 40.3214 163.882 37.6859 163.882 74.6281Z" fill="#2E4052"/>
<path d="M149.048 74.6281C148.845 74.6281 148.917 77.2375 148.917 40.3214C149.113 40.3214 149.048 37.6859 149.048 74.6281Z" fill="#2E4052"/>
</g>
<mask id="mask12_25_5438" style="mask-type:luminance" maskUnits="userSpaceOnUse" x="137" y="108" width="31" height="35">
<path d="M167.522 108.57H137.853V142.635H167.522V108.57Z" fill="white"/>
</mask>
<g mask="url(#mask12_25_5438)">
<path d="M156.465 176.818C156.263 176.818 156.334 179.46 156.334 142.518C156.563 142.518 156.465 139.882 156.465 176.818Z" fill="#2E4052"/>
<path d="M141.631 176.818C141.428 176.818 141.5 179.46 141.5 142.518C141.696 142.518 141.631 139.882 141.631 176.818Z" fill="#2E4052"/>
<path d="M163.882 176.818C163.68 176.818 163.745 179.46 163.745 142.518C163.947 142.518 163.882 139.882 163.882 176.818Z" fill="#2E4052"/>
<path d="M149.048 176.818C148.845 176.818 148.917 179.46 148.917 142.518C149.113 142.518 149.048 139.882 149.048 176.818Z" fill="#2E4052"/>
<path d="M197.295 112.895C165.141 112.895 167.418 112.973 167.418 112.764C199.572 112.764 197.295 112.692 197.295 112.895Z" fill="#2E4052"/>
<path d="M197.295 129.927C165.141 129.927 167.418 130.006 167.418 129.797C199.572 129.816 197.295 129.725 197.295 129.927Z" fill="#2E4052"/>
<path d="M197.295 121.414C165.141 121.414 167.418 121.486 167.418 121.284C199.572 121.284 197.295 121.206 197.295 121.414Z" fill="#2E4052"/>
<path d="M197.295 138.447C165.141 138.447 167.418 138.519 167.418 138.31C199.572 138.297 197.295 138.238 197.295 138.447Z" fill="#2E4052"/>
<path d="M167.652 112.895C135.498 112.895 137.782 112.973 137.782 112.764C169.903 112.764 167.652 112.692 167.652 112.895Z" fill="#2E4052"/>
<path d="M167.652 129.927C135.498 129.927 137.782 130.006 137.782 129.797C169.903 129.816 167.652 129.725 167.652 129.927Z" fill="#2E4052"/>
<path d="M167.652 121.414C135.498 121.414 137.782 121.486 137.782 121.284C169.903 121.284 167.652 121.206 167.652 121.414Z" fill="#2E4052"/>
<path d="M167.652 138.447C135.498 138.447 137.782 138.519 137.782 138.31C169.903 138.297 167.652 138.238 167.652 138.447Z" fill="#2E4052"/>
<path d="M156.465 142.752C156.263 142.752 156.334 145.362 156.334 108.452C156.563 108.452 156.465 105.817 156.465 142.752Z" fill="#2E4052"/>
<path d="M141.631 142.752C141.428 142.752 141.5 145.362 141.5 108.452C141.696 108.452 141.631 105.817 141.631 142.752Z" fill="#2E4052"/>
<path d="M163.882 142.752C163.68 142.752 163.745 145.362 163.745 108.452C163.947 108.452 163.882 105.817 163.882 142.752Z" fill="#2E4052"/>
<path d="M149.048 142.752C148.845 142.752 148.917 145.362 148.917 108.452C149.113 108.452 149.048 105.817 149.048 142.752Z" fill="#2E4052"/>
<path d="M137.958 112.895C105.81 112.895 108.087 112.973 108.087 112.764C140.254 112.764 137.958 112.692 137.958 112.895Z" fill="#2E4052"/>
<path d="M137.958 129.927C105.81 129.927 108.087 130.006 108.087 129.797C140.254 129.816 137.958 129.725 137.958 129.927Z" fill="#2E4052"/>
<path d="M137.958 121.414C105.81 121.414 108.087 121.486 108.087 121.284C140.254 121.284 137.958 121.206 137.958 121.414Z" fill="#2E4052"/>
<path d="M137.958 138.447C105.81 138.447 108.087 138.519 108.087 138.31C140.254 138.297 137.958 138.238 137.958 138.447Z" fill="#2E4052"/>
<path d="M156.465 108.694C156.263 108.694 156.334 111.303 156.334 74.3868C156.563 74.3672 156.465 71.7578 156.465 108.694Z" fill="#2E4052"/>
<path d="M141.631 108.694C141.428 108.694 141.5 111.303 141.5 74.3868C141.696 74.3672 141.631 71.7578 141.631 108.694Z" fill="#2E4052"/>
<path d="M163.882 108.694C163.68 108.694 163.745 111.303 163.745 74.3868C163.947 74.3672 163.882 71.7578 163.882 108.694Z" fill="#2E4052"/>
<path d="M149.048 108.694C148.845 108.694 148.917 111.303 148.917 74.3868C149.113 74.3672 149.048 71.7578 149.048 108.694Z" fill="#2E4052"/>
</g>
<mask id="mask13_25_5438" style="mask-type:luminance" maskUnits="userSpaceOnUse" x="108" y="40" width="30" height="35">
<path d="M137.86 40.4453H108.191V74.5107H137.86V40.4453Z" fill="white"/>
</mask>
<g mask="url(#mask13_25_5438)">
</g>
<mask id="mask14_25_5438" style="mask-type:luminance" maskUnits="userSpaceOnUse" x="108" y="74" width="30" height="35">
<path d="M137.86 74.5042H108.191V108.57H137.86V74.5042Z" fill="white"/>
</mask>
<g mask="url(#mask14_25_5438)">
<path d="M167.652 78.8292C135.498 78.8292 137.782 78.9075 137.782 78.6988C169.903 78.6988 167.652 78.627 167.652 78.8292Z" fill="#2E4052"/>
<path d="M167.652 95.8945C135.498 95.8945 137.782 95.9728 137.782 95.7641C169.903 95.7314 167.652 95.6597 167.652 95.8945Z" fill="#2E4052"/>
<path d="M167.652 87.3488C135.498 87.3488 137.782 87.4206 137.782 87.2184C169.903 87.2184 167.652 87.1401 167.652 87.3488Z" fill="#2E4052"/>
<path d="M167.652 104.375C135.498 104.375 137.782 104.447 137.782 104.245C169.903 104.251 167.652 104.173 167.652 104.375Z" fill="#2E4052"/>
<path d="M137.958 78.8292C105.81 78.8292 108.087 78.9075 108.087 78.6988C140.254 78.6988 137.958 78.627 137.958 78.8292Z" fill="#2E4052"/>
<path d="M137.958 95.8945C105.81 95.8945 108.087 95.9728 108.087 95.7641C140.254 95.7314 137.958 95.6597 137.958 95.8945Z" fill="#2E4052"/>
<path d="M137.958 87.3488C105.81 87.3488 108.087 87.4206 108.087 87.2184C140.254 87.2184 137.958 87.1401 137.958 87.3488Z" fill="#2E4052"/>
<path d="M137.958 104.375C105.81 104.375 108.087 104.447 108.087 104.245C140.254 104.251 137.958 104.173 137.958 104.375Z" fill="#2E4052"/>
</g>
<mask id="mask15_25_5438" style="mask-type:luminance" maskUnits="userSpaceOnUse" x="108" y="108" width="30" height="35">
<path d="M137.86 108.57H108.191V142.635H137.86V108.57Z" fill="white"/>
</mask>
<g mask="url(#mask15_25_5438)">
<path d="M167.652 112.895C135.498 112.895 137.782 112.973 137.782 112.764C169.903 112.764 167.652 112.692 167.652 112.895Z" fill="#2E4052"/>
<path d="M167.652 129.927C135.498 129.927 137.782 130.006 137.782 129.797C169.903 129.816 167.652 129.725 167.652 129.927Z" fill="#2E4052"/>
<path d="M167.652 121.414C135.498 121.414 137.782 121.486 137.782 121.284C169.903 121.284 167.652 121.206 167.652 121.414Z" fill="#2E4052"/>
<path d="M167.652 138.447C135.498 138.447 137.782 138.519 137.782 138.31C169.903 138.297 167.652 138.238 167.652 138.447Z" fill="#2E4052"/>
<path d="M137.958 112.895C105.81 112.895 108.087 112.973 108.087 112.764C140.254 112.764 137.958 112.692 137.958 112.895Z" fill="#2E4052"/>
<path d="M137.958 129.927C105.81 129.927 108.087 130.006 108.087 129.797C140.254 129.816 137.958 129.725 137.958 129.927Z" fill="#2E4052"/>
<path d="M137.958 121.414C105.81 121.414 108.087 121.486 108.087 121.284C140.254 121.284 137.958 121.206 137.958 121.414Z" fill="#2E4052"/>
<path d="M137.958 138.447C105.81 138.447 108.087 138.519 108.087 138.31C140.254 138.297 137.958 138.238 137.958 138.447Z" fill="#2E4052"/>
</g>
</g>
<path d="M221.066 143.216H142.524C140.73 143.214 139.011 142.501 137.743 141.232C136.474 139.964 135.761 138.244 135.759 136.451V77.6289C135.761 75.8347 136.474 74.1144 137.742 72.8451C139.01 71.5758 140.73 70.8611 142.524 70.8576H221.066C222.86 70.8611 224.58 71.5758 225.848 72.8451C227.116 74.1144 227.829 75.8347 227.831 77.6289V136.483C227.821 138.271 227.104 139.983 225.836 141.244C224.569 142.505 222.854 143.214 221.066 143.216ZM142.524 72.1101C141.075 72.1118 139.687 72.6885 138.663 73.7135C137.639 74.7386 137.064 76.128 137.064 77.5767V136.431C137.066 137.879 137.642 139.267 138.665 140.29C139.689 141.314 141.076 141.89 142.524 141.891H221.066C222.513 141.888 223.9 141.311 224.923 140.288C225.947 139.265 226.523 137.878 226.526 136.431V77.6289C226.525 76.1807 225.949 74.7923 224.926 73.7676C223.902 72.743 222.514 72.1657 221.066 72.1623L142.524 72.1101Z" fill="#2E4052"/>
<path d="M148.923 125.015C148.798 125.015 148.675 124.979 148.57 124.911C148.465 124.843 148.381 124.746 148.33 124.631C148.278 124.517 148.261 124.39 148.279 124.266C148.298 124.142 148.351 124.026 148.434 123.932L164.958 105.132C165.024 105.057 165.107 104.999 165.199 104.961C165.292 104.923 165.392 104.907 165.491 104.914C165.591 104.921 165.687 104.951 165.774 105.001C165.86 105.051 165.933 105.12 165.989 105.203L171.821 113.951L188.632 97.7667C188.702 97.6996 188.786 97.6489 188.878 97.6182C188.97 97.5876 189.067 97.5779 189.163 97.5898C189.26 97.6016 189.352 97.6348 189.434 97.6869C189.516 97.7389 189.585 97.8085 189.636 97.8907L195.507 107.271L214.582 89.9843C214.712 89.8801 214.876 89.8295 215.042 89.8426C215.208 89.8558 215.362 89.9318 215.474 90.0551C215.586 90.1784 215.646 90.3397 215.643 90.506C215.639 90.6723 215.573 90.831 215.456 90.9498L195.801 108.765C195.73 108.829 195.646 108.877 195.555 108.906C195.464 108.934 195.368 108.942 195.273 108.929C195.179 108.915 195.088 108.882 195.008 108.83C194.928 108.778 194.86 108.709 194.809 108.628L188.971 99.2606L172.167 115.465C172.098 115.531 172.015 115.582 171.924 115.613C171.833 115.644 171.737 115.654 171.641 115.644C171.546 115.633 171.454 115.602 171.373 115.552C171.291 115.502 171.221 115.434 171.168 115.354L165.376 106.665L149.419 124.793C149.357 124.864 149.281 124.92 149.196 124.958C149.11 124.997 149.017 125.016 148.923 125.015Z" fill="#2EC4B6"/>
<path d="M148.213 127.514C149.603 127.514 150.731 126.386 150.731 124.996C150.731 123.605 149.603 122.478 148.213 122.478C146.822 122.478 145.694 123.605 145.694 124.996C145.694 126.386 146.822 127.514 148.213 127.514Z" fill="#2EC4B6"/>
<path d="M165.017 108.243C166.408 108.243 167.535 107.116 167.535 105.725C167.535 104.335 166.408 103.207 165.017 103.207C163.626 103.207 162.499 104.335 162.499 105.725C162.499 107.116 163.626 108.243 165.017 108.243Z" fill="#2EC4B6"/>
<path d="M171.854 118.511C173.244 118.511 174.372 117.384 174.372 115.993C174.372 114.603 173.244 113.475 171.854 113.475C170.463 113.475 169.335 114.603 169.335 115.993C169.335 117.384 170.463 118.511 171.854 118.511Z" fill="#2EC4B6"/>
<path d="M189.088 100.122C190.479 100.122 191.606 98.9944 191.606 97.6037C191.606 96.213 190.479 95.0856 189.088 95.0856C187.698 95.0856 186.57 96.213 186.57 97.6037C186.57 98.9944 187.698 100.122 189.088 100.122Z" fill="#2EC4B6"/>
<path d="M195.918 110.964C197.309 110.964 198.436 109.836 198.436 108.446C198.436 107.055 197.309 105.928 195.918 105.928C194.528 105.928 193.4 107.055 193.4 108.446C193.4 109.836 194.528 110.964 195.918 110.964Z" fill="#2EC4B6"/>
<path d="M215.006 92.2871C216.397 92.2871 217.524 91.1597 217.524 89.769C217.524 88.3783 216.397 87.251 215.006 87.251C213.615 87.251 212.488 88.3783 212.488 89.769C212.488 91.1597 213.615 92.2871 215.006 92.2871Z" fill="#2EC4B6"/>
<path d="M175.03 151.735C175.03 151.735 175.357 143.6 177.601 139.641C179.845 135.681 180.21 132.902 181.795 133.326C183.38 133.75 182.415 139.119 182.415 139.119C182.415 139.119 186.27 133.607 186.981 129.562C187.692 125.517 188.286 123.319 189.467 122.947C190.648 122.575 191.019 124.017 191.019 124.017C191.019 124.017 191.822 122.145 193.159 122.308C194.496 122.471 194.607 124.983 194.607 124.983C194.607 124.983 195.834 123.534 196.799 124.121C197.765 124.709 197.282 129.099 197.282 129.099C197.282 129.099 198.508 127.762 199.369 128.675C200.23 129.588 199.422 136.112 197.601 140.926C195.781 145.74 190.537 156.23 190.537 156.23C190.537 156.23 178.136 160.085 175.03 151.735Z" fill="white"/>
<path d="M184.411 157.743C180.601 157.743 176.159 156.641 174.424 151.963C174.392 151.883 174.378 151.796 174.385 151.709C174.385 151.37 174.737 143.372 177.033 139.315C179.329 135.257 179.714 132.087 181.965 132.693C183.152 133.013 183.419 134.709 183.374 136.386C184.509 134.428 185.951 131.689 186.348 129.438C187.157 124.872 187.777 122.797 189.284 122.321C189.587 122.213 189.914 122.195 190.226 122.269C190.539 122.343 190.823 122.506 191.045 122.738C192.35 121.114 194.425 121.134 195.083 123.724C195.378 123.505 195.728 123.374 196.094 123.345C196.46 123.317 196.826 123.391 197.151 123.56C198.045 124.108 198.143 126.105 198.052 127.814C198.357 127.688 198.694 127.659 199.016 127.731C199.338 127.804 199.63 127.974 199.852 128.218C201.157 129.582 199.787 137.018 198.228 141.148C196.414 145.942 191.352 156.086 191.137 156.517C191.097 156.596 191.042 156.666 190.975 156.723C190.908 156.781 190.83 156.823 190.745 156.85C188.683 157.426 186.553 157.726 184.411 157.743ZM175.689 151.631C178.377 158.506 188.345 156.152 190.093 155.682C190.908 154.044 195.377 145.01 197.001 140.678C198.847 135.805 199.408 129.836 198.893 129.086C198.868 129.055 198.836 129.03 198.8 129.013C198.764 128.996 198.724 128.988 198.684 128.988C198.332 129.068 198.013 129.255 197.771 129.523C197.678 129.624 197.555 129.694 197.42 129.721C197.285 129.748 197.145 129.732 197.02 129.675C196.894 129.618 196.79 129.522 196.723 129.402C196.655 129.283 196.627 129.144 196.642 129.008C196.858 127.05 196.766 124.97 196.453 124.65C196.134 124.454 195.416 125.028 195.149 125.387C195.063 125.487 194.95 125.559 194.823 125.593C194.697 125.628 194.563 125.623 194.439 125.58C194.315 125.537 194.207 125.458 194.128 125.352C194.05 125.247 194.006 125.12 194 124.989C194 124.337 193.681 123.032 193.126 122.934C192.441 122.862 191.822 123.887 191.665 124.239C191.611 124.365 191.52 124.47 191.403 124.541C191.286 124.612 191.15 124.644 191.013 124.633C190.877 124.622 190.748 124.569 190.644 124.481C190.539 124.392 190.465 124.274 190.432 124.141C190.37 123.9 190.23 123.687 190.034 123.534C189.984 123.511 189.93 123.5 189.874 123.5C189.819 123.5 189.765 123.511 189.715 123.534C188.782 123.834 188.169 126.842 187.666 129.64C186.929 133.783 183.145 139.23 182.982 139.465C182.897 139.585 182.773 139.673 182.63 139.713C182.488 139.754 182.337 139.745 182.2 139.688C182.064 139.631 181.951 139.53 181.879 139.4C181.808 139.271 181.783 139.121 181.808 138.975C182.284 136.327 182.115 134.05 181.658 133.926C180.81 133.704 180.151 136.536 178.201 139.934C176.25 143.333 175.748 150.581 175.689 151.631Z" fill="#2E4052"/>
<path d="M318.872 95.4444H244.074C240.962 95.4444 238.438 97.9678 238.438 101.081V151.2C238.438 154.313 240.962 156.836 244.074 156.836H318.872C321.985 156.836 324.508 154.313 324.508 151.2V101.081C324.508 97.9678 321.985 95.4444 318.872 95.4444Z" fill="white"/>
<path d="M318.872 157.489H244.068C242.401 157.487 240.803 156.824 239.625 155.645C238.448 154.465 237.786 152.867 237.786 151.2V101.074C237.788 99.4085 238.45 97.8117 239.628 96.6339C240.806 95.4562 242.402 94.7938 244.068 94.7921H318.872C320.538 94.7938 322.135 95.4562 323.312 96.6339C324.49 97.8117 325.153 99.4085 325.154 101.074V151.2C325.154 152.867 324.493 154.465 323.315 155.645C322.137 156.824 320.539 157.487 318.872 157.489ZM244.068 96.0967C242.748 96.0985 241.483 96.6234 240.55 97.5565C239.617 98.4896 239.092 99.7546 239.091 101.074V151.2C239.091 152.521 239.615 153.788 240.548 154.722C241.481 155.657 242.747 156.182 244.068 156.184H318.872C320.193 156.182 321.459 155.657 322.392 154.722C323.325 153.788 323.85 152.521 323.85 151.2V101.074C323.848 99.7546 323.323 98.4896 322.39 97.5565C321.457 96.6234 320.192 96.0985 318.872 96.0967H244.068Z" fill="#2E4052"/>
<path d="M285.387 123.084C285.085 118.358 283.072 113.903 279.725 110.553C276.378 107.202 271.926 105.185 267.2 104.877L265.934 124.324L285.387 123.084Z" fill="white"/>
<path d="M265.935 124.976C265.845 124.976 265.757 124.958 265.676 124.923C265.594 124.888 265.52 124.836 265.459 124.771C265.398 124.707 265.351 124.63 265.32 124.546C265.29 124.462 265.277 124.373 265.282 124.285L266.541 104.832C266.553 104.66 266.632 104.499 266.762 104.386C266.891 104.272 267.061 104.214 267.233 104.225C272.117 104.546 276.718 106.632 280.177 110.095C283.636 113.558 285.718 118.161 286.033 123.045C286.044 123.217 285.986 123.386 285.873 123.516C285.759 123.646 285.599 123.725 285.427 123.737C262.842 125.178 266.339 124.976 265.935 124.976ZM267.807 105.582L266.633 123.626L284.689 122.478C284.258 118.145 282.341 114.096 279.264 111.016C276.186 107.937 272.139 106.017 267.807 105.582Z" fill="#2E4052"/>
<path d="M265.4 105.804C261.749 105.566 258.101 106.316 254.84 107.974C251.579 109.632 248.824 112.138 246.865 115.228C244.906 118.318 243.815 121.878 243.706 125.535C243.598 129.192 244.476 132.811 246.248 136.012C248.02 139.212 250.621 141.877 253.779 143.726C256.936 145.574 260.532 146.539 264.191 146.519C267.849 146.498 271.435 145.493 274.571 143.609C277.707 141.725 280.278 139.032 282.015 135.811L264.075 126.118L265.4 105.804Z" fill="#2E4052"/>
<path d="M285.811 124.324L265.471 125.628L283.404 135.316C285.23 131.953 286.065 128.142 285.811 124.324Z" fill="#2EC4B6"/>
<path d="M317.633 109.157H291.095C290.922 109.157 290.756 109.088 290.634 108.966C290.512 108.843 290.443 108.677 290.443 108.504C290.443 108.331 290.512 108.165 290.634 108.043C290.756 107.921 290.922 107.852 291.095 107.852H317.633C317.806 107.852 317.972 107.921 318.094 108.043C318.216 108.165 318.285 108.331 318.285 108.504C318.285 108.677 318.216 108.843 318.094 108.966C317.972 109.088 317.806 109.157 317.633 109.157Z" fill="#2E4052"/>
<path d="M317.633 115.25H291.095C290.922 115.25 290.756 115.181 290.634 115.059C290.512 114.936 290.443 114.77 290.443 114.597C290.443 114.424 290.512 114.258 290.634 114.136C290.756 114.014 290.922 113.945 291.095 113.945H317.633C317.806 113.945 317.972 114.014 318.094 114.136C318.216 114.258 318.285 114.424 318.285 114.597C318.285 114.77 318.216 114.936 318.094 115.059C317.972 115.181 317.806 115.25 317.633 115.25Z" fill="#2E4052"/>
<path d="M317.633 121.336H291.095C290.922 121.336 290.756 121.267 290.634 121.145C290.512 121.023 290.443 120.857 290.443 120.684C290.443 120.511 290.512 120.345 290.634 120.222C290.756 120.1 290.922 120.031 291.095 120.031H317.633C317.806 120.031 317.972 120.1 318.094 120.222C318.216 120.345 318.285 120.511 318.285 120.684C318.285 120.857 318.216 121.023 318.094 121.145C317.972 121.267 317.806 121.336 317.633 121.336Z" fill="#2E4052"/>
<path d="M317.633 127.448H291.095C290.922 127.448 290.756 127.38 290.634 127.257C290.512 127.135 290.443 126.969 290.443 126.796C290.443 126.623 290.512 126.457 290.634 126.335C290.756 126.212 290.922 126.144 291.095 126.144H317.633C317.806 126.144 317.972 126.212 318.094 126.335C318.216 126.457 318.285 126.623 318.285 126.796C318.285 126.969 318.216 127.135 318.094 127.257C317.972 127.38 317.806 127.448 317.633 127.448Z" fill="#2E4052"/>
<path d="M317.633 133.548H291.095C290.922 133.548 290.756 133.479 290.634 133.357C290.512 133.234 290.443 133.068 290.443 132.895C290.443 132.722 290.512 132.557 290.634 132.434C290.756 132.312 290.922 132.243 291.095 132.243H317.633C317.806 132.243 317.972 132.312 318.094 132.434C318.216 132.557 318.285 132.722 318.285 132.895C318.285 133.068 318.216 133.234 318.094 133.357C317.972 133.479 317.806 133.548 317.633 133.548Z" fill="#2E4052"/>
<path d="M317.633 139.641H291.095C290.922 139.641 290.756 139.572 290.634 139.45C290.512 139.327 290.443 139.161 290.443 138.988C290.443 138.815 290.512 138.649 290.634 138.527C290.756 138.405 290.922 138.336 291.095 138.336H317.633C317.806 138.336 317.972 138.405 318.094 138.527C318.216 138.649 318.285 138.815 318.285 138.988C318.285 139.161 318.216 139.327 318.094 139.45C317.972 139.572 317.806 139.641 317.633 139.641Z" fill="#2E4052"/>
<path d="M317.633 145.74H291.095C290.922 145.74 290.756 145.671 290.634 145.549C290.512 145.427 290.443 145.261 290.443 145.088C290.443 144.915 290.512 144.749 290.634 144.626C290.756 144.504 290.922 144.435 291.095 144.435H317.633C317.806 144.435 317.972 144.504 318.094 144.626C318.216 144.749 318.285 144.915 318.285 145.088C318.285 145.261 318.216 145.427 318.094 145.549C317.972 145.671 317.806 145.74 317.633 145.74Z" fill="#2E4052"/>
<path d="M98.928 165.134C105.373 164.625 113.717 165.134 121.401 169.655C126.685 172.786 128.277 175.833 134.044 180.093C138.61 183.485 145.512 187.386 155.571 189.649C161.886 176.407 168.205 163.162 174.528 149.915L192.794 153.053C189.106 166.701 184.632 180.125 179.395 193.257C174.476 205.554 172.473 208.646 169.609 211.079C154.527 223.832 124.637 210.394 117.598 207.067C111.366 193.085 105.143 179.107 98.928 165.134Z" fill="#2EC4B6"/>
<path d="M111.72 169.655C108.835 167.663 105.567 166.292 102.124 165.63C101.221 165.448 100.409 164.958 99.8265 164.244C99.2438 163.531 98.9262 162.637 98.9279 161.716V145.988H81.7647V163.999C81.7656 164.908 81.5012 165.796 81.0041 166.557C80.5069 167.317 79.7987 167.915 78.9662 168.279C69.6442 172.369 62.5206 180.021 62.9185 190.4C63.7731 212.664 53.9292 261.89 53.9292 261.89H125.844C125.844 261.89 127.559 180.98 111.72 169.655Z" fill="white"/>
<path d="M125.844 262.542H53.9292C53.8314 262.544 53.7344 262.524 53.6453 262.484C53.5563 262.443 53.4775 262.383 53.4149 262.308C53.3522 262.233 53.3073 262.144 53.2834 262.049C53.2595 261.954 53.2573 261.855 53.2769 261.759C53.3747 261.27 63.062 212.351 62.2531 190.426C61.8813 180.719 67.8698 172.428 78.6922 167.685C79.4075 167.37 80.0159 166.854 80.4432 166.2C80.8706 165.545 81.0986 164.781 81.0993 163.999V145.988C81.0993 145.815 81.1681 145.649 81.2904 145.527C81.4127 145.404 81.5787 145.336 81.7517 145.336H98.9149C99.0879 145.336 99.2538 145.404 99.3761 145.527C99.4985 145.649 99.5672 145.815 99.5672 145.988V161.742C99.5713 162.511 99.8402 163.255 100.328 163.849C100.817 164.443 101.495 164.851 102.248 165.004C105.79 165.648 109.148 167.06 112.086 169.14C126.398 179.375 126.835 244.57 126.483 261.916C126.476 262.082 126.406 262.24 126.288 262.356C126.169 262.472 126.01 262.539 125.844 262.542ZM54.7381 261.238H125.204C125.315 253.612 125.987 180.66 111.335 170.19C111.401 170.19 107.93 167.502 101.994 166.276C100.95 166.06 100.012 165.493 99.3353 164.669C98.6587 163.845 98.2847 162.815 98.2755 161.749V146.64H82.4171V163.999C82.4167 165.035 82.1149 166.047 81.5484 166.914C80.9819 167.78 80.1753 168.463 79.2271 168.879C68.9266 173.393 63.2186 181.234 63.5709 190.374C64.3602 210.922 55.9711 254.838 54.7186 261.238H54.7381Z" fill="#2E4052"/>
<path d="M56.2451 248.478C50.9873 264.239 49.159 280.943 50.8828 297.469H128.512L126.796 255.517C104.361 246.782 79.964 244.348 56.2451 248.478Z" fill="#2E4052"/>
<path d="M119.203 108.106C118.95 106.821 118.39 105.616 117.571 104.594C116.752 103.572 115.698 102.763 114.499 102.235C104.714 97.9299 89.5212 95.0595 80.0622 100.154C60.531 108.211 55.4036 133.593 70.3553 148.584C73.9497 152.335 80.1927 156.256 86.6639 158.043C88.6601 158.591 106.273 163.184 116.182 153.014C120.338 148.754 121.336 143.744 122.308 138.877C122.308 138.897 123.848 131.167 119.203 108.106Z" fill="white"/>
<path d="M98.0929 160.222C87.9033 160.222 79.4685 157.058 72.5471 151.422C54.3598 136.992 58.4369 108.413 79.7816 99.5868C89.1036 94.5376 104.434 97.1209 114.76 101.661C116.053 102.23 117.189 103.101 118.073 104.201C118.958 105.301 119.565 106.598 119.842 107.982C124.461 130.899 123.012 138.701 122.947 139.021C121.962 143.972 120.938 149.087 116.652 153.49C111.805 158.461 105.093 160.222 98.0929 160.222ZM86.84 157.43C88.797 157.972 106.149 162.394 115.719 152.577C119.738 148.454 120.716 143.529 121.669 138.767C121.669 138.695 123.11 130.814 118.563 108.237C118.325 107.068 117.813 105.973 117.069 105.04C116.326 104.108 115.371 103.366 114.284 102.875C104.186 98.4387 89.3058 95.888 80.3948 100.735C80.3688 100.754 80.3402 100.769 80.31 100.781C61.0463 108.726 56.2972 133.587 70.8184 148.147C75.2962 152.536 80.8056 155.728 86.84 157.43Z" fill="#2E4052"/>
<path d="M89.1819 174.326C89.1819 174.326 98.6213 176.244 105.491 173.021L115.126 198.704L116.88 254.518L90.8846 251.837L82.6976 201.913L84.9482 177.516L89.1819 174.326Z" fill="#2E4052"/>
<path d="M78.6531 167.724L80.6819 165.969C84.955 168.827 88.4679 172.683 90.9172 177.203C95.4445 185.833 94.0093 193.961 93.1678 202.566C91.2108 222.26 94.8574 242.111 95.3792 261.89C79.7158 263.316 63.9242 261.723 48.8606 257.2L61.6857 193.922L78.6531 167.724Z" fill="#2EC4B6"/>
<path d="M105.099 165.154L101.355 164.736C107.324 194.235 109.659 215.691 110.664 230.18C111.362 240.252 112.686 262.399 112.751 262.399L132.478 263.893C132.478 263.893 125.654 185.468 122.367 177.046C119.079 168.624 105.099 165.154 105.099 165.154Z" fill="#2EC4B6"/>
<path d="M123.945 230.825C123.945 230.825 126.972 230.904 132.067 230.825C137.162 230.747 141.356 234.426 148.467 234.426C155.577 234.426 160.248 233.911 160.039 236.605C159.831 239.299 147.645 243.344 136.046 244.688C124.448 246.031 119.914 244.068 119.914 244.068C119.914 244.068 119.177 232.613 123.945 230.825Z" fill="white"/>
<path d="M128.512 245.816C122.412 245.816 119.803 244.727 119.659 244.662C119.55 244.614 119.455 244.537 119.386 244.439C119.317 244.341 119.276 244.226 119.268 244.107C119.235 243.618 118.55 232.156 123.724 230.219C123.802 230.187 123.887 230.172 123.971 230.173C133.665 230.382 132.726 229.521 139.178 231.784C144.996 233.859 146.288 233.813 151.442 233.741C155.956 233.689 158.937 233.656 160.15 234.955C160.357 235.18 160.513 235.448 160.606 235.74C160.7 236.032 160.729 236.34 160.692 236.644C160.353 240.995 140.339 245.816 128.512 245.816ZM120.547 243.592C121.851 243.996 126.561 245.138 135.981 244.042C148.473 242.587 159.25 238.406 159.394 236.553C159.416 236.429 159.41 236.301 159.375 236.18C159.34 236.059 159.277 235.948 159.191 235.855C158.376 234.981 155.166 235.02 151.455 235.059C146.386 235.118 144.886 235.203 138.74 233.017C132.491 230.793 133.711 231.712 124.069 231.484C120.788 232.887 120.403 240.304 120.547 243.592Z" fill="#2E4052"/>
<path d="M81.9801 167.104C76.4846 167.743 71.202 169.605 66.5195 172.551C55.5928 179.545 51.7896 190.765 47.0927 205.299C42.0306 220.955 39.4995 228.783 42.9047 234.596C45.4554 238.94 50.9938 242.659 82.5672 244.949C97.632 246.045 112.746 246.313 127.84 245.751C127.944 239.662 128.051 233.563 128.16 227.453L75.972 216.617L81.9801 167.104Z" fill="#2EC4B6"/>
<path d="M175.017 235.261H129.908C129.043 235.261 128.213 234.918 127.601 234.306C126.99 233.694 126.646 232.865 126.646 232C126.646 231.134 126.99 230.305 127.601 229.693C128.213 229.081 129.043 228.738 129.908 228.738H172.682L184.287 194.516C184.421 194.105 184.634 193.725 184.916 193.398C185.197 193.071 185.541 192.803 185.927 192.609C186.313 192.416 186.733 192.301 187.164 192.271C187.595 192.241 188.027 192.297 188.436 192.436C188.845 192.575 189.222 192.793 189.546 193.078C189.87 193.364 190.134 193.711 190.322 194.099C190.511 194.487 190.621 194.909 190.645 195.34C190.67 195.771 190.608 196.203 190.465 196.61L178.09 233.05C177.871 233.692 177.458 234.25 176.907 234.647C176.356 235.043 175.696 235.258 175.017 235.261Z" fill="#2E4052"/>
<path d="M72.1231 218.79C72.0285 218.791 71.9349 218.771 71.8486 218.732C71.7623 218.694 71.6855 218.637 71.6235 218.565C71.5614 218.494 71.5156 218.41 71.4892 218.319C71.4629 218.228 71.4566 218.133 71.4708 218.039L75.6719 191.391C75.6851 191.305 75.7152 191.223 75.7602 191.149C75.8053 191.075 75.8645 191.011 75.9344 190.959C76.0044 190.908 76.0838 190.871 76.168 190.851C76.2522 190.83 76.3396 190.827 76.4253 190.84C76.511 190.853 76.5932 190.883 76.6673 190.928C76.7413 190.973 76.8058 191.032 76.857 191.102C76.9082 191.172 76.9451 191.252 76.9656 191.336C76.9861 191.42 76.9898 191.508 76.9765 191.593L72.7885 218.242C72.7632 218.398 72.6817 218.54 72.5592 218.641C72.4367 218.742 72.2817 218.795 72.1231 218.79Z" fill="white"/>
<path d="M125.113 228.744C124.989 228.744 125.433 228.842 119.725 227.44C88.3143 219.755 81.804 218.855 74.2759 219.611C68.871 220.231 63.6638 222.011 59.0111 224.83C58.9392 224.878 58.8587 224.91 58.7741 224.927C58.6895 224.943 58.6026 224.942 58.5183 224.925C58.434 224.907 58.354 224.873 58.283 224.824C58.2119 224.776 58.1512 224.713 58.1043 224.641C58.0105 224.496 57.9778 224.321 58.0132 224.152C58.0487 223.983 58.1494 223.835 58.2935 223.741C63.1189 220.798 68.5333 218.954 74.152 218.339C83.2848 217.452 91.5891 219.22 125.263 227.505C125.391 227.561 125.498 227.657 125.567 227.779C125.636 227.901 125.665 228.041 125.648 228.18C125.631 228.319 125.57 228.449 125.474 228.551C125.377 228.652 125.251 228.72 125.113 228.744Z" fill="white"/>
<path d="M53.8053 241.772C53.7196 241.756 53.6379 241.723 53.5648 241.676C53.4918 241.628 53.4287 241.567 53.3794 241.495C53.33 241.423 53.2953 241.343 53.2771 241.257C53.259 241.172 53.2578 241.084 53.2736 240.999C53.2895 240.913 53.3221 240.831 53.3695 240.758C53.4169 240.685 53.4783 240.622 53.55 240.573C53.6218 240.523 53.7026 240.489 53.7878 240.47C53.8731 240.452 53.961 240.451 54.0467 240.467C78.137 244.968 102.712 246.302 127.148 244.433C127.234 244.427 127.32 244.437 127.402 244.464C127.483 244.491 127.559 244.534 127.624 244.59C127.689 244.646 127.742 244.714 127.781 244.791C127.82 244.867 127.843 244.951 127.85 245.037C127.856 245.122 127.845 245.208 127.819 245.29C127.792 245.372 127.749 245.447 127.693 245.512C127.637 245.577 127.569 245.631 127.492 245.67C127.415 245.708 127.332 245.731 127.246 245.738C102.698 247.627 78.0075 246.294 53.8053 241.772Z" fill="white"/>
<path d="M127.338 211.842C127.235 211.842 127.133 211.818 127.041 211.771C126.95 211.724 126.87 211.656 126.81 211.573C126.749 211.489 126.71 211.393 126.694 211.291C126.678 211.189 126.686 211.085 126.718 210.988C128.936 204.151 127.931 198.717 126.718 195.331C125.982 193.244 124.878 191.306 123.456 189.61C123.293 189.434 123.502 190.086 121.232 181.299C121.188 181.132 121.214 180.953 121.302 180.804C121.39 180.655 121.533 180.547 121.701 180.504C121.869 180.46 122.047 180.485 122.197 180.574C122.346 180.662 122.454 180.805 122.497 180.973L124.526 188.847C125.992 190.629 127.14 192.65 127.918 194.822C129.223 198.378 130.325 204.138 127.983 211.366C127.944 211.506 127.859 211.629 127.742 211.715C127.625 211.801 127.483 211.846 127.338 211.842Z" fill="white"/>
<path d="M155.258 208.789C155.1 208.791 154.948 208.736 154.828 208.634C154.708 208.532 154.629 208.39 154.605 208.235C154.521 207.68 152.538 194.568 155.016 189.369C155.053 189.291 155.105 189.221 155.169 189.164C155.234 189.106 155.308 189.062 155.39 189.033C155.471 189.005 155.557 188.993 155.643 188.998C155.729 189.003 155.813 189.025 155.891 189.062C156.046 189.137 156.165 189.27 156.223 189.433C156.28 189.595 156.271 189.774 156.197 189.93C153.888 194.77 155.871 207.902 155.891 208.032C155.906 208.125 155.901 208.219 155.876 208.31C155.851 208.4 155.807 208.484 155.747 208.555C155.687 208.627 155.612 208.685 155.528 208.726C155.443 208.766 155.351 208.788 155.258 208.789Z" fill="white"/>
<path d="M77.9942 128.662C77.8742 128.662 77.7562 128.63 77.6535 128.568C77.5507 128.506 77.467 128.417 77.4117 128.31C77.3564 128.203 77.3316 128.084 77.34 127.964C77.3484 127.844 77.3897 127.729 77.4593 127.631C78.8069 125.643 80.6772 124.065 82.8641 123.072C85.0511 122.078 87.4699 121.708 89.8539 122.001C90.0269 122.031 90.1811 122.128 90.2826 122.271C90.3842 122.414 90.4247 122.592 90.3953 122.765C90.3659 122.938 90.269 123.092 90.1258 123.193C89.9827 123.295 89.8051 123.335 89.6321 123.306C87.4935 123.058 85.328 123.403 83.3721 124.302C81.4163 125.202 79.7454 126.622 78.5422 128.407C78.4782 128.491 78.3949 128.558 78.2995 128.602C78.204 128.646 78.0993 128.667 77.9942 128.662Z" fill="#2E4052"/>
<path d="M82.7498 132.171C82.6779 132.125 82.6158 132.064 82.5672 131.994C82.5186 131.923 82.4843 131.843 82.4665 131.759C82.4486 131.676 82.4474 131.589 82.463 131.505C82.4786 131.42 82.5107 131.34 82.5574 131.268C82.6041 131.196 82.6645 131.134 82.7351 131.085C82.8058 131.037 82.8854 131.002 82.9693 130.985C83.0532 130.967 83.1398 130.965 83.2241 130.981C83.3085 130.997 83.3889 131.029 83.4609 131.075C84.472 131.728 84.9091 130.58 86.0246 129.712C86.4537 129.414 86.9433 129.213 87.4585 129.125C87.9737 129.038 88.502 129.064 89.0058 129.203C89.1719 129.252 89.3119 129.364 89.3951 129.516C89.4783 129.667 89.4978 129.846 89.4494 130.012C89.4009 130.178 89.2885 130.318 89.1368 130.401C88.9851 130.485 88.8066 130.504 88.6405 130.456C88.3352 130.372 88.0155 130.354 87.7027 130.403C87.39 130.453 87.0914 130.569 86.827 130.743C85.9789 131.402 84.759 133.463 82.7498 132.171Z" fill="#2E4052"/>
<path d="M88.1838 135.622C89.9744 135.622 91.4259 134.171 91.4259 132.38C91.4259 130.589 89.9744 129.138 88.1838 129.138C86.3932 129.138 84.9417 130.589 84.9417 132.38C84.9417 134.171 86.3932 135.622 88.1838 135.622Z" fill="#2E4052"/>
<path d="M106.241 119.503C106.103 119.501 105.969 119.456 105.858 119.373C105.747 119.29 105.666 119.174 105.625 119.042C105.585 118.91 105.587 118.769 105.632 118.638C105.677 118.508 105.762 118.395 105.875 118.316C107.648 117.101 109.739 116.437 111.887 116.407C114.035 116.377 116.145 116.982 117.95 118.146C118.096 118.24 118.197 118.388 118.234 118.558C118.27 118.727 118.237 118.904 118.143 119.049C118.048 119.195 117.9 119.297 117.731 119.333C117.561 119.369 117.385 119.336 117.239 119.242C115.651 118.215 113.794 117.681 111.903 117.708C110.012 117.734 108.171 118.32 106.612 119.392C106.502 119.464 106.373 119.502 106.241 119.503Z" fill="#2E4052"/>
<path d="M111.094 125.009C110.964 125.008 110.838 124.969 110.73 124.896C110.623 124.823 110.54 124.72 110.491 124.599C110.443 124.479 110.432 124.347 110.459 124.22C110.486 124.093 110.551 123.977 110.644 123.887C111.029 123.532 111.488 123.268 111.988 123.112C112.488 122.957 113.016 122.914 113.534 122.986C113.875 123.057 114.211 123.153 114.538 123.273C115.654 123.645 116.045 123.71 116.437 123.032C116.527 122.89 116.669 122.788 116.832 122.748C116.996 122.708 117.168 122.733 117.314 122.817C117.459 122.901 117.567 123.039 117.614 123.2C117.661 123.362 117.643 123.535 117.565 123.684C116.365 125.746 114.349 124.467 113.286 124.258C112.972 124.228 112.655 124.262 112.356 124.36C112.056 124.458 111.78 124.616 111.544 124.826C111.423 124.943 111.262 125.008 111.094 125.009Z" fill="#2E4052"/>
<path d="M112.823 129.582C114.613 129.582 116.065 128.13 116.065 126.339C116.065 124.549 114.613 123.097 112.823 123.097C111.032 123.097 109.581 124.549 109.581 126.339C109.581 128.13 111.032 129.582 112.823 129.582Z" fill="#2E4052"/>
<path d="M99.8085 137.273C99.7976 137.187 99.8036 137.101 99.8262 137.018C99.8488 136.935 99.8876 136.857 99.9404 136.789C99.9931 136.721 100.059 136.665 100.134 136.622C100.208 136.58 100.291 136.553 100.376 136.542C102.046 136.327 104.049 135.701 104.29 135.146C104.414 134.422 102.333 130.756 100.285 127.794C100.19 127.651 100.154 127.477 100.187 127.308C100.22 127.14 100.317 126.991 100.459 126.894C100.6 126.797 100.775 126.76 100.943 126.79C101.112 126.821 101.262 126.917 101.361 127.057C103.135 129.666 106.045 134.187 105.51 135.603C104.929 137.162 101.596 137.71 100.578 137.84C100.49 137.857 100.399 137.855 100.312 137.835C100.224 137.815 100.142 137.778 100.07 137.724C99.9974 137.671 99.9369 137.603 99.892 137.526C99.847 137.448 99.8186 137.362 99.8085 137.273Z" fill="#2E4052"/>
<path d="M85.3452 144.511C87.7836 144.087 89.5361 142.454 89.2595 140.864C88.9828 139.274 86.7817 138.329 84.3432 138.753C81.9048 139.177 80.1523 140.81 80.4289 142.4C80.7056 143.99 82.9067 144.936 85.3452 144.511Z" fill="#2EC4B6"/>
<path d="M117.544 138.082C119.983 137.658 121.735 136.025 121.459 134.435C121.182 132.845 118.981 131.9 116.542 132.324C114.104 132.748 112.351 134.381 112.628 135.971C112.905 137.562 115.106 138.507 117.544 138.082Z" fill="#2EC4B6"/>
<path d="M73.206 141.996C64.856 144.638 62.4685 133.143 65.6584 130.495C67.1653 129.249 70.3944 129.432 72.2993 130.828C73.7475 131.897 75.0848 134.246 75.8807 133.222C76.6765 132.197 73.043 124.983 76.4678 119.418C79.8926 113.854 96.2142 114.623 97.0166 102.17C101.642 101.883 106.259 102.839 110.389 104.941C114.52 107.043 118.011 110.213 120.501 114.121C123.286 100.702 113.325 88.5622 99.1498 91.289C93.1091 90.2909 74.9413 88.0925 63.4078 98.9932C53.7727 108.087 47.8755 127.207 51.4308 142.211C52.4811 146.673 55.1426 154.031 51.5026 160.359C49.0106 164.697 45.6315 164.926 45.4358 167.47C44.8226 174.763 71.2882 189.134 81.1842 180.256C88.36 173.817 83.5 158.115 83.1412 156.902C81.227 151.132 77.7953 145.983 73.206 141.996Z" fill="#2E4052"/>
<path d="M99.5476 150.6C96.1881 150.6 94.3941 147.612 93.9048 145.923C93.8729 145.813 93.8704 145.696 93.8978 145.585C93.9251 145.474 93.9813 145.372 94.0607 145.289C94.14 145.206 94.2397 145.146 94.3498 145.114C94.4599 145.082 94.5764 145.08 94.6877 145.107C94.7529 145.107 101.211 146.679 105.419 144.057C105.53 143.988 105.66 143.954 105.792 143.96C105.923 143.966 106.05 144.011 106.155 144.09C106.26 144.169 106.338 144.278 106.381 144.402C106.423 144.527 106.426 144.661 106.391 144.788C106.332 145.003 104.858 150.039 100.22 150.567C99.9964 150.591 99.772 150.602 99.5476 150.6ZM95.6336 146.614C96.2859 147.808 97.5906 149.543 100.109 149.269C102.385 149.008 103.762 147.312 104.492 146.008C101.211 147.254 97.4927 146.921 95.6009 146.614H95.6336Z" fill="#2E4052"/>
<path d="M117.004 103.723C116.905 103.723 116.807 103.701 116.718 103.658C116.629 103.615 116.55 103.553 116.489 103.475C111.76 97.4928 100.552 96.6186 100.435 96.6121C100.349 96.6057 100.266 96.5825 100.189 96.5437C100.112 96.505 100.044 96.4516 99.9879 96.3865C99.8747 96.2549 99.8184 96.0839 99.8314 95.9108C99.8444 95.7378 99.9256 95.5771 100.057 95.4639C100.189 95.3507 100.36 95.2945 100.533 95.3074C101.015 95.3466 112.425 96.2272 117.494 102.666C117.569 102.761 117.616 102.874 117.63 102.994C117.644 103.114 117.625 103.235 117.574 103.345C117.523 103.454 117.443 103.548 117.343 103.614C117.242 103.681 117.125 103.719 117.004 103.723Z" fill="white"/>
<path d="M66.8261 114.949C66.8261 114.776 66.8948 114.611 67.0171 114.488C67.1395 114.366 67.3054 114.297 67.4784 114.297C79.2663 113.775 89.371 103.468 89.4689 103.364C89.5891 103.239 89.754 103.168 89.9271 103.165C90.1002 103.161 90.2674 103.227 90.392 103.348C90.5165 103.468 90.5882 103.633 90.5913 103.806C90.5944 103.979 90.5285 104.146 90.4083 104.271C89.9843 104.708 79.8534 115.06 67.5371 115.602C67.4466 115.61 67.3555 115.599 67.2694 115.57C67.1834 115.541 67.1043 115.494 67.0374 115.433C66.9705 115.371 66.9171 115.297 66.8807 115.213C66.8443 115.13 66.8257 115.04 66.8261 114.949Z" fill="white"/>
<path d="M63.6166 112.751C62.9297 112.752 62.2441 112.691 61.5682 112.568C61.3952 112.537 61.2417 112.439 61.1414 112.294C61.041 112.15 61.0022 111.972 61.0333 111.799C61.0645 111.626 61.1631 111.472 61.3074 111.372C61.4518 111.271 61.6301 111.233 61.8031 111.264C69.5073 112.686 78.8227 104.127 78.9141 104.042C78.977 103.984 79.0508 103.939 79.1313 103.909C79.2118 103.879 79.2973 103.866 79.383 103.869C79.4687 103.872 79.553 103.893 79.6309 103.928C79.7088 103.964 79.7789 104.015 79.8371 104.078C79.8954 104.141 79.9407 104.215 79.9704 104.295C80.0001 104.376 80.0137 104.461 80.0104 104.547C80.007 104.633 79.9868 104.717 79.951 104.795C79.9151 104.873 79.8642 104.943 79.8012 105.001C79.4359 105.36 71.3925 112.751 63.6166 112.751Z" fill="white"/>
<path d="M76.0438 174.861C75.9125 174.862 75.7841 174.823 75.6752 174.75C75.5664 174.676 75.4821 174.572 75.4335 174.45C75.3849 174.328 75.3742 174.195 75.4028 174.066C75.4313 173.938 75.4978 173.822 75.5936 173.732C81.9214 167.809 74.5564 151.207 74.4847 151.037C74.4431 150.958 74.4182 150.872 74.4114 150.783C74.4045 150.694 74.4159 150.605 74.4449 150.521C74.4738 150.437 74.5197 150.359 74.5798 150.293C74.6398 150.228 74.7126 150.175 74.7938 150.138C74.875 150.102 74.9628 150.082 75.0519 150.081C75.1409 150.079 75.2293 150.096 75.3115 150.13C75.3938 150.164 75.4682 150.215 75.5302 150.279C75.5922 150.343 75.6404 150.419 75.6719 150.502C75.9981 151.22 83.5 168.116 76.4873 174.685C76.367 174.797 76.2086 174.86 76.0438 174.861Z" fill="white"/>
<path d="M63.5187 174.313C63.5047 174.228 63.5077 174.141 63.5273 174.057C63.547 173.974 63.5831 173.895 63.6334 173.825C63.6837 173.755 63.7473 173.696 63.8205 173.651C63.8938 173.606 63.9752 173.576 64.0601 173.563C67.5306 173.021 69.9312 171.606 71.2359 169.355C73.6626 165.18 71.5164 159.407 71.4903 159.354C71.428 159.193 71.4326 159.013 71.5029 158.854C71.5732 158.696 71.7036 158.572 71.8654 158.51C72.0272 158.447 72.2071 158.452 72.3655 158.522C72.5239 158.593 72.6479 158.723 72.7102 158.885C72.808 159.146 75.1043 165.284 72.371 169.975C70.8575 172.584 68.1242 174.215 64.2428 174.828C64.0793 174.85 63.9137 174.808 63.7794 174.713C63.645 174.617 63.5519 174.474 63.5187 174.313Z" fill="white"/>
<path d="M123.945 166.622C123.845 166.625 123.745 166.604 123.653 166.562C123.562 166.52 123.482 166.457 123.418 166.379C123.355 166.301 123.311 166.209 123.289 166.111C123.268 166.012 123.269 165.91 123.293 165.813C124.598 160.633 119.979 158.637 119.783 158.546C119.623 158.478 119.497 158.35 119.431 158.189C119.366 158.028 119.367 157.848 119.434 157.688C119.502 157.528 119.63 157.401 119.791 157.336C119.952 157.27 120.132 157.271 120.292 157.339C120.351 157.339 126.105 159.876 124.565 166.126C124.531 166.265 124.451 166.389 124.339 166.479C124.227 166.568 124.089 166.619 123.945 166.622Z" fill="white"/>
<path d="M71.1055 140.358C70.9805 140.358 70.8582 140.322 70.7532 140.254C68.0786 138.545 67.8764 136.399 69.4485 134.513H66.7283C66.5553 134.513 66.3893 134.445 66.267 134.322C66.1447 134.2 66.0759 134.034 66.0759 133.861C66.0759 133.688 66.1447 133.522 66.267 133.4C66.3893 133.277 66.5553 133.209 66.7283 133.209H71.1055C71.2467 133.208 71.3845 133.252 71.4981 133.336C71.6117 133.42 71.6949 133.539 71.7354 133.674C71.7758 133.809 71.7713 133.954 71.7224 134.087C71.6735 134.219 71.5829 134.332 71.4643 134.409C70.9881 134.722 69.7486 135.798 69.7617 136.927C69.7617 137.69 70.3357 138.44 71.4578 139.158C71.5759 139.234 71.6663 139.347 71.7153 139.479C71.7643 139.61 71.7694 139.755 71.7298 139.89C71.6901 140.025 71.608 140.143 71.4955 140.228C71.383 140.312 71.2462 140.358 71.1055 140.358Z" fill="#2E4052"/>
<path d="M186.166 146.073C186.001 146.073 185.843 146.012 185.722 145.901C185.601 145.789 185.527 145.636 185.513 145.473C185.318 142.968 181.991 139.602 181.958 139.602C181.835 139.48 181.766 139.314 181.765 139.141C181.765 138.968 181.833 138.801 181.955 138.679C182.077 138.556 182.243 138.486 182.416 138.486C182.589 138.485 182.755 138.553 182.878 138.675C183.028 138.832 186.583 142.4 186.792 145.388C186.796 145.474 186.784 145.56 186.754 145.642C186.725 145.723 186.68 145.797 186.622 145.861C186.564 145.925 186.493 145.976 186.415 146.013C186.337 146.049 186.252 146.069 186.166 146.073Z" fill="#2E4052"/>
<path d="M194.294 140.939C194.141 140.937 193.993 140.882 193.877 140.782C191.372 138.682 186.114 137.834 186.048 137.827C185.963 137.814 185.882 137.784 185.809 137.739C185.736 137.693 185.672 137.634 185.622 137.565C185.571 137.495 185.535 137.416 185.516 137.332C185.496 137.249 185.493 137.162 185.507 137.077C185.534 136.907 185.628 136.754 185.767 136.653C185.906 136.551 186.08 136.509 186.251 136.536C186.479 136.575 191.919 137.449 194.731 139.797C194.831 139.885 194.901 140.002 194.933 140.131C194.965 140.26 194.956 140.396 194.909 140.52C194.861 140.644 194.777 140.751 194.667 140.826C194.557 140.9 194.427 140.94 194.294 140.939Z" fill="#2E4052"/>
<path d="M189.212 133.77C189.1 133.769 188.989 133.74 188.892 133.684C188.794 133.629 188.712 133.549 188.654 133.452C188.597 133.356 188.565 133.246 188.562 133.134C188.559 133.021 188.585 132.91 188.638 132.811C189.467 131.232 190.178 125.876 190.387 123.952C190.396 123.866 190.421 123.783 190.462 123.707C190.504 123.632 190.559 123.565 190.626 123.511C190.693 123.456 190.77 123.416 190.853 123.391C190.935 123.367 191.022 123.359 191.107 123.368C191.193 123.377 191.276 123.403 191.352 123.444C191.428 123.485 191.494 123.541 191.549 123.607C191.603 123.674 191.643 123.751 191.668 123.834C191.692 123.917 191.7 124.003 191.691 124.089C191.691 124.382 190.915 131.297 189.799 133.417C189.744 133.525 189.66 133.614 189.556 133.677C189.452 133.739 189.333 133.771 189.212 133.77Z" fill="#2E4052"/>
<path d="M192.689 134.729C192.579 134.728 192.471 134.7 192.375 134.647C192.279 134.594 192.198 134.517 192.139 134.424C192.08 134.331 192.046 134.224 192.04 134.114C192.033 134.005 192.055 133.895 192.102 133.796C193.407 130.997 193.935 124.663 193.942 124.611C193.955 124.439 194.036 124.279 194.167 124.166C194.298 124.054 194.468 123.998 194.64 124.011C194.726 124.017 194.809 124.041 194.886 124.08C194.963 124.119 195.031 124.172 195.086 124.238C195.142 124.303 195.185 124.379 195.211 124.461C195.237 124.543 195.247 124.629 195.24 124.715C195.24 124.983 194.705 131.336 193.283 134.357C193.23 134.469 193.145 134.563 193.04 134.629C192.935 134.695 192.813 134.729 192.689 134.729Z" fill="#2E4052"/>
<path d="M195.475 135.687C195.342 135.689 195.212 135.649 195.102 135.574C194.992 135.499 194.908 135.393 194.86 135.268C194.812 135.144 194.804 135.008 194.836 134.879C194.868 134.75 194.938 134.634 195.038 134.546C195.56 134.083 196.303 131.023 196.695 128.459C196.721 128.286 196.814 128.131 196.955 128.027C197.096 127.923 197.272 127.879 197.445 127.905C197.618 127.931 197.774 128.025 197.878 128.165C197.982 128.306 198.025 128.482 197.999 128.655C197.778 130.045 196.851 135.687 195.475 135.687Z" fill="#2E4052"/>
<path d="M220.747 186.662C220.604 186.282 220.587 185.868 220.698 185.478C220.808 185.088 221.04 184.744 221.36 184.496C221.614 184.365 221.901 184.496 222.423 184.685C223.571 185.089 226.989 186.244 227.674 185.266C227.809 185.058 227.891 184.821 227.916 184.574C228.046 182.037 225.085 181.926 222.756 180.849C220.61 179.858 220.355 174.424 223.702 173.269C225.874 172.525 228.118 173.569 229.808 175.141C229.903 175.23 229.969 175.345 229.998 175.472C230.027 175.599 230.017 175.731 229.971 175.852C229.579 176.909 228.94 177.157 227.766 176.446C226.696 175.794 224.869 175.683 224.302 176.713C224.209 176.933 224.161 177.17 224.161 177.408C224.161 177.647 224.209 177.883 224.302 178.103C225.143 180.243 228.399 179.408 229.984 181.26C230.482 181.927 230.785 182.72 230.859 183.549C230.933 184.379 230.774 185.213 230.401 185.957C228.673 189.121 221.712 188.658 220.747 186.662Z" fill="#FFD23F"/>
<path d="M226.718 171.549L226.145 171.519C225.8 171.501 225.505 171.766 225.487 172.112L224.594 189.199C224.576 189.545 224.842 189.839 225.187 189.858L225.76 189.887C226.106 189.906 226.4 189.64 226.418 189.295L227.311 172.207C227.329 171.862 227.064 171.567 226.718 171.549Z" fill="#FFD23F"/>
</g>
<defs>
<clipPath id="clip0_25_5438">
<rect width="334" height="334" fill="white"/>
</clipPath>
</defs>
</svg>
