<svg width="334" height="334" viewBox="0 0 334 334" fill="none" xmlns="http://www.w3.org/2000/svg">
<g clip-path="url(#clip0_137_4412)">
<path d="M133.021 215.063C132.299 215.071 131.582 214.935 130.912 214.664C130.243 214.394 129.633 213.993 129.12 213.485C128.606 212.977 128.198 212.373 127.919 211.707C127.64 211.04 127.496 210.325 127.495 209.603V103.91C127.483 102.374 128.078 100.895 129.151 99.7958C130.224 98.6962 131.687 98.0648 133.223 98.0391H207.616C208.368 98.0495 209.109 98.2113 209.797 98.5146C210.485 98.8179 211.104 99.2566 211.619 99.8045C212.133 100.352 212.532 100.998 212.791 101.704C213.051 102.409 213.165 103.159 213.129 103.91L210.428 208.938C210.381 210.403 209.773 211.794 208.728 212.822C207.684 213.851 206.283 214.438 204.818 214.463L133.021 215.063Z" fill="#2E4052"/>
<path d="M200.61 98.6785H125.219C122.711 98.6785 120.678 100.711 120.678 103.219V209.897C120.678 212.404 122.711 214.437 125.219 214.437H200.61C203.118 214.437 205.15 212.404 205.15 209.897V103.219C205.15 100.711 203.118 98.6785 200.61 98.6785Z" fill="white"/>
<path d="M200.61 215.089H125.219C123.835 215.089 122.507 214.539 121.529 213.561C120.55 212.582 120 211.255 120 209.87V103.219C120 101.835 120.55 100.507 121.529 99.5285C122.507 98.5498 123.835 98 125.219 98H200.61C201.994 98 203.322 98.5498 204.3 99.5285C205.279 100.507 205.829 101.835 205.829 103.219V209.89C205.824 211.271 205.272 212.593 204.293 213.568C203.315 214.542 201.991 215.089 200.61 215.089ZM125.219 99.3438C124.181 99.3438 123.185 99.7562 122.451 100.49C121.717 101.224 121.305 102.22 121.305 103.258V209.89C121.305 210.928 121.717 211.924 122.451 212.658C123.185 213.392 124.181 213.804 125.219 213.804H200.61C201.648 213.804 202.644 213.392 203.378 212.658C204.112 211.924 204.524 210.928 204.524 209.89V103.219C204.524 102.181 204.112 101.185 203.378 100.451C202.644 99.7171 201.648 99.3047 200.61 99.3047L125.219 99.3438Z" fill="#2E4052"/>
<path d="M195.952 107.394H129.883C128.935 107.394 128.167 108.162 128.167 109.109V128.079C128.167 129.027 128.935 129.795 129.883 129.795H195.952C196.9 129.795 197.668 129.027 197.668 128.079V109.109C197.668 108.162 196.9 107.394 195.952 107.394Z" fill="#2E4052"/>
<path d="M157.334 135.921H131.573C130.355 135.921 129.368 136.908 129.368 138.126V165.974C129.368 167.192 130.355 168.179 131.573 168.179H157.334C158.551 168.179 159.539 167.192 159.539 165.974V138.126C159.539 136.908 158.551 135.921 157.334 135.921Z" fill="white"/>
<path d="M157.327 168.831H131.573C130.815 168.83 130.09 168.528 129.554 167.993C129.019 167.457 128.717 166.731 128.715 165.974V138.126C128.715 137.368 129.016 136.641 129.552 136.105C130.088 135.569 130.815 135.268 131.573 135.268H157.327C158.085 135.268 158.812 135.569 159.348 136.105C159.883 136.641 160.184 137.368 160.184 138.126V165.974C160.183 166.731 159.881 167.457 159.346 167.993C158.81 168.528 158.084 168.83 157.327 168.831ZM131.573 136.573C131.161 136.573 130.766 136.737 130.475 137.028C130.184 137.319 130.02 137.714 130.02 138.126V165.974C130.022 166.385 130.186 166.779 130.477 167.07C130.767 167.361 131.161 167.525 131.573 167.527H157.327C157.739 167.527 158.134 167.363 158.425 167.072C158.716 166.781 158.88 166.386 158.88 165.974V138.126C158.881 137.921 158.841 137.719 158.763 137.53C158.686 137.342 158.571 137.17 158.427 137.026C158.283 136.881 158.111 136.767 157.922 136.689C157.734 136.612 157.531 136.572 157.327 136.573H131.573Z" fill="#2E4052"/>
<path d="M195.463 135.921H169.311C168.093 135.921 167.106 136.908 167.106 138.126V165.974C167.106 167.192 168.093 168.179 169.311 168.179H195.463C196.681 168.179 197.668 167.192 197.668 165.974V138.126C197.668 136.908 196.681 135.921 195.463 135.921Z" fill="white"/>
<path d="M195.457 168.831H169.311C168.553 168.83 167.828 168.528 167.292 167.993C166.757 167.457 166.455 166.731 166.453 165.974V138.126C166.455 137.368 166.757 136.643 167.292 136.107C167.828 135.572 168.553 135.27 169.311 135.268H195.457C196.215 135.268 196.943 135.569 197.479 136.105C198.016 136.64 198.319 137.367 198.32 138.126V165.974C198.319 166.733 198.016 167.459 197.479 167.995C196.943 168.531 196.215 168.831 195.457 168.831ZM169.311 136.573C168.899 136.573 168.504 136.737 168.213 137.028C167.922 137.319 167.758 137.714 167.758 138.126V165.974C167.76 166.385 167.924 166.779 168.215 167.07C168.506 167.361 168.9 167.525 169.311 167.527H195.457C195.869 167.527 196.265 167.363 196.557 167.072C196.849 166.781 197.014 166.386 197.016 165.974V138.126C197.016 137.921 196.975 137.719 196.897 137.53C196.819 137.341 196.704 137.17 196.559 137.025C196.414 136.881 196.242 136.767 196.053 136.689C195.864 136.612 195.661 136.572 195.457 136.573H169.311Z" fill="#2E4052"/>
<path d="M157.334 174.174H131.573C130.355 174.174 129.368 175.161 129.368 176.379V204.228C129.368 205.445 130.355 206.432 131.573 206.432H157.334C158.551 206.432 159.539 205.445 159.539 204.228V176.379C159.539 175.161 158.551 174.174 157.334 174.174Z" fill="white"/>
<path d="M157.327 207.085H131.573C130.815 207.083 130.09 206.782 129.554 206.246C129.019 205.711 128.717 204.985 128.715 204.228V176.379C128.717 175.622 129.019 174.896 129.554 174.361C130.09 173.825 130.815 173.523 131.573 173.522H157.327C158.084 173.523 158.81 173.825 159.346 174.361C159.881 174.896 160.183 175.622 160.184 176.379V204.228C160.183 204.985 159.881 205.711 159.346 206.246C158.81 206.782 158.084 207.083 157.327 207.085ZM131.573 174.826C131.161 174.828 130.767 174.992 130.477 175.283C130.186 175.574 130.022 175.968 130.02 176.379V204.228C130.022 204.639 130.186 205.033 130.477 205.323C130.767 205.614 131.161 205.778 131.573 205.78H157.327C157.739 205.78 158.134 205.617 158.425 205.325C158.716 205.034 158.88 204.639 158.88 204.228V176.379C158.88 175.967 158.716 175.572 158.425 175.281C158.134 174.99 157.739 174.826 157.327 174.826H131.573Z" fill="#2E4052"/>
<path d="M195.463 174.174H169.311C168.093 174.174 167.106 175.161 167.106 176.379V204.228C167.106 205.445 168.093 206.432 169.311 206.432H195.463C196.681 206.432 197.668 205.445 197.668 204.228V176.379C197.668 175.161 196.681 174.174 195.463 174.174Z" fill="white"/>
<path d="M195.457 207.085H169.311C168.553 207.083 167.828 206.782 167.292 206.246C166.757 205.711 166.455 204.985 166.453 204.228V176.379C166.455 175.622 166.757 174.896 167.292 174.361C167.828 173.825 168.553 173.523 169.311 173.522H195.457C196.215 173.522 196.943 173.823 197.479 174.358C198.016 174.894 198.319 175.621 198.32 176.379V204.228C198.319 204.986 198.016 205.713 197.479 206.248C196.943 206.784 196.215 207.085 195.457 207.085ZM169.311 174.826C168.9 174.828 168.506 174.992 168.215 175.283C167.924 175.574 167.76 175.968 167.758 176.379V204.228C167.76 204.639 167.924 205.033 168.215 205.323C168.506 205.614 168.9 205.778 169.311 205.78H195.457C195.869 205.78 196.265 205.617 196.557 205.326C196.849 205.035 197.014 204.64 197.016 204.228V176.379C197.014 175.967 196.849 175.572 196.557 175.281C196.265 174.99 195.869 174.826 195.457 174.826H169.311Z" fill="#2E4052"/>
<path d="M146.316 143.586H142.584C142.411 143.586 142.271 143.726 142.271 143.899V160.201C142.271 160.374 142.411 160.514 142.584 160.514H146.316C146.489 160.514 146.629 160.374 146.629 160.201V143.899C146.629 143.726 146.489 143.586 146.316 143.586Z" fill="#2E4052"/>
<path d="M152.604 149.868H136.302C136.129 149.868 135.989 150.008 135.989 150.181V153.912C135.989 154.085 136.129 154.225 136.302 154.225H152.604C152.777 154.225 152.917 154.085 152.917 153.912V150.181C152.917 150.008 152.777 149.868 152.604 149.868Z" fill="#2E4052"/>
<path d="M190.538 149.868H174.236C174.063 149.868 173.923 150.008 173.923 150.181V153.912C173.923 154.085 174.063 154.225 174.236 154.225H190.538C190.711 154.225 190.851 154.085 190.851 153.912V150.181C190.851 150.008 190.711 149.868 190.538 149.868Z" fill="#2E4052"/>
<path d="M190.538 192.146H174.236C174.063 192.146 173.923 192.286 173.923 192.459V196.191C173.923 196.364 174.063 196.504 174.236 196.504H190.538C190.711 196.504 190.851 196.364 190.851 196.191V192.459C190.851 192.286 190.711 192.146 190.538 192.146Z" fill="#2E4052"/>
<path d="M190.538 184.103H174.236C174.063 184.103 173.923 184.243 173.923 184.416V188.147C173.923 188.32 174.063 188.46 174.236 188.46H190.538C190.711 188.46 190.851 188.32 190.851 188.147V184.416C190.851 184.243 190.711 184.103 190.538 184.103Z" fill="#2E4052"/>
<path d="M148.675 183.001L137.148 194.529C137.026 194.651 137.026 194.849 137.148 194.971L139.787 197.61C139.909 197.732 140.107 197.732 140.229 197.61L151.757 186.083C151.879 185.96 151.879 185.762 151.757 185.64L149.118 183.001C148.996 182.879 148.798 182.879 148.675 183.001Z" fill="#2E4052"/>
<path d="M139.789 183.014L137.15 185.653C137.028 185.775 137.028 185.973 137.15 186.096L148.677 197.623C148.8 197.745 148.998 197.745 149.12 197.623L151.759 194.984C151.881 194.862 151.881 194.664 151.759 194.542L140.231 183.014C140.109 182.892 139.911 182.892 139.789 183.014Z" fill="#2E4052"/>
</g>
<defs>
<clipPath id="clip0_137_4412">
<rect width="334" height="334" fill="white"/>
</clipPath>
</defs>
</svg>
