<svg width="334" height="334" viewBox="0 0 334 334" fill="none" xmlns="http://www.w3.org/2000/svg">
<g clip-path="url(#clip0_25_5314)">
<g opacity="0.2">
<path d="M262.068 250.419C313.019 199.468 313.019 116.859 262.068 65.9081C211.117 14.9568 128.509 14.9568 77.5576 65.9081C26.6064 116.859 26.6064 199.468 77.5576 250.419C128.509 301.37 211.117 301.37 262.068 250.419Z" fill="#2EC4B6"/>
</g>
<path d="M120.755 169.916C118.257 164.045 115.83 155.564 119.346 148.219C121.956 142.831 125.276 143.059 129.281 136.979C134.5 129.06 132.224 123.495 137.671 88.3926L223.258 70.6945C224.517 74.0998 226.318 79.175 228.249 85.3527C238.81 119.19 244.883 138.669 237.381 152.668C229.299 167.737 208.476 170.66 186.205 174.117C164.34 177.436 142.017 176.003 120.755 169.916Z" fill="#2E4052"/>
<path d="M194.457 121.864H169.818V169.909H194.457V121.864Z" fill="white"/>
<path d="M194.457 170.568H169.818C169.645 170.568 169.479 170.5 169.357 170.377C169.234 170.255 169.166 170.089 169.166 169.916V121.864C169.166 121.691 169.234 121.525 169.357 121.403C169.479 121.281 169.645 121.212 169.818 121.212H194.457C194.63 121.212 194.796 121.281 194.918 121.403C195.041 121.525 195.109 121.691 195.109 121.864V169.916C195.109 170.089 195.041 170.255 194.918 170.377C194.796 170.5 194.63 170.568 194.457 170.568ZM170.47 169.264H193.805V122.517H170.47V169.264Z" fill="#2E4052"/>
<path d="M222.175 97.1992C222.278 95.2065 222.228 93.2088 222.025 91.2238C220.978 80.8401 215.923 71.2741 207.934 64.5589C199.945 57.8438 189.652 54.509 179.243 55.2633C168.834 56.0177 159.13 60.8017 152.193 68.5986C145.255 76.3955 141.632 86.5905 142.093 97.0166C140.839 97.1026 139.617 97.4504 138.505 98.0375C137.393 98.6247 136.417 99.4383 135.638 100.426C134.86 101.413 134.297 102.553 133.986 103.771C133.676 104.989 133.623 106.259 133.833 107.499C134.043 108.739 134.51 109.921 135.204 110.969C135.898 112.017 136.804 112.908 137.864 113.585C138.924 114.262 140.113 114.709 141.356 114.898C142.6 115.087 143.868 115.013 145.081 114.682C149.145 126.118 158.865 139.517 182.134 140.202C203.394 140.854 213.329 127.585 217.968 114.715C219.127 115.019 220.336 115.089 221.523 114.921C222.71 114.752 223.852 114.348 224.881 113.733C225.91 113.117 226.806 112.302 227.516 111.336C228.226 110.37 228.736 109.271 229.016 108.106C229.296 106.94 229.34 105.73 229.147 104.546C228.953 103.363 228.525 102.23 227.888 101.215C227.251 100.199 226.417 99.3203 225.436 98.6309C224.455 97.9414 223.347 97.4547 222.175 97.1992Z" fill="white"/>
<path d="M183.556 140.906C165.428 140.906 151.076 132.837 144.67 115.465C143.397 115.737 142.082 115.749 140.804 115.5C139.527 115.251 138.312 114.746 137.234 114.016C136.156 113.286 135.237 112.346 134.532 111.252C133.826 110.158 133.349 108.932 133.129 107.649C132.909 106.366 132.951 105.052 133.252 103.785C133.552 102.518 134.106 101.326 134.879 100.278C135.653 99.2309 136.63 98.3507 137.752 97.6904C138.874 97.0302 140.118 96.6035 141.409 96.436C140.652 73.6039 159.152 54.4837 182.128 54.4837C187.608 54.4662 193.035 55.5579 198.082 57.6932C203.129 59.8284 207.692 62.963 211.496 66.9081C215.3 70.8533 218.266 75.5274 220.215 80.6491C222.165 85.7708 223.058 91.234 222.841 96.7099C225.177 97.4377 227.151 99.0253 228.362 101.152C229.574 103.279 229.933 105.786 229.367 108.167C228.802 110.548 227.353 112.626 225.315 113.981C223.276 115.335 220.8 115.866 218.385 115.465C213.969 127.272 204.405 140.906 183.556 140.906ZM145.068 114.056C145.204 114.055 145.337 114.097 145.448 114.175C145.559 114.253 145.643 114.364 145.688 114.493C149.602 125.583 159.133 138.904 182.141 139.582C203.538 140.234 213.095 126.3 217.367 114.525C217.422 114.373 217.533 114.246 217.676 114.17C217.82 114.094 217.986 114.074 218.144 114.114C219.22 114.401 220.344 114.47 221.447 114.316C222.551 114.163 223.612 113.79 224.57 113.22C225.527 112.65 226.361 111.894 227.022 110.997C227.683 110.1 228.158 109.08 228.419 107.997C228.68 106.914 228.722 105.79 228.542 104.69C228.362 103.59 227.964 102.538 227.371 101.594C226.778 100.651 226.003 99.8355 225.09 99.1961C224.178 98.5567 223.147 98.1062 222.058 97.8711C221.911 97.838 221.78 97.7549 221.687 97.6359C221.594 97.517 221.545 97.3696 221.549 97.2188C221.818 91.8875 221.002 86.557 219.151 81.5503C217.299 76.5436 214.45 71.965 210.777 68.092C207.103 64.2189 202.681 61.132 197.78 59.0183C192.878 56.9046 187.598 55.8081 182.26 55.7953C176.922 55.7825 171.636 56.8536 166.725 58.9437C161.813 61.0338 157.376 64.0995 153.684 67.9549C149.992 71.8103 147.121 76.3751 145.246 81.3728C143.37 86.3705 142.528 91.697 142.772 97.0296C142.772 97.195 142.71 97.3543 142.597 97.4754C142.485 97.5965 142.33 97.6704 142.165 97.6819C140.004 97.8301 137.985 98.8119 136.533 100.42C135.082 102.028 134.312 104.138 134.385 106.303C134.459 108.468 135.37 110.52 136.928 112.026C138.485 113.532 140.566 114.374 142.733 114.375C143.526 114.345 144.314 114.227 145.081 114.023L145.068 114.056Z" fill="#2E4052"/>
<path d="M208.098 98.1973C207.939 98.1971 207.786 98.1391 207.667 98.0342C205.623 96.1055 203.089 94.7757 200.34 94.1901C197.592 93.6046 194.735 93.7857 192.083 94.7138C191.923 94.7796 191.743 94.779 191.583 94.7124C191.424 94.6457 191.297 94.5183 191.231 94.3583C191.166 94.1983 191.166 94.0187 191.233 93.859C191.299 93.6994 191.427 93.5727 191.587 93.507C194.472 92.52 197.571 92.3293 200.556 92.955C203.541 93.5806 206.301 94.9995 208.548 97.0623C208.646 97.1515 208.715 97.2685 208.745 97.3977C208.775 97.5269 208.764 97.6622 208.716 97.7856C208.667 97.9089 208.581 98.0144 208.471 98.0879C208.361 98.1615 208.23 98.1997 208.098 98.1973Z" fill="#2E4052"/>
<path d="M197.817 103.312C197.406 103.158 196.968 103.093 196.53 103.121C196.093 103.149 195.666 103.27 195.279 103.475C195.128 103.556 194.95 103.574 194.785 103.526C194.62 103.477 194.481 103.365 194.398 103.214C194.316 103.064 194.296 102.887 194.342 102.723C194.388 102.558 194.498 102.418 194.646 102.333C195.214 102.027 195.843 101.85 196.487 101.817C197.131 101.783 197.775 101.892 198.371 102.137C200.022 102.914 200.981 104.316 202.2 103.083C202.322 102.96 202.489 102.889 202.662 102.888C202.836 102.887 203.003 102.955 203.127 103.077C203.25 103.199 203.321 103.365 203.322 103.539C203.323 103.712 203.255 103.879 203.133 104.003C201.098 106.071 199.18 103.964 197.817 103.312Z" fill="#2E4052"/>
<path d="M196.492 110.109C198.802 110.109 200.674 108.237 200.674 105.928C200.674 103.618 198.802 101.746 196.492 101.746C194.183 101.746 192.311 103.618 192.311 105.928C192.311 108.237 194.183 110.109 196.492 110.109Z" fill="#2E4052"/>
<path d="M155.597 97.682C155.469 97.6815 155.344 97.6431 155.237 97.5718C155.13 97.5005 155.047 97.3994 154.998 97.2811C154.948 97.1627 154.935 97.0324 154.959 96.9065C154.983 96.7806 155.044 96.6646 155.134 96.573C157.047 94.6186 159.496 93.275 162.173 92.7119C164.849 92.1488 167.632 92.3914 170.17 93.4091C170.25 93.4408 170.323 93.4879 170.384 93.5477C170.446 93.6075 170.495 93.6787 170.529 93.7575C170.563 93.8362 170.581 93.9209 170.582 94.0066C170.583 94.0924 170.567 94.1775 170.536 94.2572C170.504 94.3369 170.457 94.4095 170.397 94.471C170.337 94.5325 170.266 94.5816 170.187 94.6155C170.109 94.6494 170.024 94.6675 169.938 94.6687C169.852 94.6699 169.767 94.6542 169.688 94.6225C167.389 93.6991 164.867 93.4784 162.443 93.9881C160.018 94.4979 157.799 95.7153 156.067 97.4863C156.006 97.5487 155.932 97.5982 155.852 97.6318C155.771 97.6654 155.684 97.6825 155.597 97.682Z" fill="#2E4052"/>
<path d="M157.215 103.181C157.097 103.054 157.035 102.885 157.042 102.712C157.048 102.539 157.124 102.376 157.251 102.258C157.378 102.141 157.547 102.078 157.72 102.085C157.893 102.092 158.056 102.167 158.174 102.294C159.355 103.566 160.366 102.183 162.029 101.453C162.633 101.227 163.28 101.138 163.923 101.191C164.565 101.244 165.188 101.438 165.748 101.759C165.878 101.854 165.969 101.994 166.002 102.152C166.035 102.31 166.009 102.475 165.928 102.615C165.847 102.754 165.717 102.859 165.563 102.908C165.409 102.957 165.242 102.948 165.095 102.881C164.713 102.667 164.291 102.536 163.855 102.495C163.419 102.455 162.979 102.506 162.564 102.646C161.181 103.24 159.172 105.314 157.215 103.181Z" fill="#2E4052"/>
<path d="M163.764 109.483C166.074 109.483 167.946 107.611 167.946 105.301C167.946 102.992 166.074 101.12 163.764 101.12C161.455 101.12 159.583 102.992 159.583 105.301C159.583 107.611 161.455 109.483 163.764 109.483Z" fill="#2E4052"/>
<path d="M175.754 114.813C175.402 114.271 174.972 112.047 178.579 103.07C178.611 102.99 178.658 102.916 178.718 102.854C178.778 102.792 178.85 102.743 178.93 102.709C179.009 102.675 179.095 102.657 179.181 102.656C179.268 102.656 179.354 102.672 179.434 102.705C179.594 102.77 179.721 102.896 179.788 103.055C179.855 103.214 179.857 103.393 179.792 103.553C178.005 108.002 176.4 113.306 176.85 114.115C177.301 114.923 180.412 115.034 182.311 114.858C182.483 114.844 182.653 114.898 182.785 115.009C182.918 115.121 183 115.28 183.015 115.452C183.03 115.623 182.976 115.793 182.866 115.925C182.756 116.057 182.599 116.14 182.428 116.156C180.569 116.293 176.785 116.339 175.754 114.813Z" fill="#2E4052"/>
<path d="M203.495 120.393C206.683 120.237 209.185 118.425 209.083 116.345C208.982 114.265 206.315 112.705 203.126 112.861C199.938 113.017 197.436 114.83 197.538 116.91C197.639 118.99 200.307 120.549 203.495 120.393Z" fill="#2EC4B6"/>
<path d="M161.154 121.41C164.342 121.254 166.844 119.442 166.742 117.362C166.641 115.282 163.973 113.722 160.785 113.878C157.597 114.034 155.095 115.847 155.197 117.927C155.298 120.007 157.965 121.566 161.154 121.41Z" fill="#2EC4B6"/>
<path d="M143.209 110.768C143.047 110.768 142.892 110.707 142.772 110.598C140.541 108.641 139.673 106.11 141.167 103.553L137.775 104.114C137.689 104.128 137.602 104.124 137.517 104.104C137.433 104.084 137.353 104.048 137.283 103.997C137.213 103.946 137.153 103.882 137.108 103.808C137.062 103.734 137.032 103.652 137.018 103.566C137.005 103.48 137.008 103.393 137.028 103.309C137.048 103.224 137.085 103.145 137.136 103.074C137.186 103.004 137.251 102.944 137.325 102.899C137.398 102.854 137.481 102.823 137.566 102.809L142.609 101.974C142.749 101.949 142.894 101.971 143.021 102.037C143.148 102.102 143.25 102.207 143.312 102.336C143.373 102.465 143.391 102.61 143.361 102.75C143.332 102.89 143.258 103.016 143.15 103.109C142.312 103.897 141.805 104.975 141.735 106.123C141.735 107.311 142.387 108.478 143.64 109.607C143.747 109.693 143.824 109.81 143.861 109.942C143.897 110.074 143.891 110.214 143.844 110.343C143.796 110.471 143.709 110.582 143.595 110.658C143.481 110.734 143.346 110.773 143.209 110.768Z" fill="#2E4052"/>
<path d="M220.649 110.553C220.507 110.552 220.37 110.505 220.257 110.419C220.145 110.333 220.063 110.213 220.025 110.077C219.987 109.941 219.994 109.796 220.045 109.664C220.097 109.532 220.189 109.42 220.31 109.346C220.732 109.126 221.1 108.816 221.39 108.439C221.679 108.061 221.883 107.625 221.986 107.161C222.286 105.458 220.968 103.762 220.955 103.742C220.871 103.637 220.822 103.508 220.814 103.373C220.806 103.238 220.84 103.104 220.912 102.989C220.983 102.875 221.089 102.785 221.214 102.733C221.338 102.681 221.476 102.669 221.608 102.698L226.859 103.807C226.943 103.825 227.023 103.86 227.094 103.908C227.164 103.957 227.225 104.019 227.272 104.091C227.318 104.163 227.35 104.244 227.366 104.329C227.381 104.413 227.38 104.5 227.361 104.584C227.325 104.752 227.224 104.899 227.08 104.994C226.936 105.088 226.76 105.121 226.592 105.086L222.775 104.284C223.891 106.717 223.382 108.994 221.001 110.461C220.895 110.525 220.772 110.556 220.649 110.553Z" fill="#2E4052"/>
<path d="M136.49 99.0715C136.49 99.0715 138.323 97.6494 139.543 98.1777C140.763 98.7062 142.472 101.857 144.957 101.12C147.443 100.383 148.663 99.0323 150.293 86.977C151.924 74.9217 163.738 64.5038 163.738 64.5038C163.738 64.5038 177.301 55.8733 183.654 64.5038C190.008 73.1343 196.088 87.3358 206.486 90.454C216.885 93.5722 215.286 98.2821 219.194 99.789C223.102 101.296 223.636 98.106 224.615 98.1582C225.342 98.2517 226.041 98.4937 226.67 98.8692C226.67 98.8692 232.711 81.6017 229.181 74.7651C225.652 67.9286 218.326 66.2847 207.087 55.1231C195.847 43.9615 173.745 45.2857 165.337 53.7531C165.337 53.7531 155.786 50.8241 146.334 60.2766C136.881 69.729 135.877 81.6865 136.49 99.0715Z" fill="#2E4052"/>
<path d="M182.063 129.575C180.173 129.556 178.336 128.943 176.814 127.823C175.292 126.702 174.161 125.131 173.582 123.332C173.553 123.24 173.544 123.142 173.557 123.046C173.57 122.949 173.604 122.857 173.657 122.776C173.71 122.695 173.781 122.626 173.864 122.576C173.947 122.525 174.04 122.494 174.137 122.484L190.21 120.86C190.307 120.851 190.404 120.863 190.495 120.896C190.586 120.929 190.668 120.981 190.736 121.05C190.804 121.119 190.856 121.202 190.888 121.293C190.92 121.384 190.932 121.481 190.921 121.577C190.691 123.768 189.659 125.797 188.024 127.273C186.389 128.75 184.266 129.569 182.063 129.575ZM175.089 123.704C175.73 125.181 176.823 126.415 178.211 127.23C179.6 128.044 181.211 128.396 182.813 128.234C184.414 128.072 185.923 127.404 187.12 126.329C188.317 125.253 189.141 123.824 189.473 122.249L175.089 123.704Z" fill="#2E4052"/>
<path d="M83.65 277.951C83.65 277.951 48.5605 273.515 42.2784 244.316C35.9963 215.117 82.1953 201.072 101.766 179.264C121.336 157.456 134.383 149.7 152.087 149.7C169.792 149.7 211.927 143.783 225.594 157.091C239.26 170.399 272.888 232.528 267.715 259.509C262.542 286.49 190.811 299.752 83.65 277.951Z" fill="#2EC4B6"/>
<path d="M197.412 143.874H165.708V159.837H197.412V143.874Z" fill="#2EC4B6"/>
<path d="M78.2356 235.496C78.1115 235.497 77.9898 235.463 77.8846 235.397C77.7795 235.331 77.6953 235.236 77.642 235.124C72.4232 224.113 63.4861 220.557 63.3948 220.518C63.3089 220.492 63.2294 220.449 63.1611 220.39C63.0928 220.332 63.0373 220.26 62.998 220.18C62.9587 220.099 62.9365 220.011 62.9327 219.922C62.929 219.832 62.9438 219.742 62.9761 219.659C63.0085 219.575 63.0579 219.499 63.121 219.435C63.1842 219.371 63.2598 219.321 63.3432 219.288C63.4265 219.255 63.5159 219.239 63.6056 219.242C63.6953 219.245 63.7834 219.266 63.8645 219.305C64.2493 219.448 73.3561 223.062 78.8227 234.563C78.87 234.663 78.8914 234.772 78.885 234.882C78.8785 234.992 78.8444 235.098 78.7859 235.191C78.7273 235.284 78.6461 235.361 78.5499 235.414C78.4537 235.468 78.3456 235.496 78.2356 235.496Z" fill="white"/>
<path d="M123.841 188.286C123.732 188.286 123.624 188.258 123.529 188.206C123.433 188.153 123.352 188.078 123.293 187.986C118.89 181.169 128.603 172.675 129.021 172.33C129.084 172.265 129.16 172.214 129.243 172.18C129.327 172.147 129.417 172.131 129.508 172.133C129.598 172.136 129.687 172.158 129.768 172.197C129.85 172.236 129.923 172.291 129.982 172.36C130.041 172.428 130.085 172.508 130.111 172.595C130.138 172.681 130.146 172.772 130.135 172.862C130.124 172.952 130.095 173.039 130.049 173.116C130.004 173.194 129.942 173.262 129.869 173.315C129.777 173.4 120.605 181.423 124.389 187.288C124.45 187.386 124.485 187.499 124.488 187.615C124.491 187.731 124.463 187.846 124.408 187.948C124.352 188.049 124.27 188.134 124.17 188.194C124.071 188.253 123.957 188.285 123.841 188.286Z" fill="white"/>
<path d="M75.15 294.207C73.069 294.207 71.3729 292.335 71.3729 290.032V185.487C71.3729 183.185 73.069 181.319 75.15 181.319H149.041C151.128 181.319 152.818 183.185 152.818 185.487V290.039C152.818 292.341 151.128 294.214 149.041 294.214L75.15 294.207Z" fill="#2E4052"/>
<path d="M161.077 182.056H86.3246C84.8475 182.056 83.65 183.254 83.65 184.731V290.795C83.65 292.272 84.8475 293.47 86.3246 293.47H161.077C162.554 293.47 163.751 292.272 163.751 290.795V184.731C163.751 183.254 162.554 182.056 161.077 182.056Z" fill="white"/>
<path d="M161.083 294.122H86.3246C85.4423 294.122 84.596 293.772 83.9721 293.148C83.3482 292.524 82.9977 291.678 82.9977 290.795V184.731C82.9994 183.849 83.3505 183.004 83.974 182.38C84.5976 181.757 85.4428 181.405 86.3246 181.404H161.083C161.964 181.405 162.809 181.757 163.432 182.381C164.054 183.004 164.404 183.849 164.404 184.731V290.795C164.405 291.232 164.319 291.664 164.153 292.068C163.986 292.472 163.742 292.838 163.433 293.147C163.125 293.456 162.759 293.702 162.355 293.869C161.952 294.036 161.52 294.122 161.083 294.122ZM86.3246 182.708C85.7883 182.708 85.2739 182.922 84.8947 183.301C84.5154 183.68 84.3024 184.194 84.3024 184.731V290.795C84.3024 291.332 84.5154 291.846 84.8947 292.225C85.2739 292.604 85.7883 292.818 86.3246 292.818H161.083C161.618 292.816 162.131 292.602 162.509 292.223C162.887 291.844 163.099 291.33 163.099 290.795V184.731C163.099 184.195 162.887 183.682 162.509 183.303C162.131 182.924 161.618 182.71 161.083 182.708H86.3246Z" fill="#2E4052"/>
<path d="M145.394 194.053H102.281C100.851 194.053 99.6912 195.212 99.6912 196.642V212.651C99.6912 214.081 100.851 215.241 102.281 215.241H145.394C146.825 215.241 147.984 214.081 147.984 212.651V196.642C147.984 195.212 146.825 194.053 145.394 194.053Z" fill="white"/>
<path d="M145.394 215.926H102.281C101.416 215.926 100.586 215.582 99.9746 214.97C99.3629 214.359 99.0193 213.529 99.0193 212.664V196.643C99.0193 195.777 99.3629 194.948 99.9746 194.336C100.586 193.724 101.416 193.381 102.281 193.381H145.394C146.259 193.381 147.089 193.724 147.701 194.336C148.312 194.948 148.656 195.777 148.656 196.643V212.664C148.656 213.529 148.312 214.359 147.701 214.97C147.089 215.582 146.259 215.926 145.394 215.926ZM102.281 194.738C101.762 194.738 101.264 194.944 100.897 195.311C100.53 195.678 100.324 196.176 100.324 196.695V212.664C100.324 213.183 100.53 213.681 100.897 214.048C101.264 214.415 101.762 214.621 102.281 214.621H145.394C145.913 214.621 146.411 214.415 146.778 214.048C147.145 213.681 147.351 213.183 147.351 212.664V196.643C147.351 196.123 147.145 195.626 146.778 195.259C146.411 194.892 145.913 194.685 145.394 194.685L102.281 194.738Z" fill="#2E4052"/>
<path d="M132.798 306.184C132.107 306.372 131.371 306.28 130.748 305.926C130.126 305.573 129.669 304.988 129.477 304.299L107.298 236.905C107.042 236.237 107.061 235.495 107.351 234.841C107.64 234.187 108.177 233.675 108.844 233.415L156.465 217.72C157.155 217.531 157.892 217.624 158.514 217.977C159.136 218.331 159.593 218.916 159.785 219.605L182.004 287.031C182.259 287.699 182.24 288.441 181.951 289.095C181.661 289.749 181.124 290.262 180.458 290.521L132.798 306.184Z" fill="#2E4052"/>
<path d="M163.555 215.902L117.001 231.245C115.598 231.707 114.836 233.219 115.298 234.622L137.292 301.362C137.755 302.765 139.267 303.527 140.67 303.065L187.224 287.723C188.627 287.26 189.389 285.748 188.927 284.345L166.933 217.606C166.47 216.203 164.958 215.44 163.555 215.902Z" fill="white"/>
<path d="M139.823 303.855C139.124 303.855 138.442 303.634 137.875 303.224C137.309 302.814 136.885 302.236 136.666 301.572L114.669 234.844C114.532 234.429 114.479 233.991 114.511 233.555C114.544 233.119 114.662 232.694 114.859 232.304C115.056 231.914 115.327 231.566 115.659 231.281C115.99 230.996 116.374 230.779 116.789 230.643L163.347 215.273C164.185 214.999 165.098 215.068 165.885 215.466C166.673 215.863 167.271 216.556 167.548 217.394L189.538 284.135C189.675 284.549 189.729 284.986 189.697 285.421C189.665 285.856 189.547 286.281 189.351 286.67C189.154 287.06 188.883 287.407 188.553 287.691C188.222 287.976 187.839 288.193 187.425 288.329C137.69 304.736 140.606 303.855 139.823 303.855ZM164.384 216.441C163.888 216.441 166.993 215.469 117.2 231.889C116.947 231.97 116.712 232.101 116.509 232.273C116.306 232.445 116.139 232.656 116.018 232.893C115.897 233.13 115.824 233.389 115.803 233.654C115.782 233.919 115.813 234.186 115.895 234.439L137.905 301.161C137.986 301.415 138.116 301.65 138.288 301.854C138.461 302.057 138.671 302.224 138.909 302.345C139.146 302.467 139.405 302.54 139.67 302.56C139.936 302.581 140.203 302.549 140.456 302.466C188.73 286.562 186.949 287.123 187.014 287.123C187.268 287.043 187.504 286.913 187.708 286.741C187.912 286.569 188.079 286.358 188.201 286.121C188.322 285.883 188.395 285.624 188.415 285.358C188.436 285.092 188.403 284.825 188.319 284.572L166.308 217.811C166.174 217.408 165.916 217.058 165.572 216.809C165.229 216.559 164.815 216.424 164.391 216.422L164.384 216.441Z" fill="#2E4052"/>
<path d="M156.016 226.954L129.802 235.593C128.443 236.041 127.705 237.505 128.153 238.863L131.034 247.605C131.481 248.964 132.945 249.702 134.304 249.254L160.518 240.615C161.876 240.168 162.615 238.704 162.167 237.345L159.286 228.603C158.838 227.245 157.374 226.506 156.016 226.954Z" fill="white"/>
<path d="M133.489 250.043C132.807 250.04 132.143 249.823 131.591 249.423C131.039 249.023 130.626 248.459 130.41 247.812L127.533 239.077C127.269 238.26 127.338 237.371 127.725 236.604C128.112 235.837 128.786 235.254 129.601 234.981L155.806 226.363C156.623 226.099 157.511 226.167 158.278 226.552C159.045 226.938 159.628 227.611 159.903 228.425L162.779 237.166C163.044 237.983 162.976 238.871 162.59 239.638C162.204 240.405 161.532 240.989 160.718 241.263C132.269 250.617 134.239 250.043 133.489 250.043ZM156.823 227.485C156.367 227.485 158.089 226.963 130.006 236.22C129.521 236.386 129.12 236.734 128.89 237.192C128.659 237.649 128.617 238.178 128.773 238.666L131.65 247.401C131.813 247.889 132.163 248.292 132.622 248.524C133.081 248.756 133.613 248.798 134.102 248.641C160.711 239.867 160.307 239.939 160.307 240.004C160.793 239.838 161.195 239.489 161.426 239.03C161.656 238.571 161.697 238.04 161.54 237.551L158.663 228.816C158.533 228.431 158.286 228.095 157.956 227.857C157.626 227.618 157.23 227.488 156.823 227.485Z" fill="#2E4052"/>
<path d="M180.582 265.263C180.582 265.263 174.632 257.434 176.087 255.386C177.542 253.338 181.997 258.857 185.69 260.324C187.814 261.153 189.856 262.18 191.789 263.39C191.789 263.39 184.124 270.768 180.582 265.263Z" fill="white"/>
<path d="M184.144 267.957C183.317 267.966 182.503 267.756 181.784 267.35C181.064 266.943 180.465 266.354 180.047 265.641C178.566 263.684 173.954 257.278 175.552 255.008C177.542 252.196 182.18 258.23 185.931 259.718C188.099 260.563 190.183 261.612 192.154 262.849C192.235 262.903 192.303 262.974 192.353 263.058C192.403 263.142 192.433 263.236 192.442 263.333C192.45 263.43 192.437 263.527 192.403 263.619C192.37 263.71 192.316 263.792 192.246 263.86C192.063 264.036 187.94 267.957 184.144 267.957ZM176.622 255.758C175.891 256.795 178.377 261.29 181.104 264.891L181.136 264.93C181.398 265.395 181.764 265.793 182.207 266.091C182.65 266.389 183.157 266.579 183.687 266.645C186.264 266.946 189.382 264.617 190.7 263.508C189.017 262.522 187.262 261.667 185.448 260.951C182.115 259.633 177.477 254.551 176.622 255.758Z" fill="#2E4052"/>
<path d="M193.955 263.801C193.955 263.801 183.517 261.629 176.929 261.994C170.34 262.36 148.278 269.959 148.082 273.58C147.886 277.2 162.629 273.58 162.629 273.58C162.629 273.58 146.503 279.738 148.082 283.176C149.661 286.614 165.271 279.738 165.271 279.738C165.271 279.738 153.177 284.624 154.39 287.162C155.604 289.699 168.898 285.172 168.898 285.172C165.369 287.638 161.807 290.528 162.414 291.963C162.584 292.374 163.066 292.615 163.719 292.733C169.159 293.92 173.119 287.423 180.543 287.416C183.048 287.416 182.604 288.153 186.303 288.395C189.369 288.59 193.994 288.897 197.699 286.549C202.546 283.476 206.18 275.648 202.918 269.718C200.407 265.054 194.946 263.984 193.955 263.801Z" fill="white"/>
<path d="M163.614 293.372C163.244 293.338 162.887 293.215 162.574 293.013C162.262 292.811 162.003 292.535 161.82 292.211C161.442 291.311 161.664 289.973 165.408 286.959C160.79 288.297 154.814 289.569 153.81 287.442C153.157 286.072 154.756 284.709 155.982 283.822C150.978 285.237 148.265 285.126 147.501 283.45C147.387 283.197 147.328 282.922 147.328 282.644C147.328 282.366 147.387 282.092 147.501 281.839C148.376 279.699 152.851 277.207 156.7 275.406C153.594 275.883 147.286 276.639 147.436 273.547C147.658 269.144 171.005 261.668 176.89 261.342C183.452 260.97 193.524 263.051 194.072 263.162C195.657 263.449 200.968 264.734 203.518 269.405C206.826 275.465 203.375 283.756 198.084 287.096C194.17 289.556 189.441 289.249 186.29 289.053C182.585 288.812 182.885 288.081 180.588 288.081C173.386 288.068 169.401 294.625 163.614 293.372ZM169.283 285.727C162.688 290.332 162.969 291.598 163.027 291.728C163.086 291.859 163.197 291.963 163.895 292.119C168.957 293.215 173.028 286.79 180.582 286.783C183.146 286.783 182.872 287.534 186.381 287.762C189.362 287.958 193.864 288.245 197.393 286.014C203.218 282.321 204.829 274.539 202.377 270.051C200.1 265.876 195.266 264.721 193.837 264.467C188.906 263.586 182.232 262.379 176.968 262.666C168.187 263.149 146.601 272.099 148.917 274.023C150.463 275.328 158.05 274.056 162.473 272.967C162.555 272.941 162.641 272.932 162.726 272.939C162.811 272.947 162.895 272.971 162.971 273.011C163.047 273.05 163.114 273.105 163.169 273.17C163.224 273.236 163.266 273.312 163.291 273.394C163.317 273.476 163.326 273.562 163.319 273.647C163.311 273.733 163.287 273.816 163.247 273.892C163.208 273.968 163.153 274.035 163.088 274.09C163.022 274.145 162.946 274.187 162.864 274.213C159.296 275.576 149.817 279.692 148.702 282.354C148.658 282.443 148.635 282.541 148.635 282.641C148.635 282.74 148.658 282.839 148.702 282.928C149.445 284.539 156.478 282.706 163.21 279.934C164.13 279.529 164.808 279.281 165.05 279.151C165.21 279.083 165.39 279.082 165.551 279.148C165.712 279.213 165.84 279.34 165.907 279.5C165.975 279.66 165.976 279.84 165.911 280.001C165.845 280.162 165.718 280.29 165.558 280.358C165.558 280.358 164.991 280.606 164.097 280.971C160.418 282.576 155.617 285.1 155.023 286.62C154.951 286.796 154.99 286.875 155.023 286.901C155.532 287.971 161.938 286.901 168.722 284.572C168.869 284.531 169.026 284.543 169.166 284.605C169.305 284.668 169.418 284.778 169.485 284.915C169.551 285.052 169.568 285.209 169.531 285.357C169.494 285.506 169.407 285.636 169.283 285.727Z" fill="#2E4052"/>
<path d="M65.2344 274.03C64.582 273.691 63.2251 272.941 63.1077 271.714C62.9903 270.488 64.008 269.34 65.6258 268.511C65.6258 268.511 60.1852 263.756 64.2558 261.205C64.2558 261.205 59.0371 257.206 63.5448 253.892C63.5448 253.892 60.1917 249.554 63.5448 246.906C66.8978 244.257 79.201 248.08 80.7471 250.761C82.2932 253.442 76.4025 254.564 76.4025 254.564C76.4025 254.564 84.0806 257.995 76.9831 260.487C76.9831 260.487 84.8438 263.612 77.4723 267.572C80.3361 268.837 80.9754 269.875 80.9689 270.618C80.9428 273.567 70.6619 276.972 65.2344 274.03Z" fill="white"/>
<path d="M64.9278 274.637C64.2363 274.265 62.6185 273.384 62.4684 271.806C62.351 270.612 63.1208 269.359 64.5625 268.413C62.4554 266.208 60.9681 263.24 63.2578 261.192C60.8637 258.857 60.1787 256.025 62.6968 253.801C61.503 251.948 60.407 248.615 63.1795 246.429C65.0909 244.916 68.9984 245.392 71.1511 245.81C74.863 246.527 83.0956 249.071 81.5038 252.522C80.9754 253.67 79.4229 254.395 78.1899 254.805C81.1842 256.71 81.693 259.007 78.5944 260.572C81.9605 262.529 82.3715 265.236 78.8879 267.539C80.7863 268.544 81.6734 269.548 81.6604 270.664C81.5821 274.356 70.5249 277.638 64.9278 274.637ZM67.224 246.697C65.7302 246.697 64.6147 246.951 63.9623 247.454C61.1442 249.672 63.9623 253.37 64.0667 253.527C64.1618 253.664 64.2005 253.833 64.1751 253.998C64.1496 254.163 64.0618 254.312 63.9297 254.414C63.4912 254.68 63.1216 255.045 62.8507 255.48C62.5798 255.915 62.4153 256.408 62.3706 256.919C62.3706 258.55 64.008 260.181 64.6473 260.677C64.7306 260.741 64.7972 260.824 64.8413 260.92C64.8855 261.015 64.9058 261.12 64.9007 261.225C64.8956 261.33 64.8651 261.433 64.8119 261.523C64.7587 261.614 64.6843 261.691 64.5951 261.746C64.2706 261.913 63.9917 262.157 63.7826 262.456C63.5734 262.755 63.4403 263.1 63.3948 263.462C63.2578 265.171 65.267 267.33 66.0498 268.028C66.1297 268.099 66.1912 268.187 66.2291 268.286C66.267 268.385 66.28 268.492 66.2672 268.598C66.2543 268.703 66.2159 268.804 66.1553 268.891C66.0947 268.978 66.0137 269.05 65.9193 269.098C64.5429 269.803 63.6753 270.827 63.7536 271.656C63.8318 272.484 64.9865 273.162 65.541 273.463C69.0115 275.348 75.1826 274.454 78.5879 272.484C79.6838 271.832 80.3427 271.147 80.3492 270.618C80.3492 270.299 80.0622 269.418 77.2375 268.172C77.127 268.122 77.0328 268.041 76.9654 267.94C76.898 267.839 76.8602 267.722 76.8561 267.6C76.8521 267.479 76.8819 267.359 76.9424 267.254C77.0029 267.148 77.0915 267.062 77.1984 267.004C79.0836 265.987 80.0556 264.962 80.0034 264.043C79.9252 262.653 77.5898 261.433 76.7417 261.101C76.618 261.054 76.5114 260.97 76.4362 260.861C76.361 260.752 76.3207 260.623 76.3207 260.491C76.3207 260.358 76.361 260.229 76.4362 260.12C76.5114 260.011 76.618 259.928 76.7417 259.881C78.3791 259.307 79.2924 258.648 79.3511 258.015C79.3902 256.971 77.2049 255.64 76.1416 255.164C76.0135 255.108 75.9068 255.013 75.8372 254.892C75.7675 254.771 75.7386 254.63 75.7547 254.491C75.7708 254.353 75.831 254.223 75.9264 254.121C76.0219 254.019 76.1477 253.95 76.2851 253.925C77.5898 253.677 79.8404 252.92 80.284 251.968C80.3459 251.829 80.3695 251.675 80.3523 251.524C80.3351 251.373 80.2777 251.228 80.1861 251.107C79.2989 249.535 72.4689 246.664 67.224 246.664V246.697Z" fill="#2E4052"/>
<path d="M65.6323 269.164C65.4648 269.164 65.3036 269.1 65.1822 268.984C65.0607 268.869 64.9883 268.711 64.98 268.544C64.9756 268.458 64.9881 268.372 65.0169 268.292C65.0457 268.211 65.0901 268.136 65.1477 268.073C65.2053 268.009 65.2748 267.957 65.3524 267.921C65.4299 267.884 65.514 267.863 65.5997 267.859L78.1964 267.272C78.2848 267.267 78.3732 267.281 78.4561 267.312C78.5391 267.343 78.6149 267.39 78.6789 267.451C78.743 267.512 78.794 267.585 78.8288 267.667C78.8636 267.748 78.8815 267.836 78.8814 267.924C78.8814 268.097 78.8127 268.263 78.6903 268.385C78.568 268.508 78.4021 268.576 78.2291 268.576C61.5682 269.359 66.5847 269.164 65.6323 269.164Z" fill="#2E4052"/>
<path d="M63.6296 261.29C63.4566 261.29 63.2907 261.221 63.1683 261.099C63.046 260.976 62.9773 260.81 62.9773 260.637C62.9773 260.464 63.046 260.299 63.1683 260.176C63.2907 260.054 63.4566 259.985 63.6296 259.985L77.0027 259.835C77.1757 259.835 77.3416 259.904 77.4639 260.026C77.5863 260.148 77.655 260.314 77.655 260.487C77.655 260.66 77.5863 260.826 77.4639 260.949C77.3416 261.071 77.1757 261.14 77.0027 261.14C58.7109 261.342 64.9734 261.29 63.6296 261.29Z" fill="#2E4052"/>
<path d="M76.3829 255.216L63.5187 254.564C63.4331 254.559 63.3492 254.538 63.2718 254.501C63.1945 254.464 63.1252 254.412 63.068 254.348C63.0107 254.284 62.9666 254.209 62.9382 254.128C62.9098 254.047 62.8976 253.962 62.9023 253.876C62.907 253.79 62.9285 253.706 62.9656 253.629C63.0028 253.552 63.0548 253.482 63.1187 253.425C63.1826 253.368 63.2572 253.324 63.3381 253.295C63.4191 253.267 63.5048 253.255 63.5905 253.259L76.4482 253.912C76.5338 253.916 76.6178 253.937 76.6953 253.974C76.7728 254.011 76.8424 254.062 76.8999 254.126C76.9574 254.189 77.0019 254.264 77.0307 254.345C77.0596 254.425 77.0722 254.511 77.0679 254.597C77.0636 254.682 77.0425 254.766 77.0058 254.844C76.969 254.921 76.9174 254.991 76.8538 255.048C76.7902 255.106 76.7159 255.15 76.6351 255.179C76.5543 255.208 76.4686 255.221 76.3829 255.216Z" fill="#2E4052"/>
<path d="M162.642 274.232C162.491 274.23 162.346 274.175 162.231 274.077C162.116 273.979 162.039 273.845 162.012 273.696C161.985 273.548 162.01 273.395 162.084 273.263C162.157 273.131 162.274 273.029 162.414 272.973L170.895 269.757C171.056 269.696 171.236 269.701 171.394 269.772C171.551 269.843 171.675 269.974 171.736 270.136C171.797 270.297 171.792 270.477 171.721 270.635C171.65 270.792 171.519 270.916 171.358 270.977C162.166 274.461 162.825 274.232 162.642 274.232Z" fill="#2E4052"/>
<path d="M163.738 281.036C163.588 281.039 163.442 280.989 163.325 280.897C163.207 280.804 163.125 280.673 163.092 280.527C163.059 280.381 163.077 280.228 163.144 280.094C163.211 279.959 163.321 279.852 163.458 279.79L172.31 275.641C172.388 275.603 172.473 275.581 172.559 275.575C172.646 275.57 172.732 275.582 172.814 275.611C172.896 275.64 172.971 275.684 173.036 275.742C173.1 275.8 173.152 275.871 173.189 275.949C173.226 276.028 173.247 276.113 173.25 276.199C173.254 276.286 173.24 276.372 173.21 276.454C173.18 276.535 173.134 276.609 173.074 276.673C173.015 276.736 172.944 276.787 172.865 276.822C163.262 281.33 163.967 281.036 163.738 281.036Z" fill="#2E4052"/>
<path d="M168.181 286.34C168.046 286.34 167.915 286.299 167.805 286.222C167.695 286.145 167.612 286.036 167.566 285.909C167.52 285.783 167.515 285.646 167.55 285.516C167.585 285.386 167.66 285.271 167.763 285.185C167.965 285.016 172.695 281.141 175.787 280.795C175.96 280.776 176.134 280.826 176.269 280.935C176.405 281.044 176.492 281.202 176.511 281.375C176.53 281.548 176.48 281.722 176.371 281.858C176.262 281.994 176.104 282.08 175.931 282.1C173.68 282.347 169.87 285.139 168.592 286.196C168.475 286.29 168.33 286.34 168.181 286.34Z" fill="#2E4052"/>
<path d="M199.389 266.593C199.243 266.592 199.101 266.543 198.987 266.452C198.872 266.361 198.792 266.234 198.758 266.092C198.724 265.95 198.739 265.801 198.8 265.668C198.861 265.535 198.965 265.427 199.095 265.36L231.425 248.719C239.227 245.576 247.943 245.576 255.745 248.719C255.824 248.751 255.897 248.798 255.959 248.858C256.02 248.917 256.069 248.989 256.103 249.067C256.137 249.146 256.155 249.231 256.156 249.317C256.158 249.402 256.142 249.487 256.11 249.567C256.078 249.647 256.031 249.719 255.972 249.781C255.912 249.842 255.841 249.892 255.762 249.925C255.683 249.959 255.598 249.977 255.513 249.979C255.427 249.98 255.342 249.964 255.262 249.932C247.787 246.991 239.475 246.991 232 249.932C197.497 267.644 199.617 266.593 199.389 266.593Z" fill="white"/>
<path d="M231.726 249.952C231.58 249.958 231.437 249.915 231.318 249.83C231.2 249.744 231.114 249.622 231.073 249.482L214.112 190.771C214.064 190.605 214.083 190.427 214.167 190.275C214.25 190.123 214.39 190.011 214.556 189.963C214.722 189.914 214.9 189.934 215.052 190.017C215.204 190.1 215.316 190.24 215.365 190.406L232.326 249.117C232.354 249.212 232.359 249.312 232.343 249.41C232.326 249.508 232.287 249.6 232.229 249.681C232.171 249.761 232.096 249.828 232.009 249.875C231.921 249.922 231.825 249.948 231.726 249.952Z" fill="white"/>
<path d="M214.458 83.6044C207.204 82.3388 201.411 77.1657 197.817 73.0495C195.481 70.3854 193.44 67.4764 191.73 64.3733C191.688 64.2973 191.661 64.2136 191.652 64.1271C191.643 64.0407 191.651 63.9533 191.675 63.8699C191.7 63.7866 191.742 63.7091 191.797 63.6419C191.852 63.5748 191.92 63.5194 191.997 63.4789C192.074 63.4385 192.158 63.4138 192.245 63.4064C192.332 63.399 192.419 63.409 192.502 63.4358C192.584 63.4626 192.661 63.5057 192.727 63.5625C192.793 63.6193 192.846 63.6887 192.885 63.7666C192.97 63.9297 201.483 80.0165 214.68 82.3193C214.765 82.3338 214.847 82.3651 214.921 82.4114C214.995 82.4576 215.058 82.5179 215.109 82.5887C215.159 82.6596 215.195 82.7397 215.214 82.8244C215.233 82.9091 215.236 82.9968 215.221 83.0825C215.207 83.1682 215.175 83.2501 215.129 83.3237C215.083 83.3973 215.023 83.461 214.952 83.5113C214.881 83.5616 214.801 83.5974 214.716 83.6167C214.631 83.6361 214.544 83.6385 214.458 83.6239V83.6044Z" fill="white"/>
<path d="M219.233 76.7156C208.182 76.7156 202.174 67.3349 202.116 67.237C202.063 67.1647 202.025 67.0823 202.006 66.9949C201.986 66.9075 201.985 66.817 202.002 66.729C202.018 66.641 202.053 66.5575 202.104 66.4835C202.154 66.4096 202.22 66.3469 202.296 66.2993C202.371 66.2517 202.456 66.2202 202.545 66.2069C202.634 66.1935 202.724 66.1986 202.81 66.2217C202.897 66.2448 202.978 66.2854 203.048 66.3412C203.118 66.3969 203.176 66.4665 203.218 66.5456C203.283 66.6434 209.428 76.1872 220.603 75.3652C220.776 75.3523 220.947 75.4086 221.079 75.5217C221.21 75.6349 221.291 75.7956 221.304 75.9687C221.317 76.1417 221.261 76.3128 221.148 76.4443C221.035 76.5758 220.874 76.657 220.701 76.6699C220.199 76.7025 219.709 76.7156 219.233 76.7156Z" fill="white"/>
<path d="M143.202 90.5649C143.043 90.5662 142.889 90.5093 142.769 90.4047C142.649 90.3002 142.571 90.1553 142.55 89.9973C140.867 77.1723 152.596 68.196 152.714 68.1112C152.781 68.0504 152.86 68.0043 152.946 67.9757C153.032 67.9471 153.123 67.9368 153.213 67.9453C153.303 67.9538 153.391 67.981 153.47 68.0252C153.549 68.0693 153.618 68.1295 153.672 68.2018C153.727 68.2741 153.766 68.3569 153.787 68.4451C153.807 68.5332 153.809 68.6248 153.793 68.7138C153.776 68.8029 153.742 68.8875 153.69 68.9623C153.639 69.0372 153.573 69.1005 153.496 69.1484C153.386 69.2332 142.263 77.7659 143.848 89.8277C143.86 89.9197 143.853 90.0132 143.826 90.1019C143.799 90.1907 143.753 90.2727 143.692 90.3424C143.631 90.4122 143.556 90.4681 143.471 90.5065C143.387 90.5448 143.295 90.5647 143.202 90.5649Z" fill="white"/>
<path d="M226.716 152.505C226.585 152.494 226.461 152.445 226.359 152.362C226.257 152.28 226.183 152.169 226.145 152.044C226.107 151.919 226.107 151.785 226.146 151.66C226.185 151.535 226.261 151.425 226.363 151.344C238.425 142.863 232.691 120.821 232.632 120.599C232.587 120.431 232.611 120.252 232.698 120.102C232.785 119.951 232.928 119.841 233.095 119.796C233.263 119.751 233.442 119.775 233.593 119.862C233.743 119.949 233.853 120.092 233.898 120.26C234.898 124.377 235.393 128.6 235.372 132.837C235.294 141.898 232.437 148.663 227.113 152.407C226.995 152.482 226.855 152.516 226.716 152.505Z" fill="white"/>
<path d="M217.609 140.906C217.463 140.907 217.322 140.859 217.207 140.77C217.092 140.681 217.009 140.556 216.973 140.415C216.937 140.274 216.95 140.125 217.008 139.992C217.066 139.859 217.168 139.749 217.296 139.68C220.903 137.723 223.082 135.322 223.773 132.556C224.275 130.284 223.895 127.906 222.71 125.902C222.616 125.758 222.584 125.582 222.619 125.413C222.655 125.245 222.755 125.097 222.899 125.002C223.043 124.908 223.218 124.874 223.387 124.908C223.556 124.942 223.704 125.042 223.8 125.185C225.19 127.473 225.641 130.21 225.059 132.824C224.276 135.961 221.882 138.643 217.935 140.795C217.838 140.861 217.726 140.899 217.609 140.906Z" fill="white"/>
<path d="M129.438 153.751C129.309 153.75 129.184 153.712 129.077 153.64C128.97 153.568 128.887 153.466 128.838 153.346C128.747 153.118 126.731 147.684 135.922 139.726C144.403 132.387 139.882 120.768 139.836 120.651C139.772 120.49 139.775 120.31 139.843 120.151C139.912 119.992 140.041 119.867 140.202 119.803C140.363 119.739 140.542 119.741 140.701 119.81C140.86 119.878 140.986 120.007 141.05 120.168C141.102 120.292 145.975 132.752 136.783 140.717C128.368 147.997 130.038 152.818 130.058 152.87C130.095 152.97 130.107 153.077 130.094 153.182C130.08 153.287 130.041 153.387 129.98 153.474C129.919 153.561 129.838 153.631 129.743 153.68C129.649 153.728 129.544 153.752 129.438 153.751Z" fill="white"/>
<path d="M69.9834 146.171C90.015 146.171 106.254 129.932 106.254 109.9C106.254 89.8688 90.015 73.6301 69.9834 73.6301C49.9519 73.6301 33.7131 89.8688 33.7131 109.9C33.7131 129.932 49.9519 146.171 69.9834 146.171Z" fill="#FFD23F"/>
<path d="M67.1914 131.062C61.8226 130.978 57.2432 129.34 56.0494 127.07C55.0056 125.113 56.0494 121.799 57.5302 120.977C58.1826 120.638 58.7501 120.827 60.5179 121.388C63.7797 122.412 73.2974 125.27 75.2087 122.471C75.5636 121.876 75.7716 121.205 75.8154 120.514C75.9198 113.436 67.6481 113.436 61.0398 110.67C55.0709 108.172 53.5966 93.0569 62.912 89.4429C68.8875 87.1401 75.2544 89.8278 80.1143 94.0093C80.3858 94.2468 80.5809 94.5595 80.6749 94.9078C80.769 95.2561 80.7578 95.6244 80.6428 95.9663C79.6642 98.941 77.9094 99.7434 74.576 97.8385C71.523 96.0968 66.4086 96.012 64.9278 98.941C64.1319 100.513 64.9278 102.444 65.0648 102.816C67.622 108.687 76.6113 106.078 81.2103 111.029C84.472 114.539 84.6155 120.534 82.8542 124.076C80.2383 129.386 72.782 131.121 67.1914 131.062Z" fill="white"/>
<path d="M71.8947 84.3133L68.8812 84.2665C68.3048 84.2575 67.8303 84.7175 67.8214 85.2939L67.0582 134.422C67.0492 134.999 67.5092 135.473 68.0856 135.482L71.099 135.529C71.6754 135.538 72.1499 135.078 72.1589 134.502L72.9221 85.3731C72.931 84.7967 72.471 84.3222 71.8947 84.3133Z" fill="white"/>
<path d="M69.9965 140.521C63.9208 140.523 57.982 138.717 52.936 135.333C47.8899 131.949 43.9649 127.141 41.6604 121.519C39.3559 115.897 38.7762 109.717 39.9951 103.765C41.214 97.8128 44.1764 92.358 48.5051 88.0947C52.8339 83.8315 58.3333 80.9526 64.3033 79.8246C70.2733 78.6966 76.444 79.3705 82.0298 81.7605C87.6157 84.1504 92.3641 88.1484 95.6707 93.2454C98.9773 98.3425 100.692 104.308 100.598 110.383C100.461 118.414 97.1788 126.07 91.4563 131.706C85.7338 137.342 78.0283 140.507 69.9965 140.521ZM69.9965 80.5905C64.2211 80.6002 58.5773 82.316 53.7737 85.5223C48.9701 88.7286 45.2209 93.2827 42.9966 98.6126C40.7724 103.943 40.1725 109.811 41.272 115.48C42.3716 121.15 45.1217 126.369 49.177 130.481C53.2323 134.593 58.4121 137.415 64.066 138.594C69.72 139.772 75.596 139.254 80.9563 137.104C86.3166 134.954 90.9223 131.268 94.1952 126.51C97.468 121.751 99.262 116.132 99.352 110.357C99.4135 106.463 98.6984 102.597 97.2485 98.9826C95.7985 95.3686 93.6428 92.0798 90.9073 89.3084C88.1718 86.5371 84.9113 84.3387 81.3164 82.8419C77.7216 81.345 73.8644 80.5797 69.9704 80.5905H69.9965Z" fill="white"/>
</g>
<defs>
<clipPath id="clip0_25_5314">
<rect width="334" height="334" fill="white"/>
</clipPath>
</defs>
</svg>
