<svg width="334" height="334" viewBox="0 0 334 334" fill="none" xmlns="http://www.w3.org/2000/svg">
<g clip-path="url(#clip0_44_1314)">
<g opacity="0.2">
<path d="M266.273 259.256C317.224 208.305 317.224 125.697 266.273 74.7456C215.321 23.7944 132.713 23.7944 81.762 74.7456C30.8108 125.697 30.8108 208.305 81.762 259.256C132.713 310.208 215.321 310.208 266.273 259.256Z" fill="#3E92CC"/>
</g>
<path d="M294.866 58.3196H174.639C172.2 58.3196 170.223 60.2969 170.223 62.7359V145.264C170.223 147.703 172.2 149.68 174.639 149.68H294.866C297.305 149.68 299.282 147.703 299.282 145.264V62.7359C299.282 60.2969 297.305 58.3196 294.866 58.3196Z" fill="white"/>
<path d="M294.859 150.333H174.645C173.301 150.333 172.011 149.799 171.059 148.848C170.107 147.898 169.572 146.609 169.57 145.264V62.7425C169.572 61.397 170.107 60.1071 171.059 59.1556C172.01 58.2042 173.3 57.669 174.645 57.6672H294.859C296.204 57.6707 297.492 58.2067 298.442 59.1579C299.392 60.1092 299.926 61.3981 299.928 62.7425V145.264C299.926 146.608 299.392 147.896 298.442 148.846C297.491 149.796 296.203 150.331 294.859 150.333ZM174.645 58.9719C173.645 58.9719 172.686 59.3692 171.979 60.0763C171.272 60.7834 170.875 61.7425 170.875 62.7425V145.264C170.877 146.263 171.275 147.22 171.982 147.926C172.689 148.632 173.647 149.028 174.645 149.028H294.859C295.857 149.026 296.814 148.629 297.519 147.924C298.225 147.218 298.622 146.262 298.623 145.264V62.7425C298.623 61.7436 298.227 60.7855 297.521 60.0786C296.816 59.3717 295.858 58.9737 294.859 58.9719H174.645Z" fill="#2E4052"/>
<path d="M202.122 76.5918H181.019C180.565 76.5918 180.197 76.9598 180.197 77.4137V92.9787C180.197 93.4326 180.565 93.8006 181.019 93.8006H202.122C202.576 93.8006 202.944 93.4326 202.944 92.9787V77.4137C202.944 76.9598 202.576 76.5918 202.122 76.5918Z" fill="white"/>
<path d="M202.122 94.4528H181.012C180.82 94.4528 180.629 94.4148 180.451 94.3411C180.273 94.2673 180.111 94.1592 179.974 94.0229C179.838 93.8866 179.73 93.7248 179.656 93.5467C179.583 93.3686 179.545 93.1778 179.545 92.985V77.4136C179.545 77.0243 179.699 76.651 179.974 76.3757C180.25 76.1004 180.623 75.9458 181.012 75.9458H202.122C202.512 75.9458 202.886 76.1002 203.162 76.3753C203.439 76.6504 203.595 77.0237 203.596 77.4136V92.985C203.595 93.3749 203.439 93.7482 203.162 94.0233C202.886 94.2984 202.512 94.4528 202.122 94.4528ZM181.012 77.2505C180.969 77.2505 180.928 77.2677 180.897 77.2983C180.866 77.3288 180.849 77.3703 180.849 77.4136V92.985C180.849 93.0283 180.866 93.0698 180.897 93.1003C180.928 93.1309 180.969 93.1481 181.012 93.1481H202.122C202.166 93.1481 202.208 93.1312 202.24 93.1008C202.271 93.0704 202.29 93.0289 202.292 92.985V77.4136C202.29 77.3697 202.271 77.3282 202.24 77.2978C202.208 77.2674 202.166 77.2505 202.122 77.2505H181.012Z" fill="#2E4052"/>
<path d="M230.799 76.5918H209.696C209.242 76.5918 208.874 76.9598 208.874 77.4137V92.9787C208.874 93.4326 209.242 93.8006 209.696 93.8006H230.799C231.253 93.8006 231.621 93.4326 231.621 92.9787V77.4137C231.621 76.9598 231.253 76.5918 230.799 76.5918Z" fill="white"/>
<path d="M230.806 94.4528H209.696C209.306 94.4528 208.932 94.2984 208.656 94.0233C208.379 93.7482 208.223 93.3749 208.222 92.985V77.4136C208.223 77.0237 208.379 76.6504 208.656 76.3753C208.932 76.1002 209.306 75.9458 209.696 75.9458H230.806C231.195 75.9458 231.568 76.1004 231.844 76.3757C232.119 76.651 232.274 77.0243 232.274 77.4136V92.985C232.274 93.1778 232.236 93.3686 232.162 93.5467C232.088 93.7248 231.98 93.8866 231.844 94.0229C231.707 94.1592 231.546 94.2673 231.367 94.3411C231.189 94.4148 230.999 94.4528 230.806 94.4528ZM209.696 77.2505C209.652 77.2505 209.61 77.2674 209.578 77.2978C209.547 77.3282 209.528 77.3697 209.526 77.4136V92.985C209.528 93.0289 209.547 93.0704 209.578 93.1008C209.61 93.1312 209.652 93.1481 209.696 93.1481H230.806C230.849 93.1481 230.89 93.1309 230.921 93.1003C230.952 93.0698 230.969 93.0283 230.969 92.985V77.4136C230.969 77.3703 230.952 77.3288 230.921 77.2983C230.89 77.2677 230.849 77.2505 230.806 77.2505H209.696Z" fill="#2E4052"/>
<path d="M259.483 76.5918H238.379C237.926 76.5918 237.557 76.9598 237.557 77.4137V92.9787C237.557 93.4326 237.926 93.8006 238.379 93.8006H259.483C259.937 93.8006 260.305 93.4326 260.305 92.9787V77.4137C260.305 76.9598 259.937 76.5918 259.483 76.5918Z" fill="white"/>
<path d="M259.483 94.4528H238.379C237.99 94.4528 237.616 94.2984 237.339 94.0233C237.063 93.7482 236.907 93.3749 236.905 92.985V77.4136C236.907 77.0237 237.063 76.6504 237.339 76.3753C237.616 76.1002 237.99 75.9458 238.379 75.9458H259.483C259.873 75.9458 260.247 76.1002 260.523 76.3753C260.799 76.6504 260.955 77.0237 260.957 77.4136V92.985C260.955 93.3749 260.799 93.7482 260.523 94.0233C260.247 94.2984 259.873 94.4528 259.483 94.4528ZM238.379 77.2505C238.357 77.2496 238.336 77.2532 238.315 77.261C238.294 77.2688 238.276 77.2807 238.26 77.2959C238.244 77.3111 238.231 77.3294 238.223 77.3496C238.214 77.3698 238.21 77.3916 238.21 77.4136V92.985C238.21 93.007 238.214 93.0287 238.223 93.049C238.231 93.0692 238.244 93.0875 238.26 93.1027C238.276 93.1179 238.294 93.1298 238.315 93.1376C238.336 93.1454 238.357 93.149 238.379 93.1481H259.483C259.527 93.1481 259.569 93.1312 259.6 93.1008C259.632 93.0704 259.651 93.0289 259.652 92.985V77.4136C259.651 77.3697 259.632 77.3282 259.6 77.2978C259.569 77.2674 259.527 77.2505 259.483 77.2505H238.379Z" fill="#2E4052"/>
<path d="M288.166 76.5918H267.063C266.609 76.5918 266.241 76.9598 266.241 77.4137V92.9787C266.241 93.4326 266.609 93.8006 267.063 93.8006H288.166C288.62 93.8006 288.988 93.4326 288.988 92.9787V77.4137C288.988 76.9598 288.62 76.5918 288.166 76.5918Z" fill="white"/>
<path d="M288.166 94.4528H267.056C266.667 94.4528 266.293 94.2984 266.016 94.0233C265.74 93.7482 265.584 93.3749 265.582 92.985V77.4136C265.584 77.0237 265.74 76.6504 266.016 76.3753C266.293 76.1002 266.667 75.9458 267.056 75.9458H288.166C288.556 75.9458 288.93 76.1002 289.207 76.3753C289.483 76.6504 289.639 77.0237 289.641 77.4136V92.985C289.639 93.3749 289.483 93.7482 289.207 94.0233C288.93 94.2984 288.556 94.4528 288.166 94.4528ZM267.056 77.2505C267.013 77.2505 266.97 77.2674 266.939 77.2978C266.907 77.3282 266.889 77.3697 266.887 77.4136V92.985C266.889 93.0289 266.907 93.0704 266.939 93.1008C266.97 93.1312 267.013 93.1481 267.056 93.1481H288.166C288.21 93.1481 288.252 93.1312 288.284 93.1008C288.316 93.0704 288.334 93.0289 288.336 92.985V77.4136C288.334 77.3697 288.316 77.3282 288.284 77.2978C288.252 77.2674 288.21 77.2505 288.166 77.2505H267.056Z" fill="#2E4052"/>
<path d="M202.122 100.011H181.019C180.565 100.011 180.197 100.379 180.197 100.833V116.398C180.197 116.852 180.565 117.22 181.019 117.22H202.122C202.576 117.22 202.944 116.852 202.944 116.398V100.833C202.944 100.379 202.576 100.011 202.122 100.011Z" fill="white"/>
<path d="M202.122 117.872H181.012C180.622 117.87 180.249 117.714 179.974 117.438C179.699 117.162 179.545 116.787 179.545 116.398V100.826C179.545 100.437 179.699 100.064 179.974 99.7883C180.25 99.513 180.623 99.3584 181.012 99.3584H202.122C202.512 99.3584 202.886 99.5128 203.162 99.7879C203.439 100.063 203.595 100.436 203.596 100.826V116.398C203.595 116.788 203.439 117.162 203.163 117.438C202.887 117.714 202.513 117.87 202.122 117.872ZM181.012 100.663C180.969 100.663 180.928 100.68 180.897 100.711C180.866 100.741 180.849 100.783 180.849 100.826V116.398C180.849 116.441 180.866 116.484 180.897 116.515C180.927 116.547 180.968 116.566 181.012 116.567H202.122C202.167 116.567 202.21 116.549 202.242 116.518C202.274 116.486 202.292 116.443 202.292 116.398V100.826C202.29 100.782 202.271 100.741 202.24 100.71C202.208 100.68 202.166 100.663 202.122 100.663H181.012Z" fill="#2E4052"/>
<path d="M230.799 100.011H209.696C209.242 100.011 208.874 100.379 208.874 100.833V116.398C208.874 116.852 209.242 117.22 209.696 117.22H230.799C231.253 117.22 231.621 116.852 231.621 116.398V100.833C231.621 100.379 231.253 100.011 230.799 100.011Z" fill="white"/>
<path d="M230.806 117.872H209.696C209.305 117.87 208.931 117.714 208.655 117.438C208.379 117.162 208.223 116.788 208.222 116.398V100.826C208.223 100.436 208.379 100.063 208.656 99.7879C208.932 99.5128 209.306 99.3584 209.696 99.3584H230.806C231.195 99.3584 231.568 99.513 231.844 99.7883C232.119 100.064 232.274 100.437 232.274 100.826V116.398C232.274 116.787 232.119 117.162 231.844 117.438C231.569 117.714 231.196 117.87 230.806 117.872ZM209.696 100.663C209.652 100.663 209.61 100.68 209.578 100.71C209.547 100.741 209.528 100.782 209.526 100.826V116.398C209.526 116.443 209.544 116.486 209.576 116.518C209.608 116.549 209.651 116.567 209.696 116.567H230.806C230.85 116.566 230.891 116.547 230.922 116.515C230.952 116.484 230.969 116.441 230.969 116.398V100.826C230.969 100.783 230.952 100.741 230.921 100.711C230.89 100.68 230.849 100.663 230.806 100.663H209.696Z" fill="#2E4052"/>
<path d="M259.483 100.011H238.379C237.926 100.011 237.557 100.379 237.557 100.833V116.398C237.557 116.852 237.926 117.22 238.379 117.22H259.483C259.937 117.22 260.305 116.852 260.305 116.398V100.833C260.305 100.379 259.937 100.011 259.483 100.011Z" fill="white"/>
<path d="M259.483 117.872H238.379C237.988 117.872 237.613 117.717 237.337 117.44C237.06 117.164 236.905 116.789 236.905 116.398V100.826C236.907 100.436 237.063 100.063 237.339 99.7879C237.616 99.5128 237.99 99.3584 238.379 99.3584H259.483C259.873 99.3584 260.247 99.5128 260.523 99.7879C260.799 100.063 260.955 100.436 260.957 100.826V116.398C260.957 116.789 260.802 117.164 260.525 117.44C260.249 117.717 259.874 117.872 259.483 117.872ZM238.379 100.663C238.357 100.662 238.336 100.666 238.315 100.674C238.294 100.681 238.276 100.693 238.26 100.708C238.244 100.724 238.231 100.742 238.223 100.762C238.214 100.782 238.21 100.804 238.21 100.826V116.398C238.21 116.443 238.228 116.486 238.26 116.518C238.291 116.549 238.334 116.567 238.379 116.567H259.483C259.528 116.567 259.571 116.549 259.603 116.518C259.635 116.486 259.652 116.443 259.652 116.398V100.826C259.651 100.782 259.632 100.741 259.6 100.71C259.569 100.68 259.527 100.663 259.483 100.663H238.379Z" fill="#2E4052"/>
<path d="M288.166 100.011H267.063C266.609 100.011 266.241 100.379 266.241 100.833V116.398C266.241 116.852 266.609 117.22 267.063 117.22H288.166C288.62 117.22 288.988 116.852 288.988 116.398V100.833C288.988 100.379 288.62 100.011 288.166 100.011Z" fill="white"/>
<path d="M288.166 117.872H267.056C266.666 117.87 266.292 117.714 266.016 117.438C265.74 117.162 265.584 116.788 265.582 116.398V100.826C265.584 100.436 265.74 100.063 266.016 99.7879C266.293 99.5128 266.667 99.3584 267.056 99.3584H288.166C288.556 99.3584 288.93 99.5128 289.207 99.7879C289.483 100.063 289.639 100.436 289.641 100.826V116.398C289.639 116.788 289.483 117.162 289.207 117.438C288.931 117.714 288.557 117.87 288.166 117.872ZM267.056 100.663C267.013 100.663 266.97 100.68 266.939 100.71C266.907 100.741 266.889 100.782 266.887 100.826V116.398C266.887 116.443 266.905 116.486 266.937 116.518C266.968 116.549 267.012 116.567 267.056 116.567H288.166C288.211 116.567 288.254 116.549 288.286 116.518C288.318 116.486 288.336 116.443 288.336 116.398V100.826C288.334 100.782 288.316 100.741 288.284 100.71C288.252 100.68 288.21 100.663 288.166 100.663H267.056Z" fill="#2E4052"/>
<path d="M202.122 123.423H181.019C180.565 123.423 180.197 123.791 180.197 124.245V139.81C180.197 140.264 180.565 140.632 181.019 140.632H202.122C202.576 140.632 202.944 140.264 202.944 139.81V124.245C202.944 123.791 202.576 123.423 202.122 123.423Z" fill="white"/>
<path d="M202.122 141.285H181.012C180.622 141.283 180.249 141.127 179.974 140.85C179.699 140.574 179.545 140.2 179.545 139.81V124.245C179.545 123.855 179.699 123.481 179.974 123.205C180.249 122.929 180.622 122.773 181.012 122.771H202.122C202.513 122.771 202.888 122.926 203.165 123.203C203.441 123.479 203.596 123.854 203.596 124.245V139.81C203.595 140.201 203.439 140.575 203.163 140.851C202.887 141.127 202.513 141.283 202.122 141.285ZM181.012 124.076C180.99 124.076 180.969 124.08 180.948 124.089C180.928 124.097 180.91 124.11 180.895 124.126C180.879 124.142 180.868 124.16 180.86 124.181C180.852 124.201 180.848 124.223 180.849 124.245V139.81C180.849 139.854 180.866 139.896 180.897 139.928C180.927 139.96 180.968 139.978 181.012 139.98H202.122C202.167 139.98 202.21 139.962 202.242 139.93C202.274 139.898 202.292 139.855 202.292 139.81V124.245C202.292 124.2 202.274 124.157 202.242 124.125C202.21 124.094 202.167 124.076 202.122 124.076H181.012Z" fill="#2E4052"/>
<path d="M230.799 123.423H209.696C209.242 123.423 208.874 123.791 208.874 124.245V139.81C208.874 140.264 209.242 140.632 209.696 140.632H230.799C231.253 140.632 231.621 140.264 231.621 139.81V124.245C231.621 123.791 231.253 123.423 230.799 123.423Z" fill="white"/>
<path d="M230.806 141.285H209.696C209.305 141.283 208.931 141.127 208.655 140.851C208.379 140.575 208.223 140.201 208.222 139.81V124.245C208.222 123.854 208.377 123.479 208.653 123.203C208.93 122.926 209.305 122.771 209.696 122.771H230.806C231.196 122.773 231.569 122.929 231.844 123.205C232.119 123.481 232.274 123.855 232.274 124.245V139.81C232.274 140.2 232.119 140.574 231.844 140.85C231.569 141.127 231.196 141.283 230.806 141.285ZM209.696 124.076C209.651 124.076 209.608 124.094 209.576 124.125C209.544 124.157 209.526 124.2 209.526 124.245V139.81C209.526 139.855 209.544 139.898 209.576 139.93C209.608 139.962 209.651 139.98 209.696 139.98H230.806C230.85 139.978 230.891 139.96 230.922 139.928C230.952 139.896 230.969 139.854 230.969 139.81V124.245C230.97 124.223 230.966 124.201 230.958 124.181C230.951 124.16 230.939 124.142 230.923 124.126C230.908 124.11 230.89 124.097 230.87 124.089C230.849 124.08 230.828 124.076 230.806 124.076H209.696Z" fill="#2E4052"/>
<path d="M259.483 123.423H238.379C237.926 123.423 237.557 123.791 237.557 124.245V139.81C237.557 140.264 237.926 140.632 238.379 140.632H259.483C259.937 140.632 260.305 140.264 260.305 139.81V124.245C260.305 123.791 259.937 123.423 259.483 123.423Z" fill="white"/>
<path d="M259.483 141.285H238.379C237.988 141.285 237.613 141.129 237.337 140.853C237.06 140.576 236.905 140.201 236.905 139.81V124.245C236.905 123.854 237.06 123.479 237.337 123.203C237.613 122.926 237.988 122.771 238.379 122.771H259.483C259.874 122.771 260.249 122.926 260.525 123.203C260.802 123.479 260.957 123.854 260.957 124.245V139.81C260.957 140.201 260.802 140.576 260.525 140.853C260.249 141.129 259.874 141.285 259.483 141.285ZM238.379 124.076C238.357 124.075 238.334 124.079 238.313 124.087C238.292 124.095 238.273 124.107 238.257 124.123C238.242 124.139 238.229 124.158 238.221 124.179C238.213 124.2 238.209 124.223 238.21 124.245V139.81C238.21 139.855 238.228 139.898 238.26 139.93C238.291 139.962 238.334 139.98 238.379 139.98H259.483C259.528 139.98 259.571 139.962 259.603 139.93C259.635 139.898 259.652 139.855 259.652 139.81V124.245C259.652 124.2 259.635 124.157 259.603 124.125C259.571 124.094 259.528 124.076 259.483 124.076H238.379Z" fill="#2E4052"/>
<path d="M288.166 123.423H267.063C266.609 123.423 266.241 123.791 266.241 124.245V139.81C266.241 140.264 266.609 140.632 267.063 140.632H288.166C288.62 140.632 288.988 140.264 288.988 139.81V124.245C288.988 123.791 288.62 123.423 288.166 123.423Z" fill="white"/>
<path d="M288.166 141.285H267.056C266.666 141.283 266.292 141.127 266.016 140.851C265.74 140.575 265.584 140.201 265.582 139.81V124.245C265.582 123.854 265.738 123.479 266.014 123.203C266.29 122.926 266.665 122.771 267.056 122.771H288.166C288.557 122.771 288.932 122.926 289.209 123.203C289.485 123.479 289.641 123.854 289.641 124.245V139.81C289.639 140.201 289.483 140.575 289.207 140.851C288.931 141.127 288.557 141.283 288.166 141.285ZM267.056 124.076C267.012 124.076 266.968 124.094 266.937 124.125C266.905 124.157 266.887 124.2 266.887 124.245V139.81C266.887 139.855 266.905 139.898 266.937 139.93C266.968 139.962 267.012 139.98 267.056 139.98H288.166C288.211 139.98 288.254 139.962 288.286 139.93C288.318 139.898 288.336 139.855 288.336 139.81V124.245C288.336 124.2 288.318 124.157 288.286 124.125C288.254 124.094 288.211 124.076 288.166 124.076H267.056Z" fill="#2E4052"/>
<path d="M190.334 69.4224C192.546 69.4224 194.34 67.6291 194.34 65.417C194.34 63.2049 192.546 61.4116 190.334 61.4116C188.122 61.4116 186.329 63.2049 186.329 65.417C186.329 67.6291 188.122 69.4224 190.334 69.4224Z" fill="white"/>
<path d="M190.334 70.0747C189.413 70.0747 188.513 69.8016 187.747 69.2898C186.981 68.778 186.384 68.0505 186.031 67.1995C185.679 66.3484 185.586 65.4118 185.766 64.5083C185.946 63.6048 186.389 62.7749 187.041 62.1235C187.692 61.4721 188.522 61.0285 189.426 60.8488C190.329 60.6691 191.266 60.7613 192.117 61.1138C192.968 61.4664 193.695 62.0634 194.207 62.8293C194.719 63.5953 194.992 64.4958 194.992 65.417C194.992 66.6523 194.501 67.837 193.628 68.7105C192.754 69.584 191.57 70.0747 190.334 70.0747ZM190.334 62.064C189.671 62.064 189.023 62.2606 188.471 62.6291C187.92 62.9975 187.49 63.5212 187.237 64.1339C186.983 64.7465 186.916 65.4207 187.046 66.0712C187.175 66.7216 187.494 67.319 187.963 67.788C188.432 68.2569 189.03 68.5763 189.68 68.7056C190.331 68.835 191.005 68.7686 191.617 68.5148C192.23 68.261 192.754 67.8313 193.122 67.2799C193.491 66.7285 193.687 66.0802 193.687 65.417C193.687 64.5277 193.334 63.6749 192.705 63.0461C192.076 62.4172 191.224 62.064 190.334 62.064Z" fill="#2E4052"/>
<path d="M220.251 69.4224C222.463 69.4224 224.256 67.6291 224.256 65.417C224.256 63.2049 222.463 61.4116 220.251 61.4116C218.039 61.4116 216.245 63.2049 216.245 65.417C216.245 67.6291 218.039 69.4224 220.251 69.4224Z" fill="white"/>
<path d="M220.251 70.0747C219.33 70.0747 218.429 69.8016 217.663 69.2898C216.897 68.778 216.3 68.0505 215.948 67.1995C215.595 66.3484 215.503 65.4118 215.683 64.5083C215.862 63.6048 216.306 62.7749 216.957 62.1235C217.609 61.4721 218.439 61.0285 219.342 60.8488C220.246 60.6691 221.182 60.7613 222.033 61.1138C222.884 61.4664 223.612 62.0634 224.124 62.8293C224.635 63.5953 224.909 64.4958 224.909 65.417C224.909 66.6523 224.418 67.837 223.544 68.7105C222.671 69.584 221.486 70.0747 220.251 70.0747ZM220.251 62.064C219.588 62.064 218.939 62.2606 218.388 62.6291C217.837 62.9975 217.407 63.5212 217.153 64.1339C216.899 64.7465 216.833 65.4207 216.962 66.0712C217.092 66.7216 217.411 67.319 217.88 67.788C218.349 68.2569 218.946 68.5763 219.597 68.7056C220.247 68.835 220.921 68.7686 221.534 68.5148C222.147 68.261 222.67 67.8313 223.039 67.2799C223.407 66.7285 223.604 66.0802 223.604 65.417C223.604 64.5277 223.251 63.6749 222.622 63.0461C221.993 62.4172 221.14 62.064 220.251 62.064Z" fill="#2E4052"/>
<path d="M248.928 69.4224C251.14 69.4224 252.933 67.6291 252.933 65.417C252.933 63.2049 251.14 61.4116 248.928 61.4116C246.716 61.4116 244.922 63.2049 244.922 65.417C244.922 67.6291 246.716 69.4224 248.928 69.4224Z" fill="white"/>
<path d="M248.928 70.0747C248.007 70.0747 247.106 69.8016 246.34 69.2898C245.574 68.778 244.977 68.0505 244.625 67.1995C244.272 66.3484 244.18 65.4118 244.36 64.5083C244.539 63.6048 244.983 62.7749 245.634 62.1235C246.286 61.4721 247.116 61.0285 248.019 60.8488C248.923 60.6691 249.859 60.7613 250.71 61.1138C251.561 61.4664 252.289 62.0634 252.801 62.8293C253.312 63.5953 253.586 64.4958 253.586 65.417C253.584 66.6518 253.093 67.8355 252.219 68.7086C251.346 69.5817 250.163 70.073 248.928 70.0747ZM248.928 62.064C248.265 62.064 247.616 62.2606 247.065 62.6291C246.514 62.9975 246.084 63.5212 245.83 64.1339C245.576 64.7465 245.51 65.4207 245.639 66.0712C245.769 66.7216 246.088 67.319 246.557 67.788C247.026 68.2569 247.623 68.5763 248.274 68.7056C248.924 68.835 249.598 68.7686 250.211 68.5148C250.824 68.261 251.347 67.8313 251.716 67.2799C252.084 66.7285 252.281 66.0802 252.281 65.417C252.279 64.5283 251.925 63.6764 251.297 63.048C250.668 62.4195 249.817 62.0657 248.928 62.064Z" fill="#2E4052"/>
<path d="M277.611 69.4224C279.824 69.4224 281.617 67.6291 281.617 65.417C281.617 63.2049 279.824 61.4116 277.611 61.4116C275.399 61.4116 273.606 63.2049 273.606 65.417C273.606 67.6291 275.399 69.4224 277.611 69.4224Z" fill="white"/>
<path d="M277.611 70.0747C276.69 70.0747 275.79 69.8016 275.024 69.2898C274.258 68.778 273.661 68.0505 273.308 67.1995C272.956 66.3484 272.863 65.4118 273.043 64.5083C273.223 63.6048 273.667 62.7749 274.318 62.1235C274.969 61.4721 275.799 61.0285 276.703 60.8488C277.606 60.6691 278.543 60.7613 279.394 61.1138C280.245 61.4664 280.972 62.0634 281.484 62.8293C281.996 63.5953 282.269 64.4958 282.269 65.417C282.269 66.6523 281.778 67.837 280.905 68.7105C280.031 69.584 278.847 70.0747 277.611 70.0747ZM277.611 62.064C276.948 62.064 276.3 62.2606 275.749 62.6291C275.197 62.9975 274.767 63.5212 274.514 64.1339C274.26 64.7465 274.193 65.4207 274.323 66.0712C274.452 66.7216 274.772 67.319 275.24 67.788C275.709 68.2569 276.307 68.5763 276.957 68.7056C277.608 68.835 278.282 68.7686 278.895 68.5148C279.507 68.261 280.031 67.8313 280.399 67.2799C280.768 66.7285 280.964 66.0802 280.964 65.417C280.963 64.5283 280.609 63.6764 279.98 63.048C279.352 62.4195 278.5 62.0657 277.611 62.064Z" fill="#2E4052"/>
<path d="M190.263 48.2083H190.106C188.921 48.2083 187.96 49.1691 187.96 50.3545V63.2709C187.96 64.4562 188.921 65.4171 190.106 65.4171H190.263C191.448 65.4171 192.409 64.4562 192.409 63.2709V50.3545C192.409 49.1691 191.448 48.2083 190.263 48.2083Z" fill="#2E4052"/>
<path d="M220.329 48.2083H220.173C218.987 48.2083 218.026 49.1691 218.026 50.3545V63.2709C218.026 64.4562 218.987 65.4171 220.173 65.4171H220.329C221.514 65.4171 222.475 64.4562 222.475 63.2709V50.3545C222.475 49.1691 221.514 48.2083 220.329 48.2083Z" fill="#2E4052"/>
<path d="M249.006 48.2083H248.85C247.664 48.2083 246.703 49.1691 246.703 50.3545V63.2709C246.703 64.4562 247.664 65.4171 248.85 65.4171H249.006C250.191 65.4171 251.152 64.4562 251.152 63.2709V50.3545C251.152 49.1691 250.191 48.2083 249.006 48.2083Z" fill="#2E4052"/>
<path d="M277.69 48.2083H277.533C276.348 48.2083 275.387 49.1691 275.387 50.3545V63.2709C275.387 64.4562 276.348 65.4171 277.533 65.4171H277.69C278.875 65.4171 279.836 64.4562 279.836 63.2709V50.3545C279.836 49.1691 278.875 48.2083 277.69 48.2083Z" fill="#2E4052"/>
<path d="M288.147 141.285C287.801 141.285 289.19 142.328 266.665 123.926C266.531 123.816 266.446 123.657 266.429 123.485C266.412 123.312 266.464 123.14 266.574 123.006C266.684 122.872 266.842 122.787 267.015 122.77C267.187 122.753 267.359 122.805 267.494 122.915L288.558 140.123C288.663 140.208 288.74 140.324 288.777 140.454C288.814 140.584 288.81 140.722 288.764 140.85C288.719 140.978 288.636 141.088 288.525 141.166C288.414 141.244 288.282 141.285 288.147 141.285Z" fill="#2E4052"/>
<path d="M267.083 141.285C266.946 141.285 266.812 141.242 266.701 141.161C266.59 141.081 266.507 140.968 266.464 140.839C266.42 140.709 266.419 140.568 266.46 140.438C266.501 140.307 266.582 140.193 266.691 140.11L288.597 123.743C288.665 123.684 288.744 123.64 288.83 123.613C288.915 123.586 289.006 123.577 289.095 123.586C289.185 123.596 289.271 123.624 289.349 123.669C289.427 123.713 289.495 123.773 289.549 123.846C289.603 123.918 289.641 124 289.661 124.088C289.681 124.175 289.683 124.266 289.667 124.355C289.65 124.443 289.616 124.527 289.565 124.601C289.515 124.676 289.449 124.739 289.373 124.787C265.993 142.257 267.415 141.285 267.083 141.285Z" fill="#2E4052"/>
<path d="M217.994 156.797C217.994 156.797 216.826 151.161 219.338 146.614C221.849 142.067 221.405 136.229 223.734 136.027C226.063 135.824 226.513 146.112 227.648 147.899C228.783 149.687 251.961 149.68 251.961 149.68C251.961 149.68 247.656 157.985 243.259 160.855C238.862 163.725 238.327 167.476 238.327 167.476C238.327 167.476 217.726 167 217.994 156.797Z" fill="white"/>
<path d="M238.36 168.129C237.812 168.129 224.759 167.744 219.514 162.257C218.812 161.552 218.26 160.712 217.891 159.789C217.521 158.865 217.341 157.877 217.361 156.882C217.224 156.151 216.317 150.796 218.79 146.321C221.399 141.63 220.668 135.661 223.702 135.407C225.763 135.25 226.455 139.119 227.198 143.235C227.537 145.094 227.883 147.012 228.249 147.567C229.292 148.486 241.158 149.054 252.013 149.054C252.126 149.054 252.236 149.082 252.334 149.137C252.431 149.192 252.513 149.271 252.572 149.367C252.63 149.462 252.663 149.572 252.667 149.684C252.671 149.796 252.646 149.907 252.594 150.006C252.411 150.352 248.158 158.487 243.67 161.422C239.599 164.077 239.025 167.567 239.025 167.6C238.996 167.753 238.912 167.891 238.79 167.987C238.668 168.084 238.516 168.134 238.36 168.129ZM223.813 136.679C222.24 136.679 222.273 142.654 219.899 146.927C217.524 151.2 218.594 156.615 218.594 156.667C218.556 157.527 218.697 158.386 219.008 159.188C219.319 159.991 219.793 160.721 220.401 161.331C224.706 165.858 235.307 166.674 237.805 166.804C238.649 164.08 240.461 161.759 242.9 160.281C246.24 158.102 249.593 152.537 250.859 150.306C248.902 150.306 244.57 150.248 240.213 150.085C228.014 149.628 227.414 148.715 227.1 148.225C226.611 147.488 226.311 145.916 225.861 143.418C225.528 141.409 224.674 136.679 223.813 136.679Z" fill="#2E4052"/>
<path d="M151.168 104.003C155.519 97.0623 155.682 85.3071 153.392 74.1389C151.102 62.9708 77.4202 50.7263 77.4202 50.7263C77.4202 50.7263 67.2958 65.4954 69.8726 78.7053C72.4493 91.9153 65.1235 88.8754 62.1553 96.0381C59.1872 103.201 70.0683 110.866 58.3978 117.22C58.3978 117.22 98.6996 144.096 153.784 117.22C153.784 117.22 146.816 110.944 151.168 104.003Z" fill="#2E4052"/>
<path d="M124.852 102.594H104.081V145.401H124.852V102.594Z" fill="white"/>
<path d="M124.852 146.053H104.081C103.908 146.053 103.743 145.984 103.62 145.862C103.498 145.74 103.429 145.574 103.429 145.401V102.594C103.429 102.421 103.498 102.255 103.62 102.133C103.743 102.01 103.908 101.942 104.081 101.942H124.852C125.025 101.942 125.191 102.01 125.313 102.133C125.436 102.255 125.504 102.421 125.504 102.594V145.401C125.504 145.574 125.436 145.74 125.313 145.862C125.191 145.984 125.025 146.053 124.852 146.053ZM104.734 144.748H124.2V103.246H104.734V144.748Z" fill="#2E4052"/>
<path d="M85.3918 250.161C77.0614 251.146 47.5232 253.762 34.9526 237.114C18.2265 214.934 43.8636 174.985 60.4723 149.093C64.4907 142.831 69.6638 135.72 78.6661 130.899C80.9819 129.66 86.977 126.731 113.279 126.15C133.059 125.713 143.111 125.589 151.063 130.104C157.717 133.887 161.37 138.506 167.678 148.304C178.488 165.095 187.17 178.566 196.949 193.798L217.172 155.349C226.369 158.139 235.901 159.675 245.51 159.916C240.98 175.678 235.15 191.037 228.079 205.834C216.513 230.062 211.118 232.965 207.902 234.022C188.593 240.31 163.745 207.321 162.499 205.632C164.482 219.875 166.461 234.118 168.435 248.36L85.3918 250.161Z" fill="#3E92CC"/>
<path d="M127.031 123.071H100.82V133.855H127.031V123.071Z" fill="#3E92CC"/>
<path d="M71.2686 216.448C62.4163 203.668 46.9688 202.657 46.7926 202.644C46.707 202.639 46.6231 202.618 46.5457 202.581C46.4684 202.544 46.3991 202.492 46.3419 202.428C46.2846 202.364 46.2405 202.289 46.2121 202.208C46.1837 202.127 46.1714 202.042 46.1762 201.956C46.1809 201.87 46.2024 201.786 46.2395 201.709C46.2767 201.632 46.3287 201.562 46.3926 201.505C46.4565 201.448 46.5311 201.404 46.612 201.375C46.693 201.347 46.7787 201.335 46.8644 201.339C47.0209 201.339 61.9661 202.305 71.3012 214.288L76.5199 153.568C76.5349 153.396 76.6174 153.237 76.7495 153.126C76.8816 153.015 77.0524 152.96 77.2245 152.975C77.3102 152.982 77.3937 153.006 77.4701 153.046C77.5465 153.086 77.6142 153.14 77.6694 153.207C77.7246 153.273 77.7661 153.349 77.7916 153.431C77.8172 153.514 77.8262 153.6 77.8181 153.686L72.4363 216.128C72.4213 216.257 72.3681 216.379 72.2833 216.478C72.1985 216.577 72.086 216.648 71.9604 216.683C71.8348 216.717 71.7018 216.713 71.5785 216.671C71.4552 216.629 71.3473 216.551 71.2686 216.448Z" fill="white"/>
<path d="M79.3837 222.084C79.3837 222.084 73.3234 217.413 68.8549 213.642C64.3863 209.872 65.28 220.296 70.9424 225.554C72.5711 227.085 74.5224 228.232 76.6527 228.909C78.7831 229.587 81.0382 229.778 83.2521 229.468C83.2521 229.468 84.9808 223.578 79.3837 222.084Z" fill="white"/>
<path d="M81.2364 230.277C77.246 230.28 73.4052 228.758 70.4988 226.024C66.2781 222.11 64.2298 214.738 66.0237 212.716C66.376 212.312 67.4067 211.549 69.2855 213.127C73.3756 216.585 78.8814 220.851 79.723 221.477C80.49 221.66 81.2122 221.996 81.8466 222.465C82.481 222.933 83.0145 223.525 83.4152 224.204C84.7786 226.631 83.9501 229.534 83.9175 229.651C83.8843 229.765 83.8205 229.868 83.7332 229.948C83.6458 230.029 83.5381 230.084 83.4217 230.108C82.7001 230.232 81.9685 230.288 81.2364 230.277ZM67.2436 213.479C65.9389 213.479 66.6891 220.701 71.386 225.065C72.8929 226.473 74.6836 227.543 76.638 228.202C78.5923 228.862 80.6651 229.095 82.7172 228.888C83.012 227.521 82.8421 226.096 82.2345 224.837C81.2038 223.017 79.2663 222.801 78.9728 222.593C68.3461 214.367 68.0395 213.492 67.2436 213.492V213.479Z" fill="#2E4052"/>
<path d="M264.343 192.252H77.4984C75.8231 192.252 74.465 193.61 74.465 195.286V294.435C74.465 296.111 75.8231 297.469 77.4984 297.469H264.343C266.018 297.469 267.376 296.111 267.376 294.435V195.286C267.376 193.61 266.018 192.252 264.343 192.252Z" fill="#2E4052"/>
<path d="M260.898 198.058H80.9363C79.9563 198.058 79.1619 198.853 79.1619 199.832V289.882C79.1619 290.862 79.9563 291.656 80.9363 291.656H260.898C261.878 291.656 262.673 290.862 262.673 289.882V199.832C262.673 198.853 261.878 198.058 260.898 198.058Z" fill="white"/>
<path d="M260.898 292.315H80.9428C80.2986 292.315 79.6807 292.06 79.2246 291.605C78.7684 291.15 78.5113 290.533 78.5096 289.889V199.865C78.5096 199.22 78.7659 198.601 79.2223 198.145C79.6786 197.688 80.2975 197.432 80.9428 197.432H260.898C261.543 197.434 262.16 197.691 262.615 198.147C263.07 198.603 263.325 199.221 263.325 199.865V289.889C263.323 290.532 263.067 291.148 262.612 291.603C262.158 292.057 261.541 292.314 260.898 292.315ZM80.9428 198.71C80.6435 198.71 80.3565 198.829 80.1448 199.041C79.9332 199.253 79.8143 199.54 79.8143 199.839V289.862C79.816 290.161 79.9357 290.446 80.1471 290.656C80.3586 290.866 80.6446 290.985 80.9428 290.985H260.898C261.195 290.983 261.48 290.864 261.69 290.654C261.9 290.444 262.019 290.16 262.02 289.862V199.839C262.02 199.541 261.902 199.255 261.692 199.043C261.482 198.832 261.197 198.712 260.898 198.71H80.9428Z" fill="#2E4052"/>
<path d="M118.1 275.354C135.069 275.354 148.826 261.598 148.826 244.629C148.826 227.66 135.069 213.904 118.1 213.904C101.131 213.904 87.3749 227.66 87.3749 244.629C87.3749 261.598 101.131 275.354 118.1 275.354Z" fill="#2E4052"/>
<path d="M115.967 262.581C111.401 262.581 107.526 261.238 106.482 259.32C105.582 257.65 106.404 254.851 107.669 254.101C108.204 253.807 108.726 253.977 110.2 254.421C112.96 255.249 121.075 257.558 122.66 255.171C122.953 254.663 123.121 254.093 123.149 253.507C123.149 247.512 116.156 247.604 110.527 245.34C105.438 243.292 104.003 230.493 111.831 227.342C116.874 225.319 122.269 227.524 126.463 231.027C126.697 231.228 126.865 231.493 126.948 231.789C127.03 232.085 127.023 232.399 126.927 232.691C126.131 235.222 124.656 235.953 121.812 234.348C119.203 232.906 114.871 232.9 113.651 235.392C112.999 236.735 113.651 238.36 113.808 238.653C116.045 243.611 123.626 241.302 127.585 245.425C130.397 248.36 130.573 253.442 129.125 256.469C127.005 261.016 120.684 262.594 115.967 262.581Z" fill="white"/>
<path d="M119.257 222.933L117.04 222.928C116.459 222.927 115.988 223.397 115.987 223.977L115.901 265.263C115.899 265.843 116.369 266.315 116.949 266.316L119.167 266.32C119.747 266.322 120.218 265.852 120.219 265.272L120.306 223.986C120.307 223.406 119.838 222.934 119.257 222.933Z" fill="white"/>
<path d="M118.074 270.664C112.925 270.652 107.895 269.114 103.621 266.244C99.3457 263.374 96.0179 259.301 94.0579 254.539C92.098 249.778 91.5938 244.543 92.6092 239.495C93.6247 234.447 96.1141 229.813 99.7627 226.18C103.411 222.547 108.055 220.078 113.107 219.084C118.159 218.09 123.393 218.616 128.146 220.596C132.899 222.577 136.958 225.922 139.81 230.209C142.662 234.496 144.178 239.532 144.168 244.681C144.139 251.582 141.377 258.191 136.486 263.061C131.596 267.93 124.976 270.664 118.074 270.664ZM118.074 219.899C113.186 219.9 108.407 221.35 104.343 224.066C100.278 226.781 97.1092 230.641 95.2367 235.156C93.3642 239.672 92.8719 244.641 93.8222 249.436C94.7724 254.231 97.1224 258.637 100.575 262.098C104.028 265.558 108.429 267.917 113.223 268.877C118.016 269.838 122.986 269.356 127.506 267.493C132.025 265.63 135.891 262.469 138.615 258.41C141.339 254.351 142.799 249.576 142.811 244.688C142.821 241.434 142.188 238.211 140.948 235.202C139.709 232.194 137.888 229.46 135.59 227.157C133.292 224.854 130.562 223.027 127.556 221.781C124.55 220.536 121.328 219.896 118.074 219.899Z" fill="white"/>
<path d="M242.985 210.459H162.277C161.171 210.459 160.274 211.356 160.274 212.462V220.721C160.274 221.827 161.171 222.723 162.277 222.723H242.985C244.091 222.723 244.988 221.827 244.988 220.721V212.462C244.988 211.356 244.091 210.459 242.985 210.459Z" fill="white"/>
<path d="M242.985 223.376H162.277C161.574 223.376 160.9 223.097 160.402 222.6C159.904 222.104 159.624 221.43 159.622 220.727V212.462C159.624 211.758 159.904 211.084 160.402 210.586C160.899 210.089 161.573 209.809 162.277 209.807H242.985C243.689 209.807 244.364 210.087 244.862 210.585C245.36 211.082 245.64 211.758 245.64 212.462V220.727C245.638 221.43 245.358 222.104 244.86 222.6C244.362 223.097 243.688 223.376 242.985 223.376ZM162.277 211.112C161.919 211.112 161.575 211.254 161.322 211.507C161.069 211.76 160.927 212.104 160.927 212.462V220.727C160.928 221.084 161.071 221.426 161.325 221.678C161.578 221.93 161.92 222.071 162.277 222.071H242.985C243.342 222.071 243.685 221.93 243.938 221.678C244.191 221.426 244.334 221.084 244.335 220.727V212.462C244.335 212.104 244.193 211.76 243.94 211.507C243.687 211.254 243.343 211.112 242.985 211.112H162.277Z" fill="#2E4052"/>
<path d="M253.625 236.064H160.274C160.101 236.064 159.935 235.995 159.813 235.873C159.691 235.75 159.622 235.584 159.622 235.411C159.622 235.238 159.691 235.072 159.813 234.95C159.935 234.828 160.101 234.759 160.274 234.759H253.625C253.798 234.759 253.964 234.828 254.086 234.95C254.208 235.072 254.277 235.238 254.277 235.411C254.277 235.584 254.208 235.75 254.086 235.873C253.964 235.995 253.798 236.064 253.625 236.064Z" fill="#2E4052"/>
<path d="M253.625 249.417H160.274C160.101 249.417 159.935 249.348 159.813 249.226C159.691 249.104 159.622 248.938 159.622 248.765C159.622 248.592 159.691 248.426 159.813 248.303C159.935 248.181 160.101 248.112 160.274 248.112H253.625C253.798 248.112 253.964 248.181 254.086 248.303C254.208 248.426 254.277 248.592 254.277 248.765C254.277 248.938 254.208 249.104 254.086 249.226C253.964 249.348 253.798 249.417 253.625 249.417Z" fill="#2E4052"/>
<path d="M253.625 279.386H206.95C206.777 279.386 206.611 279.317 206.488 279.195C206.366 279.072 206.297 278.906 206.297 278.733C206.297 278.56 206.366 278.394 206.488 278.272C206.611 278.15 206.777 278.081 206.95 278.081H253.625C253.798 278.081 253.964 278.15 254.086 278.272C254.208 278.394 254.277 278.56 254.277 278.733C254.277 278.906 254.208 279.072 254.086 279.195C253.964 279.317 253.798 279.386 253.625 279.386Z" fill="#2E4052"/>
<path d="M218.137 274.056C217.745 274.092 217.351 274.025 216.993 273.86C216.636 273.695 216.329 273.439 216.102 273.117C215.606 272.178 216.252 271.023 217.002 269.679C218.183 267.572 218.522 266.606 217.589 266.039C215.515 264.78 209.865 268.648 206.786 271.408C206.724 271.47 206.649 271.519 206.566 271.551C206.484 271.584 206.396 271.599 206.307 271.597C206.219 271.594 206.132 271.573 206.051 271.536C205.971 271.498 205.899 271.445 205.84 271.379C205.781 271.313 205.737 271.236 205.708 271.152C205.68 271.068 205.67 270.979 205.677 270.89C205.684 270.802 205.71 270.716 205.751 270.638C205.793 270.56 205.85 270.491 205.919 270.436C206.806 269.64 214.686 262.751 218.261 264.923C220.427 266.228 219.103 268.596 218.144 270.318C217.726 271.069 217.093 272.197 217.257 272.51C217.257 272.575 217.485 272.693 217.987 272.745C219.833 272.915 223.258 270.051 226.004 267.755C229.168 265.106 231.028 263.625 232.287 263.997C232.505 264.066 232.702 264.19 232.86 264.357C233.017 264.523 233.13 264.727 233.187 264.95C233.95 267.435 231.882 270.984 232.606 271.825C232.743 271.988 233.18 272.223 234.563 272.054C239.717 271.401 240.141 260.683 244.688 262.601C245.302 262.88 245.855 263.278 246.313 263.773C246.771 264.269 247.126 264.85 247.356 265.484C249.456 263.41 251.955 261.623 254.127 261.277C254.213 261.264 254.3 261.267 254.384 261.288C254.469 261.308 254.548 261.345 254.618 261.396C254.688 261.448 254.747 261.512 254.792 261.586C254.837 261.66 254.867 261.742 254.88 261.828C254.894 261.914 254.89 262.001 254.869 262.085C254.849 262.17 254.812 262.249 254.761 262.319C254.71 262.389 254.645 262.448 254.571 262.493C254.497 262.538 254.415 262.568 254.329 262.582C252.372 262.901 249.854 264.747 247.773 266.933C248.302 269.79 247.258 273.019 244.59 273.652C243.285 273.952 242.424 273.169 243.011 271.499C243.827 269.674 244.955 268.005 246.345 266.567C246.211 265.979 245.949 265.427 245.575 264.953C245.201 264.479 244.727 264.094 244.185 263.827C241.348 262.64 240.487 272.647 234.726 273.365C233.174 273.56 232.195 273.365 231.628 272.712C230.173 271.049 232.632 267.592 231.947 265.361C231.936 265.326 231.921 265.293 231.902 265.263C231.288 265.08 228.64 267.304 226.853 268.779C223.754 271.375 220.492 274.056 218.137 274.056ZM246.586 268.224C245.881 269.079 244.198 271.303 244.107 272.393L244.277 272.36C245.934 271.962 246.632 269.946 246.586 268.224Z" fill="#2E4052"/>
<path d="M67.6807 251.191C67.0283 250.852 65.6845 250.108 65.5671 248.882C65.4497 247.656 66.4608 246.521 68.0721 245.699C68.0721 245.699 62.6576 240.963 66.7087 238.418C66.7087 238.418 61.5486 234.439 66.0041 231.151C66.0041 231.151 62.6641 226.826 66.0041 224.191C69.3441 221.555 81.5952 225.359 83.1282 228.033C84.6612 230.708 78.8031 231.81 78.8031 231.81C78.8031 231.81 86.4486 235.235 79.3837 237.681C79.3837 237.681 87.2118 240.793 79.873 244.733C82.7237 245.999 83.363 247.029 83.35 247.773C83.3108 250.728 73.0625 254.12 67.6807 251.191Z" fill="white"/>
<path d="M72.8081 252.959C70.9258 253.018 69.0585 252.608 67.374 251.766C66.6826 251.394 65.0713 250.513 64.9212 248.947C64.8038 247.754 65.5736 246.508 67.0022 245.568C64.9017 243.37 63.4274 240.421 65.6975 238.393C63.323 236.077 62.6315 233.259 65.1365 231.041C63.9492 229.188 62.8598 225.868 65.6192 223.689C67.5241 222.195 71.412 222.665 73.5648 223.075C77.2636 223.793 85.4505 226.337 83.8653 229.769C83.3434 230.904 81.7974 231.628 80.6036 232.032C83.5848 233.937 84.0806 236.22 81.0015 237.773C84.3089 239.73 84.8047 242.391 81.3016 244.714C83.1869 245.712 84.0675 246.71 84.0545 247.819C84.0414 248.928 83.2129 249.867 81.6604 250.781C78.9327 252.221 75.8928 252.969 72.8081 252.959ZM67.9938 250.617C71.4512 252.49 77.5897 251.609 80.9493 249.639C82.0387 248.987 82.6911 248.334 82.6976 247.786C82.6976 247.473 82.4106 246.599 79.6055 245.36C79.493 245.311 79.3965 245.231 79.3273 245.13C79.2581 245.028 79.2188 244.909 79.214 244.787C79.2093 244.664 79.2392 244.543 79.3003 244.436C79.3615 244.33 79.4514 244.243 79.5598 244.185C81.4451 243.174 82.4106 242.157 82.3584 241.243C82.2801 239.867 79.9512 238.634 79.1488 238.314C79.0251 238.267 78.9185 238.184 78.8433 238.075C78.7681 237.966 78.7279 237.837 78.7279 237.704C78.7279 237.572 78.7681 237.443 78.8433 237.334C78.9185 237.225 79.0251 237.141 79.1488 237.094C80.7732 236.527 81.6865 235.868 81.7126 235.248C81.7517 234.204 79.5794 232.88 78.5226 232.411C78.3946 232.355 78.2879 232.259 78.2182 232.138C78.1486 232.017 78.1196 231.876 78.1357 231.738C78.1518 231.599 78.212 231.469 78.3075 231.367C78.403 231.265 78.5287 231.196 78.6661 231.171C79.9708 230.923 82.2018 230.166 82.6454 229.214C83.8196 226.663 69.5985 222.182 66.389 224.713C63.5904 226.918 66.389 230.584 66.4999 230.754C66.5533 230.823 66.5924 230.901 66.6148 230.986C66.6372 231.07 66.6425 231.158 66.6304 231.244C66.6182 231.331 66.5888 231.414 66.544 231.489C66.4992 231.563 66.4398 231.628 66.3694 231.68C65.933 231.946 65.5667 232.313 65.3011 232.75C65.0356 233.187 64.8785 233.681 64.8429 234.191C64.8429 235.816 66.4673 237.453 67.1066 237.929C67.1899 237.994 67.2565 238.077 67.3007 238.173C67.3448 238.268 67.3652 238.373 67.36 238.478C67.3549 238.583 67.3244 238.685 67.2712 238.776C67.218 238.867 67.1436 238.943 67.0544 238.999C66.7314 239.164 66.4537 239.405 66.2456 239.702C66.0375 239.999 65.9053 240.342 65.8606 240.702C65.7236 242.404 67.7263 244.551 68.5026 245.236C68.5824 245.306 68.644 245.394 68.6819 245.493C68.7198 245.593 68.7328 245.7 68.72 245.805C68.7071 245.91 68.6687 246.011 68.6081 246.098C68.5475 246.186 68.4665 246.257 68.3721 246.305C67.0022 247.003 66.1411 248.028 66.2194 248.85C66.2977 249.672 67.4458 250.343 67.9938 250.644V250.617Z" fill="#2E4052"/>
<path d="M68.072 246.351C67.9045 246.351 67.7434 246.287 67.6219 246.172C67.5005 246.056 67.4281 245.899 67.4197 245.731C67.4153 245.643 67.4289 245.555 67.4597 245.472C67.4905 245.389 67.5378 245.313 67.5988 245.249C67.6599 245.185 67.7333 245.134 67.8146 245.099C67.896 245.064 67.9836 245.046 68.072 245.046L80.6101 244.459C80.7776 244.459 80.9388 244.523 81.0602 244.639C81.1817 244.754 81.2541 244.912 81.2624 245.079C81.2669 245.167 81.2533 245.256 81.2225 245.339C81.1917 245.422 81.1443 245.497 81.0833 245.561C81.0223 245.626 80.9489 245.677 80.8675 245.711C80.7862 245.746 80.6986 245.764 80.6101 245.764C64.021 246.54 69.0179 246.351 68.072 246.351Z" fill="#2E4052"/>
<path d="M66.0824 238.51C65.9094 238.51 65.7435 238.441 65.6211 238.319C65.4988 238.196 65.4301 238.031 65.4301 237.858C65.4301 237.685 65.4988 237.519 65.6211 237.396C65.7435 237.274 65.9094 237.205 66.0824 237.205L79.3902 237.055C79.5632 237.055 79.7291 237.124 79.8515 237.246C79.9738 237.369 80.0425 237.535 80.0425 237.708C80.0425 237.881 79.9738 238.046 79.8515 238.169C79.7291 238.291 79.5632 238.36 79.3902 238.36C61.1702 238.569 67.4262 238.51 66.0824 238.51Z" fill="#2E4052"/>
<path d="M78.7705 232.463L65.9715 231.81C65.8858 231.806 65.8018 231.785 65.7242 231.748C65.6467 231.712 65.5771 231.66 65.5196 231.596C65.462 231.533 65.4175 231.458 65.3888 231.378C65.36 231.297 65.3474 231.211 65.3518 231.125C65.3618 230.959 65.4349 230.803 65.5562 230.689C65.6775 230.575 65.8377 230.512 66.0042 230.512L78.8097 231.165C78.8953 231.169 78.9792 231.191 79.0566 231.228C79.1339 231.265 79.2032 231.317 79.2604 231.381C79.3177 231.445 79.3618 231.519 79.3902 231.6C79.4186 231.681 79.4308 231.767 79.4261 231.853C79.4214 231.938 79.3999 232.022 79.3627 232.1C79.3256 232.177 79.2736 232.246 79.2097 232.304C79.1458 232.361 79.0712 232.405 78.9903 232.433C78.9093 232.462 78.8236 232.474 78.7379 232.469L78.7705 232.463Z" fill="#2E4052"/>
<path d="M149.113 77.6289C147.43 59.448 132.569 45.24 114.467 45.24C96.3642 45.24 81.4973 59.448 79.8208 77.6289C78.746 77.5924 77.6754 77.7792 76.6766 78.1775C75.6777 78.5758 74.7723 79.177 74.0176 79.943C73.2629 80.709 72.6753 81.6233 72.2919 82.6279C71.9085 83.6326 71.7377 84.7059 71.7902 85.78C71.8427 86.854 72.1174 87.9055 72.5969 88.868C73.0765 89.8305 73.7505 90.6831 74.5763 91.3719C75.4021 92.0606 76.3618 92.5706 77.3948 92.8696C78.4277 93.1686 79.5114 93.2501 80.5775 93.109C82.9064 104.427 90.4996 119.646 114.499 119.809C137.207 119.959 145.218 105.112 147.984 93.0633C149.054 93.2492 150.151 93.2089 151.205 92.9451C152.258 92.6812 153.245 92.1996 154.101 91.5313C154.957 90.863 155.663 90.0228 156.175 89.0648C156.686 88.1068 156.991 87.0523 157.071 85.9692C157.15 84.8861 157.001 83.7984 156.634 82.7762C156.268 81.754 155.691 80.82 154.941 80.0343C154.192 79.2486 153.286 78.6286 152.282 78.2143C151.278 77.8 150.198 77.6006 149.113 77.6289Z" fill="white"/>
<path d="M114.812 120.442C95.6466 120.442 83.8131 111.003 80.0556 93.8005C78.915 93.9194 77.7621 93.8045 76.6674 93.4628C75.5727 93.1211 74.5592 92.5598 73.6888 91.8131C72.8184 91.0665 72.1094 90.1501 71.6051 89.1202C71.1009 88.0902 70.8119 86.9682 70.756 85.8228C70.7 84.6774 70.8782 83.5326 71.2797 82.4583C71.6811 81.3841 72.2974 80.403 73.0909 79.5751C73.8844 78.7471 74.8384 78.0896 75.8945 77.6429C76.9507 77.1961 78.0869 76.9693 79.2337 76.9765C81.2298 58.4826 96.2729 44.6138 114.46 44.6138C132.648 44.6138 147.73 58.4826 149.687 76.9765C150.82 77.0192 151.933 77.2899 152.959 77.7725C153.985 78.2552 154.904 78.9398 155.659 79.7854C156.415 80.6311 156.992 81.6204 157.357 82.6943C157.721 83.7681 157.866 84.9045 157.781 86.0353C157.696 87.1662 157.384 88.2684 156.864 89.276C156.343 90.2836 155.625 91.1759 154.752 91.8995C153.879 92.6232 152.869 93.1634 151.782 93.4878C150.696 93.8121 149.555 93.9141 148.428 93.7874C145.473 106.091 137.194 120.442 114.812 120.442ZM80.5775 92.4371C80.7301 92.434 80.879 92.4846 80.9982 92.5799C81.1174 92.6753 81.1993 92.8094 81.2298 92.959C83.6696 104.812 91.4194 118.981 114.499 119.138C132.648 119.235 143.522 109.568 147.338 92.8807C147.376 92.7162 147.476 92.5727 147.617 92.4803C147.758 92.3879 147.929 92.3537 148.095 92.3849C149.084 92.5805 150.104 92.5637 151.086 92.3358C152.069 92.1078 152.992 91.6739 153.794 91.0626C154.596 90.4514 155.259 89.6768 155.74 88.7901C156.22 87.9034 156.507 86.9248 156.581 85.919C156.655 84.9132 156.514 83.9032 156.169 82.9557C155.823 82.0083 155.28 81.145 154.576 80.423C153.872 79.701 153.023 79.1367 152.084 78.7675C151.146 78.3983 150.14 78.2325 149.132 78.2812C148.969 78.2819 148.811 78.2213 148.691 78.1114C148.57 78.0015 148.495 77.8502 148.48 77.6876C146.816 59.572 132.171 45.9119 114.486 45.9119C96.8013 45.9119 82.1627 59.572 80.4927 77.6876C80.478 77.8502 80.4028 78.0015 80.282 78.1114C80.1613 78.2213 80.0037 78.2819 79.8403 78.2812C78.9049 78.2671 77.9758 78.4374 77.1061 78.7823C76.2364 79.1272 75.4432 79.6401 74.7717 80.2916C74.1002 80.9431 73.5636 81.7204 73.1926 82.5793C72.8215 83.4382 72.6233 84.3617 72.6091 85.2972C72.595 86.2327 72.7652 87.1618 73.1102 88.0315C73.4551 88.9011 73.968 89.6944 74.6195 90.3659C75.2709 91.0373 76.0483 91.5739 76.9072 91.945C77.766 92.316 78.6896 92.5143 79.6251 92.5284C79.9904 92.5088 80.571 92.4371 80.5775 92.4371Z" fill="#2E4052"/>
<path d="M89.8082 79.3576C89.6781 79.3559 89.5514 79.3153 89.4446 79.241C89.3377 79.1668 89.2555 79.0623 89.2085 78.9409C89.1616 78.8196 89.1519 78.687 89.1809 78.5601C89.2099 78.4333 89.2761 78.318 89.3711 78.2291C91.3556 76.3484 93.8113 75.0386 96.4786 74.4381C99.146 73.8375 101.926 73.9686 104.525 74.8173C104.684 74.8812 104.812 75.0055 104.881 75.163C104.949 75.3205 104.952 75.4987 104.89 75.6588C104.828 75.8194 104.704 75.9487 104.546 76.0184C104.389 76.088 104.21 76.0925 104.049 76.0307C101.681 75.2423 99.1412 75.1198 96.708 75.6766C94.2748 76.2334 92.0414 77.4481 90.2518 79.188C90.1305 79.2983 89.9721 79.3588 89.8082 79.3576Z" fill="#2E4052"/>
<path d="M94.2702 86.7618C93.3761 86.7357 92.529 86.3556 91.9152 85.705C91.7924 85.583 91.7231 85.4172 91.7224 85.2441C91.7218 85.071 91.79 84.9048 91.912 84.7819C92.034 84.6591 92.1997 84.5897 92.3728 84.5891C92.546 84.5885 92.7122 84.6567 92.8351 84.7787C93.1454 85.1075 93.5479 85.3349 93.9897 85.431C96.4882 85.8616 97.545 80.3949 105.21 84.883C105.341 84.978 105.431 85.1181 105.465 85.2761C105.498 85.4341 105.471 85.5989 105.39 85.7385C105.309 85.8781 105.179 85.9827 105.025 86.0319C104.871 86.0811 104.705 86.0716 104.558 86.0051C102 84.5112 99.9456 84.048 98.4387 84.7004C97.1079 85.2418 95.9598 86.7618 94.2702 86.7618Z" fill="#2E4052"/>
<path d="M136.659 78.203C136.488 78.2023 136.324 78.1344 136.203 78.0139C134.638 76.4703 132.652 75.4242 130.494 75.0075C128.336 74.5907 126.103 74.8219 124.076 75.6719C123.997 75.7049 123.912 75.722 123.826 75.7221C123.74 75.7223 123.655 75.7055 123.576 75.6728C123.496 75.6401 123.424 75.5921 123.363 75.5315C123.302 75.4709 123.254 75.3989 123.221 75.3197C123.188 75.2404 123.171 75.1555 123.171 75.0696C123.171 74.9838 123.188 74.8988 123.22 74.8194C123.253 74.7401 123.301 74.668 123.362 74.6072C123.422 74.5464 123.494 74.4981 123.573 74.4651C125.837 73.5152 128.332 73.2561 130.743 73.7204C133.154 74.1847 135.373 75.3517 137.123 77.0745C137.219 77.1649 137.286 77.2826 137.314 77.4119C137.343 77.5413 137.331 77.6761 137.281 77.7986C137.23 77.9211 137.144 78.0254 137.033 78.0976C136.922 78.1698 136.792 78.2066 136.659 78.203Z" fill="#2E4052"/>
<path d="M130.527 82.7238C130.167 82.6092 129.786 82.5708 129.41 82.6113C129.034 82.6517 128.67 82.77 128.342 82.9586C128.269 83.0081 128.187 83.0423 128.101 83.0592C128.014 83.0761 127.925 83.0753 127.839 83.0569C127.753 83.0385 127.672 83.0029 127.6 82.9522C127.528 82.9015 127.467 82.8367 127.421 82.7618C127.374 82.6869 127.344 82.6034 127.331 82.5163C127.317 82.4293 127.322 82.3404 127.344 82.2552C127.366 82.17 127.405 82.0901 127.459 82.0204C127.513 81.9507 127.58 81.8926 127.657 81.8497C128.162 81.5516 128.727 81.3679 129.311 81.3115C129.894 81.2552 130.483 81.3275 131.036 81.5235C131.398 81.6861 131.748 81.8713 132.087 82.078C133.287 82.7825 133.763 82.9586 134.409 82.2411C134.525 82.1122 134.687 82.0346 134.86 82.0254C135.033 82.0162 135.203 82.0762 135.332 82.1921C135.461 82.3081 135.538 82.4704 135.548 82.6435C135.557 82.8166 135.497 82.9863 135.381 83.1152C133.6 85.0853 131.773 83.2587 130.527 82.7238Z" fill="#2E4052"/>
<path d="M129.477 88.784C131.542 88.784 133.215 87.1104 133.215 85.046C133.215 82.9816 131.542 81.3081 129.477 81.3081C127.413 81.3081 125.739 82.9816 125.739 85.046C125.739 87.1104 127.413 88.784 129.477 88.784Z" fill="#2E4052"/>
<path d="M112.953 95.0203C112.868 95.0139 112.784 94.9907 112.707 94.9519C112.631 94.9132 112.562 94.8598 112.506 94.7947C112.45 94.7295 112.408 94.654 112.381 94.5724C112.354 94.4908 112.343 94.4047 112.35 94.3191C112.356 94.2334 112.38 94.1498 112.418 94.0731C112.457 93.9964 112.51 93.9281 112.576 93.8721C112.641 93.8161 112.716 93.7734 112.798 93.7466C112.879 93.7197 112.966 93.7092 113.051 93.7156C115.06 93.8722 117.468 93.6243 117.852 93.0046C118.211 92.2479 116.711 87.5705 115.08 83.6826C115.047 83.6033 115.03 83.5184 115.03 83.4325C115.03 83.3467 115.046 83.2617 115.079 83.1823C115.112 83.103 115.16 83.0309 115.22 82.9701C115.281 82.9093 115.353 82.861 115.432 82.828C115.511 82.795 115.596 82.778 115.682 82.7778C115.768 82.7777 115.853 82.7944 115.932 82.8272C116.012 82.8599 116.084 82.9079 116.145 82.9685C116.206 83.0291 116.254 83.101 116.287 83.1803C117.402 85.8484 119.901 92.2152 118.955 93.7026C118.009 95.1899 114.623 95.1508 112.953 95.0203Z" fill="#2E4052"/>
<path d="M99.4856 95.8629C99.5492 94.0049 97.2918 92.4197 94.4437 92.3223C91.5955 92.2248 89.2351 93.6519 89.1715 95.5099C89.1079 97.3679 91.3653 98.953 94.2134 99.0505C97.0616 99.148 99.422 97.7208 99.4856 95.8629Z" fill="#3E92CC"/>
<path d="M137.31 96.2235C137.374 94.3655 135.116 92.7803 132.268 92.6828C129.42 92.5854 127.06 94.0125 126.996 95.8705C126.932 97.7284 129.19 99.3136 132.038 99.4111C134.886 99.5086 137.246 98.0814 137.31 96.2235Z" fill="#3E92CC"/>
<path d="M74.3672 79.586C74.3672 79.586 75.848 76.944 77.8702 77.779C79.8925 78.614 88.1968 79.0054 91.015 66.8392C93.8331 54.673 101.589 50.2305 101.589 50.2305C101.589 50.2305 109.033 47.9082 110.416 55.1297C110.83 57.3384 111.679 59.4427 112.914 61.3204C114.871 64.2559 117.657 66.0499 124.363 68.8745C134.918 73.33 138.838 72.1363 141.174 75.9981C141.826 77.1136 143.17 79.9122 145.329 80.1536C145.97 80.1999 146.613 80.0972 147.208 79.8535C148.721 79.2011 148.897 78.0726 149.935 77.6225C150.646 77.3093 151.807 77.3093 153.783 78.6401C153.783 78.6401 152.107 22.1928 104.29 40.5889C102.653 40.0344 92.548 36.7662 84.211 42.3698C78.5943 46.1404 76.7482 51.9397 75.163 56.9105C72.8855 64.2637 72.6107 72.0913 74.3672 79.586Z" fill="#2E4052"/>
<path d="M80.1535 90.5974C80.0367 90.5955 79.9222 90.5641 79.8208 90.5061C76.6961 88.6273 76.2525 85.7896 77.9877 82.9519H74.2237C74.0507 82.9519 73.8848 82.8832 73.7624 82.7608C73.6401 82.6385 73.5714 82.4726 73.5714 82.2996C73.5714 82.1266 73.6401 81.9606 73.7624 81.8383C73.8848 81.716 74.0507 81.6472 74.2237 81.6472H79.2663C79.3936 81.6464 79.5184 81.6828 79.6253 81.752C79.7321 81.8211 79.8164 81.9201 79.8677 82.0366C79.9191 82.1531 79.9352 82.2821 79.9141 82.4076C79.893 82.5332 79.8356 82.6498 79.749 82.7432C79.749 82.7432 78.0334 84.648 78.3204 86.6181C78.477 87.6814 79.2076 88.6143 80.4927 89.384C80.6161 89.4572 80.712 89.5691 80.7654 89.7023C80.8188 89.8354 80.8268 89.9825 80.7881 90.1207C80.7495 90.2589 80.6664 90.3805 80.5517 90.4667C80.4369 90.5528 80.297 90.5988 80.1535 90.5974Z" fill="#2E4052"/>
<path d="M149.113 90.4279C148.981 90.4276 148.853 90.3875 148.745 90.3129C148.636 90.2383 148.553 90.1327 148.506 90.01C148.458 89.8872 148.449 89.7531 148.48 89.6251C148.51 89.4971 148.578 89.3813 148.676 89.2928C149.869 88.1969 150.444 87.114 150.365 86.0703C150.283 85.5496 150.097 85.0507 149.819 84.6027C149.541 84.1547 149.177 83.7665 148.747 83.4609C148.638 83.3867 148.553 83.281 148.505 83.1577C148.457 83.0343 148.447 82.8993 148.478 82.7704C148.508 82.6416 148.577 82.5251 148.675 82.4363C148.774 82.3476 148.897 82.2908 149.028 82.2736L153.699 81.6213C153.784 81.6094 153.871 81.6144 153.954 81.6362C154.037 81.658 154.116 81.6961 154.184 81.7482C154.253 81.8004 154.31 81.8656 154.353 81.9401C154.397 82.0146 154.425 82.0969 154.436 82.1823C154.458 82.3535 154.412 82.5266 154.306 82.6636C154.201 82.8005 154.046 82.8902 153.875 82.9129L150.554 83.363C152.446 85.6332 151.859 88.1317 149.55 90.2257C149.435 90.3464 149.279 90.4187 149.113 90.4279Z" fill="#2E4052"/>
<path d="M114.715 109.229C112.715 109.211 110.763 108.607 109.102 107.493C107.441 106.379 106.142 104.803 105.367 102.959C105.318 102.849 105.301 102.728 105.317 102.608C105.333 102.489 105.382 102.376 105.459 102.283C105.535 102.19 105.636 102.12 105.75 102.08C105.863 102.041 105.986 102.033 106.104 102.059C111.826 103.256 117.747 103.124 123.41 101.674C123.526 101.645 123.647 101.649 123.761 101.683C123.874 101.718 123.976 101.784 124.055 101.872C124.135 101.961 124.188 102.07 124.21 102.187C124.232 102.303 124.222 102.424 124.18 102.535C123.468 104.48 122.181 106.161 120.49 107.357C118.8 108.552 116.785 109.205 114.715 109.229ZM107.161 103.592C107.946 104.938 109.078 106.048 110.438 106.808C111.798 107.569 113.337 107.951 114.895 107.916C116.453 107.88 117.972 107.429 119.297 106.608C120.621 105.787 121.701 104.626 122.425 103.247C117.408 104.351 112.223 104.469 107.161 103.592Z" fill="#2E4052"/>
<path d="M158.383 191.522C158.222 191.523 158.067 191.465 157.947 191.359C157.827 191.253 157.749 191.107 157.73 190.948C156.928 184.424 156.915 184.796 157.078 184.529C164.423 171.964 153.96 162.819 153.51 162.44C153.249 162.212 153.51 163.171 151.213 149.791C151.185 149.621 151.225 149.446 151.326 149.306C151.426 149.165 151.578 149.07 151.748 149.041C151.919 149.013 152.093 149.053 152.234 149.153C152.375 149.254 152.47 149.406 152.498 149.576L154.54 161.612C155.995 162.969 165.454 172.512 158.317 184.992L159.035 190.791C159.046 190.883 159.037 190.976 159.01 191.065C158.982 191.153 158.936 191.235 158.874 191.304C158.812 191.373 158.736 191.428 158.652 191.466C158.567 191.503 158.475 191.522 158.383 191.522Z" fill="white"/>
<path d="M77.8181 70.8119C86.6182 68.5808 88.4969 52.9376 88.5165 52.7746C88.5362 52.6036 88.6227 52.4473 88.7571 52.3397C88.8915 52.2322 89.0629 52.1822 89.2341 52.2005C89.3194 52.2102 89.4019 52.2367 89.477 52.2783C89.552 52.32 89.6181 52.3761 89.6714 52.4434C89.7248 52.5107 89.7643 52.5878 89.7878 52.6704C89.8112 52.7529 89.8181 52.8393 89.8082 52.9246C89.4246 55.8501 88.7134 58.7232 87.688 61.4899C85.4766 67.361 82.1757 71.0532 78.1377 72.0774C78.0546 72.0984 77.9682 72.1028 77.8834 72.0904C77.7986 72.078 77.7171 72.049 77.6435 72.0051C77.5699 71.9612 77.5056 71.9032 77.4545 71.8344C77.4033 71.7657 77.3661 71.6876 77.3451 71.6045C77.3241 71.5214 77.3197 71.4349 77.3321 71.3501C77.3445 71.2653 77.3735 71.1838 77.4174 71.1102C77.4614 71.0366 77.5194 70.9724 77.5881 70.9212C77.6568 70.87 77.735 70.8329 77.8181 70.8119Z" fill="white"/>
<path d="M125.687 61.9727C123.16 59.5601 120.906 56.8758 118.968 53.9685C118.875 53.8223 118.845 53.6453 118.883 53.4765C118.921 53.3076 119.024 53.1608 119.17 53.0682C119.316 52.9757 119.493 52.945 119.662 52.9829C119.831 53.0208 119.978 53.1243 120.07 53.2705C120.168 53.427 130.071 68.8223 142.191 68.3983C142.364 68.3923 142.533 68.4552 142.659 68.5732C142.786 68.6913 142.86 68.8548 142.867 69.0278C142.873 69.2008 142.81 69.3692 142.692 69.4958C142.574 69.6224 142.41 69.6969 142.237 69.703C136.001 69.9378 130.182 66.2912 125.687 61.9727Z" fill="white"/>
<path d="M132.752 57.615C130.466 56.094 128.366 54.3096 126.496 52.2984C126.434 52.2356 126.385 52.1607 126.352 52.0783C126.32 51.9959 126.304 51.9078 126.307 51.8193C126.31 51.7307 126.331 51.6437 126.368 51.5635C126.405 51.4832 126.459 51.4114 126.525 51.3524C126.591 51.2935 126.668 51.2486 126.752 51.2205C126.836 51.1924 126.925 51.1817 127.013 51.189C127.101 51.1963 127.187 51.2216 127.265 51.2631C127.344 51.3047 127.413 51.3618 127.468 51.4308C127.566 51.5417 137.077 62.0966 146.673 59.983C146.759 59.9646 146.847 59.9633 146.933 59.979C147.019 59.9948 147.102 60.0274 147.175 60.0749C147.249 60.1225 147.312 60.1841 147.362 60.2562C147.412 60.3283 147.447 60.4095 147.466 60.4951C147.484 60.5808 147.485 60.6693 147.47 60.7555C147.454 60.8417 147.421 60.9239 147.374 60.9975C147.326 61.0711 147.265 61.1346 147.192 61.1844C147.12 61.2342 147.039 61.2693 146.953 61.2877C142.015 62.3445 136.94 60.4136 132.752 57.615Z" fill="white"/>
<path d="M67.074 116.769C66.9243 116.768 66.7797 116.714 66.6646 116.619C66.5495 116.523 66.4708 116.391 66.4417 116.244C66.4127 116.097 66.435 115.945 66.505 115.812C66.575 115.68 66.6884 115.576 66.8261 115.517C70.5053 114.01 69.5986 110.037 67.6742 103.677C67.2739 102.406 67.1991 101.055 67.4567 99.7476C67.7143 98.4403 68.296 97.2186 69.1485 96.1945C69.9496 95.1563 70.9121 94.2533 71.9992 93.5199C72.0716 93.4741 72.1523 93.4429 72.2367 93.4283C72.3211 93.4137 72.4076 93.4158 72.4912 93.4346C72.5748 93.4533 72.6539 93.4884 72.7239 93.5378C72.794 93.5871 72.8536 93.6498 72.8994 93.7222C72.9453 93.7945 72.9764 93.8752 72.991 93.9597C73.0057 94.0441 73.0036 94.1306 72.9848 94.2142C72.966 94.2978 72.931 94.3768 72.8816 94.4469C72.8323 94.5169 72.7696 94.5766 72.6972 94.6224C72.4754 94.7594 67.3545 98.0668 68.894 103.155C70.5379 108.556 72.4689 114.597 67.3284 116.704C67.2489 116.743 67.1623 116.765 67.074 116.769Z" fill="white"/>
<path d="M73.5257 117.715C73.3982 117.715 73.2736 117.677 73.1674 117.607C73.0612 117.536 72.978 117.436 72.928 117.319C72.878 117.202 72.8635 117.072 72.8863 116.947C72.909 116.821 72.968 116.705 73.056 116.613C77.6224 111.805 73.7083 104.701 73.6561 104.629C73.6133 104.555 73.5856 104.473 73.5745 104.387C73.5635 104.302 73.5693 104.216 73.5917 104.133C73.6141 104.05 73.6527 103.972 73.7051 103.904C73.7576 103.836 73.823 103.779 73.8975 103.736C73.972 103.693 74.0543 103.665 74.1395 103.654C74.2248 103.643 74.3113 103.649 74.3943 103.671C74.4773 103.694 74.5551 103.732 74.6232 103.785C74.6913 103.837 74.7484 103.903 74.7912 103.977C75.554 105.431 76.0887 106.993 76.3764 108.609C77.0287 112.138 76.1742 115.217 74.0019 117.507C73.941 117.572 73.8674 117.625 73.7855 117.661C73.7035 117.696 73.6151 117.715 73.5257 117.715Z" fill="white"/>
<path d="M146.223 115.81C146.124 115.812 146.027 115.791 145.937 115.749C145.848 115.707 145.77 115.646 145.707 115.569C141.637 110.448 146.236 101.4 146.432 101.015C146.511 100.861 146.649 100.745 146.814 100.693C146.979 100.64 147.158 100.655 147.312 100.735C147.466 100.814 147.582 100.952 147.635 101.117C147.688 101.282 147.672 101.462 147.593 101.615C147.547 101.7 143.183 110.298 146.732 114.754C146.807 114.85 146.855 114.965 146.868 115.087C146.882 115.208 146.861 115.331 146.808 115.441C146.755 115.551 146.672 115.644 146.568 115.71C146.465 115.775 146.345 115.81 146.223 115.81Z" fill="white"/>
</g>
<defs>
<clipPath id="clip0_44_1314">
<rect width="334" height="334" fill="white"/>
</clipPath>
</defs>
</svg>
