<svg width="334" height="335" viewBox="0 0 334 335" fill="none" xmlns="http://www.w3.org/2000/svg">
<g clip-path="url(#clip0_137_12572)">
<path d="M108.224 316.725C108.051 316.725 107.885 316.656 107.763 316.534C107.64 316.412 107.572 316.246 107.572 316.073V304.983C107.571 304.813 107.636 304.649 107.754 304.526L114.591 297.455C114.713 297.333 114.878 297.265 115.051 297.265C115.223 297.265 115.388 297.333 115.511 297.455C115.572 297.515 115.62 297.588 115.653 297.667C115.686 297.747 115.704 297.832 115.704 297.918C115.704 298.004 115.686 298.089 115.653 298.169C115.62 298.248 115.572 298.321 115.511 298.381L108.857 305.263V316.112C108.847 316.275 108.777 316.428 108.659 316.541C108.542 316.655 108.387 316.72 108.224 316.725Z" fill="white"/>
<g opacity="0.2">
<path d="M259.254 259.281C310.206 208.33 310.206 125.721 259.254 74.7701C208.303 23.8188 125.695 23.8188 74.7437 74.7701C23.7925 125.721 23.7925 208.33 74.7437 259.281C125.695 310.232 208.303 310.232 259.254 259.281Z" fill="#3E92CC"/>
</g>
<path d="M281.454 76.0366H173.752C172.112 76.0366 170.784 77.3655 170.784 79.0048V149.882C170.784 151.521 172.112 152.85 173.752 152.85H281.454C283.093 152.85 284.422 151.521 284.422 149.882V79.0048C284.422 77.3655 283.093 76.0366 281.454 76.0366Z" fill="white"/>
<path d="M281.46 153.496H173.752C172.792 153.494 171.872 153.112 171.194 152.434C170.515 151.755 170.133 150.835 170.131 149.875V79.0048C170.133 78.0451 170.515 77.1252 171.194 76.4466C171.872 75.768 172.792 75.386 173.752 75.3843H281.46C282.42 75.386 283.34 75.768 284.018 76.4466C284.697 77.1252 285.079 78.0451 285.081 79.0048V149.875C285.079 150.835 284.697 151.755 284.018 152.434C283.34 153.112 282.42 153.494 281.46 153.496ZM173.752 76.689C173.138 76.689 172.549 76.933 172.114 77.3673C171.68 77.8016 171.436 78.3906 171.436 79.0048V149.875C171.436 150.49 171.68 151.079 172.114 151.513C172.549 151.947 173.138 152.191 173.752 152.191H281.46C282.074 152.191 282.663 151.947 283.098 151.513C283.532 151.079 283.776 150.49 283.776 149.875V79.0048C283.776 78.3906 283.532 77.8016 283.098 77.3673C282.663 76.933 282.074 76.689 281.46 76.689H173.752Z" fill="#2E4052"/>
<path d="M177.529 84.0017C178.912 84.0017 180.034 82.8802 180.034 81.4967C180.034 80.1132 178.912 78.9917 177.529 78.9917C176.145 78.9917 175.024 80.1132 175.024 81.4967C175.024 82.8802 176.145 84.0017 177.529 84.0017Z" fill="#2E4052"/>
<path d="M187.862 84.0017C189.245 84.0017 190.367 82.8802 190.367 81.4967C190.367 80.1132 189.245 78.9917 187.862 78.9917C186.478 78.9917 185.357 80.1132 185.357 81.4967C185.357 82.8802 186.478 84.0017 187.862 84.0017Z" fill="#2E4052"/>
<path d="M198.195 84.0017C199.579 84.0017 200.7 82.8802 200.7 81.4967C200.7 80.1132 199.579 78.9917 198.195 78.9917C196.812 78.9917 195.69 80.1132 195.69 81.4967C195.69 82.8802 196.812 84.0017 198.195 84.0017Z" fill="#2E4052"/>
<path d="M218.007 246.416H293.209C294.683 246.416 295.877 245.221 295.877 243.747V194.646C295.877 193.172 294.683 191.977 293.209 191.977H218.007C216.533 191.977 215.339 193.172 215.339 194.646V243.747C215.339 245.221 216.533 246.416 218.007 246.416Z" fill="white"/>
<path d="M293.215 247.068H218.007C217.126 247.068 216.282 246.718 215.659 246.095C215.036 245.473 214.686 244.628 214.686 243.748V194.646C214.686 193.765 215.036 192.92 215.659 192.298C216.282 191.675 217.126 191.325 218.007 191.325H293.215C294.095 191.327 294.938 191.678 295.559 192.3C296.18 192.923 296.529 193.766 296.529 194.646V243.748C296.529 244.627 296.18 245.471 295.559 246.093C294.938 246.716 294.095 247.066 293.215 247.068ZM218.007 192.63C217.472 192.63 216.959 192.842 216.581 193.22C216.203 193.598 215.991 194.111 215.991 194.646V243.748C215.993 244.282 216.206 244.793 216.583 245.171C216.961 245.549 217.473 245.762 218.007 245.763H293.215C293.749 245.762 294.26 245.548 294.637 245.171C295.013 244.793 295.225 244.281 295.225 243.748V194.646C295.225 194.381 295.174 194.119 295.074 193.875C294.973 193.63 294.825 193.408 294.638 193.221C294.452 193.033 294.23 192.885 293.986 192.783C293.742 192.682 293.48 192.63 293.215 192.63H218.007Z" fill="#2E4052"/>
<path d="M291.102 197.621C292.082 197.621 292.876 196.826 292.876 195.846C292.876 194.866 292.082 194.072 291.102 194.072C290.122 194.072 289.328 194.866 289.328 195.846C289.328 196.826 290.122 197.621 291.102 197.621Z" fill="#2E4052"/>
<path d="M283.776 197.621C284.756 197.621 285.55 196.826 285.55 195.846C285.55 194.866 284.756 194.072 283.776 194.072C282.796 194.072 282.002 194.866 282.002 195.846C282.002 196.826 282.796 197.621 283.776 197.621Z" fill="#2E4052"/>
<path d="M276.457 197.621C277.437 197.621 278.231 196.826 278.231 195.846C278.231 194.866 277.437 194.072 276.457 194.072C275.477 194.072 274.682 194.866 274.682 195.846C274.682 196.826 275.477 197.621 276.457 197.621Z" fill="#2E4052"/>
<path d="M260.337 143.156C258.38 141.532 237.244 151.16 237.244 151.16C237.244 151.16 236.553 142.576 233.65 141.995C230.747 141.414 232.724 151.63 229.703 155.107C227.485 157.671 224.948 163.633 223.767 166.595L191.978 206.531C191.978 206.531 172.088 169.791 159.361 157.912C153.829 152.676 147.081 148.899 139.726 146.92C138.603 146.62 137.428 146.566 136.283 146.763C135.137 146.959 134.048 147.402 133.09 148.059C132.131 148.717 131.327 149.574 130.731 150.572C130.136 151.571 129.764 152.686 129.64 153.842C128.257 168.539 140.6 193.771 140.6 193.771C140.6 193.771 166.041 245.026 191.978 241.712C214.158 238.881 234.974 190.732 240.526 176.843C247.14 176.537 251.661 166.608 252.216 164.403C252.796 162.081 250.011 161.141 250.011 161.141C252.333 158.121 247.225 157.227 247.225 157.227C249.776 153.398 244.094 153.17 244.094 153.17C244.094 153.17 262.307 144.78 260.337 143.156Z" fill="white"/>
<path d="M156.041 219.369C149.974 211.412 144.613 202.941 140.019 194.052C139.51 193.008 127.625 168.493 129.014 153.783C129.147 152.533 129.549 151.326 130.192 150.247C130.835 149.167 131.704 148.239 132.74 147.527C133.775 146.815 134.953 146.335 136.191 146.121C137.43 145.907 138.7 145.964 139.915 146.287C147.372 148.297 154.213 152.128 159.824 157.436C171.566 168.382 188.932 199.642 192.083 205.35L223.199 166.262C224.504 163 226.983 157.253 229.214 154.683C232.182 151.258 229.788 140.566 233.78 141.355C236.566 141.916 237.518 147.664 237.805 150.195C244.655 147.096 258.765 141.023 260.748 142.654C260.887 142.765 260.995 142.911 261.062 143.077C261.128 143.243 261.15 143.423 261.127 143.6C260.859 145.687 251.713 150.28 246.221 152.863C248.178 153.515 249.058 154.924 248.21 156.777C250.428 157.429 251.961 158.89 250.963 160.861C252.072 161.467 253.312 162.7 252.848 164.553C252.196 167.162 247.63 176.765 240.982 177.456C234.942 192.46 214.321 239.514 192.057 242.351C177.972 244.145 164.762 230.642 156.041 219.369ZM130.312 153.907C128.942 168.258 141.069 193.223 141.187 193.471C141.441 193.98 166.713 244.282 191.893 241.053C212.436 238.444 232.28 195.689 239.919 176.589C239.965 176.472 240.044 176.372 240.146 176.299C240.247 176.226 240.368 176.184 240.493 176.178C246.547 175.897 250.989 166.588 251.583 164.233C252.007 162.531 249.893 161.787 249.802 161.761C249.703 161.727 249.614 161.671 249.542 161.596C249.47 161.522 249.416 161.431 249.386 161.331C249.356 161.231 249.351 161.126 249.37 161.024C249.389 160.922 249.432 160.825 249.495 160.743C249.675 160.568 249.806 160.351 249.878 160.111C249.95 159.872 249.96 159.618 249.906 159.373C249.561 158.473 247.728 157.951 247.108 157.84C247.001 157.821 246.902 157.775 246.817 157.707C246.733 157.64 246.667 157.552 246.625 157.452C246.583 157.353 246.566 157.244 246.576 157.136C246.587 157.029 246.624 156.925 246.684 156.836C247.206 156.053 247.336 155.44 247.134 155.003C246.677 154.096 244.714 153.815 244.068 153.789C243.921 153.784 243.78 153.73 243.667 153.634C243.555 153.539 243.479 153.409 243.45 153.264C243.421 153.12 243.442 152.97 243.509 152.839C243.576 152.708 243.686 152.604 243.82 152.543C250.924 149.281 258.752 145.074 259.744 143.613C257.715 143.28 247.088 147.39 237.518 151.754C237.423 151.797 237.319 151.817 237.214 151.811C237.11 151.806 237.008 151.775 236.918 151.722C236.828 151.669 236.752 151.595 236.696 151.506C236.64 151.417 236.607 151.317 236.599 151.212C236.325 147.853 235.189 142.967 233.526 142.634C231.863 142.301 233.141 152.145 230.199 155.537C227.994 158.075 225.391 164.285 224.374 166.836C224.315 166.98 225.724 165.179 192.487 206.936C192.42 207.02 192.333 207.086 192.234 207.128C192.135 207.17 192.027 207.187 191.919 207.177C191.812 207.168 191.709 207.132 191.619 207.072C191.529 207.013 191.455 206.932 191.404 206.838C191.208 206.472 171.423 170.059 158.937 158.395C153.488 153.235 146.845 149.508 139.602 147.546C138.568 147.269 137.488 147.218 136.433 147.398C135.379 147.578 134.376 147.984 133.493 148.589C132.611 149.193 131.869 149.981 131.32 150.899C130.771 151.817 130.427 152.843 130.312 153.907Z" fill="#2E4052"/>
<path d="M152.903 186.087C150.731 167.789 150.072 159.817 143.235 153.222C140.956 151.052 138.341 149.266 135.492 147.931C134.469 147.437 133.607 146.665 133.005 145.702C132.402 144.739 132.084 143.626 132.087 142.491V138.89C136.137 138.493 140.044 137.184 143.516 135.061C160.281 124.623 157.456 98.3663 154.155 87.6548C151.683 79.644 147.632 76.1344 146.543 75.2146C142.708 72.0685 137.938 70.2835 132.98 70.1393C109.163 61.2544 83.8654 80.5768 86.6639 106.194C87.5603 114.627 91.5454 122.43 97.8516 128.1C102.043 131.551 106.814 134.23 111.942 136.013V138.159C111.94 139.894 111.374 141.581 110.331 142.967C109.288 144.353 107.822 145.362 106.156 145.844C101.62 147.118 97.4062 149.342 93.794 152.367C88.4057 157.012 85.0461 163.457 81.6409 184.404C78.1556 206.067 77.0008 228.042 78.1965 249.951H161.612C157.398 222.475 154.606 200.615 152.903 186.087Z" fill="white"/>
<path d="M161.612 250.636H78.1965C78.029 250.636 77.8678 250.572 77.7464 250.457C77.625 250.341 77.5525 250.184 77.5442 250.016C76.3569 228.059 77.5159 206.037 81.0016 184.325C84.4786 162.929 87.8969 156.614 93.3961 151.897C97.0717 148.797 101.369 146.522 105.999 145.224C107.534 144.788 108.885 143.863 109.844 142.589C110.804 141.314 111.321 139.761 111.316 138.166V136.476C106.281 134.671 101.595 132.01 97.4667 128.609L97.395 128.544C91.3397 123.065 87.3804 115.65 86.1969 107.57C85.0133 99.4907 86.6792 91.2512 90.9087 84.2661C95.1381 77.2811 101.667 71.9863 109.375 69.2906C117.083 66.595 125.489 66.6667 133.15 69.4934C138.211 69.6718 143.074 71.505 146.993 74.7121C148.95 76.3104 152.544 80.0874 154.821 87.4589C157.795 97.1071 161.631 124.564 143.907 135.615C140.518 137.691 136.719 139.007 132.772 139.47V142.491C132.772 143.503 133.056 144.494 133.593 145.352C134.129 146.21 134.895 146.9 135.805 147.344C138.719 148.708 141.393 150.534 143.724 152.752C150.424 159.217 151.324 166.869 153.307 183.634C155.832 205.018 158.644 226.036 162.29 249.879C162.306 249.976 162.3 250.074 162.272 250.168C162.245 250.261 162.197 250.348 162.132 250.42C162.067 250.493 161.986 250.55 161.896 250.587C161.806 250.625 161.709 250.641 161.612 250.636ZM78.8162 249.332H160.855C155.747 215.873 152.192 186.165 152.257 186.165C150.176 168.552 149.53 160.202 142.785 153.691C140.555 151.571 137.998 149.824 135.211 148.518C134.079 147.97 133.125 147.113 132.457 146.047C131.789 144.981 131.434 143.749 131.434 142.491V138.89C131.433 138.728 131.492 138.573 131.599 138.452C131.707 138.332 131.855 138.255 132.015 138.237C146.366 136.672 154.195 126.052 155.728 111.387C156.908 100.258 154.866 82.873 146.125 75.6972C142.4 72.6532 137.775 70.9221 132.967 70.772C132.315 70.772 126.444 67.8103 117.311 68.8149C110.815 69.5169 104.661 72.0839 99.5916 76.2062C94.5223 80.3284 90.7543 85.8297 88.7424 92.046C86.7305 98.2624 86.5607 104.928 88.2535 111.239C89.9463 117.55 93.4293 123.236 98.2822 127.611C102.403 130.996 107.092 133.622 112.131 135.367C112.259 135.413 112.368 135.497 112.445 135.608C112.523 135.719 112.563 135.852 112.562 135.987V138.133C112.558 140.008 111.95 141.833 110.827 143.335C109.705 144.838 108.129 145.94 106.332 146.476C101.883 147.722 97.7522 149.906 94.2181 152.882C88.9993 157.397 85.6919 163.535 82.2802 184.534C78.8479 205.951 77.6868 227.671 78.8162 249.332Z" fill="#2E4052"/>
<path d="M78.1964 249.978C78.1964 249.978 71.973 276.032 73.9105 297.494H169.753C167.183 281.764 164.61 266.036 162.036 250.31L78.1964 249.978Z" fill="#2E4052"/>
<path d="M107.408 144.624C107.408 144.624 119.959 152.113 133.502 145.42C138.659 145.585 143.732 146.771 148.428 148.91C156.008 152.433 165.5 161.154 175.761 176.772C186.022 192.389 188.566 199.127 188.566 199.127L161.168 225.41L158.559 222.755L164.684 266.136C134.761 269.406 104.626 270.293 74.5629 268.791C74.2237 238.683 73.8823 208.573 73.5387 178.461L93.0372 152.022L107.408 144.624Z" fill="#3E92CC"/>
<path d="M108.876 118.524C102.007 113.488 98.3147 107.434 99.8216 103.265C100.324 101.882 101.883 99.6645 104.049 99.1752C104.99 98.9681 105.971 99.0434 106.869 99.3915C107.767 99.7397 108.542 100.345 109.098 101.132C110.227 103.148 111.942 104.198 113.743 102.776C115.543 101.354 121.675 75.9583 135.922 72.2661C135.922 72.2661 146.875 73.8121 151.892 81.6337C151.892 81.6337 158.272 78.9526 159.374 72.2661C160.477 65.5795 151.213 60.3086 140.834 63.6029C140.834 63.6029 149.021 52.5131 131.656 61.5089C130.13 61.0914 108.896 55.6378 93.8592 69.4479C77.6028 84.3866 81.1581 110.285 91.2498 123.651C97.9494 132.523 109.848 138.936 113.064 136.183C115.752 133.886 112.236 125.308 108.876 118.524Z" fill="#2E4052"/>
<path d="M116.77 103.618C116.64 103.618 116.513 103.58 116.405 103.509C116.297 103.437 116.213 103.335 116.163 103.215C116.114 103.096 116.101 102.964 116.126 102.837C116.152 102.71 116.214 102.593 116.306 102.502C117.819 100.907 119.742 99.7595 121.864 99.1842C123.985 98.609 126.224 98.6283 128.336 99.2403C128.5 99.2974 128.635 99.4174 128.711 99.574C128.787 99.7306 128.797 99.9109 128.74 100.075C128.683 100.24 128.563 100.375 128.406 100.45C128.25 100.526 128.069 100.537 127.905 100.48C126.028 99.9443 124.04 99.9349 122.158 100.453C120.276 100.97 118.572 101.995 117.233 103.415C117.173 103.478 117.101 103.528 117.022 103.563C116.942 103.598 116.856 103.616 116.77 103.618Z" fill="#2E4052"/>
<path d="M125.302 111.374C126.938 111.374 128.264 110.048 128.264 108.412C128.264 106.777 126.938 105.451 125.302 105.451C123.667 105.451 122.341 106.777 122.341 108.412C122.341 110.048 123.667 111.374 125.302 111.374Z" fill="#2E4052"/>
<path d="M153.829 101.093C153.667 101.093 153.512 101.032 153.392 100.923C152.122 99.7689 150.538 99.0165 148.841 98.7611C147.144 98.5057 145.409 98.7587 143.855 99.4882C143.699 99.5579 143.522 99.5637 143.361 99.5041C143.201 99.4446 143.071 99.3246 142.998 99.1699C142.926 99.0152 142.916 98.8382 142.973 98.6769C143.029 98.5156 143.147 98.383 143.3 98.3074C145.087 97.4674 147.082 97.1758 149.034 97.4696C150.985 97.7633 152.806 98.6293 154.266 99.9579C154.364 100.046 154.432 100.162 154.462 100.29C154.493 100.418 154.483 100.552 154.436 100.675C154.389 100.798 154.306 100.903 154.197 100.978C154.089 101.053 153.961 101.093 153.829 101.093Z" fill="#2E4052"/>
<path d="M148.402 109.586C150.037 109.586 151.363 108.26 151.363 106.625C151.363 104.989 150.037 103.663 148.402 103.663C146.766 103.663 145.44 104.989 145.44 106.625C145.44 108.26 146.766 109.586 148.402 109.586Z" fill="#2E4052"/>
<path d="M135.648 115.223C135.563 115.22 135.478 115.2 135.4 115.164C135.322 115.129 135.252 115.078 135.194 115.015C135.135 114.953 135.09 114.879 135.06 114.799C135.03 114.719 135.016 114.633 135.019 114.548C135.022 114.462 135.042 114.378 135.077 114.3C135.113 114.222 135.163 114.151 135.226 114.093C135.289 114.034 135.362 113.989 135.443 113.959C135.523 113.929 135.608 113.915 135.694 113.918C137.384 113.977 139.119 113.664 139.354 113.266C139.543 112.613 138.206 109.038 136.829 106.09C136.755 105.933 136.746 105.754 136.804 105.59C136.862 105.427 136.982 105.293 137.139 105.219C137.296 105.145 137.475 105.135 137.639 105.194C137.802 105.252 137.935 105.372 138.01 105.529C139.236 108.138 141.18 112.705 140.482 113.898C139.784 115.092 137.07 115.275 135.648 115.223Z" fill="#2E4052"/>
<path d="M120.95 118.92C123.209 118.899 125.029 117.688 125.015 116.214C125.002 114.741 123.159 113.563 120.9 113.584C118.642 113.605 116.821 114.817 116.835 116.29C116.849 117.764 118.691 118.941 120.95 118.92Z" fill="#3E92CC"/>
<path d="M150.914 117.893C153.173 117.872 154.993 116.661 154.98 115.187C154.966 113.714 153.124 112.536 150.865 112.557C148.606 112.578 146.786 113.789 146.799 115.263C146.813 116.736 148.655 117.914 150.914 117.893Z" fill="#3E92CC"/>
<path d="M106.071 112.659C105.958 112.659 105.847 112.63 105.748 112.574C105.65 112.518 105.568 112.437 105.51 112.34C104.205 110.115 103.905 108.289 104.649 106.925C105.111 106.139 105.833 105.539 106.691 105.229L103.207 103.553C103.124 103.52 103.048 103.47 102.985 103.407C102.921 103.344 102.872 103.268 102.839 103.185C102.806 103.101 102.791 103.012 102.794 102.922C102.797 102.833 102.819 102.745 102.857 102.664C102.896 102.583 102.951 102.511 103.018 102.453C103.086 102.394 103.165 102.35 103.251 102.323C103.336 102.296 103.426 102.287 103.515 102.297C103.604 102.306 103.69 102.334 103.768 102.378L108.935 104.864C109.066 104.927 109.172 105.032 109.236 105.162C109.301 105.292 109.32 105.44 109.291 105.583C109.262 105.725 109.186 105.854 109.075 105.948C108.965 106.042 108.826 106.097 108.68 106.103C108.68 106.103 106.515 106.221 105.797 107.551C105.295 108.471 105.582 109.9 106.632 111.681C106.689 111.78 106.719 111.892 106.72 112.006C106.72 112.12 106.69 112.232 106.633 112.331C106.576 112.43 106.495 112.513 106.396 112.57C106.297 112.628 106.185 112.659 106.071 112.659Z" fill="#2E4052"/>
<path d="M136.014 128.205C134.505 128.181 133.057 127.601 131.949 126.577C130.84 125.553 130.148 124.156 130.006 122.653C129.996 122.562 130.007 122.47 130.035 122.383C130.064 122.297 130.11 122.217 130.172 122.149C130.233 122.081 130.309 122.027 130.392 121.991C130.476 121.954 130.566 121.935 130.658 121.936L141.389 122.288C141.482 122.291 141.573 122.314 141.657 122.356C141.74 122.397 141.814 122.456 141.872 122.529C141.931 122.601 141.974 122.685 141.997 122.775C142.021 122.865 142.025 122.959 142.009 123.051C141.767 124.474 141.036 125.768 139.941 126.709C138.846 127.65 137.457 128.179 136.014 128.205ZM131.447 123.266C131.679 124.284 132.242 125.197 133.048 125.861C133.854 126.525 134.857 126.904 135.9 126.937C136.944 126.971 137.969 126.658 138.816 126.046C139.663 125.435 140.283 124.561 140.58 123.56L131.447 123.266Z" fill="#2E4052"/>
<path d="M131.265 139.516C122.784 139.516 117.565 135.824 117.357 135.661C117.287 135.61 117.228 135.546 117.183 135.473C117.138 135.4 117.109 135.319 117.095 135.234C117.082 135.149 117.085 135.062 117.106 134.979C117.126 134.895 117.162 134.817 117.213 134.747C117.315 134.609 117.467 134.516 117.637 134.489C117.807 134.462 117.98 134.503 118.12 134.604C118.179 134.643 123.75 138.563 132.53 138.179C132.703 138.171 132.872 138.232 133 138.349C133.128 138.466 133.204 138.629 133.212 138.802C133.22 138.975 133.158 139.144 133.042 139.271C132.925 139.399 132.762 139.475 132.589 139.483C132.139 139.503 131.695 139.516 131.265 139.516Z" fill="#2E4052"/>
<path d="M153.829 73.3881C153.71 73.3889 153.593 73.3572 153.491 73.2962C153.388 73.2353 153.305 73.1475 153.249 73.0423C152.584 71.7238 151.581 70.6058 150.342 69.8033C149.102 69.0008 147.672 68.5427 146.197 68.4759C144.644 68.3395 143.079 68.4719 141.572 68.8673C141.406 68.9166 141.227 68.8979 141.074 68.8154C140.922 68.7328 140.809 68.5931 140.759 68.427C140.71 68.2609 140.729 68.082 140.811 67.9297C140.894 67.7774 141.034 67.6641 141.2 67.6148C141.291 67.6148 150.489 64.9272 154.41 72.4422C154.46 72.5415 154.484 72.6519 154.479 72.763C154.474 72.8741 154.441 72.9822 154.383 73.077C154.325 73.1717 154.244 73.2501 154.147 73.3045C154.05 73.359 153.94 73.3877 153.829 73.3881Z" fill="white"/>
<path d="M130.658 68.8869C130.549 68.8866 130.442 68.8592 130.347 68.8071C130.251 68.7549 130.17 68.6797 130.111 68.5883C130.052 68.4969 130.017 68.3921 130.009 68.2836C130.001 68.1751 130.02 68.0663 130.064 67.9671C131.047 66.0381 132.427 64.3392 134.114 62.9821C135.8 61.625 137.755 60.6404 139.849 60.0933C139.933 60.0706 140.019 60.0647 140.105 60.0757C140.19 60.0868 140.273 60.1146 140.347 60.1577C140.422 60.2007 140.487 60.2582 140.539 60.3266C140.592 60.395 140.63 60.4732 140.652 60.5564C140.696 60.7234 140.671 60.9009 140.585 61.05C140.498 61.1992 140.355 61.3079 140.189 61.3523C138.288 61.869 136.514 62.7732 134.98 64.0081C133.445 65.243 132.183 66.7819 131.271 68.5281C131.215 68.6408 131.127 68.7346 131.018 68.7983C130.909 68.862 130.784 68.8927 130.658 68.8869Z" fill="white"/>
<path d="M100.715 93.4474C100.7 93.3631 100.702 93.2765 100.72 93.1928C100.739 93.1091 100.774 93.0299 100.823 92.9596C100.872 92.8893 100.934 92.8294 101.006 92.7833C101.079 92.7371 101.159 92.7057 101.244 92.6907C115.067 90.1922 119.014 76.1603 119.053 76.0168C119.102 75.8551 119.213 75.719 119.361 75.6371C119.509 75.5553 119.683 75.5341 119.846 75.5781C120.009 75.6221 120.149 75.7278 120.236 75.873C120.323 76.0181 120.35 76.1913 120.312 76.356C120.273 76.5061 116.104 91.3599 101.472 93.9693C101.303 93.9998 101.128 93.9621 100.986 93.8643C100.844 93.7665 100.747 93.6167 100.715 93.4474Z" fill="white"/>
<path d="M95.3466 91.2361C95.3403 91.1503 95.3511 91.0642 95.3783 90.9827C95.4055 90.9012 95.4485 90.8258 95.5048 90.761C95.5612 90.6961 95.6298 90.643 95.7068 90.6048C95.7837 90.5665 95.8675 90.5438 95.9532 90.538C103.951 89.9575 109.92 81.1182 109.979 81.0334C110.026 80.9617 110.087 80.9 110.158 80.852C110.23 80.804 110.31 80.7705 110.394 80.7536C110.478 80.7366 110.565 80.7364 110.649 80.7531C110.734 80.7698 110.814 80.803 110.885 80.8507C111.027 80.9474 111.125 81.0961 111.158 81.2647C111.191 81.4332 111.157 81.6079 111.062 81.751C110.807 82.1424 104.688 91.21 96.0576 91.8427C95.9709 91.8508 95.8834 91.8413 95.8003 91.815C95.7173 91.7887 95.6403 91.746 95.5741 91.6894C95.5078 91.6329 95.4535 91.5636 95.4144 91.4858C95.3754 91.4079 95.3523 91.323 95.3466 91.2361Z" fill="white"/>
<path d="M103.488 128.204C103.398 128.203 103.31 128.185 103.227 128.152C92.548 123.527 91.8304 110.363 91.8239 110.226C91.8239 110.053 91.8926 109.887 92.0149 109.764C92.1373 109.642 92.3032 109.573 92.4762 109.573C92.6492 109.573 92.8151 109.642 92.9375 109.764C93.0598 109.887 93.1285 110.053 93.1285 110.226C93.1285 110.35 93.8265 122.718 103.749 127.01C103.86 127.082 103.947 127.187 103.998 127.31C104.049 127.433 104.061 127.568 104.032 127.698C104.004 127.828 103.937 127.946 103.839 128.036C103.742 128.127 103.619 128.185 103.488 128.204Z" fill="white"/>
<path d="M142.928 250.845C165.259 250.845 183.361 232.743 183.361 210.413C183.361 188.083 165.259 169.98 142.928 169.98C120.598 169.98 102.496 188.083 102.496 210.413C102.496 232.743 120.598 250.845 142.928 250.845Z" fill="white"/>
<path d="M142.896 251.504C134.984 251.501 127.242 249.215 120.598 244.92C113.954 240.625 108.691 234.503 105.44 227.29C102.19 220.077 101.091 212.079 102.275 204.257C103.458 196.435 106.875 189.12 112.114 183.192C117.353 177.263 124.191 172.973 131.809 170.836C139.426 168.699 147.499 168.806 155.057 171.145C162.615 173.483 169.337 177.953 174.417 184.019C179.497 190.084 182.718 197.486 183.693 205.338C184.412 211.119 183.893 216.987 182.171 222.553C180.449 228.119 177.563 233.255 173.705 237.621C169.847 241.986 165.105 245.482 159.794 247.876C154.482 250.269 148.722 251.506 142.896 251.504ZM143.007 170.613C134.923 170.592 127.025 173.034 120.363 177.613C113.702 182.192 108.592 188.691 105.716 196.246C102.839 203.801 102.332 212.052 104.261 219.902C106.19 227.752 110.464 234.829 116.514 240.19C122.565 245.551 130.104 248.942 138.13 249.912C146.155 250.882 154.285 249.384 161.438 245.619C168.592 241.854 174.429 236 178.172 228.835C181.916 221.671 183.389 213.536 182.395 205.514C181.2 195.902 176.539 187.056 169.288 180.635C162.037 174.213 152.693 170.657 143.007 170.633V170.613Z" fill="#2E4052"/>
<path d="M136.418 251.765C158.748 251.765 176.85 233.663 176.85 211.333C176.85 189.003 158.748 170.9 136.418 170.9C114.088 170.9 95.9858 189.003 95.9858 211.333C95.9858 233.663 114.088 251.765 136.418 251.765Z" fill="white"/>
<path d="M136.34 252.417C128.431 252.404 120.693 250.11 114.056 245.808C107.418 241.507 102.163 235.382 98.9204 228.168C95.678 220.954 94.586 212.957 95.7757 205.138C96.9653 197.319 100.386 190.009 105.627 184.085C110.868 178.162 117.708 173.877 125.324 171.744C132.94 169.611 141.01 169.722 148.565 172.062C156.12 174.402 162.84 178.872 167.917 184.937C172.995 191.001 176.214 198.402 177.19 206.251C177.909 212.037 177.389 217.909 175.663 223.479C173.938 229.048 171.048 234.187 167.184 238.553C163.321 242.92 158.572 246.414 153.254 248.805C147.936 251.195 142.17 252.426 136.34 252.417ZM136.451 171.526C128.368 171.518 120.475 173.972 113.821 178.561C107.167 183.149 102.068 189.655 99.2031 197.213C96.3378 204.771 95.842 213.022 97.7816 220.868C99.7212 228.715 104.004 235.785 110.061 241.137C116.117 246.489 123.66 249.87 131.685 250.831C139.711 251.791 147.838 250.284 154.986 246.511C162.134 242.738 167.964 236.878 171.7 229.711C175.435 222.543 176.9 214.408 175.898 206.388C174.68 196.777 170.003 187.94 162.741 181.529C155.48 175.117 146.131 171.571 136.444 171.552L136.451 171.526Z" fill="#2E4052"/>
<path d="M136.601 235.124C130.671 235.861 125.354 234.758 123.684 232.443C122.23 230.414 122.843 226.624 124.376 225.482C125.028 225.012 125.681 225.136 127.735 225.482C131.473 226.134 142.452 227.785 144.122 224.406C144.425 223.696 144.55 222.924 144.488 222.155C143.509 214.327 134.383 215.632 126.659 213.577C119.679 211.744 115.706 195.266 125.433 189.858C131.669 186.387 139.132 188.37 145.133 192.252C145.473 192.474 145.738 192.793 145.896 193.167C146.054 193.541 146.098 193.954 146.021 194.352C145.368 197.784 143.594 198.919 139.615 197.36C135.961 195.905 130.319 196.616 129.138 200.067C128.486 201.926 129.647 203.942 129.882 204.327C133.626 210.426 143.137 206.16 148.982 210.889C153.144 214.255 154.201 220.857 152.818 225.052C150.757 231.249 142.792 234.354 136.601 235.124Z" fill="#2E4052"/>
<path d="M134.697 182.767L131.098 183.215C130.533 183.286 130.132 183.801 130.203 184.366L137.005 238.975C137.075 239.54 137.59 239.941 138.155 239.871L141.754 239.422C142.319 239.352 142.72 238.837 142.65 238.272L135.848 183.662C135.777 183.098 135.262 182.697 134.697 182.767Z" fill="#2E4052"/>
<path d="M136.34 245.392C129.786 245.379 123.375 243.476 117.876 239.91C112.377 236.345 108.023 231.268 105.337 225.29C102.652 219.312 101.748 212.685 102.734 206.206C103.721 199.727 106.556 193.67 110.899 188.762C115.242 183.854 120.91 180.303 127.221 178.536C133.532 176.768 140.219 176.859 146.479 178.798C152.74 180.737 158.308 184.44 162.516 189.465C166.724 194.489 169.393 200.621 170.203 207.125C170.794 211.92 170.359 216.786 168.926 221.401C167.494 226.015 165.098 230.272 161.896 233.891C158.694 237.509 154.76 240.405 150.354 242.388C145.948 244.371 141.171 245.395 136.34 245.392ZM136.431 178.579C129.781 178.575 123.287 180.597 117.814 184.374C112.34 188.151 108.147 193.506 105.791 199.725C103.435 205.944 103.028 212.733 104.625 219.189C106.221 225.645 109.746 231.461 114.729 235.865C119.712 240.269 125.919 243.051 132.522 243.842C139.125 244.632 145.812 243.394 151.694 240.291C157.576 237.188 162.374 232.367 165.45 226.471C168.525 220.574 169.733 213.881 168.911 207.282C167.918 199.365 164.072 192.083 158.094 186.799C152.116 181.515 144.416 178.593 136.438 178.579H136.431Z" fill="#2E4052"/>
<path d="M171.684 238.836C171.169 235.867 164.28 241.856 164.28 241.856C164.28 241.856 168.416 235.287 166.119 235.332C163.823 235.378 154.788 241.856 154.788 241.856C154.788 241.856 158.617 236.057 156.015 235.332C153.412 234.608 150.411 241.106 142.635 242.893C134.859 244.681 130.893 243.989 131.056 241.836C131.219 239.684 138.101 237.074 137.951 234.321C137.801 231.568 132.243 234.621 126.163 237.537C120.083 240.453 103.012 235.619 103.012 235.619C103.012 235.619 103.305 235.73 77.6289 226.102L93.2461 178.337C93.2461 178.337 110.859 157.821 106.489 145.42C99.1106 146.64 86.5334 149.869 75.4827 159.7C66.8196 167.404 62.8534 176.595 55.2601 194.665C45.4358 218.098 40.5236 229.82 43.6288 237.205C50.1914 252.822 76.1547 256.051 96.2925 258.562C107.826 259.989 119.483 260.107 131.043 258.915C131.043 258.915 142.837 258.354 150.952 254.838C159.068 251.321 172.219 241.804 171.684 238.836Z" fill="white"/>
<path d="M96.2272 259.228C75.5153 256.651 49.7477 253.441 43.0546 237.478C39.8451 229.846 44.8094 218.013 54.6925 194.424C62.0574 176.856 66.115 167.182 75.0717 159.197C83.4217 151.767 94.2571 146.803 106.384 144.761C106.536 144.735 106.692 144.765 106.825 144.844C106.958 144.922 107.058 145.046 107.108 145.191C111.433 157.488 95.3139 176.895 93.8331 178.65L78.4443 225.736L103.233 235.039C103.351 235.039 120.077 239.742 125.87 236.996C131.662 234.249 135.988 231.836 137.801 232.906C138.046 233.054 138.247 233.264 138.386 233.515C138.524 233.766 138.595 234.048 138.59 234.334C138.695 236.187 136.594 237.72 134.559 239.201C133.306 240.114 131.747 241.249 131.702 241.934C131.692 242.058 131.713 242.183 131.763 242.296C131.813 242.41 131.89 242.51 131.989 242.586C132.445 242.978 134.546 244.106 142.485 242.286C150.241 240.499 153.014 233.865 156.184 234.726C156.467 234.792 156.728 234.928 156.945 235.12C157.163 235.313 157.329 235.556 157.43 235.828C157.821 236.865 157.339 238.437 156.726 239.742C159.642 237.785 164.371 234.771 166.1 234.726C166.333 234.703 166.568 234.749 166.776 234.856C166.984 234.964 167.157 235.129 167.274 235.332C167.75 236.161 167.189 237.805 166.445 239.351C168.135 238.17 170.157 237.061 171.338 237.485C171.604 237.583 171.837 237.754 172.011 237.977C172.185 238.201 172.293 238.469 172.323 238.751C172.975 242.534 158.572 252.293 151.22 255.477C143.092 259.006 131.578 259.586 131.088 259.613C119.491 260.8 107.796 260.67 96.2272 259.228ZM106.012 146.176C94.1788 148.231 84.0479 152.948 75.8936 160.202C67.511 167.658 63.6948 176.236 55.8536 194.939C46.1076 218.176 41.215 229.833 44.2158 236.97C50.6349 252.241 75.985 255.392 96.3577 257.929C107.859 259.349 119.483 259.467 131.01 258.282C131.473 258.282 142.889 257.629 150.678 254.257C155.442 252.031 159.953 249.301 164.136 246.116C169.812 241.83 171.116 239.553 171.012 238.94C170.973 238.718 170.908 238.692 170.875 238.679C170.046 238.372 167 240.329 164.684 242.338C164.566 242.441 164.415 242.497 164.258 242.498C164.102 242.498 163.95 242.442 163.832 242.34C163.713 242.238 163.635 242.097 163.612 241.942C163.589 241.787 163.622 241.629 163.706 241.497C165.186 239.142 166.315 236.624 166.132 235.998C164.338 235.998 156.621 241.327 155.14 242.378C155.016 242.462 154.867 242.502 154.717 242.49C154.568 242.477 154.427 242.413 154.319 242.309C154.211 242.205 154.142 242.066 154.124 241.917C154.106 241.768 154.14 241.617 154.221 241.49C155.258 239.912 156.556 237.257 156.178 236.272C156.149 236.194 156.1 236.125 156.035 236.072C155.971 236.02 155.894 235.985 155.812 235.972C153.797 235.437 150.476 241.764 142.765 243.539C138.564 244.504 133.143 245.294 131.128 243.539C130.869 243.327 130.666 243.055 130.537 242.747C130.407 242.439 130.355 242.104 130.384 241.771C130.482 240.466 132.008 239.37 133.776 238.079C135.368 236.924 137.344 235.469 137.279 234.341C137.279 234.047 137.168 233.988 137.123 233.962C135.916 233.251 129.503 236.637 126.424 238.111C120.188 241.092 103.52 236.435 102.816 236.239L77.3744 226.702C77.2165 226.643 77.0874 226.525 77.0145 226.373C76.9415 226.221 76.9302 226.047 76.983 225.886C93.6178 175.108 92.6328 178.115 92.7502 177.933C92.8676 177.75 109.594 158.14 106.038 146.15L106.012 146.176Z" fill="#2E4052"/>
<path d="M107.408 144.624C107.408 144.624 88.6535 144.468 74.8695 158.402C61.0855 172.336 51.6526 202.441 51.6526 202.441L83.8523 215.299L104.075 177.939L112.086 153.111L107.408 144.624Z" fill="#3E92CC"/>
<path d="M81.8626 213.818C81.755 213.818 81.649 213.791 81.5542 213.74C81.4593 213.689 81.3786 213.615 81.3192 213.526C81.2597 213.436 81.2235 213.333 81.2136 213.225C81.2037 213.118 81.2205 213.01 81.2625 212.911L95.3792 179.707C95.4126 179.627 95.4615 179.555 95.523 179.495C95.5845 179.434 95.6574 179.386 95.7375 179.354C95.8176 179.322 95.9033 179.306 95.9896 179.307C96.0759 179.308 96.1611 179.327 96.2403 179.361C96.3982 179.43 96.5225 179.558 96.586 179.718C96.6496 179.879 96.6472 180.057 96.5795 180.216L82.4628 213.42C82.4128 213.538 82.3293 213.638 82.2226 213.709C82.1159 213.78 81.9907 213.818 81.8626 213.818Z" fill="white"/>
<path d="M56.8061 231.471C56.6718 231.471 56.5406 231.43 56.4306 231.353C56.3206 231.275 56.237 231.166 56.1913 231.04C56.1457 230.914 56.1401 230.776 56.1754 230.647C56.2107 230.517 56.2852 230.402 56.3886 230.316C56.7278 230.029 64.8691 223.362 77.7333 225.482C77.9023 225.511 78.0531 225.605 78.1532 225.744C78.2533 225.883 78.2946 226.056 78.2682 226.226C78.2409 226.396 78.1474 226.548 78.008 226.65C77.8687 226.751 77.6949 226.793 77.5245 226.767C65.2474 224.751 57.3019 231.255 57.2236 231.334C57.1045 231.426 56.9569 231.475 56.8061 231.471Z" fill="#2E4052"/>
<path d="M144.364 248.255C148.213 247.237 154.279 241.438 154.338 241.386C154.46 241.264 154.626 241.196 154.798 241.196C154.97 241.196 155.136 241.264 155.258 241.386C155.319 241.447 155.368 241.519 155.401 241.598C155.434 241.678 155.451 241.763 155.451 241.849C155.451 241.935 155.434 242.021 155.401 242.1C155.368 242.18 155.319 242.252 155.258 242.312C154.997 242.56 148.884 248.399 144.709 249.488C144.559 249.5 144.408 249.46 144.284 249.373C144.16 249.287 144.07 249.16 144.029 249.014C143.988 248.868 143.999 248.713 144.06 248.575C144.121 248.436 144.229 248.323 144.364 248.255Z" fill="#2E4052"/>
<path d="M146.823 252.026C153.705 249.371 160.3 245.353 165.167 239.768C165.282 239.644 165.441 239.569 165.61 239.56C165.779 239.55 165.946 239.607 166.074 239.718C166.202 239.829 166.282 239.986 166.296 240.155C166.311 240.324 166.259 240.492 166.152 240.623C161.129 246.377 154.41 250.506 147.293 253.246C147.131 253.308 146.951 253.304 146.793 253.233C146.634 253.163 146.51 253.033 146.448 252.871C146.386 252.709 146.39 252.529 146.461 252.371C146.531 252.212 146.661 252.088 146.823 252.026Z" fill="#2E4052"/>
<path d="M185.761 229.787C185.588 229.787 185.423 229.718 185.3 229.596C185.178 229.474 185.109 229.308 185.109 229.135C185.109 228.483 185.696 213.4 191.469 206.146C191.522 206.076 191.588 206.018 191.664 205.974C191.739 205.93 191.823 205.902 191.909 205.891C191.996 205.88 192.084 205.887 192.168 205.91C192.252 205.934 192.331 205.974 192.399 206.029C192.467 206.084 192.524 206.151 192.565 206.228C192.607 206.305 192.632 206.39 192.64 206.477C192.649 206.564 192.639 206.651 192.613 206.735C192.587 206.818 192.544 206.895 192.487 206.962C186.988 213.877 186.42 229.03 186.414 229.181C186.402 229.346 186.328 229.5 186.207 229.613C186.086 229.725 185.927 229.788 185.761 229.787Z" fill="#2E4052"/>
<path d="M237.525 159.693C236.331 159.693 234.915 159.517 234.746 158.336C234.348 155.668 241.654 153.202 243.879 152.511C243.961 152.483 244.049 152.471 244.136 152.477C244.223 152.483 244.308 152.507 244.386 152.546C244.464 152.586 244.533 152.641 244.589 152.708C244.646 152.774 244.688 152.852 244.714 152.935C244.739 153.019 244.748 153.107 244.739 153.194C244.731 153.28 244.704 153.365 244.662 153.441C244.62 153.518 244.564 153.585 244.495 153.64C244.426 153.694 244.348 153.734 244.264 153.757C239.697 155.153 235.874 157.201 236.018 158.141C236.488 158.871 241.732 158.141 247.023 156.568C247.189 156.52 247.368 156.54 247.519 156.623C247.671 156.706 247.783 156.846 247.832 157.012C247.88 157.178 247.861 157.357 247.778 157.508C247.694 157.66 247.554 157.773 247.388 157.821C246.129 158.199 240.806 159.693 237.525 159.693Z" fill="#2E4052"/>
<path d="M238.105 163.392C236.148 161.859 237.453 159.739 239.573 158.493C239.647 158.446 239.731 158.414 239.817 158.4C239.904 158.385 239.993 158.389 240.078 158.41C240.164 158.431 240.244 158.469 240.315 158.522C240.385 158.574 240.444 158.641 240.488 158.717C240.532 158.793 240.56 158.877 240.571 158.965C240.581 159.052 240.574 159.141 240.55 159.225C240.525 159.31 240.484 159.388 240.428 159.456C240.372 159.525 240.304 159.581 240.226 159.621C239.665 159.948 238.497 160.854 238.445 161.579C238.445 161.676 238.412 161.97 238.908 162.361C240.213 163.405 246.051 161.918 249.763 160.522C249.925 160.461 250.106 160.468 250.263 160.54C250.421 160.612 250.544 160.744 250.604 160.907C250.665 161.069 250.658 161.249 250.586 161.407C250.514 161.565 250.382 161.688 250.219 161.748C247.604 162.74 240.336 165.14 238.105 163.392Z" fill="#2E4052"/>
<path d="M240.239 166.908C238.934 165.74 239.586 163.986 240.891 162.844C241.022 162.737 241.19 162.685 241.359 162.7C241.528 162.714 241.685 162.794 241.796 162.922C241.907 163.05 241.964 163.216 241.954 163.386C241.945 163.555 241.87 163.714 241.746 163.829C241.273 164.221 240.947 164.761 240.819 165.362C240.821 165.473 240.848 165.582 240.899 165.68C240.95 165.779 241.023 165.864 241.113 165.93C241.85 166.582 245.627 166.119 248.7 165.323C248.867 165.28 249.045 165.305 249.195 165.393C249.344 165.481 249.452 165.625 249.495 165.793C249.539 165.96 249.513 166.138 249.425 166.288C249.337 166.437 249.194 166.545 249.026 166.588C247.049 167.097 241.752 168.239 240.239 166.908Z" fill="#2E4052"/>
<path d="M236.997 156.705C236.895 156.709 236.795 156.688 236.703 156.646C236.611 156.603 236.53 156.54 236.466 156.461C236.403 156.382 236.359 156.289 236.338 156.19C236.317 156.091 236.319 155.988 236.344 155.89C236.722 154.376 236.804 152.803 236.586 151.258C236.573 151.174 236.576 151.087 236.597 151.004C236.618 150.92 236.654 150.842 236.705 150.773C236.756 150.704 236.82 150.645 236.894 150.601C236.967 150.557 237.049 150.527 237.134 150.515C237.305 150.491 237.479 150.535 237.617 150.639C237.755 150.743 237.846 150.898 237.871 151.069C238.118 152.783 238.029 154.529 237.61 156.21C237.576 156.348 237.497 156.471 237.386 156.561C237.276 156.65 237.139 156.701 236.997 156.705Z" fill="#2E4052"/>
<path d="M235.679 165.766C235.572 165.766 235.467 165.739 235.373 165.688C235.279 165.638 235.198 165.565 235.139 165.476C235.08 165.387 235.043 165.285 235.033 165.179C235.022 165.072 235.038 164.965 235.079 164.866C235.894 162.909 236.011 159.073 236.018 159.034C236.018 158.861 236.087 158.695 236.209 158.573C236.331 158.451 236.497 158.382 236.67 158.382C236.843 158.382 237.009 158.451 237.132 158.573C237.254 158.695 237.323 158.861 237.323 159.034C237.323 159.204 237.192 163.118 236.285 165.323C236.242 165.45 236.161 165.561 236.052 165.641C235.944 165.72 235.813 165.764 235.679 165.766Z" fill="#2E4052"/>
<path d="M178.449 152.843C178.222 152.86 177.996 152.81 177.797 152.701C177.598 152.592 177.435 152.427 177.326 152.228C177.218 152.028 177.17 151.802 177.188 151.575C177.205 151.349 177.287 151.132 177.424 150.952L207.993 110.735C208.102 110.588 208.244 110.47 208.407 110.388C208.57 110.307 208.75 110.264 208.933 110.265C241.719 110.265 240.774 110.311 240.813 110.265L274.232 59.2843C274.339 59.1201 274.485 58.9852 274.657 58.8918C274.829 58.7983 275.022 58.7494 275.217 58.7494C275.713 58.7494 275.074 58.4232 284.755 64.7706C284.885 64.8556 284.996 64.9655 285.084 65.0939C285.171 65.2224 285.232 65.3667 285.264 65.5189C285.295 65.671 285.297 65.8278 285.267 65.9803C285.238 66.1329 285.179 66.2782 285.094 66.4079L248.165 122.738C248.058 122.902 247.912 123.037 247.74 123.13C247.568 123.224 247.375 123.273 247.18 123.273C214.223 123.273 214.83 123.227 214.778 123.273L192.657 152.38C192.546 152.525 192.404 152.641 192.241 152.722C192.078 152.802 191.899 152.844 191.717 152.843H178.449Z" fill="#2E4052"/>
<path d="M278.596 217.68C278.29 212.857 276.237 208.312 272.823 204.893C269.408 201.474 264.866 199.415 260.044 199.101L258.739 218.945L278.596 217.68Z" fill="white"/>
<path d="M258.752 219.598C258.662 219.598 258.574 219.58 258.491 219.544C258.409 219.509 258.335 219.457 258.274 219.391C258.213 219.326 258.166 219.248 258.136 219.164C258.106 219.079 258.093 218.989 258.1 218.9L259.404 199.062C259.409 198.976 259.431 198.893 259.469 198.815C259.506 198.738 259.559 198.669 259.623 198.612C259.687 198.555 259.762 198.511 259.843 198.483C259.924 198.455 260.01 198.444 260.096 198.449C265.074 198.777 269.764 200.904 273.29 204.434C276.816 207.964 278.939 212.656 279.262 217.634C279.268 217.721 279.257 217.807 279.229 217.889C279.202 217.971 279.158 218.047 279.101 218.112C279.044 218.177 278.975 218.23 278.897 218.268C278.819 218.305 278.735 218.327 278.649 218.332C255.595 219.8 259.163 219.598 258.752 219.598ZM260.65 199.806L259.45 218.248L277.898 217.067C277.461 212.64 275.503 208.501 272.359 205.354C269.214 202.208 265.077 200.247 260.65 199.806Z" fill="#2E4052"/>
<path d="M258.204 200.047C254.481 199.808 250.762 200.576 247.437 202.269C244.113 203.962 241.305 206.519 239.309 209.671C237.312 212.823 236.201 216.454 236.091 220.183C235.982 223.912 236.878 227.603 238.685 230.867C240.492 234.13 243.145 236.848 246.364 238.734C249.584 240.619 253.251 241.604 256.982 241.585C260.713 241.565 264.37 240.542 267.569 238.622C270.768 236.702 273.392 233.957 275.165 230.675L256.867 220.792L258.204 200.047Z" fill="#3E92CC"/>
<path d="M279.02 218.945L258.276 220.25L276.594 230.146C278.445 226.717 279.287 222.833 279.02 218.945Z" fill="#2E4052"/>
<path d="M264.995 60.8889L286.601 74.5881C286.704 74.6542 286.823 74.6922 286.945 74.6984C287.067 74.7045 287.189 74.6787 287.299 74.6234C287.408 74.568 287.501 74.4851 287.569 74.3828C287.636 74.2806 287.676 74.1624 287.684 74.0401C288.332 65.6249 288.984 57.2053 289.641 48.7814C289.65 48.6571 289.626 48.5326 289.571 48.4205C289.517 48.3084 289.434 48.2125 289.331 48.1425C289.228 48.0724 289.108 48.0307 288.984 48.0215C288.86 48.0123 288.735 48.0359 288.623 48.0899L265.073 59.6364C264.954 59.6881 264.852 59.7717 264.777 59.878C264.703 59.9843 264.659 60.1091 264.651 60.2387C264.643 60.3683 264.671 60.4975 264.731 60.6123C264.792 60.727 264.883 60.8228 264.995 60.8889Z" fill="#2E4052"/>
</g>
<defs>
<clipPath id="clip0_137_12572">
<rect width="334" height="334" fill="white" transform="translate(0 0.0253906)"/>
</clipPath>
</defs>
</svg>
